<svg width="40" height="41" viewBox="0 0 40 41" fill="none" xmlns="http://www.w3.org/2000/svg">
<mask id="mask0_553_1330" style="mask-type:alpha" maskUnits="userSpaceOnUse" x="0" y="0" width="40" height="41">
<rect y="0.678711" width="40" height="40" fill="#D9D9D9"/>
</mask>
<g mask="url(#mask0_553_1330)">
<path d="M5.41699 34.9707V12.5537H12.208V5.80371H27.833V19.3457H34.583V34.9707H22.333V28.2207H17.667V34.9707H5.41699ZM7.49999 32.8867H12.208V28.2207H7.49999V32.8867ZM7.49999 26.0957H12.208V21.4287H7.49999V26.0957ZM7.49999 19.3457H12.208V14.6787H7.49999V19.3457ZM14.292 26.0957H18.958V21.4287H14.292V26.0957ZM14.292 19.3457H18.958V14.6787H14.292V19.3457ZM14.292 12.5537H18.958V7.88671H14.292V12.5537ZM21.042 26.0957H25.708V21.4287H21.042V26.0957ZM21.042 19.3457H25.708V14.6787H21.042V19.3457ZM21.042 12.5537H25.708V7.88671H21.042V12.5537ZM27.833 32.8867H32.5V28.2207H27.833V32.8867ZM27.833 26.0957H32.5V21.4287H27.833V26.0957Z" fill="#444CAE"/>
</g>
</svg>
