<svg width="30" height="32" viewBox="0 0 30 32" fill="none" xmlns="http://www.w3.org/2000/svg">
<path d="M2.792 31.5957C2.042 31.5957 1.389 31.3385 0.833 30.8242C0.277667 30.3105 0 29.7068 0 29.0131V5.88807C0 5.19432 0.277667 4.59708 0.833 4.09634C1.389 3.59499 2.042 3.34432 2.792 3.34432H5.125V0.761719H8.042V3.34432H21.958V0.761719H24.875V3.34432H27.208C27.958 3.34432 28.611 3.59499 29.167 4.09634C29.7223 4.59708 30 5.19432 30 5.88807V29.0131C30 29.7068 29.7223 30.3105 29.167 30.8242C28.611 31.3385 27.958 31.5957 27.208 31.5957H2.792ZM2.792 29.0131H27.208V12.8256H2.792V29.0131ZM2.792 10.2818H27.208V5.88807H2.792V10.2818ZM15 19.2617C14.528 19.2617 14.132 19.114 13.812 18.8186C13.4927 18.5233 13.333 18.1573 13.333 17.7207C13.333 17.2835 13.4927 16.9172 13.812 16.6218C14.132 16.3264 14.528 16.1787 15 16.1787C15.472 16.1787 15.868 16.3264 16.188 16.6218C16.5073 16.9172 16.667 17.2835 16.667 17.7207C16.667 18.1573 16.5073 18.5233 16.188 18.8186C15.868 19.114 15.472 19.2617 15 19.2617ZM8.333 19.2617C7.861 19.2617 7.46533 19.114 7.146 18.8186C6.82667 18.5233 6.667 18.1573 6.667 17.7207C6.667 17.2835 6.82667 16.9172 7.146 16.6218C7.46533 16.3264 7.861 16.1787 8.333 16.1787C8.80567 16.1787 9.20167 16.3264 9.521 16.6218C9.84033 16.9172 10 17.2835 10 17.7207C10 18.1573 9.84033 18.5233 9.521 18.8186C9.20167 19.114 8.80567 19.2617 8.333 19.2617ZM21.667 19.2617C21.1943 19.2617 20.7983 19.114 20.479 18.8186C20.1597 18.5233 20 18.1573 20 17.7207C20 17.2835 20.1597 16.9172 20.479 16.6218C20.7983 16.3264 21.1943 16.1787 21.667 16.1787C22.139 16.1787 22.5347 16.3264 22.854 16.6218C23.1733 16.9172 23.333 17.2835 23.333 17.7207C23.333 18.1573 23.1733 18.5233 22.854 18.8186C22.5347 19.114 22.139 19.2617 21.667 19.2617ZM15 25.4287C14.528 25.4287 14.132 25.281 13.812 24.9856C13.4927 24.6902 13.333 24.3239 13.333 23.8867C13.333 23.4501 13.4927 23.0841 13.812 22.7887C14.132 22.4934 14.528 22.3457 15 22.3457C15.472 22.3457 15.868 22.4934 16.188 22.7887C16.5073 23.0841 16.667 23.4501 16.667 23.8867C16.667 24.3239 16.5073 24.6902 16.188 24.9856C15.868 25.281 15.472 25.4287 15 25.4287ZM8.333 25.4287C7.861 25.4287 7.46533 25.281 7.146 24.9856C6.82667 24.6902 6.667 24.3239 6.667 23.8867C6.667 23.4501 6.82667 23.0841 7.146 22.7887C7.46533 22.4934 7.861 22.3457 8.333 22.3457C8.80567 22.3457 9.20167 22.4934 9.521 22.7887C9.84033 23.0841 10 23.4501 10 23.8867C10 24.3239 9.84033 24.6902 9.521 24.9856C9.20167 25.281 8.80567 25.4287 8.333 25.4287ZM21.667 25.4287C21.1943 25.4287 20.7983 25.281 20.479 24.9856C20.1597 24.6902 20 24.3239 20 23.8867C20 23.4501 20.1597 23.0841 20.479 22.7887C20.7983 22.4934 21.1943 22.3457 21.667 22.3457C22.139 22.3457 22.5347 22.4934 22.854 22.7887C23.1733 23.0841 23.333 23.4501 23.333 23.8867C23.333 24.3239 23.1733 24.6902 22.854 24.9856C22.5347 25.281 22.139 25.4287 21.667 25.4287Z" fill="#FFCC3F"/>
</svg>
