<svg width="34" height="25" viewBox="0 0 34 25" fill="none" xmlns="http://www.w3.org/2000/svg">
<path d="M19.5 14.2617C18.3333 14.2617 17.3473 13.8591 16.542 13.0537C15.736 12.2484 15.333 11.2624 15.333 10.0957C15.333 8.92905 15.736 7.94272 16.542 7.13672C17.3473 6.33139 18.3333 5.92872 19.5 5.92872C20.6667 5.92872 21.6527 6.33139 22.458 7.13672C23.264 7.94272 23.667 8.92905 23.667 10.0957C23.667 11.2624 23.264 12.2484 22.458 13.0537C21.6527 13.8591 20.6667 14.2617 19.5 14.2617ZM7.70801 19.8457C6.98601 19.8457 6.36801 19.5887 5.85401 19.0747C5.34001 18.5607 5.08301 17.9427 5.08301 17.2207V2.97072C5.08301 2.27605 5.34001 1.67172 5.85401 1.15772C6.36801 0.643719 6.98601 0.386719 7.70801 0.386719H31.333C32.0277 0.386719 32.632 0.643719 33.146 1.15772C33.66 1.67172 33.917 2.27605 33.917 2.97072V17.2207C33.917 17.9427 33.66 18.5607 33.146 19.0747C32.632 19.5887 32.0277 19.8457 31.333 19.8457H7.70801ZM10.625 17.7617H28.417C28.417 16.7897 28.7503 15.9704 29.417 15.3037C30.0837 14.6371 30.889 14.3037 31.833 14.3037V5.88672C30.889 5.88672 30.0837 5.55339 29.417 4.88672C28.7503 4.22005 28.417 3.41472 28.417 2.47072H10.625C10.625 3.41472 10.2917 4.22005 9.62501 4.88672C8.95834 5.55339 8.15267 5.88672 7.20801 5.88672V14.3037C8.15267 14.3037 8.95834 14.6441 9.62501 15.3247C10.2917 16.0054 10.625 16.8177 10.625 17.7617ZM28.958 24.8457H2.66701C1.97234 24.8457 1.36801 24.5887 0.854008 24.0747C0.340008 23.5607 0.0830078 22.9564 0.0830078 22.2617V5.34572H2.16701V22.2617C2.16701 22.3731 2.22234 22.4844 2.33301 22.5957C2.44434 22.7064 2.55567 22.7617 2.66701 22.7617H28.958V24.8457ZM7.70801 17.7617H7.20801V2.47072H7.70801C7.56934 2.47072 7.45134 2.51938 7.35401 2.61672C7.25667 2.71338 7.20801 2.83139 7.20801 2.97072V17.2207C7.20801 17.3594 7.25667 17.4844 7.35401 17.5957C7.45134 17.7064 7.56934 17.7617 7.70801 17.7617Z" fill="#FFCC3F"/>
</svg>
