<svg width="14" height="14" viewBox="0 0 14 14" fill="none" xmlns="http://www.w3.org/2000/svg">
<path d="M7 6.375C6.16667 6.375 5.45833 6.08333 4.875 5.5C4.29167 4.91667 4 4.20833 4 3.375C4 2.55833 4.29167 1.854 4.875 1.262C5.45833 0.670667 6.16667 0.375 7 0.375C7.83333 0.375 8.54167 0.670667 9.125 1.262C9.70833 1.854 10 2.55833 10 3.375C10 4.20833 9.70833 4.91667 9.125 5.5C8.54167 6.08333 7.83333 6.375 7 6.375ZM0 13.625V11.975C0 11.5583 0.121 11.1707 0.363 10.812C0.604333 10.454 0.925 10.175 1.325 9.975C2.275 9.525 3.221 9.18733 4.163 8.962C5.10433 8.73733 6.05 8.625 7 8.625C7.95 8.625 8.896 8.73733 9.838 8.962C10.7793 9.18733 11.725 9.525 12.675 9.975C13.075 10.175 13.396 10.454 13.638 10.812C13.8793 11.1707 14 11.5583 14 11.975V13.625H0ZM1 12.625H13V11.975C13 11.7417 12.9293 11.529 12.788 11.337C12.646 11.1457 12.45 10.9833 12.2 10.85C11.3667 10.45 10.5127 10.146 9.638 9.938C8.76267 9.72933 7.88333 9.625 7 9.625C6.11667 9.625 5.23767 9.72933 4.363 9.938C3.48767 10.146 2.63333 10.45 1.8 10.85C1.55 10.9833 1.35433 11.1457 1.213 11.337C1.071 11.529 1 11.7417 1 11.975V12.625ZM7 5.375C7.55 5.375 8.021 5.179 8.413 4.787C8.80433 4.39567 9 3.925 9 3.375C9 2.825 8.80433 2.35433 8.413 1.963C8.021 1.571 7.55 1.375 7 1.375C6.45 1.375 5.97933 1.571 5.588 1.963C5.196 2.35433 5 2.825 5 3.375C5 3.925 5.196 4.39567 5.588 4.787C5.97933 5.179 6.45 5.375 7 5.375Z" fill="#FF4F9C"/>
</svg>
