<svg width="24" height="24" viewBox="0 0 24 24" fill="none" xmlns="http://www.w3.org/2000/svg">
<mask id="mask0_653_10306" style="mask-type:alpha" maskUnits="userSpaceOnUse" x="0" y="0" width="24" height="24">
<rect width="24" height="24" fill="#D9D9D9"/>
</mask>
<g mask="url(#mask0_653_10306)">
<path d="M12 11.375C11.1667 11.375 10.4583 11.0833 9.875 10.5C9.29167 9.91667 9 9.20833 9 8.375C9 7.55833 9.29167 6.854 9.875 6.262C10.4583 5.67067 11.1667 5.375 12 5.375C12.8333 5.375 13.5417 5.67067 14.125 6.262C14.7083 6.854 15 7.55833 15 8.375C15 9.20833 14.7083 9.91667 14.125 10.5C13.5417 11.0833 12.8333 11.375 12 11.375ZM5 18.625V16.975C5 16.5583 5.121 16.1707 5.363 15.812C5.60433 15.454 5.925 15.175 6.325 14.975C7.275 14.525 8.221 14.1873 9.163 13.962C10.1043 13.7373 11.05 13.625 12 13.625C12.95 13.625 13.896 13.7373 14.838 13.962C15.7793 14.1873 16.725 14.525 17.675 14.975C18.075 15.175 18.396 15.454 18.638 15.812C18.8793 16.1707 19 16.5583 19 16.975V18.625H5ZM6 17.625H18V16.975C18 16.7417 17.9293 16.529 17.788 16.337C17.646 16.1457 17.45 15.9833 17.2 15.85C16.3667 15.45 15.5127 15.146 14.638 14.938C13.7627 14.7293 12.8833 14.625 12 14.625C11.1167 14.625 10.2377 14.7293 9.363 14.938C8.48767 15.146 7.63333 15.45 6.8 15.85C6.55 15.9833 6.35433 16.1457 6.213 16.337C6.071 16.529 6 16.7417 6 16.975V17.625ZM12 10.375C12.55 10.375 13.021 10.179 13.413 9.787C13.8043 9.39567 14 8.925 14 8.375C14 7.825 13.8043 7.35433 13.413 6.963C13.021 6.571 12.55 6.375 12 6.375C11.45 6.375 10.9793 6.571 10.588 6.963C10.196 7.35433 10 7.825 10 8.375C10 8.925 10.196 9.39567 10.588 9.787C10.9793 10.179 11.45 10.375 12 10.375Z" fill="#FF4F9C"/>
</g>
</svg>
