<svg width="40" height="41" viewBox="0 0 40 41" fill="none" xmlns="http://www.w3.org/2000/svg">
<mask id="mask0_553_1375" style="mask-type:alpha" maskUnits="userSpaceOnUse" x="0" y="0" width="40" height="41">
<rect y="0.678711" width="40" height="40" fill="#D9D9D9"/>
</mask>
<g mask="url(#mask0_553_1375)">
<path d="M9.62499 36.5117C8.56966 36.5117 7.66699 36.1367 6.91699 35.3867C6.16699 34.6367 5.79199 33.72 5.79199 32.6367V28.3867H10.917V5.17871L13.208 7.13671L15.542 5.17871L17.875 7.13671L20.208 5.17871L22.542 7.13671L24.917 5.17871L27.25 7.13671L29.583 5.17871L31.917 7.13671L34.208 5.17871V32.6367C34.208 33.72 33.833 34.6367 33.083 35.3867C32.333 36.1367 31.4303 36.5117 30.375 36.5117H9.62499ZM30.375 34.4287C30.875 34.4287 31.2917 34.262 31.625 33.9287C31.9583 33.5954 32.125 33.1647 32.125 32.6367V8.59571H13V28.3867H28.583V32.6367C28.583 33.1647 28.7497 33.5954 29.083 33.9287C29.4163 34.262 29.847 34.4287 30.375 34.4287ZM15.25 14.8037V12.7207H24.708V14.8037H15.25ZM15.25 20.0957V18.0117H24.708V20.0957H15.25ZM28.458 15.0537C28.0973 15.0537 27.792 14.9217 27.542 14.6577C27.292 14.3937 27.167 14.095 27.167 13.7617C27.167 13.4284 27.292 13.1367 27.542 12.8867C27.792 12.6367 28.0973 12.5117 28.458 12.5117C28.7913 12.5117 29.083 12.6367 29.333 12.8867C29.583 13.1367 29.708 13.4284 29.708 13.7617C29.708 14.095 29.583 14.3937 29.333 14.6577C29.083 14.9217 28.7913 15.0537 28.458 15.0537ZM28.458 20.2207C28.0973 20.2207 27.792 20.0957 27.542 19.8457C27.292 19.5957 27.167 19.304 27.167 18.9707C27.167 18.6094 27.292 18.3037 27.542 18.0537C27.792 17.8037 28.0973 17.6787 28.458 17.6787C28.7913 17.6787 29.083 17.8037 29.333 18.0537C29.583 18.3037 29.708 18.6094 29.708 18.9707C29.708 19.304 29.583 19.5957 29.333 19.8457C29.083 20.0957 28.7913 20.2207 28.458 20.2207ZM9.62499 34.4287H26.5V30.4707H7.87499V32.6367C7.87499 33.1647 8.04166 33.5954 8.37499 33.9287C8.70833 34.262 9.12499 34.4287 9.62499 34.4287Z" fill="#444CAE"/>
</g>
</svg>
