<svg width="35" height="35" viewBox="0 0 35 35" fill="none" xmlns="http://www.w3.org/2000/svg">
<path d="M17.2761 1.21265C13.0158 1.21265 8.93002 2.90505 5.91753 5.91753C2.90505 8.93002 1.21265 13.0158 1.21265 17.2761C1.21265 21.5364 2.90505 25.6223 5.91753 28.6347C8.93002 31.6472 13.0158 33.3396 17.2761 33.3396C21.5364 33.3396 25.6223 31.6472 28.6347 28.6347C31.6472 25.6223 33.3396 21.5364 33.3396 17.2761C33.3396 13.0158 31.6472 8.93002 28.6347 5.91753C25.6223 2.90505 21.5364 1.21265 17.2761 1.21265V1.21265Z" stroke="#525ECD" stroke-opacity="0.6" stroke-width="2" stroke-linecap="round" stroke-linejoin="round"/>
<path d="M17.2762 10.8508L10.8508 17.2762L17.2762 23.7016" stroke="#525ECD" stroke-opacity="0.6" stroke-width="2" stroke-linecap="round" stroke-linejoin="round"/>
<path d="M23.7016 17.2762H10.8508" stroke="#525ECD" stroke-opacity="0.6" stroke-width="2" stroke-linecap="round" stroke-linejoin="round"/>
</svg>
