<svg width="35" height="35" viewBox="0 0 35 35" fill="none" xmlns="http://www.w3.org/2000/svg">
<path d="M17.7236 1.21265C13.4633 1.21265 9.37753 2.90505 6.36504 5.91753C3.35255 8.93002 1.66016 13.0158 1.66016 17.2761C1.66016 21.5364 3.35255 25.6223 6.36504 28.6347C9.37753 31.6472 13.4633 33.3396 17.7236 33.3396C21.984 33.3396 26.0698 31.6472 29.0823 28.6347C32.0947 25.6223 33.7871 21.5364 33.7871 17.2761C33.7871 13.0158 32.0947 8.93002 29.0823 5.91753C26.0698 2.90505 21.984 1.21265 17.7236 1.21265V1.21265Z" stroke="#525ECD" stroke-opacity="0.6" stroke-width="2" stroke-linecap="round" stroke-linejoin="round"/>
<path d="M17.7236 23.7016L24.149 17.2762L17.7236 10.8508" stroke="#525ECD" stroke-opacity="0.6" stroke-width="2" stroke-linecap="round" stroke-linejoin="round"/>
<path d="M11.2983 17.2762H24.1491" stroke="#525ECD" stroke-opacity="0.6" stroke-width="2" stroke-linecap="round" stroke-linejoin="round"/>
</svg>
