<svg width="265" height="250" viewBox="0 0 265 250" fill="none" xmlns="http://www.w3.org/2000/svg">
<g clip-path="url(#clip0_810_189)">
<path d="M251.028 133.299L23.3558 1.84972C22.1917 1.04706 20.8559 0.527935 19.4552 0.333838C18.0546 0.139741 16.628 0.276065 15.2894 0.731901C14.6714 0.981739 14.0917 1.31735 13.5674 1.72887L6.4375 5.86782L9.76074 10.3089C9.76074 10.9131 9.76074 11.5475 9.76074 12.2122V282.905C9.76074 292.996 15.803 304.718 23.4767 309.099L246.829 438.071L249.669 447.134L259.427 441.666C259.919 441.446 260.385 441.173 260.817 440.85C262.252 439.501 263.361 437.841 264.057 435.998C264.753 434.155 265.019 432.177 264.835 430.216V159.522C264.744 149.462 258.611 137.68 251.028 133.299Z" fill="#D6D8E5"/>
<path d="M241.536 445.93L13.8331 314.481C6.2803 310.1 0.117188 298.378 0.117188 288.257V17.5941C0.117188 7.50357 6.15945 2.85103 13.8331 7.23167L241.536 138.681C249.119 143.062 255.252 154.784 255.252 164.904V435.567C255.252 445.537 249.119 450.311 241.536 445.93Z" fill="#F5F7FC"/>
<path d="M35.8027 298.643L41.271 301.816V61.0618L35.8027 57.8896V298.643Z" fill="#DADCE5"/>
<path d="M38.5369 172.451C35.6096 170.362 33.2148 167.614 31.5459 164.428C29.877 161.243 28.9808 157.709 28.9297 154.113V125.866C28.9297 118.796 33.2197 115.563 38.5369 118.615C41.455 120.711 43.8414 123.461 45.5046 126.646C47.1678 129.831 48.0614 133.361 48.1138 136.953V165.201C48.1138 172.27 43.8238 175.533 38.5369 172.451Z" fill="#505ACC"/>
<path d="M94.5215 331.701L100.02 334.873V94.1497L94.5215 90.9775V331.701Z" fill="#DADCE5"/>
<path d="M97.283 284.726C94.362 282.623 91.9724 279.868 90.3045 276.679C88.6366 273.49 87.7365 269.956 87.6758 266.357V238.11C87.6758 231.04 91.996 227.808 97.283 230.859C100.207 232.952 102.599 235.701 104.267 238.886C105.936 242.07 106.834 245.602 106.89 249.197V277.445C106.89 284.514 102.6 287.777 97.283 284.726Z" fill="#505ACC"/>
<path d="M153.297 365.624L158.795 368.796V128.042L153.297 124.87V365.624Z" fill="#DADCE5"/>
<path d="M156.041 207.776C153.117 205.683 150.725 202.934 149.056 199.749C147.388 196.564 146.489 193.032 146.434 189.437V161.19C146.434 154.12 150.724 150.857 156.041 153.909C158.962 156.011 161.351 158.767 163.019 161.955C164.687 165.144 165.587 168.679 165.648 172.277V200.525C165.648 207.594 161.328 210.827 156.041 207.776Z" fill="#505ACC"/>
<path d="M212.045 399.554L217.513 402.696V161.972L212.045 158.8V399.554Z" fill="#DADCE5"/>
<path d="M214.814 305.022C211.887 302.933 209.492 300.184 207.823 296.998C206.154 293.813 205.258 290.279 205.207 286.683V258.436C205.207 251.366 209.497 248.134 214.814 251.185C217.732 253.281 220.119 256.032 221.782 259.216C223.445 262.401 224.339 265.931 224.391 269.523V297.771C224.391 304.84 220.101 308.103 214.814 305.022Z" fill="#505ACC"/>
</g>
<defs>
<clipPath id="clip0_810_189">
<rect width="265" height="250" fill="white"/>
</clipPath>
</defs>
</svg>
