<svg width="25" height="25" viewBox="0 0 25 25" fill="none" xmlns="http://www.w3.org/2000/svg">
<path fill-rule="evenodd" clip-rule="evenodd" d="M20.3178 5.18226C20.3761 5.24032 20.4223 5.30932 20.4539 5.38529C20.4854 5.46126 20.5016 5.54271 20.5016 5.62497C20.5016 5.70723 20.4854 5.78867 20.4539 5.86464C20.4223 5.94061 20.3761 6.00961 20.3178 6.06767L6.56782 19.8177C6.4504 19.9351 6.29116 20.0011 6.12511 20.0011C5.95906 20.0011 5.79981 19.9351 5.6824 19.8177C5.56499 19.7003 5.49902 19.541 5.49902 19.375C5.49902 19.2089 5.56499 19.0497 5.6824 18.9323L19.4324 5.18226C19.4903 5.12374 19.5593 5.07729 19.6353 5.04559C19.7113 5.01388 19.7928 4.99756 19.8751 4.99756C19.9574 4.99756 20.039 5.01388 20.115 5.04559C20.1909 5.07729 20.2599 5.12374 20.3178 5.18226Z" fill="white"/>
<path fill-rule="evenodd" clip-rule="evenodd" d="M5.68285 5.18224C5.62458 5.2403 5.57835 5.3093 5.54681 5.38527C5.51526 5.46124 5.49902 5.54269 5.49902 5.62495C5.49902 5.70721 5.51526 5.78866 5.54681 5.86463C5.57835 5.9406 5.62458 6.00959 5.68285 6.06766L19.4329 19.8177C19.5503 19.9351 19.7095 20.001 19.8756 20.001C20.0416 20.001 20.2009 19.9351 20.3183 19.8177C20.4357 19.7002 20.5016 19.541 20.5016 19.3749C20.5016 19.2089 20.4357 19.0497 20.3183 18.9322L6.56827 5.18224C6.5102 5.12397 6.44121 5.07774 6.36524 5.0462C6.28927 5.01465 6.20782 4.99841 6.12556 4.99841C6.0433 4.99841 5.96185 5.01465 5.88588 5.0462C5.80991 5.07774 5.74091 5.12397 5.68285 5.18224Z" fill="white"/>
</svg>
