<svg width="650" height="127" viewBox="0 0 650 127" fill="none" xmlns="http://www.w3.org/2000/svg">
<rect width="650" height="127" rx="15" fill="white"/>
<mask id="mask0_415_2" style="mask-type:alpha" maskUnits="userSpaceOnUse" x="0" y="0" width="650" height="127">
<rect width="650" height="126.628" rx="5.95469" fill="url(#paint0_linear_415_2)"/>
</mask>
<g mask="url(#mask0_415_2)">
<path d="M356.798 94.6044C467.774 70.5052 590.704 71.5013 664.785 74.4923V130.497L-21.1845 133.591L-42.1836 74.4923H-21.1845C-66.6824 104.506 241.558 119.63 356.798 94.6044Z" fill="#CAD2FF" fill-opacity="0.33"/>
</g>
<path d="M149.463 73.1539C150.65 75.103 151.229 82.2286 151.37 85.5477L168.037 85.0983C168.294 81.1168 168.871 72.1152 169.117 67.9603C169.425 62.7668 170.082 58.3389 168.037 57.9801C166.401 57.6931 165.674 59.4643 165.515 60.3857L165.522 60.2954C165.731 57.4533 166.128 52.0554 163.995 51.6876C161.961 51.3369 161.131 52.6813 160.97 53.3974C161.204 51.9214 161.119 48.9606 158.909 48.9256C156.7 48.8905 156.452 52.1324 156.604 53.7577C156.434 53.0138 156.019 52.199 155.139 51.6876C154.642 51.3984 154.177 51.3397 153.762 51.4172C152.286 51.693 152.006 53.5732 152.006 55.0747V67.6455C150.417 65.6329 146.73 61.9253 144.696 63.1965C142.154 64.7854 147.98 70.7175 149.463 73.1539Z" fill="#FDDEBF"/>
<path d="M169.816 83.9312H149.851L148.154 93.771L146.059 126.611H166.943L169.816 83.9312Z" fill="#FDD21B"/>
<path d="M127.706 52.1052C128.284 54.9946 129.629 61.3545 133.059 67.9154C136.117 73.7657 130.773 81.9765 126.373 83.3101" stroke="#0A2D4D" stroke-width="0.961532"/>
<path d="M89.7333 33.4519C96.4245 22.1407 107.656 21.4371 112.435 22.4992C112.435 23.6763 118.649 23.6546 120.385 24.049C125.862 25.2939 130.344 30.1492 132.058 35.147C135.852 46.2081 124.027 48.5315 129.868 63.5222C134.54 75.5147 128.955 81.3968 125.579 82.8388L64.8407 86.4233C62.8493 78.2586 64.6416 70.2929 75.9926 63.5222C87.3436 56.7514 81.3694 47.5909 89.7333 33.4519Z" fill="#0B2F4E"/>
<path d="M147.544 112.107C141.794 88.5954 119.054 75.5113 108.402 71.9082C107.607 74.34 106.047 79.4591 106.175 80.4814C106.303 81.5036 127.844 101.991 138.599 112.107H147.544Z" fill="#FDD21B"/>
<path d="M108.761 75.0603L108.761 62.5144L95.2877 50.1416L86.662 70.2809L82.2411 72.2723L80.2497 76.2552L86.662 82.2631L97.8538 84.3587L105.137 83.0558L112.36 82.2631L112.36 77.9574C110.395 77.1314 110.976 75.9232 108.761 75.0603Z" fill="#FDDEBF"/>
<path fill-rule="evenodd" clip-rule="evenodd" d="M127.239 43.8106C126.01 53.5571 121.993 68.9647 113.32 69.3022C103.673 69.6774 96.5336 66.427 95.9373 57.6342C93.9639 49.4744 96.338 36.5075 100.857 31.4289C104.722 27.084 110.649 26.4582 114.823 26.866C120.04 25.5371 124.855 28.4867 127.026 38.3803C127.416 40.1594 127.467 42.0035 127.239 43.8106Z" fill="#FDDEBF"/>
<path d="M98.6667 64.4421C102.686 67.8294 106.32 69.1569 108.82 69.1754L108.82 73.8387C102.054 69.5908 100.428 66.4745 98.6667 64.4421Z" fill="#EBB47E"/>
<path d="M108.973 74.951C97.3387 79.5519 89.4841 73.6771 87.0112 70.1646C53.9419 81.8707 44.6515 116.145 42.6602 126.784H148.285C140.27 104.267 117.649 77.9407 108.973 74.951Z" fill="#FDD21B"/>
<path d="M85.2886 124.525H162.602" stroke="#505ACC" stroke-width="4.42936" stroke-linecap="round"/>
<path d="M119.445 90.6777L108.846 123.534L164.761 124.848L175.133 91.8728C175.532 90.6044 174.585 89.3135 173.255 89.3135H121.319C120.464 89.3135 119.708 89.8646 119.445 90.6777Z" fill="#505ACC"/>
<path d="M118.642 35.8138C116.057 33.8533 114.409 27.7461 114.409 25.7271L120.389 25.7271C121.773 25.7271 128.696 35.534 131.984 40.4375C130.772 43.8411 127.006 51.7634 127.006 47.8769C127.006 41.9762 123.294 39.3424 118.642 35.8138Z" fill="#0A2D4D"/>
<path d="M96.0104 42.8618C109.311 45.3719 117.062 32.7551 119.715 28.0247C119.369 26.121 115.716 21.5041 110.178 20.5349C103.255 19.3235 90.1025 25.0346 87.1605 39.572C84.8068 51.2019 90.9102 44.4178 94.2561 39.572L96.0104 42.8618Z" fill="#0A2D4D"/>
<path d="M108.021 20.8496C104.386 19.6758 95.3895 20.3271 88.4831 32.3223C79.8502 47.3164 86.4385 53.6775 77.9191 60.493C69.3998 67.3085 66.1056 69.6939 65.0833 77.4181" stroke="#0A2D4D" stroke-width="0.961532"/>
<circle cx="96.5084" cy="46.579" r="4.43444" transform="rotate(16.7972 96.5084 46.579)" fill="#FDDEBF"/>
<path d="M98.481 47.8952C98.3348 46.9931 97.4399 44.946 95.0295 43.9746" stroke="#EBB47E" stroke-width="0.721149" stroke-linecap="round"/>
<path d="M96.8912 45.1836C96.1541 45.3962 94.5693 46.2298 94.127 47.8628" stroke="#EBB47E" stroke-width="0.721149" stroke-linecap="round"/>
<path d="M156.59 62.9134V54.2041" stroke="#EBB47E" stroke-width="0.721149" stroke-linecap="round"/>
<path d="M160.946 62.5806V53.8713" stroke="#EBB47E" stroke-width="0.721149" stroke-linecap="round"/>
<path d="M165.44 60.5479V65.8775M167 65.6456C165.597 65.6184 163.44 66.5639 161.441 69.7097" stroke="#EBB47E" stroke-width="0.721149" stroke-linecap="round"/>
<path d="M152.095 67.6606C154.013 68.1243 158.321 70.0589 160.201 74.0878" stroke="#EBB47E" stroke-width="0.721149" stroke-linecap="round"/>
<path d="M123.011 52.2729C121.712 52.2812 120.72 52.8167 120.009 53.4801C118.887 54.5272 118.924 56.4385 120.315 57.0861C121.823 57.7878 123.911 57.6631 125.059 57.024C126.767 56.0731 126.236 52.2523 123.011 52.2729Z" fill="#FEB7A1"/>
<path d="M106.822 51.3133C105.473 51.322 104.47 51.9236 103.78 52.6318C102.856 53.5793 102.868 55.1967 104.032 55.8256C105.488 56.6119 107.632 56.5115 108.786 55.869C110.424 54.9573 109.914 51.2936 106.822 51.3133Z" fill="#FEB7A1"/>
<path d="M85.2886 75.571C88.1947 78.3179 97.0405 82.7368 109.175 78.4373" stroke="#FDE46E" stroke-width="1.4423" stroke-linecap="round"/>
<circle cx="111.522" cy="77.2593" r="0.642591" fill="#FDE46E"/>
<path fill-rule="evenodd" clip-rule="evenodd" d="M27.7631 47.2322C21.5273 47.2322 16.4722 52.2873 16.4722 58.5231C16.4722 64.7589 21.5273 69.814 27.7631 69.814H42.0549C43.8655 71.2581 46.3372 72.9147 49.5582 74.5476C48.6265 73.6481 47.1293 71.8377 46.2177 69.765C51.9571 69.2313 56.45 64.4019 56.45 58.5231C56.45 52.2873 51.3948 47.2322 45.1591 47.2322H27.7631Z" fill="#43EA8E"/>
<circle cx="29.5552" cy="59.0703" r="1.47754" fill="#505ACC"/>
<circle cx="36.4609" cy="59.0703" r="1.47754" fill="#505ACC"/>
<circle cx="43.3672" cy="59.0703" r="1.47754" fill="#505ACC"/>
<rect x="43.5139" y="28.7769" width="25.5071" height="25.5071" rx="2.07519" fill="#CAD2FF"/>
<rect x="47.1074" y="39.3677" width="4.30118" height="10.1158" fill="#9FA8FB"/>
<rect x="54.1169" y="36.4204" width="4.30118" height="13.0629" fill="#9FA8FB"/>
<rect x="61.1262" y="33.7124" width="4.30118" height="15.771" fill="#505ACC"/>
<defs>
<linearGradient id="paint0_linear_415_2" x1="325" y1="0" x2="325" y2="126.628" gradientUnits="userSpaceOnUse">
<stop stop-color="#505ACB"/>
<stop offset="0.817708" stop-color="#658DE4"/>
</linearGradient>
</defs>
</svg>
