<svg width="160" height="108" viewBox="0 0 160 108" fill="none" xmlns="http://www.w3.org/2000/svg">
<path d="M133.463 54.1539C134.65 56.103 135.229 63.2286 135.37 66.5477L152.037 66.0983C152.294 62.1168 152.871 53.1152 153.117 48.9603C153.425 43.7668 154.082 39.3389 152.037 38.9801C150.401 38.6931 149.674 40.4643 149.515 41.3857L149.522 41.2954C149.731 38.4533 150.128 33.0554 147.995 32.6876C145.961 32.3369 145.131 33.6813 144.97 34.3974C145.204 32.9214 145.119 29.9606 142.909 29.9256C140.7 29.8905 140.452 33.1324 140.604 34.7577C140.434 34.0138 140.019 33.199 139.139 32.6876C138.642 32.3984 138.177 32.3397 137.762 32.4172C136.286 32.693 136.006 34.5732 136.006 36.0747V48.6455C134.417 46.6329 130.73 42.9253 128.696 44.1965C126.154 45.7854 131.98 51.7175 133.463 54.1539Z" fill="#FDDEBF"/>
<path d="M153.816 64.9312H133.851L132.154 74.771L130.059 107.611H150.943L153.816 64.9312Z" fill="#FDD21B"/>
<path d="M111.706 33.1052C112.284 35.9946 113.629 42.3545 117.059 48.9154C120.117 54.7657 114.773 62.9765 110.373 64.3101" stroke="#0A2D4D" stroke-width="0.961532"/>
<path d="M73.7333 14.4519C80.4245 3.14072 91.656 2.43708 96.4353 3.49916C96.4353 4.67626 102.649 4.65459 104.385 5.049C109.862 6.29393 114.344 11.1492 116.058 16.147C119.852 27.2081 108.027 29.5315 113.868 44.5222C118.54 56.5147 112.955 62.3968 109.579 63.8388L48.8407 67.4233C46.8493 59.2586 48.6416 51.2929 59.9926 44.5222C71.3436 37.7514 65.3694 28.5909 73.7333 14.4519Z" fill="#0B2F4E"/>
<path d="M131.544 93.1071C125.794 69.5954 103.054 56.5113 92.4024 52.9082C91.6066 55.34 90.0471 60.4591 90.1749 61.4814C90.3027 62.5036 111.844 82.9911 122.599 93.1071H131.544Z" fill="#FDD21B"/>
<path d="M92.7606 56.0603L92.7606 43.5144L79.2877 31.1416L70.662 51.2809L66.2411 53.2723L64.2497 57.2552L70.662 63.2631L81.8538 65.3587L89.1369 64.0558L96.3596 63.2631L96.3596 58.9574C94.3953 58.1314 94.9759 56.9232 92.7606 56.0603Z" fill="#FDDEBF"/>
<path fill-rule="evenodd" clip-rule="evenodd" d="M111.239 24.8106C110.01 34.5571 105.993 49.9647 97.3195 50.3022C87.673 50.6774 80.5336 47.427 79.9373 38.6342C77.9639 30.4744 80.338 17.5075 84.8566 12.4289C88.7224 8.08396 94.6487 7.4582 98.8229 7.86599C104.04 6.53714 108.855 9.48666 111.026 19.3803C111.416 21.1594 111.467 23.0035 111.239 24.8106Z" fill="#FDDEBF"/>
<path d="M82.6667 45.4421C86.6863 48.8294 90.3198 50.1569 92.8199 50.1754L92.8199 54.8387C86.054 50.5908 84.4281 47.4745 82.6667 45.4421Z" fill="#EBB47E"/>
<path d="M92.9732 55.951C81.3387 60.5519 73.4841 54.6771 71.0112 51.1646C37.9419 62.8707 28.6515 97.1448 26.6602 107.784H132.285C124.27 85.2672 101.649 58.9407 92.9732 55.951Z" fill="#FDD21B"/>
<path d="M69.2886 105.525H146.602" stroke="#505ACC" stroke-width="4.42936" stroke-linecap="round"/>
<path d="M103.445 71.6777L92.8464 104.534L148.761 105.848L159.133 72.8728C159.532 71.6044 158.585 70.3135 157.255 70.3135H105.319C104.464 70.3135 103.708 70.8646 103.445 71.6777Z" fill="#505ACC"/>
<path d="M102.642 16.8138C100.057 14.8533 98.409 8.74611 98.4089 6.72705L104.389 6.7271C105.773 6.7271 112.696 16.534 115.984 21.4375C114.772 24.8411 111.006 32.7634 111.006 28.8769C111.006 22.9762 107.294 20.3424 102.642 16.8138Z" fill="#0A2D4D"/>
<path d="M80.0104 23.8618C93.3109 26.3719 101.062 13.7551 103.715 9.02471C103.369 7.121 99.716 2.5041 94.178 1.53495C87.2554 0.3235 74.1025 6.03462 71.1605 20.572C68.8068 32.2019 74.9102 25.4178 78.2561 20.572L80.0104 23.8618Z" fill="#0A2D4D"/>
<path d="M92.0208 1.84961C88.3859 0.67582 79.3895 1.32706 72.4831 13.3223C63.8502 28.3164 70.4385 34.6775 61.9191 41.493C53.3998 48.3085 50.1056 50.6939 49.0833 58.4181" stroke="#0A2D4D" stroke-width="0.961532"/>
<circle cx="80.5084" cy="27.579" r="4.43444" transform="rotate(16.7972 80.5084 27.579)" fill="#FDDEBF"/>
<path d="M82.481 28.8952C82.3348 27.9931 81.4399 25.946 79.0295 24.9746" stroke="#EBB47E" stroke-width="0.721149" stroke-linecap="round"/>
<path d="M80.8912 26.1836C80.1541 26.3962 78.5693 27.2298 78.127 28.8628" stroke="#EBB47E" stroke-width="0.721149" stroke-linecap="round"/>
<path d="M140.59 43.9134V35.2041" stroke="#EBB47E" stroke-width="0.721149" stroke-linecap="round"/>
<path d="M144.946 43.5806V34.8713" stroke="#EBB47E" stroke-width="0.721149" stroke-linecap="round"/>
<path d="M149.44 41.5479V46.8775M151 46.6456C149.597 46.6184 147.44 47.5639 145.441 50.7097" stroke="#EBB47E" stroke-width="0.721149" stroke-linecap="round"/>
<path d="M136.095 48.6606C138.013 49.1243 142.321 51.0589 144.201 55.0878" stroke="#EBB47E" stroke-width="0.721149" stroke-linecap="round"/>
<path d="M107.011 33.2729C105.712 33.2812 104.72 33.8167 104.009 34.4801C102.887 35.5272 102.924 37.4385 104.315 38.0861C105.823 38.7878 107.911 38.6631 109.059 38.024C110.767 37.0731 110.236 33.2523 107.011 33.2729Z" fill="#FEB7A1"/>
<path d="M90.822 32.3133C89.4732 32.322 88.4697 32.9236 87.7796 33.6318C86.8561 34.5793 86.8679 36.1967 88.032 36.8256C89.4876 37.6119 91.6322 37.5115 92.7862 36.869C94.4238 35.9573 93.9145 32.2936 90.822 32.3133Z" fill="#FEB7A1"/>
<path d="M69.2886 56.571C72.1947 59.3179 81.0405 63.7368 93.1746 59.4373" stroke="#FDE46E" stroke-width="1.4423" stroke-linecap="round"/>
<circle cx="95.5222" cy="58.2593" r="0.642591" fill="#FDE46E"/>
<path fill-rule="evenodd" clip-rule="evenodd" d="M11.7631 28.2322C5.52727 28.2322 0.472168 33.2873 0.472168 39.5231C0.472168 45.7589 5.52727 50.814 11.7631 50.814H26.0549C27.8655 52.2581 30.3372 53.9147 33.5582 55.5476C32.6265 54.6481 31.1293 52.8377 30.2177 50.765C35.9571 50.2313 40.45 45.4019 40.45 39.5231C40.45 33.2873 35.3948 28.2322 29.1591 28.2322H11.7631Z" fill="#43EA8E"/>
<circle cx="13.5552" cy="40.0703" r="1.47754" fill="#505ACC"/>
<circle cx="20.4609" cy="40.0703" r="1.47754" fill="#505ACC"/>
<circle cx="27.3672" cy="40.0703" r="1.47754" fill="#505ACC"/>
<rect x="27.5139" y="9.77686" width="25.5071" height="25.5071" rx="2.07519" fill="#CAD2FF"/>
<rect x="31.1074" y="20.3677" width="4.30118" height="10.1158" fill="#9FA8FB"/>
<rect x="38.1169" y="17.4204" width="4.30118" height="13.0629" fill="#9FA8FB"/>
<rect x="45.1262" y="14.7124" width="4.30118" height="15.771" fill="#505ACC"/>
</svg>
