<svg width="31" height="31" viewBox="0 0 31 31" fill="none" xmlns="http://www.w3.org/2000/svg">
<path d="M15.5001 0C9.79311 0 5.16675 4.62636 5.16675 10.3333C5.16675 12.1688 5.65965 13.8854 6.49871 15.3786C6.63809 15.6266 6.78417 15.8707 6.94279 16.1058L15.5001 31L24.0574 16.1058C24.1891 15.9107 24.3028 15.7041 24.4203 15.5L24.5017 15.3786C25.34 13.8854 25.8334 12.1688 25.8334 10.3333C25.8334 4.62636 21.2067 0 15.5001 0ZM15.5001 5.16667C18.3534 5.16667 20.6667 7.47991 20.6667 10.3333C20.6667 13.1866 18.3534 15.5 15.5001 15.5C12.6467 15.5 10.3334 13.1866 10.3334 10.3333C10.3334 7.47991 12.6467 5.16667 15.5001 5.16667Z" fill="#E74C3C"/>
<path d="M15.5001 3.875C11.9333 3.875 9.04175 6.76653 9.04175 10.3333C9.04175 13.8996 11.9333 16.7917 15.5001 16.7917C19.0664 16.7917 21.9584 13.8996 21.9584 10.3333C21.9584 6.76653 19.0664 3.875 15.5001 3.875ZM15.5001 6.45833C17.6404 6.45833 19.3751 8.19317 19.3751 10.3333C19.3751 12.4735 17.6404 14.2083 15.5001 14.2083C13.3598 14.2083 11.6251 12.4735 11.6251 10.3333C11.6251 8.19317 13.3598 6.45833 15.5001 6.45833Z" fill="#E74C3C"/>
</svg>
