<svg width="100" height="100" viewBox="0 0 100 100" fill="none" xmlns="http://www.w3.org/2000/svg">
<path d="M50 87.5C54.9246 87.5 59.8009 86.53 64.3506 84.6455C68.9003 82.7609 73.0343 79.9987 76.5165 76.5165C79.9987 73.0343 82.7609 68.9003 84.6455 64.3506C86.53 59.8009 87.5 54.9246 87.5 50C87.5 45.0754 86.53 40.1991 84.6455 35.6494C82.7609 31.0997 79.9987 26.9657 76.5165 23.4835C73.0343 20.0013 68.9003 17.2391 64.3506 15.3545C59.8009 13.47 54.9246 12.5 50 12.5C40.0544 12.5 30.5161 16.4509 23.4835 23.4835C16.4509 30.5161 12.5 40.0544 12.5 50C12.5 59.9456 16.4509 69.4839 23.4835 76.5165C30.5161 83.5491 40.0544 87.5 50 87.5Z" stroke="#1BA459" stroke-width="3" stroke-linecap="round" stroke-linejoin="round"/>
<path d="M37.5 41.6667H37.5419" stroke="#1BA459" stroke-width="5" stroke-linecap="round" stroke-linejoin="round"/>
<path d="M62.5 41.6667H62.5419" stroke="#1BA459" stroke-width="5" stroke-linecap="round" stroke-linejoin="round"/>
<path d="M39.5833 62.5C40.9411 63.8858 42.5618 64.9868 44.3504 65.7384C46.1391 66.49 48.0598 66.8771 49.9999 66.8771C51.9401 66.8771 53.8607 66.49 55.6494 65.7384C57.438 64.9868 59.0588 63.8858 60.4166 62.5" stroke="#1BA459" stroke-width="3" stroke-linecap="round" stroke-linejoin="round"/>
</svg>
