<svg width="287" height="228" viewBox="0 0 287 228" fill="none" xmlns="http://www.w3.org/2000/svg">
<path d="M101.524 170.45C70.9962 157.833 27.4293 108.638 56.7503 66.6381C113.758 -15.0208 150.503 102.108 233.865 80.9023C279.035 69.4117 313.02 140.793 212.723 168.147" stroke="#ABC7F3" stroke-width="3.30554" stroke-linecap="round" stroke-dasharray="7.71 7.71"/>
<path d="M21.1359 136.961C61.9834 137.152 77.4164 155.95 80.0229 166.006C103.595 177.091 139.168 196.78 92.886 186.857C54.4956 178.625 29.2945 158.441 17.3813 144.716C14.6025 141.515 16.8968 136.941 21.1359 136.961Z" fill="#4ED98D"/>
<mask id="mask0_225_4" style="mask-type:alpha" maskUnits="userSpaceOnUse" x="16" y="136" width="100" height="54">
<path d="M21.133 136.961C61.9805 137.152 77.4135 155.95 80.02 166.006C103.592 177.091 139.165 196.78 92.8831 186.857C54.4927 178.625 29.2916 158.441 17.3784 144.716C14.5996 141.515 16.8939 136.941 21.133 136.961Z" fill="#4ED98D"/>
</mask>
<g mask="url(#mask0_225_4)">
<path d="M80.2904 175.062C51.9121 166.556 27.4856 152.814 18.8197 147.007L18.5368 154.716L67.0496 195.724C83.2875 192.381 108.669 183.568 80.2904 175.062Z" fill="#1F35A8" fill-opacity="0.12"/>
</g>
<mask id="mask1_225_4" style="mask-type:alpha" maskUnits="userSpaceOnUse" x="16" y="136" width="100" height="54">
<path d="M21.133 136.961C61.9805 137.152 77.4135 155.95 80.02 166.006C103.592 177.091 139.165 196.78 92.8831 186.857C54.4927 178.625 29.2916 158.441 17.3784 144.716C14.5996 141.515 16.8939 136.941 21.133 136.961Z" fill="#4ED98D"/>
</mask>
<g mask="url(#mask1_225_4)">
<path d="M11.2885 137.114L78.7467 166.446" stroke="#DCFFEC" stroke-width="2.00063"/>
<path d="M65.3018 161.281C64.7196 161.423 50.0139 167.3 44.5954 169.316" stroke="#DCFFEC" stroke-width="2.00063"/>
<circle r="1.91447" transform="matrix(-0.971636 0.236482 0.236482 0.971636 62.3674 169.106)" stroke="#DCFFEC" stroke-width="2.00063"/>
<path d="M34.335 147.301L21.8242 151.114" stroke="#DCFFEC" stroke-width="2.00063"/>
<path d="M39.4268 149.503L25.0295 154.21" stroke="#DCFFEC" stroke-width="2.00063"/>
<path d="M42.2505 150.705L37.6507 136.992" stroke="#DCFFEC" stroke-width="2.00063"/>
<path d="M55.2046 156.289C54.6225 156.43 41.4469 161.607 36.0284 163.624" stroke="#DCFFEC" stroke-width="2.00063"/>
</g>
<path d="M18.7882 89.7316C68.8367 105.308 84.9207 131.715 84.1326 144.744C107.769 166.923 136.855 206.382 85.8947 176.849C42.7159 151.825 20.6177 117.331 12.182 96.6311C10.4368 92.3485 14.3726 88.3574 18.7882 89.7316Z" fill="#43EB8F"/>
<mask id="mask2_225_4" style="mask-type:alpha" maskUnits="userSpaceOnUse" x="9" y="87" width="104" height="101">
<path d="M13.0547 88.0452C67.3551 103.446 79.5025 133.715 78.6851 147.228C102.322 169.407 136.855 206.382 85.8944 176.849C38.5206 149.395 16.5226 110.54 10.1031 91.0102C9.50142 89.1796 11.2009 87.5195 13.0547 88.0452Z" fill="#3EF993"/>
</mask>
<g mask="url(#mask2_225_4)">
<path d="M13.0024 90.6118L77.5326 148.609" stroke="#D3FFE7" stroke-width="3.33438"/>
<path d="M33.7962 109.173L31.8843 93.6958" stroke="#D3FFE7" stroke-width="3.33438"/>
<path d="M45.7709 119.798L43.5249 96.3408" stroke="#D3FFE7" stroke-width="3.33438"/>
<path d="M50.7587 124.567L27.7827 126.338" stroke="#D3FFE7" stroke-width="3.33438"/>
<path d="M68.0866 140.062L40.8323 142.489" stroke="#D3FFE7" stroke-width="3.33438"/>
<circle r="2.4536" transform="matrix(-0.971636 0.236482 0.236482 0.971636 47.289 133.911)" stroke="#D3FFE7" stroke-width="1.66719"/>
<path d="M51.49 115.618C51.7836 116.824 52.9996 117.564 54.2059 117.27C55.4123 116.977 56.1522 115.761 55.8586 114.555C55.565 113.348 54.349 112.608 53.1427 112.902C51.9363 113.196 51.1964 114.411 51.49 115.618Z" stroke="#D3FFE7" stroke-width="1.66719"/>
</g>
<path d="M239.148 93.7201C239.741 86.3456 238.456 78.7181 232.674 73.8352C215.265 59.1311 200.468 75.5339 183.601 86.6488C179.217 89.7871 170.186 94.0149 160.46 85.9899C149.682 77.0972 121.663 68.8379 115.024 101.031C110.376 123.571 168.064 155.169 200.379 165.651C208.542 205.475 251.484 204.368 260.356 174.132C269.229 143.895 223.802 133.939 215.64 123.615C211.296 118.121 217.424 114.384 225.07 111.015C232.425 107.774 238.503 101.732 239.148 93.7201Z" fill="#FFD35A"/>
<ellipse cx="156.986" cy="209.975" rx="81.6862" ry="4.62651" fill="#C7CBF6"/>
<rect x="75.4761" y="93.6919" width="156.47" height="103.812" rx="7.44958" fill="#0A2D4D"/>
<rect x="82.9883" y="97.4897" width="136.998" height="96.216" fill="#CCD0FF"/>
<circle cx="225.902" cy="145.599" r="4.35555" fill="#E7F0F4" fill-opacity="0.19"/>
<mask id="mask3_225_4" style="mask-type:alpha" maskUnits="userSpaceOnUse" x="82" y="97" width="138" height="97">
<rect x="82.9883" y="97.4897" width="136.998" height="96.216" fill="#DCDFFF"/>
</mask>
<g mask="url(#mask3_225_4)">
<path d="M222.501 123.126H83.6061H76.0205V92.7832H222.501V123.126Z" fill="#EAECFF"/>
</g>
<path d="M139.78 141.243H201.872" stroke="white" stroke-width="4.16798" stroke-linecap="round"/>
<path d="M139.78 150.319H201.873" stroke="white" stroke-width="4.16798" stroke-linecap="round"/>
<path d="M139.78 159.702H174.012M201.873 159.702H182.662" stroke="white" stroke-width="4.16798" stroke-linecap="round"/>
<path d="M139.78 168.654H155.506M201.873 168.654H164.913" stroke="white" stroke-width="4.16798" stroke-linecap="round"/>
<circle cx="109.984" cy="153.575" r="14.4071" fill="#43EA8E"/>
<path fill-rule="evenodd" clip-rule="evenodd" d="M99.0503 160.478C99.8336 156.28 102.974 152.911 107.046 151.798C107.627 152.821 108.726 153.51 109.986 153.51C111.246 153.51 112.345 152.821 112.926 151.798C116.999 152.911 120.14 156.28 120.923 160.479C118.768 164.291 114.678 166.863 109.987 166.863C105.295 166.863 101.205 164.29 99.0503 160.478Z" fill="#505ACC"/>
<circle cx="109.983" cy="150.176" r="2.72274" fill="#FDDEBF"/>
<path d="M91.6201 107.025H105.805" stroke="#505ACC" stroke-width="2.20398" stroke-linecap="round"/>
<path d="M91.6201 111.289H105.805" stroke="#505ACC" stroke-width="2.20398" stroke-linecap="round"/>
<path d="M91.6201 115.526H105.805" stroke="#505ACC" stroke-width="2.20398" stroke-linecap="round"/>
<path d="M242.605 159.389L252.355 156.714L242.638 155.422L242.605 159.389Z" fill="#588DED"/>
<path d="M207.083 167.825L245.334 135.323L244.233 149.361L252.28 156.643L243.11 155.993L242.465 173.607L207.083 167.825Z" fill="#DCEDFF"/>
<path d="M244.239 149.368L252.36 156.719L243.186 155.963L207.041 167.813L244.239 149.368Z" fill="#ABC7F3"/>
<circle cx="95.2076" cy="71.3018" r="8.82868" fill="#8E96F2"/>
<circle cx="95.8014" cy="23.7755" r="23.7755" fill="#FFD35A"/>
<path d="M82.2802 62.4743C81.8991 50.8937 79.8163 41.5359 77.1041 38.2913L95.5616 34.1133L113.311 39.809C106.838 45.9662 108.722 56.9699 108.511 62.4743H82.2802Z" fill="#FFD35A"/>
<rect x="81.9346" y="56.8667" width="26.5463" height="15.5372" rx="5.10308" fill="#505ACD"/>
<path d="M79.4702 17.263C81.0176 13.3284 86.9771 5.77736 98.4365 7.05056" stroke="white" stroke-opacity="0.57" stroke-width="3.62645" stroke-linecap="round"/>
<path d="M98.7606 56.8669V50.7482C98.7606 45.7712 100.224 40.9255 102.516 36.5079C104.491 32.7024 106.376 28.4684 106.799 25.7152C107.07 23.9587 106.862 21.8062 105.289 21.9492C103.323 22.1279 103.238 28.1158 100.999 28.4732C98.7606 28.8307 100.901 21.0555 98.7606 21.5023C96.6201 21.9492 97.067 28.4732 95.1902 28.4732C93.3134 28.4732 94.5645 21.0555 92.3302 21.5023C90.096 21.9492 92.5091 27.4902 90.4535 28.4732C88.398 29.4563 88.2193 22.2173 85.8063 22.9323C83.3933 23.6472 85.5381 30.7969 86.5212 33.5674C86.7457 34.2002 87.1844 35.0666 87.7341 36.0345C90.4514 40.8187 92.3302 46.0877 92.3302 51.5898V56.8669" stroke="white" stroke-width="1.53092"/>
<path d="M83.9648 64.6973H106.898" stroke="white" stroke-opacity="0.35" stroke-width="1.27577" stroke-linecap="round"/>
<path d="M83.9648 61.1533H106.898" stroke="white" stroke-opacity="0.35" stroke-width="1.27577" stroke-linecap="round"/>
<path d="M83.9648 68H106.898" stroke="white" stroke-opacity="0.35" stroke-width="1.27577" stroke-linecap="round"/>
<rect x="137.597" y="27.3193" width="41.9488" height="41.9488" rx="5.26678" fill="#EAEBFF"/>
<path fill-rule="evenodd" clip-rule="evenodd" d="M172.345 48.6441H158.243V34.541C166.032 34.5416 172.345 40.8555 172.345 48.6441Z" fill="#8E96F2"/>
<path fill-rule="evenodd" clip-rule="evenodd" d="M157.183 37.2769C150.343 37.2772 144.798 42.8221 144.798 49.6621C144.798 56.5023 150.343 62.0474 157.184 62.0474C164.024 62.0474 169.569 56.5023 169.569 49.6621C169.569 49.6615 169.569 49.6609 169.569 49.6603H157.183V37.2769Z" fill="#B0B7FF"/>
<rect x="257.336" y="83.7383" width="29.6637" height="29.6637" rx="5.10686" fill="#FF4F9C"/>
<rect x="263.341" y="96.9468" width="4.39146" height="11.5641" fill="#D3D7FF"/>
<rect x="269.974" y="93.5688" width="4.39146" height="14.9406" fill="#D3D7FF"/>
<rect x="276.603" y="88.6323" width="4.39146" height="19.8758" fill="white"/>
</svg>
