<svg width="710" height="857" viewBox="0 0 710 857" fill="none" xmlns="http://www.w3.org/2000/svg">
<path d="M155.647 500.317C108.844 480.973 42.0519 405.553 87.004 341.163C174.402 215.971 230.736 395.542 358.538 363.031C427.789 345.415 479.891 454.849 326.126 496.785" stroke="#ABC7F3" stroke-width="3.30554" stroke-linecap="round" stroke-dasharray="7.71 7.71"/>
<path d="M27.4011 449.011C93.7739 447.747 118.583 477.682 122.684 493.503C158.821 510.497 213.359 540.682 142.404 525.469C79.8434 512.055 40.1287 477.938 23.4414 457.015C20.7981 453.701 23.1627 449.091 27.4011 449.011Z" fill="#4ED98D"/>
<mask id="mask0_705_103" style="mask-type:alpha" maskUnits="userSpaceOnUse" x="22" y="448" width="155" height="82">
<path d="M27.396 449.01C93.7688 447.747 118.578 477.681 122.678 493.502C158.816 510.497 213.353 540.682 142.399 525.469C79.8383 512.055 40.1236 477.937 23.4362 457.015C20.7929 453.701 23.1576 449.091 27.396 449.01Z" fill="#4ED98D"/>
</mask>
<g mask="url(#mask0_705_103)">
<path d="M123.093 507.387C79.5861 494.346 42.138 473.279 28.8523 464.375L28.4185 476.194L102.794 539.063C127.688 533.938 166.6 520.427 123.093 507.387Z" fill="#1F35A8" fill-opacity="0.12"/>
</g>
<mask id="mask1_705_103" style="mask-type:alpha" maskUnits="userSpaceOnUse" x="22" y="448" width="155" height="82">
<path d="M27.396 449.01C93.7688 447.747 118.578 477.681 122.678 493.502C158.816 510.497 213.353 540.682 142.399 525.469C79.8383 512.055 40.1236 477.937 23.4362 457.015C20.7929 453.701 23.1576 449.091 27.396 449.01Z" fill="#4ED98D"/>
</mask>
<g mask="url(#mask1_705_103)">
<path d="M17.3063 449.208L120.726 494.177" stroke="#DCFFEC" stroke-width="2.00063"/>
<path d="M100.114 486.26C99.2218 486.477 76.6764 495.486 68.3693 498.577" stroke="#DCFFEC" stroke-width="2.00063"/>
<circle cx="4.46865" cy="4.46865" r="3.46834" transform="matrix(-0.971636 0.236482 0.236482 0.971636 98.9001 492.857)" stroke="#DCFFEC" stroke-width="2.00063"/>
<path d="M52.6392 464.826L33.4589 470.673" stroke="#DCFFEC" stroke-width="2.00063"/>
<path d="M60.4454 468.203L38.3729 475.418" stroke="#DCFFEC" stroke-width="2.00063"/>
<path d="M64.7744 470.045L57.7225 449.022" stroke="#DCFFEC" stroke-width="2.00063"/>
<path d="M84.6343 478.605C83.7418 478.822 63.5424 486.759 55.2353 489.85" stroke="#DCFFEC" stroke-width="2.00063"/>
</g>
<path d="M23.5786 374.991C104.418 398.627 130.219 440.486 128.984 460.907C165.222 494.91 209.813 555.403 131.686 510.127C61.7866 469.618 27.9217 412.921 16.7018 382.026C15.1232 377.679 19.1399 373.693 23.5786 374.991Z" fill="#43EB8F"/>
<mask id="mask2_705_103" style="mask-type:alpha" maskUnits="userSpaceOnUse" x="14" y="373" width="159" height="154">
<path d="M17.8317 373.371C102.937 396.785 121.896 443.817 120.632 464.715C156.87 498.717 209.812 555.403 131.685 510.126C57.2475 466.988 23.6753 405.49 14.7982 376.346C14.2368 374.502 15.9739 372.86 17.8317 373.371Z" fill="#3EF993"/>
</mask>
<g mask="url(#mask2_705_103)">
<path d="M19.9342 377.916L118.865 466.831" stroke="#D3FFE7" stroke-width="3.33438"/>
<path d="M51.8129 406.372L48.8817 382.644" stroke="#D3FFE7" stroke-width="3.33438"/>
<path d="M70.1718 422.661L66.7285 386.699" stroke="#D3FFE7" stroke-width="3.33438"/>
<path d="M77.8182 429.971L42.5936 432.687" stroke="#D3FFE7" stroke-width="3.33438"/>
<path d="M104.384 453.728L62.6006 457.448" stroke="#D3FFE7" stroke-width="3.33438"/>
<circle cx="5.0396" cy="5.0396" r="4.206" transform="matrix(-0.971636 0.236482 0.236482 0.971636 76.204 438.209)" stroke="#D3FFE7" stroke-width="1.66719"/>
<path d="M78.508 416.357C79.0162 418.445 81.1207 419.726 83.2086 419.218C85.2965 418.71 86.5772 416.605 86.069 414.517C85.5608 412.429 83.4563 411.149 81.3684 411.657C79.2805 412.165 77.9998 414.27 78.508 416.357Z" stroke="#D3FFE7" stroke-width="1.66719"/>
</g>
<path d="M365.785 389.337C368.058 376.188 367.337 361.17 356.713 352.197C330.023 329.654 307.337 354.801 281.478 371.841C274.757 376.653 260.912 383.134 246.001 370.831C229.478 357.198 186.521 344.535 176.343 393.89C169.217 428.448 257.659 476.889 307.201 492.96C319.715 554.013 385.55 552.317 399.152 505.962C412.754 459.606 343.111 444.343 330.597 428.514C322.794 418.644 337.036 412.474 351.234 406.573C358.656 403.489 364.416 397.257 365.785 389.337Z" fill="#FFD35A"/>
<ellipse cx="240.676" cy="560.913" rx="125.233" ry="7.0929" fill="#C7CBF6"/>
<rect x="115.713" y="382.639" width="239.884" height="159.154" rx="7.44958" fill="#0A2D4D"/>
<rect x="127.229" y="388.462" width="210.031" height="147.509" fill="#CCD0FF"/>
<circle cx="346.331" cy="462.217" r="6.6775" fill="#E7F0F4" fill-opacity="0.19"/>
<mask id="mask3_705_103" style="mask-type:alpha" maskUnits="userSpaceOnUse" x="127" y="388" width="211" height="148">
<rect x="127.229" y="388.462" width="210.031" height="147.509" fill="#DCDFFF"/>
</mask>
<g mask="url(#mask3_705_103)">
<path d="M341.117 427.765H128.177H116.548V381.246H341.117V427.765Z" fill="#EAECFF"/>
</g>
<path d="M214.296 455.539H309.491" stroke="white" stroke-width="4.16798" stroke-linecap="round"/>
<path d="M214.296 469.455H309.491" stroke="white" stroke-width="4.16798" stroke-linecap="round"/>
<path d="M214.296 483.839H266.777M309.491 483.839H280.039" stroke="white" stroke-width="4.16798" stroke-linecap="round"/>
<path d="M214.296 497.562H238.406M309.491 497.562H252.828" stroke="white" stroke-width="4.16798" stroke-linecap="round"/>
<circle cx="168.616" cy="474.445" r="22.0876" fill="#43EA8E"/>
<path fill-rule="evenodd" clip-rule="evenodd" d="M151.853 485.028C153.054 478.592 157.869 473.428 164.112 471.722C165.003 473.289 166.687 474.346 168.619 474.346C170.55 474.346 172.235 473.289 173.126 471.721C179.37 473.428 184.185 478.593 185.385 485.03C182.082 490.873 175.811 494.818 168.62 494.818C161.427 494.818 155.156 490.873 151.853 485.028Z" fill="#505ACC"/>
<circle cx="168.615" cy="469.234" r="4.17423" fill="#FDDEBF"/>
<path d="M140.463 403.08H162.21" stroke="#505ACC" stroke-width="2.20398" stroke-linecap="round"/>
<path d="M140.463 409.617H162.21" stroke="#505ACC" stroke-width="2.20398" stroke-linecap="round"/>
<path d="M140.463 416.114H162.21" stroke="#505ACC" stroke-width="2.20398" stroke-linecap="round"/>
<path d="M371.938 483.36L386.886 479.259L371.989 477.278L371.938 483.36Z" fill="#588DED"/>
<path d="M317.479 496.292L376.121 446.465L374.435 467.985L386.77 479.15L372.713 478.152L371.724 505.156L317.479 496.292Z" fill="#DCEDFF"/>
<path d="M374.443 467.998L386.894 479.267L372.829 478.108L317.415 496.276L374.443 467.998Z" fill="#ABC7F3"/>
<circle cx="145.962" cy="348.313" r="13.5352" fill="#8E96F2"/>
<circle cx="146.873" cy="275.45" r="36.4503" fill="#FFD35A"/>
<path d="M126.144 334.779C125.559 317.025 122.366 302.678 118.208 297.704L146.505 291.299L173.716 300.031C163.793 309.471 166.682 326.34 166.357 334.779H126.144Z" fill="#FFD35A"/>
<rect x="125.614" y="326.182" width="40.6981" height="23.8201" rx="5.10308" fill="#505ACD"/>
<path d="M121.836 265.466C124.209 259.434 133.345 247.857 150.914 249.809" stroke="white" stroke-opacity="0.57" stroke-width="3.62645" stroke-linecap="round"/>
<path d="M151.41 326.183V312.742C151.41 307.765 152.848 302.909 155.251 298.55C158.874 291.978 162.947 283.536 163.734 278.424C164.148 275.731 163.83 272.431 161.418 272.65C158.404 272.924 158.274 282.104 154.842 282.652C151.41 283.2 154.691 271.28 151.41 271.965C148.128 272.65 148.813 282.652 145.936 282.652C143.058 282.652 144.976 271.28 141.551 271.965C138.126 272.65 141.825 281.145 138.674 282.652C135.523 284.159 135.249 273.061 131.549 274.157C127.85 275.253 131.138 286.215 132.645 290.462C133.272 292.229 134.988 295.184 136.838 298.103C139.784 302.75 141.551 308.081 141.551 313.583V326.183" stroke="white" stroke-width="1.53092"/>
<path d="M128.727 338.188H163.886" stroke="white" stroke-opacity="0.35" stroke-width="1.27577" stroke-linecap="round"/>
<path d="M128.727 332.754H163.886" stroke="white" stroke-opacity="0.35" stroke-width="1.27577" stroke-linecap="round"/>
<path d="M128.727 343.25H163.886" stroke="white" stroke-opacity="0.35" stroke-width="1.27577" stroke-linecap="round"/>
<rect x="210.951" y="280.883" width="64.3118" height="64.3118" rx="5.26678" fill="#EAEBFF"/>
<path fill-rule="evenodd" clip-rule="evenodd" d="M264.224 313.576H242.604V291.955C254.544 291.956 264.223 301.635 264.224 313.576Z" fill="#8E96F2"/>
<path fill-rule="evenodd" clip-rule="evenodd" d="M240.977 296.149C230.492 296.15 221.991 304.651 221.991 315.137C221.991 325.624 230.492 334.125 240.979 334.125C251.466 334.125 259.967 325.624 259.967 315.137C259.967 315.136 259.967 315.135 259.967 315.135H240.977V296.149Z" fill="#B0B7FF"/>
<rect x="394.523" y="367.379" width="45.4773" height="45.4773" rx="5.10686" fill="#FF4F9C"/>
<rect x="403.728" y="387.628" width="6.73255" height="17.729" fill="#D3D7FF"/>
<rect x="413.896" y="382.45" width="6.73255" height="22.9054" fill="#D3D7FF"/>
<rect x="424.06" y="374.882" width="6.73255" height="30.4716" fill="white"/>
<path d="M290 257C313.815 212.354 350.971 230.15 382.727 213.074C401.475 202.993 420.224 196.512 444.039 167.708C462.037 145.939 479.228 95.4905 465.32 68.3344C455.322 48.811 438.547 41.9405 423.264 52.4922C410.565 61.2593 404.513 76.3551 404.516 96.4182C404.52 134.307 443.546 138.329 469.881 132.423C501.053 125.432 515.383 88.9862 533.726 52.4922C556.528 7.12598 598.078 12.1666 630 12.1666" stroke="#ABC7F3" stroke-width="2" stroke-dasharray="8 8"/>
<path d="M623.953 1L643.357 11.7938L627.212 24.2783" stroke="#ABC7F3" stroke-width="2" stroke-dasharray="8 8"/>
<path d="M635.084 243.295C597.28 249.825 575.415 251.217 556.864 272.998C529.806 304.766 499.579 295.791 479.912 300.392C459.185 305.241 432.249 331.666 418 335" stroke="#ABC7F3" stroke-width="2" stroke-linecap="round" stroke-dasharray="8 8"/>
<path d="M633.815 232.873L651.21 243.345L636.416 254.215" stroke="#ABC7F3" stroke-width="2" stroke-dasharray="8 8"/>
<path d="M455.428 378.431C473.791 371.826 487.849 362.682 514.304 365.215C525.245 366.262 551.736 368.37 564.482 359.52C582.673 346.887 610.66 367.354 639.239 357.569" stroke="#ABC7F3" stroke-width="2" stroke-linecap="round" stroke-dasharray="8 8"/>
<path d="M631.325 349.92L653.749 352.407L638.605 369.725" stroke="#ABC7F3" stroke-width="2" stroke-dasharray="8 8"/>
<path d="M629.653 490.68C600.863 501.34 579.946 484.085 564.055 470.952C542.161 452.857 528.716 463.456 509.56 462.916C494.049 462.479 466.966 453.536 458.709 449.711" stroke="#ABC7F3" stroke-width="2" stroke-linecap="round" stroke-dasharray="8 8"/>
<path d="M622.145 483.158L643.119 486.333L630.464 502.368" stroke="#ABC7F3" stroke-width="2" stroke-dasharray="8 8"/>
<path d="M646.303 137.931C609.609 190.577 566.542 190.816 533.808 190.96C488.708 191.159 475.261 224.291 445.836 247.716C422.01 266.684 375.04 287.364 360 292" stroke="#ABC7F3" stroke-width="2" stroke-linecap="round" stroke-dasharray="8 8"/>
<path d="M635.936 135.588L655.359 127.058L653.238 147.374" stroke="#ABC7F3" stroke-width="2" stroke-dasharray="8 8"/>
<path d="M438.348 520.6C455.899 538.168 473.012 565.48 497.345 571.817C508.474 574.715 528.121 574.665 565.086 589.458C582.857 596.57 610.246 634.286 639.505 631.055" stroke="#ABC7F3" stroke-width="2" stroke-linecap="round" stroke-dasharray="8 8"/>
<path d="M637.928 619.918L654.257 634.873L632.35 641.205" stroke="#ABC7F3" stroke-width="2" stroke-dasharray="8 8"/>
<path d="M401 580C418.797 605.853 433.914 643.704 462.548 657.167C475.644 663.324 499.899 667.777 542.262 694.644C562.629 707.561 588.14 760.696 624.954 763.408" stroke="#ABC7F3" stroke-width="2" stroke-linecap="round" stroke-dasharray="8 8"/>
<path d="M625.393 752.17L638.788 769.801L616.102 772.118" stroke="#ABC7F3" stroke-width="2" stroke-dasharray="8 8"/>
</svg>
