<svg width="400" height="213" viewBox="0 0 400 213" fill="none" xmlns="http://www.w3.org/2000/svg">
<g clip-path="url(#clip0_802_779)">
<path d="M246.631 80.3042C245.385 75.4756 240.73 74.077 238.559 73.9812L232.943 87.2451L92.7172 106.665C91.4995 106.665 89.1358 108.177 89.4223 114.224C89.599 117.954 90.9075 119.948 92.2887 121.069C93.6975 122.211 95.6186 122.35 97.4324 122.35H238.454C242.97 122.35 246.631 118.689 246.631 114.173V80.3042Z" fill="#FAAA33"/>
<rect x="89.2305" y="73.6449" width="153.566" height="45.208" rx="6.13275" fill="#FBD535"/>
<path d="M137.68 73.7197H234.431C238.947 73.7197 242.608 77.3807 242.608 81.8967V107.188" stroke="white" stroke-width="2.04425" stroke-linecap="round"/>
<circle cx="131.549" cy="73.7199" r="1.20939" fill="white"/>
<path d="M119.254 91.3179H212.771" stroke="white" stroke-width="4.0885" stroke-linecap="round"/>
<path d="M119.254 101.18H212.771" stroke="white" stroke-width="4.0885" stroke-linecap="round"/>
<path d="M246.631 20.9311C245.385 16.1026 240.73 14.7039 238.559 14.6082L232.943 27.8721L92.7172 47.2922C91.4995 47.2922 89.1358 48.8039 89.4223 54.8508C89.599 58.5811 90.9075 60.5754 92.2887 61.6955C93.6975 62.8379 95.6186 62.9771 97.4324 62.9771H238.454C242.97 62.9771 246.631 59.3162 246.631 54.8001V20.9311Z" fill="#505ACC"/>
<rect x="89.2305" y="14.2717" width="153.566" height="45.208" rx="6.13275" fill="#DCDFFF"/>
<path d="M119.254 31.3779H212.771" stroke="#7E85DF" stroke-width="4.0885" stroke-linecap="round"/>
<path d="M119.254 41.2397H212.771" stroke="#7E85DF" stroke-width="4.0885" stroke-linecap="round"/>
<path d="M246.631 139.171C245.385 134.343 240.73 132.944 238.559 132.848L232.943 146.112L92.7172 165.532C91.4995 165.532 89.1358 167.044 89.4223 173.091C89.599 176.821 90.9075 178.816 92.2887 179.936C93.6975 181.078 95.6186 181.217 97.4324 181.217H238.454C242.97 181.217 246.631 177.556 246.631 173.04V139.171Z" fill="#505ACC"/>
<rect x="89.2305" y="132.512" width="153.566" height="45.208" rx="6.13275" fill="#DCDFFF"/>
<path d="M119.254 149.618H212.771" stroke="#7E85DF" stroke-width="4.0885" stroke-linecap="round"/>
<path d="M119.254 159.48H212.771" stroke="#7E85DF" stroke-width="4.0885" stroke-linecap="round"/>
<mask id="mask0_802_779" style="mask-type:alpha" maskUnits="userSpaceOnUse" x="0" y="-228" width="401" height="441">
<rect y="-228" width="400.081" height="440.797" rx="12.1729" fill="url(#paint0_linear_802_779)"/>
</mask>
<g mask="url(#mask0_802_779)">
<path d="M209.313 157.809C288.734 197.141 376.663 156.549 410.7 131.336L444.738 231.557H-11.9297V33.4666C94.2524 33.4664 110.037 108.644 209.313 157.809Z" fill="#CAD2FF" fill-opacity="0.34"/>
<ellipse cx="313.952" cy="152.815" rx="21.1039" ry="5.07634" fill="#001145"/>
<path d="M325.062 84.3041C330.667 88.5906 330.42 134.726 329.595 157.259L301.674 162.24V135.442C295.262 132.226 281.296 126.107 277.863 122.245C274.43 118.383 277.863 115.236 280.48 115.89C277.691 111.17 280.48 108.227 284.851 109.298C280.56 103.183 285.807 100.284 289.258 100.967C287.191 99.6236 284.894 98.1375 282.437 96.5578C272.363 90.0814 271.213 84.3041 276.25 84.3041C280.28 84.3041 304.955 98.2678 316.788 105.25C317.508 94.9354 318.055 78.9459 325.062 84.3041Z" fill="#FDDEBF"/>
<path d="M292.89 152.338C307.645 158.515 327.061 154.912 334.925 152.338L337.927 230.831H289.459L292.89 152.338Z" fill="#45EA8E"/>
<path d="M316.762 104.72C314.298 105.989 309.021 111.156 307.627 121.667" stroke="#EBB47E" stroke-width="1.9781" stroke-linecap="round"/>
<path d="M293.545 102.869C288.695 100.422 285.952 101.215 284.538 102.749C283.176 104.227 283.543 106.771 285.081 108.066C286.036 108.87 287.9 109.662 293.545 112.188C303.378 116.586 305.275 113.816 305.275 111.667C305.275 110.838 302.947 107.613 293.545 102.869Z" stroke="#EBB47E" stroke-width="1.9781" stroke-linecap="round"/>
<path d="M289.315 111.081C285.424 109.118 283.019 109.067 281.564 109.817C279.298 110.985 280.079 114.642 282.132 116.155C283.228 116.963 285.226 118.049 289.315 119.879C299.148 124.277 301.045 122.028 301.045 119.879C301.045 119.05 298.716 115.825 289.315 111.081Z" stroke="#EBB47E" stroke-width="1.9781" stroke-linecap="round"/>
<path d="M285.389 118.442C281.498 116.478 279.093 116.427 277.638 117.177C275.372 118.346 276.153 122.003 278.206 123.515C279.303 124.324 281.3 125.41 285.389 127.239C295.222 131.638 297.119 129.388 297.119 127.239C297.119 126.41 294.79 123.185 285.389 118.442Z" stroke="#EBB47E" stroke-width="1.9781" stroke-linecap="round"/>
<path d="M288.281 128.795C292.791 131.12 303.816 136.408 311.832 138.97" stroke="#EBB47E" stroke-width="1.9781" stroke-linecap="round"/>
</g>
<path d="M260.12 63.0098C259.832 72.0554 254.483 73.2412 252.422 73.9281C257.825 74.214 260.109 81.8962 260.12 84.9523C260.12 78.5872 264.697 74.0692 267.551 73.9281C262.806 73.1426 259.999 66.9293 260.12 63.0098Z" fill="#FBD535"/>
</g>
<defs>
<linearGradient id="paint0_linear_802_779" x1="200.04" y1="-228" x2="200.04" y2="212.797" gradientUnits="userSpaceOnUse">
<stop stop-color="#505ACB"/>
<stop offset="0.817708" stop-color="#658DE4"/>
</linearGradient>
<clipPath id="clip0_802_779">
<rect width="400" height="213" fill="white"/>
</clipPath>
</defs>
</svg>
