<svg width="400" height="206" viewBox="0 0 400 206" fill="none" xmlns="http://www.w3.org/2000/svg">
<g clip-path="url(#clip0_802_986)">
<mask id="mask0_802_986" style="mask-type:alpha" maskUnits="userSpaceOnUse" x="0" y="-235" width="401" height="441">
<rect y="-235" width="400.007" height="440.715" rx="12.1706" fill="url(#paint0_linear_802_986)"/>
</mask>
<g mask="url(#mask0_802_986)">
<path d="M150.265 71.2071C70.7635 33.1848 10.5617 74.5677 -9.60156 100.012V223.872H422.469V-3.68501C421.509 -41.6112 416.708 -98.1644 405.186 -20.9677C390.784 75.5281 249.641 118.735 150.265 71.2071Z" fill="#CAD2FF" fill-opacity="0.29"/>
</g>
<ellipse cx="200.003" cy="158.354" rx="106.179" ry="6.01371" fill="#4E78DA"/>
<path d="M72.6533 66.437C78.4607 72.439 92.7779 90.1858 103.588 113.157" stroke="#45EA8E" stroke-width="2.8436"/>
<path d="M52.238 38.2342C71.5551 43.7468 75.4073 60.8691 74.8197 69.1697C57.131 65.2119 50.6341 50.3993 49.1144 40.9554C48.8239 39.1496 50.4792 37.7323 52.238 38.2342Z" fill="#45EA8E"/>
<path d="M90.6112 49.2084C96.6681 66.2402 86.421 73.3282 80.1781 74.7614C77.9851 61.2054 82.7547 52.4249 86.8515 48.2373C88.0673 46.9946 90.0286 47.5704 90.6112 49.2084Z" fill="#45EA8E"/>
<path d="M103.478 65.2859C108.528 82.6429 97.8834 89.1192 91.5673 90.1846C90.1713 76.5235 95.4466 68.0372 99.7813 64.0965C101.068 62.927 102.992 63.6166 103.478 65.2859Z" fill="#45EA8E"/>
<path d="M115.777 84.5453C119.306 102.274 108.141 107.805 101.756 108.32C101.548 94.5889 107.538 86.5911 112.198 83.0404C113.581 81.9866 115.438 82.8402 115.777 84.5453Z" fill="#45EA8E"/>
<path d="M55.0708 76.0522C66.9537 69.7792 76.7104 72.7969 80.371 75.3683C73.8382 85.1678 62.5355 83.4472 55.2144 80.3299C53.3128 79.5202 53.243 77.0171 55.0708 76.0522Z" fill="#45EA8E"/>
<path d="M62.3369 88.1058C76.41 82.0824 87.122 86.5071 90.9615 89.7781C82.5328 100.175 69.8458 96.7733 62.073 92.4316C60.2686 91.4237 60.4368 88.919 62.3369 88.1058Z" fill="#45EA8E"/>
<path d="M71.5244 106.187C85.5975 100.164 96.3095 104.589 100.149 107.86C91.7203 118.257 79.0333 114.855 71.2605 110.513C69.4561 109.505 69.6243 107.001 71.5244 106.187Z" fill="#45EA8E"/>
<path d="M318.145 96.6812C314.393 102.066 305.514 117.629 300.012 136.804" stroke="#43EA8E" stroke-width="2.23446"/>
<path d="M330.443 72.2398C316.151 78.94 315.311 92.7051 316.809 99.0702C330.033 93.7804 333.214 81.475 333.208 73.9586C333.207 72.5214 331.745 71.6297 330.443 72.2398Z" fill="#43EA8E"/>
<path d="M302.05 85.5681C299.489 99.5397 308.327 103.752 313.349 104.08C313.349 93.2896 308.548 87.0772 304.844 84.343C303.745 83.5315 302.296 84.2243 302.05 85.5681Z" fill="#43EA8E"/>
<path d="M294.09 99.6544C292.351 113.752 301.421 117.44 306.454 117.474C305.822 106.702 300.665 100.781 296.808 98.2679C295.664 97.5222 294.257 98.2986 294.09 99.6544Z" fill="#43EA8E"/>
<path d="M286.965 116.138C286.453 130.333 295.807 133.223 300.825 132.821C299.263 122.144 293.613 116.691 289.553 114.522C288.348 113.878 287.014 114.773 286.965 116.138Z" fill="#43EA8E"/>
<path d="M332.99 101.931C322.986 98.5561 315.796 102.121 313.279 104.575C319.576 111.357 328.128 108.604 333.416 105.267C334.789 104.4 334.529 102.45 332.99 101.931Z" fill="#43EA8E"/>
<path d="M328.865 112.195C317.193 109.288 309.439 114.065 306.871 117.084C314.714 124.091 324.128 119.86 329.613 115.517C330.886 114.509 330.441 112.587 328.865 112.195Z" fill="#43EA8E"/>
<path d="M324.006 127.374C312.334 124.468 304.58 129.244 302.012 132.263C309.855 139.271 319.269 135.04 324.754 130.697C326.027 129.688 325.582 127.767 324.006 127.374Z" fill="#43EA8E"/>
<rect x="98.3105" y="22.3374" width="203.385" height="134.938" rx="8.98092" fill="#0A2D4D"/>
<rect x="108.072" y="27.2744" width="178.075" height="125.065" fill="#CCD0FF"/>
<circle cx="293.839" cy="89.807" r="5.66151" fill="#E7F0F4" fill-opacity="0.1"/>
<mask id="mask1_802_986" style="mask-type:alpha" maskUnits="userSpaceOnUse" x="108" y="27" width="179" height="126">
<rect x="108.072" y="27.2744" width="178.075" height="125.065" fill="#DCDFFF"/>
</mask>
<g mask="url(#mask1_802_986)">
<path d="M289.419 60.5961H108.878H99.0176V21.1556H289.419V60.5961Z" fill="#EAECFF"/>
</g>
<path d="M156.754 79.2952H237.464" stroke="white" stroke-width="4.08774" stroke-linecap="round"/>
<path d="M156.754 89.1952H237.464" stroke="white" stroke-width="4.08774" stroke-linecap="round"/>
<path d="M156.754 119.025H237.464" stroke="white" stroke-width="4.08774" stroke-linecap="round"/>
<path d="M156.754 99.4294H201.25M237.464 99.4294H212.494" stroke="white" stroke-width="4.08774" stroke-linecap="round"/>
<path d="M156.754 109.194H177.196M237.464 109.194H189.424" stroke="white" stroke-width="4.08774" stroke-linecap="round"/>
<circle cx="262.601" cy="44.5648" r="11.2887" fill="#43EA8E"/>
<path fill-rule="evenodd" clip-rule="evenodd" d="M254.033 49.9737C254.647 46.6843 257.108 44.0449 260.299 43.1731C260.754 43.9746 261.615 44.5153 262.602 44.5153C263.59 44.5153 264.451 43.9748 264.906 43.1735C268.097 44.0459 270.557 46.6853 271.171 49.9746C269.482 52.9611 266.277 54.977 262.602 54.977C258.926 54.977 255.721 52.9606 254.033 49.9737Z" fill="#505ACC"/>
<circle cx="262.602" cy="41.9015" r="2.1334" fill="#FDDEBF"/>
<path d="M119.293 39.769H137.731" stroke="#505ACC" stroke-width="2.65703" stroke-linecap="round"/>
<path d="M119.293 45.3098H137.731" stroke="#505ACC" stroke-width="2.65703" stroke-linecap="round"/>
<path d="M119.293 50.8188H137.731" stroke="#505ACC" stroke-width="2.65703" stroke-linecap="round"/>
</g>
<defs>
<linearGradient id="paint0_linear_802_986" x1="200.003" y1="-235" x2="200.003" y2="205.715" gradientUnits="userSpaceOnUse">
<stop stop-color="#505ACB"/>
<stop offset="0.817708" stop-color="#658DE4"/>
</linearGradient>
<clipPath id="clip0_802_986">
<rect width="400" height="206" fill="white"/>
</clipPath>
</defs>
</svg>
