<svg width="400" height="204" viewBox="0 0 400 204" fill="none" xmlns="http://www.w3.org/2000/svg">
<mask id="mask0_802_592" style="mask-type:alpha" maskUnits="userSpaceOnUse" x="0" y="-237" width="400" height="441">
<rect y="-237" width="399.903" height="440.601" rx="12.1675" fill="url(#paint0_linear_802_592)"/>
</mask>
<g mask="url(#mask0_802_592)">
<path d="M119.663 75.158C49.3313 51.3692 -7.55523 107.221 -12.7266 110.324V214.788H408.231C414.782 194.791 426.021 150.041 418.574 131.01C409.266 107.221 345.139 53.4378 273.773 110.324C202.407 167.21 189.995 98.9469 119.663 75.158Z" fill="#CAD2FF" fill-opacity="0.27"/>
<path d="M218.803 94.2353L216.097 93.3067L216.088 93.3341L216.079 93.3618L218.803 94.2353ZM230.242 115.191L229.324 117.901L230.242 115.191ZM201.973 79.5254L201.407 76.7214L201.973 79.5254ZM147.346 142.559C147.333 144.139 148.603 145.43 150.183 145.444C151.763 145.457 153.054 144.187 153.068 142.607L147.346 142.559ZM153.354 137.352C153.509 135.779 152.361 134.379 150.788 134.224C149.216 134.068 147.816 135.217 147.66 136.789L153.354 137.352ZM149.722 125.465C149.316 126.992 150.226 128.558 151.752 128.964C153.279 129.37 154.846 128.461 155.252 126.934L149.722 125.465ZM158.769 116.939C159.41 115.495 158.759 113.805 157.315 113.163C155.872 112.522 154.181 113.173 153.54 114.617L158.769 116.939ZM159.073 104.506C158.2 105.823 158.56 107.598 159.877 108.471C161.194 109.344 162.969 108.984 163.842 107.668L159.073 104.506ZM170.416 99.4399C171.51 98.2998 171.473 96.4889 170.333 95.3951C169.193 94.3013 167.382 94.3388 166.288 95.4789L170.416 99.4399ZM175.037 87.907C173.751 88.8256 173.454 90.6123 174.372 91.8977C175.291 93.1831 177.078 93.4804 178.363 92.5618L175.037 87.907ZM187.452 87.249C188.882 86.577 189.496 84.8731 188.824 83.4432C188.152 82.0134 186.448 81.399 185.018 82.071L187.452 87.249ZM195.812 78.0685C194.291 78.4961 193.405 80.0757 193.832 81.5967C194.26 83.1176 195.84 84.0039 197.36 83.5763L195.812 78.0685ZM208.463 81.3831C210.032 81.2036 211.159 79.7855 210.98 78.2159C210.8 76.6462 209.382 75.5193 207.812 75.6989L208.463 81.3831ZM220.9 75.7218C219.335 75.5027 217.889 76.5935 217.67 78.1581C217.451 79.7228 218.542 81.1688 220.106 81.3879L220.9 75.7218ZM230.548 85.0352C231.876 85.891 233.647 85.5082 234.503 84.1802C235.358 82.8522 234.976 81.0818 233.648 80.226L230.548 85.0352ZM242.703 90.7145C242.056 89.2731 240.364 88.6289 238.922 89.2757C237.481 89.9225 236.836 91.6154 237.483 93.0568L242.703 90.7145ZM239.057 103.657C238.861 105.225 239.973 106.655 241.541 106.851C243.109 107.047 244.538 105.935 244.734 104.367L239.057 103.657ZM237.692 117.058C239.046 116.243 239.483 114.485 238.668 113.132C237.853 111.778 236.095 111.341 234.742 112.156L237.692 117.058ZM226.043 109.873C224.779 108.925 222.986 109.183 222.038 110.447C221.091 111.712 221.349 113.505 222.613 114.452L226.043 109.873ZM215.262 101.064C215.393 102.638 216.776 103.808 218.35 103.677C219.925 103.545 221.095 102.163 220.963 100.588L215.262 101.064ZM223.8 89.3659C224.449 87.9252 223.806 86.2316 222.366 85.5832C220.925 84.9348 219.231 85.5771 218.583 87.0179L223.8 89.3659ZM225.264 75.2955C224.354 76.5872 224.664 78.3718 225.956 79.2816C227.247 80.1914 229.032 79.8819 229.942 78.5902L225.264 75.2955ZM238.016 69.1448C239.147 68.0423 239.171 66.2312 238.069 65.0996C236.966 63.968 235.155 63.9444 234.023 65.0469L238.016 69.1448ZM244.398 56.5185C243.101 57.4204 242.781 59.2031 243.682 60.5003C244.584 61.7975 246.367 62.118 247.664 61.2162L244.398 56.5185ZM258.47 54.8068C259.881 54.0948 260.447 52.3743 259.735 50.9639C259.023 49.5535 257.302 48.9873 255.892 49.6992L258.47 54.8068ZM268.107 44.4305C266.623 44.9728 265.86 46.6153 266.402 48.0993C266.944 49.5832 268.587 50.3466 270.071 49.8043L268.107 44.4305ZM282.194 46.0608C283.724 45.6679 284.647 44.1089 284.254 42.5786C283.861 41.0483 282.302 40.1262 280.772 40.5191L282.194 46.0608ZM293.711 37.7991C292.152 38.0581 291.099 39.5315 291.358 41.09C291.617 42.6486 293.09 43.702 294.649 43.443L293.711 37.7991ZM307.287 41.8639C308.861 41.7307 310.029 40.3466 309.896 38.7723C309.763 37.198 308.379 36.0297 306.804 36.1629L307.287 41.8639ZM320.012 35.591C318.433 35.5913 317.152 36.8723 317.152 38.4522C317.153 40.0321 318.434 41.3127 320.014 41.3123L320.012 35.591ZM153.068 142.607C153.082 140.922 153.175 139.164 153.354 137.352L147.66 136.789C147.465 138.767 147.362 140.697 147.346 142.559L153.068 142.607ZM155.252 126.934C156.132 123.619 157.295 120.257 158.769 116.939L153.54 114.617C151.938 118.223 150.677 121.871 149.722 125.465L155.252 126.934ZM163.842 107.668C165.747 104.795 167.931 102.031 170.416 99.4399L166.288 95.4789C163.554 98.3289 161.157 101.363 159.073 104.506L163.842 107.668ZM178.363 92.5618C181.122 90.5902 184.146 88.803 187.452 87.249L185.018 82.071C181.397 83.7729 178.075 85.7355 175.037 87.907L178.363 92.5618ZM197.36 83.5763C199.029 83.1072 200.755 82.6902 202.54 82.3294L201.407 76.7214C199.484 77.11 197.619 77.5603 195.812 78.0685L197.36 83.5763ZM202.54 82.3294C204.621 81.9088 206.594 81.5969 208.463 81.3831L207.812 75.6989C205.772 75.9323 203.637 76.2707 201.407 76.7214L202.54 82.3294ZM220.106 81.3879C224.462 81.9978 227.888 83.3207 230.548 85.0352L233.648 80.226C230.215 78.014 225.985 76.4338 220.9 75.7218L220.106 81.3879ZM237.483 93.0568C239.04 96.5257 239.477 100.301 239.057 103.657L244.734 104.367C245.274 100.048 244.72 95.2091 242.703 90.7145L237.483 93.0568ZM234.742 112.156C233.727 112.767 232.571 112.96 231.16 112.482L229.324 117.901C232.341 118.923 235.246 118.53 237.692 117.058L234.742 112.156ZM231.16 112.482C229.036 111.763 227.362 110.861 226.043 109.873L222.613 114.452C224.461 115.836 226.684 117.007 229.324 117.901L231.16 112.482ZM220.963 100.588C220.782 98.4205 221.098 96.4466 221.527 95.1088L216.079 93.3618C215.429 95.3873 215.016 98.1158 215.262 101.064L220.963 100.588ZM221.509 95.1639C222.197 93.1587 222.963 91.227 223.8 89.3659L218.583 87.0179C217.673 89.0401 216.842 91.1356 216.097 93.3067L221.509 95.1639ZM229.942 78.5902C232.364 75.1519 235.074 72.0115 238.016 69.1448L234.023 65.0469C230.842 68.1465 227.9 71.5539 225.264 75.2955L229.942 78.5902ZM247.664 61.2162C251.103 58.8255 254.726 56.697 258.47 54.8068L255.892 49.6992C251.931 51.6988 248.076 53.9619 244.398 56.5185L247.664 61.2162ZM270.071 49.8043C274.08 48.3394 278.144 47.1005 282.194 46.0608L280.772 40.5191C276.555 41.6015 272.309 42.895 268.107 44.4305L270.071 49.8043ZM294.649 43.443C299.006 42.719 303.25 42.2052 307.287 41.8639L306.804 36.1629C302.624 36.5164 298.228 37.0484 293.711 37.7991L294.649 43.443ZM320.014 41.3123C322.271 41.3119 324.388 41.3671 326.336 41.4666L326.628 35.7527C324.577 35.648 322.363 35.5905 320.012 35.591L320.014 41.3123Z" fill="#E4F1FF"/>
<path d="M282.55 53.2275L264.276 61.9805L277.29 47.2648L282.55 53.2275Z" fill="#4066C9"/>
<path d="M347.404 19.3543L246.813 20.379L266.912 40.1861L264.293 61.7777L277.321 48.7516L301.428 74.5714L347.404 19.3543Z" fill="#E4F1FF"/>
<path d="M266.919 40.2001L264.276 61.9933L277.172 48.8013L347.456 19.277L266.919 40.2001Z" fill="#ABC7F3"/>
<rect x="76.2676" y="16.8499" width="103.869" height="125.396" rx="5.25975" fill="#505ACC"/>
<rect x="66.1035" y="26.9873" width="103.869" height="125.396" rx="5.25975" fill="#FBD535"/>
<path d="M85.6328 52.8883H150.444" stroke="white" stroke-width="4.62084" stroke-linecap="round"/>
<path d="M85.6328 64.0175H150.444" stroke="white" stroke-width="4.62084" stroke-linecap="round"/>
<path d="M85.6328 75.9113H121.363M150.444 75.9113H130.392" stroke="white" stroke-width="4.62084" stroke-linecap="round"/>
<path d="M85.6328 87.0664H102.048M150.444 87.0664H111.867" stroke="white" stroke-width="4.62084" stroke-linecap="round"/>
</g>
<defs>
<linearGradient id="paint0_linear_802_592" x1="199.951" y1="-237" x2="199.951" y2="203.601" gradientUnits="userSpaceOnUse">
<stop stop-color="#505ACB"/>
<stop offset="0.817708" stop-color="#658DE4"/>
</linearGradient>
</defs>
</svg>
