<svg width="400" height="224" viewBox="0 0 400 224" fill="none" xmlns="http://www.w3.org/2000/svg">
<g clip-path="url(#clip0_802_873)">
<mask id="mask0_802_873" style="mask-type:alpha" maskUnits="userSpaceOnUse" x="0" y="-217" width="400" height="441">
<rect y="-217" width="399.903" height="440.601" rx="12.1675" fill="url(#paint0_linear_802_873)"/>
</mask>
<g mask="url(#mask0_802_873)">
<path d="M288.641 90.64C358.973 66.8511 415.86 122.703 421.031 125.806V230.27H0.0733643C-6.47717 210.273 -17.7165 165.523 -10.2696 146.492C-0.960938 122.703 63.1653 68.9198 134.532 125.806C205.898 182.692 218.31 114.429 288.641 90.64Z" fill="#CAD2FF" fill-opacity="0.27"/>
</g>
<ellipse cx="225.461" cy="186.781" rx="77.1913" ry="8.54321" fill="#4E78DA"/>
<ellipse cx="98.3984" cy="185.176" rx="35.2832" ry="7.69064" fill="#4E78DA"/>
<path d="M128.256 85.1104C119.377 82.2766 104.759 64.2548 113.038 56.4932C123.29 46.8804 135.763 80.915 102.741 74.6229C101.954 74.4729 101.208 74.3004 100.502 74.1063" stroke="#F0A2A2" stroke-width="4.78817" stroke-linecap="round"/>
<path d="M150.117 162.736L148.27 148.516L178.174 144.631L180.019 158.834C180.218 160.369 179.522 161.901 178.154 162.627C168.852 167.564 158.662 167.12 152.873 165.877C151.369 165.554 150.315 164.262 150.117 162.736Z" fill="#FFC8CB"/>
<path d="M185.355 157.818L183.508 143.598L213.412 139.714L215.257 153.917C215.457 155.451 214.76 156.983 213.393 157.709C204.09 162.646 193.9 162.202 188.112 160.96C186.607 160.637 185.553 159.344 185.355 157.818Z" fill="#F2A1A5"/>
<path d="M219.933 165.095L217.632 147.383L250.525 142.061L252.958 160.789C253.161 162.351 252.434 163.904 251.035 164.627C240.588 170.026 229.138 169.572 222.758 168.269C221.223 167.956 220.135 166.649 219.933 165.095Z" fill="#FFC8CB"/>
<path d="M268.324 157.487L265.956 139.257L296.003 122.796L299.973 153.358C300.167 154.857 299.507 156.356 298.194 157.104C288.197 162.79 277.129 162.11 270.984 160.605C269.525 160.248 268.517 158.977 268.324 157.487Z" fill="#FFC8CB"/>
<path d="M219.933 165.095L217.632 147.383L250.525 142.061L252.958 160.789C253.161 162.351 252.434 163.904 251.035 164.627C240.588 170.026 229.138 169.572 222.758 168.269C221.223 167.956 220.135 166.649 219.933 165.095Z" fill="#FFC8CB"/>
<path d="M268.324 157.487L265.956 139.257L296.003 122.796L299.973 153.358C300.167 154.857 299.507 156.356 298.194 157.104C288.197 162.79 277.129 162.11 270.984 160.605C269.525 160.248 268.517 158.977 268.324 157.487Z" fill="#FFC8CB"/>
<mask id="mask1_802_873" style="mask-type:alpha" maskUnits="userSpaceOnUse" x="265" y="122" width="36" height="40">
<path d="M268.324 157.487L265.956 139.257L296.003 122.796L299.973 153.358C300.167 154.857 299.507 156.356 298.194 157.104C288.197 162.79 277.129 162.11 270.984 160.605C269.525 160.248 268.517 158.976 268.324 157.487Z" fill="#FFC8CB"/>
</mask>
<g mask="url(#mask1_802_873)">
<path d="M302.017 126.289C294.498 140.435 274.792 149.03 265.878 151.56L261.33 136.555L286.39 117.705C294.732 114.672 309.537 112.142 302.017 126.289Z" fill="#F2A1A5"/>
</g>
<mask id="mask2_802_873" style="mask-type:alpha" maskUnits="userSpaceOnUse" x="148" y="144" width="33" height="23">
<path d="M150.117 162.735L148.27 148.515L178.174 144.63L180.019 158.833C180.218 160.368 179.522 161.9 178.154 162.626C168.852 167.563 158.662 167.119 152.873 165.876C151.369 165.553 150.315 164.261 150.117 162.735Z" fill="#FFC8CB"/>
</mask>
<g mask="url(#mask2_802_873)">
<path d="M182.024 158.607C171.411 161.226 153.597 156.482 146.016 153.783L144.811 148.959L146.016 142.24C154.516 143.963 171.79 147.443 172.893 147.581C174.271 147.753 195.29 155.334 182.024 158.607Z" fill="#F2A1A5"/>
</g>
<mask id="mask3_802_873" style="mask-type:alpha" maskUnits="userSpaceOnUse" x="217" y="142" width="36" height="28">
<path d="M219.933 165.095L217.632 147.383L250.525 142.06L252.958 160.788C253.161 162.35 252.434 163.904 251.035 164.627C240.588 170.026 229.138 169.571 222.758 168.269C221.223 167.955 220.135 166.649 219.933 165.095Z" fill="#FFC8CB"/>
</mask>
<g mask="url(#mask3_802_873)">
<path d="M256.29 152.805C246.077 160.89 225.417 161.364 216.364 160.591L214.759 148.236L245.249 139.51C253.185 140.573 266.503 144.721 256.29 152.805Z" fill="#F2A1A5"/>
</g>
<path d="M129.19 73.6142C119.979 99.6626 127.185 122.078 137.46 138.014C145.642 150.703 160.552 156.628 175.629 157.411C213.117 159.359 250.155 157.284 274.931 145.558C283.461 141.521 290.567 134.906 295.578 126.909C309.609 104.517 308.612 81.4573 303.478 64.4411C299.361 50.7971 288.876 39.97 275.779 34.3498C235.445 17.0404 189.074 29.0245 158.704 43.1374C145.396 49.322 134.083 59.7782 129.19 73.6142Z" fill="#FFC8CB"/>
<path d="M217.596 57.7225C217.614 57.7327 217.632 57.7428 217.649 57.7529C217.626 57.7557 217.609 57.7455 217.596 57.7225C216.197 56.9392 211.635 55.8336 204.067 57.4648C205.295 57.2188 212.343 20.0679 228.372 20.2431C224.485 32.512 217.031 56.7396 217.596 57.7225Z" fill="#F49DA5"/>
<path d="M227.591 20.5493C217.68 21.3442 216.616 46.1211 217.323 58.4102C227.097 50.2455 241.518 50.8896 247.507 52.2323C244.998 41.3401 237.502 19.7545 227.591 20.5493Z" fill="#F9BEC2"/>
<path d="M257.024 51.2769C263.946 49.7846 268.177 50.899 269.426 51.6427L287.585 16.4193C272.521 13.8293 260.934 38.5785 257.024 51.2769Z" fill="#F2A1A5"/>
<path d="M298.171 53.3314C292.853 44.8951 276.512 48.7091 269.007 51.6706C271.797 39.5019 279.553 15.3929 288.253 16.3061C296.954 17.2193 298.491 41.3702 298.171 53.3314Z" fill="#F9BEC2"/>
<circle cx="283.784" cy="77.3226" r="3.20611" transform="rotate(-7.40079 283.784 77.3226)" fill="#E0888A"/>
<circle cx="254.495" cy="81.127" r="3.20611" transform="rotate(-7.40079 254.495 81.127)" fill="#E0888A"/>
<rect x="252.482" y="90.5317" width="36.84" height="22.243" rx="11.1215" transform="rotate(-7.40079 252.482 90.5317)" fill="#E0888A"/>
<mask id="mask4_802_873" style="mask-type:alpha" maskUnits="userSpaceOnUse" x="124" y="25" width="183" height="134">
<path d="M129.19 73.6144C119.979 99.6628 127.185 122.078 137.46 138.014C145.642 150.703 160.552 156.628 175.629 157.412C213.117 159.359 250.155 157.284 274.931 145.558C283.461 141.521 290.567 134.907 295.578 126.909C309.609 104.517 308.612 81.4575 303.478 64.4414C299.361 50.7973 288.876 39.9703 275.779 34.35C235.445 17.0406 189.074 29.0248 158.704 43.1377C145.396 49.3223 134.083 59.7785 129.19 73.6144Z" fill="#FFC8CB"/>
</mask>
<g mask="url(#mask4_802_873)">
<path d="M262.51 152.169C169.508 161.702 133.287 103.914 126.802 73.8279L113.181 91.5162L104.091 144.092L238.596 181.656C285.318 167.855 355.512 142.636 262.51 152.169Z" fill="#FEA8B0" fill-opacity="0.38"/>
</g>
<rect x="253.914" y="91.6721" width="36.84" height="22.243" rx="11.1215" transform="rotate(-7.40079 253.914 91.6721)" fill="#FDB6BB"/>
<rect x="276.533" y="96.0472" width="3.32562" height="5.86529" rx="1.66281" transform="rotate(-7.40079 276.533 96.0472)" fill="#E0888A"/>
<rect x="267.396" y="97.2334" width="3.32562" height="5.86529" rx="1.66281" transform="rotate(-7.40079 267.396 97.2334)" fill="#E0888A"/>
<path d="M204.228 40.6541C195.44 40.7985 172.422 44.0874 150.652 56.0872" stroke="#F0A2A2" stroke-width="5.5862" stroke-linecap="round"/>
<circle cx="177.414" cy="28.4916" r="23.3871" fill="#EBC731"/>
<circle cx="172.907" cy="28.4916" r="23.3871" fill="#FDD21B"/>
<path d="M196.287 44.2733C184.192 45.4313 170.607 50.1706 165.326 52.3954L166.211 56.4163C174.172 54.8884 190.256 51.8003 190.899 51.6717C191.703 51.5108 211.406 42.8257 196.287 44.2733Z" fill="#FFC8CB"/>
<ellipse cx="98.298" cy="182.712" rx="29.4797" ry="5.22705" fill="#FDD21B"/>
<path d="M127.778 182.86V148.307H68.8184V182.86H127.778Z" fill="#FDD21B"/>
<ellipse cx="98.298" cy="148.343" rx="29.4797" ry="5.22705" fill="#FFEEE0"/>
<path d="M126.742 157.786C123.464 159.999 111.755 161.624 98.2677 161.624C84.5576 161.624 72.8513 159.83 69.8516 157.529" stroke="#FFEDE0" stroke-width="2.65635" stroke-linecap="round"/>
<path d="M126.744 166.74C123.466 168.952 111.757 170.578 98.2697 170.578C84.5595 170.578 72.8533 168.784 69.8535 166.483" stroke="#FFEDE0" stroke-width="2.65635" stroke-linecap="round"/>
<path d="M126.742 175.693C123.464 177.906 111.755 179.532 98.2677 179.532C84.5576 179.532 72.8513 177.737 69.8516 175.437" stroke="#FFEDE0" stroke-width="2.65635" stroke-linecap="round"/>
<path d="M167.998 5.62569C173.629 4.00386 186.622 4.19299 193.541 17.9242" stroke="#FFEDE0" stroke-width="2.04334" stroke-linecap="round"/>
<path d="M165.27 34.61L168.516 32.7524L170.356 35.9674L167.11 37.825L168.249 39.8152L171.495 37.9576L173.913 42.183L176.516 40.6934L174.097 36.468L179.395 33.4362L178.255 31.446L172.958 34.4778L171.118 31.2628L174.333 29.4227C179.569 26.426 180.612 22.4957 178.632 19.0357C176.722 15.6983 173.338 13.9765 167.214 17.4815C165.867 18.2526 162.84 20.0663 161.646 20.7498L167.376 30.7622L164.131 32.6198L165.27 34.61ZM168.861 19.7908C172.26 17.8456 174.527 18.2553 175.981 20.7967C177.453 23.3687 176.256 25.68 173.102 27.485L169.979 29.2726L165.65 21.7097C166.643 21.1007 168.004 20.2815 168.861 19.7908Z" fill="#FFEDE0"/>
</g>
<defs>
<linearGradient id="paint0_linear_802_873" x1="199.951" y1="-217" x2="199.951" y2="223.601" gradientUnits="userSpaceOnUse">
<stop stop-color="#505ACB"/>
<stop offset="0.817708" stop-color="#658DE4"/>
</linearGradient>
<clipPath id="clip0_802_873">
<rect width="400" height="224" fill="white"/>
</clipPath>
</defs>
</svg>
