<svg width="400" height="220" viewBox="0 0 400 220" fill="none" xmlns="http://www.w3.org/2000/svg">
<g clip-path="url(#clip0_802_672)">
<mask id="mask0_802_672" style="mask-type:alpha" maskUnits="userSpaceOnUse" x="0" y="-221" width="400" height="441">
<rect y="-221" width="399.903" height="440.601" rx="12.1675" fill="url(#paint0_linear_802_672)"/>
</mask>
<g mask="url(#mask0_802_672)">
<path d="M219.514 108.176C287.791 24.323 363.422 27.7889 408.998 38.1961V233.063L-13.0337 243.829L-25.9531 38.1961H-13.0337C-41.0256 142.627 148.614 195.252 219.514 108.176Z" fill="#CAD2FF" fill-opacity="0.33"/>
</g>
<path d="M305.405 110.336C307.829 114.318 309.012 128.878 309.301 135.661L343.357 134.742C343.883 126.607 345.06 108.213 345.564 99.7235C346.194 89.1113 347.535 80.0635 343.357 79.3305C340.014 78.744 338.529 82.3631 338.205 84.2459L338.218 84.0614C338.646 78.2541 339.457 67.2243 335.098 66.4727C330.941 65.756 329.245 68.5033 328.917 69.9665C329.395 66.9505 329.221 60.9006 324.706 60.8289C320.191 60.7573 319.685 67.3815 319.996 70.7025C319.648 69.1825 318.8 67.5178 317.002 66.4727C315.986 65.8817 315.036 65.7619 314.188 65.9202C311.173 66.4837 310.6 70.3256 310.6 73.3936V99.0802C307.353 94.9676 299.82 87.3919 295.665 89.9893C290.47 93.2361 302.375 105.357 305.405 110.336Z" fill="#FDDEBF"/>
<path d="M346.992 132.357H306.197L302.731 152.464L298.449 219.566H341.121L346.992 132.357Z" fill="#FDD21B"/>
<path d="M260.948 67.3262C262.128 73.2301 264.877 86.2255 271.885 99.6318C278.133 111.586 267.215 128.363 258.223 131.088" stroke="#0A2D4D" stroke-width="1.96474"/>
<path d="M183.357 29.211C197.029 6.09841 219.979 4.66064 229.745 6.83083C229.745 9.23604 242.442 9.19177 245.988 9.99768C257.181 12.5415 266.338 22.4624 269.841 32.6748C277.592 55.2763 253.431 60.0237 265.365 90.6548C274.913 115.16 263.5 127.179 256.601 130.125L132.493 137.45C128.424 120.766 132.086 104.49 155.28 90.6548C178.474 76.8198 166.266 58.1018 183.357 29.211Z" fill="#0B2F4E"/>
<path d="M301.482 189.931C289.732 141.888 243.266 115.153 221.502 107.791C219.876 112.759 216.69 123.22 216.951 125.308C217.212 127.397 261.229 169.26 283.205 189.931H301.482Z" fill="#FDD21B"/>
<path d="M222.234 114.231L222.234 88.5957L194.704 63.3139L177.079 104.465L168.046 108.534L163.977 116.673L177.079 128.949L199.948 133.231L214.83 130.569L229.588 128.949L229.588 120.151C225.574 118.463 226.761 115.994 222.234 114.231Z" fill="#FDDEBF"/>
<path fill-rule="evenodd" clip-rule="evenodd" d="M259.994 50.3778C257.482 70.2932 249.275 101.776 231.551 102.466C211.842 103.232 197.255 96.5919 196.034 78.629C191.999 61.9561 196.85 35.4556 206.084 25.0771C213.984 16.1979 226.096 14.9199 234.625 15.7537C245.285 13.0394 255.123 19.0667 259.558 39.2818C260.355 42.9171 260.459 46.6853 259.994 50.3778Z" fill="#FDDEBF"/>
<path d="M201.609 92.5347C209.823 99.456 217.247 102.169 222.356 102.206L222.356 111.735C208.531 103.055 205.208 96.6875 201.609 92.5347Z" fill="#EBB47E"/>
<path d="M222.67 114.008C198.897 123.409 182.847 111.405 177.794 104.228C110.222 128.147 91.2389 198.181 87.1699 219.92H302.997C286.621 173.911 240.398 120.117 222.67 114.008Z" fill="#FDD21B"/>
<path d="M174.273 215.304H332.252" stroke="#505ACC" stroke-width="9.0507" stroke-linecap="round"/>
<path d="M244.067 146.143L222.41 213.28L336.662 215.964L357.857 148.585C358.672 145.993 356.737 143.355 354.02 143.355H247.895C246.15 143.355 244.603 144.482 244.067 146.143Z" fill="#505ACC"/>
<path d="M242.426 34.0371C237.145 30.0313 233.777 17.5521 233.777 13.4265L245.996 13.4266C248.825 13.4266 262.97 33.4656 269.689 43.485C267.214 50.4397 259.517 66.6276 259.517 58.6862C259.517 46.629 251.932 41.2474 242.426 34.0371Z" fill="#0A2D4D"/>
<path d="M196.183 48.4389C223.361 53.5679 239.198 27.7875 244.621 18.1216C243.913 14.2317 236.448 4.79777 225.132 2.81745C210.987 0.342053 184.111 12.0118 178.1 41.7166C173.29 65.4805 185.762 51.6182 192.598 41.7166L196.183 48.4389Z" fill="#0A2D4D"/>
<path d="M220.724 3.46039C213.297 1.06194 194.914 2.39264 180.802 26.9031C163.162 57.5411 176.624 70.5391 159.216 84.4654C141.808 98.3918 135.077 103.266 132.988 119.049" stroke="#0A2D4D" stroke-width="1.96474"/>
<circle cx="197.201" cy="56.0342" r="9.06107" transform="rotate(16.7972 197.201 56.0342)" fill="#FDDEBF"/>
<path d="M201.23 58.7237C200.932 56.8804 199.103 52.6976 194.178 50.7126" stroke="#EBB47E" stroke-width="1.47355" stroke-linecap="round"/>
<path d="M197.982 53.1829C196.476 53.6174 193.238 55.3206 192.334 58.6575" stroke="#EBB47E" stroke-width="1.47355" stroke-linecap="round"/>
<path d="M319.967 89.4111V71.615" stroke="#EBB47E" stroke-width="1.47355" stroke-linecap="round"/>
<path d="M328.867 88.7311V70.9351" stroke="#EBB47E" stroke-width="1.47355" stroke-linecap="round"/>
<path d="M338.052 84.5774V95.4677M341.238 94.9939C338.372 94.9382 333.963 96.8702 329.879 103.298" stroke="#EBB47E" stroke-width="1.47355" stroke-linecap="round"/>
<path d="M310.781 99.1113C314.702 100.059 323.503 104.012 327.345 112.244" stroke="#EBB47E" stroke-width="1.47355" stroke-linecap="round"/>
<path d="M251.353 67.669C248.699 67.6859 246.672 68.7802 245.22 70.1357C242.926 72.2752 243.001 76.1807 245.845 77.504C248.926 78.9378 253.192 78.683 255.538 77.3771C259.028 75.4342 257.943 67.6269 251.353 67.669Z" fill="#FEB7A1"/>
<path d="M218.274 65.7081C215.518 65.7257 213.467 66.9551 212.057 68.4021C210.17 70.3383 210.194 73.6432 212.573 74.9281C215.547 76.5348 219.929 76.3297 222.287 75.017C225.634 73.154 224.593 65.6678 218.274 65.7081Z" fill="#FEB7A1"/>
<path d="M174.273 115.275C180.212 120.888 198.287 129.917 223.081 121.132" stroke="#FDE46E" stroke-width="2.94711" stroke-linecap="round"/>
<circle cx="227.877" cy="118.725" r="1.31303" fill="#FDE46E"/>
<path fill-rule="evenodd" clip-rule="evenodd" d="M56.7294 57.3689C43.9875 57.3689 33.6582 67.6982 33.6582 80.4401C33.6582 93.1819 43.9875 103.511 56.7294 103.511H85.9325C89.6321 106.462 94.6827 109.847 101.264 113.184C99.3606 111.346 96.3013 107.646 94.4386 103.411C106.166 102.321 115.346 92.4524 115.346 80.4401C115.346 67.6982 105.017 57.3689 92.2753 57.3689H56.7294Z" fill="#43EA8E"/>
<circle cx="60.3902" cy="81.5584" r="3.01911" fill="#505ACC"/>
<circle cx="74.5015" cy="81.5584" r="3.01911" fill="#505ACC"/>
<circle cx="88.6129" cy="81.5584" r="3.01911" fill="#505ACC"/>
<rect x="88.9141" y="19.6584" width="52.1198" height="52.1198" rx="4.24033" fill="#CAD2FF"/>
<rect x="96.2559" y="41.2991" width="8.78879" height="20.67" fill="#9FA8FB"/>
<rect x="110.58" y="35.2769" width="8.78879" height="26.6919" fill="#9FA8FB"/>
<rect x="124.902" y="29.7434" width="8.78879" height="32.2256" fill="#505ACC"/>
</g>
<defs>
<linearGradient id="paint0_linear_802_672" x1="199.951" y1="-221" x2="199.951" y2="219.601" gradientUnits="userSpaceOnUse">
<stop stop-color="#505ACB"/>
<stop offset="0.817708" stop-color="#658DE4"/>
</linearGradient>
<clipPath id="clip0_802_672">
<rect width="400" height="220" fill="white"/>
</clipPath>
</defs>
</svg>
