<svg width="400" height="87" viewBox="0 0 400 87" fill="none" xmlns="http://www.w3.org/2000/svg">
<path d="M-18.3065 28.3395C-18.3065 28.3395 25.1982 56.2447 88.0196 18.1397C132.868 -9.95801 172.971 6.0795 195.311 15.702C217.652 25.3245 249.902 31.2263 311.338 115.968C311.338 115.968 331.326 142.526 364.333 157.088C397.339 171.651 413.213 164.53 439.164 134.636C465.116 104.742 482.123 71.6407 529.827 93.2593V393.77L-22.5898 150.417V26.383L-18.3065 28.3395Z" fill="#F5F6FF" fill-opacity="0.28"/>
<path d="M194.525 17.2158V245.782" stroke="#E9EAF2" stroke-width="0.994324" stroke-miterlimit="10"/>
<path d="M-22.5898 26.3867C75.4216 72.7992 89.2793 -32.118 196.067 14.968C302.855 62.0541 288.116 123.414 366.936 158.183C445.757 192.952 447.605 57.1466 529.827 93.4235" stroke="#E9EAF2" stroke-opacity="0.3" stroke-width="4.90747" stroke-miterlimit="10"/>
</svg>
