<svg width="141" height="70" viewBox="0 0 141 70" fill="none" xmlns="http://www.w3.org/2000/svg">
<ellipse cx="100.842" cy="66.399" rx="27.9292" ry="2.23484" fill="#B0B7FF"/>
<rect x="64.4163" width="76.0235" height="58.7403" rx="6.85403" fill="#586CD4"/>
<path fill-rule="evenodd" clip-rule="evenodd" d="M128.767 38.0988H116.128V25.4596C123.109 25.4599 128.767 31.1185 128.767 38.0987C128.767 38.0988 128.767 38.0988 128.767 38.0988Z" fill="#D3D7FF"/>
<path fill-rule="evenodd" clip-rule="evenodd" d="M115.178 27.913C109.049 27.9137 104.08 32.8828 104.08 39.0124C104.08 45.1425 109.049 50.1119 115.179 50.1119C121.309 50.1119 126.279 45.1425 126.279 39.0124C126.279 39.0119 126.279 39.0113 126.279 39.0108H115.178V27.913Z" fill="#B0B7FF"/>
<path d="M93.0598 20.4778H129.915" stroke="white" stroke-width="2.97008" stroke-linecap="round"/>
<path d="M93.0598 16.1996H129.915" stroke="white" stroke-width="2.97008" stroke-linecap="round"/>
<path d="M93.0598 11.8502H129.915" stroke="white" stroke-width="2.97008" stroke-linecap="round"/>
<path d="M93.0598 7.74805H129.915" stroke="white" stroke-width="2.97008" stroke-linecap="round"/>
<rect x="72.9089" y="12.8663" width="3.25665" height="8.57582" fill="#D3D7FF"/>
<rect x="77.8259" y="10.3621" width="3.25665" height="11.0797" fill="#D3D7FF"/>
<rect x="82.7446" y="6.70203" width="3.25665" height="14.7397" fill="#FF71AF"/>
<path d="M97.0229 34.527H88.6543" stroke="white" stroke-width="2.97008" stroke-linecap="round"/>
<path d="M97.0229 37.7853H88.6543" stroke="white" stroke-width="2.97008" stroke-linecap="round"/>
<path d="M97.0229 40.9546H88.6543" stroke="white" stroke-width="2.97008" stroke-linecap="round"/>
<path d="M81.482 37.3639C81.0064 37.0065 77.2746 39.8268 75.9941 41.0582C76.3142 41.6278 77.2944 43.2738 77.7701 42.5719C78.3646 41.6945 82.8667 38.4043 81.482 37.3639Z" fill="#FDDEBF"/>
<path d="M26.7061 34.416L25.6354 26.0405L15.7009 19.3361L16.189 35.1798L26.7061 34.416Z" fill="#FDDEBF"/>
<path d="M31.1715 14.916C30.4009 9.54205 27.8579 5.91037 25.6935 5.91037C16.2628 4.77691 15.8924 13.6565 15.7547 17.8549C15.6171 22.0533 19.8841 26.9514 25.1146 27.0913C30.345 27.2313 32.1348 21.6334 31.1715 14.916Z" fill="#FDDEBF"/>
<path d="M18.5001 22.6046C22.7895 21.8316 22.5777 16.9296 22.3189 14.6948C22.2083 12.629 22.845 11.2405 23.5879 10.3813C24.3869 9.45726 25.6111 9.03991 26.6368 8.37643C31.0111 5.54681 30.5645 3.48515 29.9944 2.33053C29.3631 1.05207 26.4626 2.71917 26.0712 1.97786C25.6797 1.23655 24.6795 0.293675 24.0181 1.73608C23.3567 3.17849 21.5547 0.425861 20.1199 0.537879C18.6852 0.649897 18.4232 1.68924 17.4609 3.20129C16.4987 4.71334 13.7705 3.12076 12.3191 4.58946C10.8677 6.05816 12.186 12.3913 12.5958 14.8346C13.0959 17.8168 13.822 23.4476 18.5001 22.6046Z" fill="#11243E"/>
<circle cx="21.8407" cy="15.4782" r="2.01527" fill="#FDDEBF"/>
<path d="M69.7255 44.5687C67.9943 45.6075 64.396 46.5855 62.8132 46.9446L65.6682 53.8878C67.2554 53.455 70.7977 52.4161 72.2692 51.7236C74.1085 50.8579 79.1948 52.0482 79.6276 47.8231C80.0605 43.5981 77.7019 42.1719 76.4991 40.9794C74.4917 38.9891 71.8895 43.2702 69.7255 44.5687Z" fill="#FDDEBF"/>
<path d="M20.6926 26.3901C22.4141 27.2055 24.7949 27.207 25.7701 27.1058L25.9022 28.3835C23.7459 27.9667 21.5307 26.8809 20.6926 26.3901Z" fill="#EBB47E"/>
<path fill-rule="evenodd" clip-rule="evenodd" d="M37.4844 37.4047C42.2037 41.2263 46.9528 45.0721 58.3356 45.1475C61.5935 45.169 64.5692 44.9765 67.2569 44.6402L70.9389 54.1635C64.5082 56.9316 50.8119 60.3947 36.8982 57.8905L37.6009 65.6592C37.7943 67.798 36.1101 69.6415 33.9626 69.6415H32.1189V69.6416H3.56208C1.51106 69.6416 -0.148875 67.9512 0.0106082 65.9063C0.707542 56.9706 3.09255 49.6402 6.1663 42.7864C10.5307 33.0548 16.5012 29.8298 21.2908 29.898C24.4431 29.898 26.5329 30.7888 27.1837 31.2342C31.6512 32.6811 34.5621 35.0382 37.4844 37.4047Z" fill="#43EB8F"/>
<path d="M41.0571 58.478C34.8962 57.9967 30.3157 55.569 27.6076 53.7377C26.0457 52.6815 25.4913 50.6716 26.1814 48.9169C26.5356 48.0164 26.8613 47.2336 27.0305 46.8389C38.1339 58.478 58.6326 56.8032 67.7838 55.3797C57.0871 58.9183 48.5564 59.0639 41.0571 58.478Z" fill="#33DF81"/>
</svg>
