<svg width="111" height="85" viewBox="0 0 111 85" fill="none" xmlns="http://www.w3.org/2000/svg">
<ellipse cx="71.0768" cy="80.6153" rx="33.7953" ry="3.74032" fill="#4E78DA"/>
<ellipse cx="15.4474" cy="79.9127" rx="15.4474" ry="3.36706" fill="#4E78DA"/>
<path d="M28.5196 36.1027C24.6321 34.862 18.2322 26.9719 21.8566 23.5737C26.3455 19.3651 31.8059 34.2659 17.3486 31.5111C17.0042 31.4455 16.6776 31.37 16.3682 31.285" stroke="#F0A2A2" stroke-width="2.3433" stroke-linecap="round"/>
<path d="M38.0734 69.9591L37.2815 63.8623L50.3741 62.1617L51.165 68.2502C51.2625 69.0014 50.9215 69.7524 50.2492 70.1013C46.275 72.1635 41.953 72.0081 39.4234 71.4899C38.6856 71.3388 38.1704 70.706 38.0734 69.9591Z" fill="#FFC8CB"/>
<path d="M53.4999 67.8065L52.708 61.7097L65.8006 60.0091L66.5915 66.0976C66.6891 66.8488 66.348 67.5998 65.6757 67.9487C61.7015 70.0109 57.3795 69.8555 54.8499 69.3373C54.1121 69.1862 53.5969 68.5534 53.4999 67.8065Z" fill="#F2A1A5"/>
<path d="M68.6402 70.9903L67.65 63.3673L82.0511 61.0371L83.0989 69.104C83.1982 69.8684 82.8428 70.6297 82.155 70.9779C77.6836 73.2419 72.8151 73.0823 70.0234 72.5372C69.2709 72.3903 68.7389 71.7506 68.6402 70.9903Z" fill="#FFC8CB"/>
<path d="M89.8253 67.6655L88.8049 59.8098L101.96 52.6026L103.681 65.8571C103.777 66.5906 103.454 67.3254 102.808 67.6854C98.5269 70.0707 93.8189 69.8177 91.1292 69.1855C90.4135 69.0173 89.92 68.3946 89.8253 67.6655Z" fill="#FFC8CB"/>
<path d="M68.6402 70.9903L67.65 63.3673L82.0511 61.0371L83.0989 69.104C83.1982 69.8684 82.8428 70.6297 82.155 70.9779C77.6836 73.2419 72.8151 73.0823 70.0234 72.5372C69.2709 72.3903 68.7389 71.7506 68.6402 70.9903Z" fill="#FFC8CB"/>
<path d="M89.8253 67.6655L88.8049 59.8098L101.96 52.6026L103.681 65.8571C103.777 66.5906 103.454 67.3254 102.808 67.6854C98.5269 70.0707 93.8189 69.8177 91.1292 69.1855C90.4135 69.0173 89.92 68.3946 89.8253 67.6655Z" fill="#FFC8CB"/>
<mask id="mask0_223_9" style="mask-type:alpha" maskUnits="userSpaceOnUse" x="88" y="52" width="16" height="18">
<path d="M89.826 67.6658L88.8056 59.81L101.961 52.6029L103.682 65.8574C103.777 66.5909 103.455 67.3256 102.809 67.6856C98.5277 70.071 93.8197 69.818 91.1299 69.1858C90.4142 69.0176 89.9207 68.3949 89.826 67.6658Z" fill="#FFC8CB"/>
</mask>
<g mask="url(#mask0_223_9)">
<path d="M104.594 54.1321C101.302 60.3255 92.6742 64.0888 88.7719 65.1963L86.7806 58.6271L97.7522 50.3741C101.405 49.0463 107.886 47.9388 104.594 54.1321Z" fill="#F2A1A5"/>
</g>
<mask id="mask1_223_9" style="mask-type:alpha" maskUnits="userSpaceOnUse" x="37" y="62" width="15" height="10">
<path d="M38.0737 69.9601L37.2817 63.8633L50.3744 62.1627L51.1652 68.2512C51.2628 69.0024 50.9217 69.7534 50.2494 70.1023C46.2753 72.1645 41.9533 72.0091 39.4237 71.4909C38.6858 71.3397 38.1707 70.707 38.0737 69.9601Z" fill="#FFC8CB"/>
</mask>
<g mask="url(#mask1_223_9)">
<path d="M52.0593 68.2814C47.413 69.4279 39.6137 67.3512 36.2948 66.1695L35.7668 64.0574L36.2948 61.1157C40.0159 61.87 47.5789 63.3937 48.0616 63.454C48.6651 63.5295 57.8673 66.8483 52.0593 68.2814Z" fill="#F2A1A5"/>
</g>
<mask id="mask2_223_9" style="mask-type:alpha" maskUnits="userSpaceOnUse" x="67" y="61" width="17" height="12">
<path d="M68.6397 70.9905L67.6495 63.3676L82.0506 61.0373L83.0985 69.1042C83.1978 69.8687 82.8423 70.6299 82.1545 70.9782C77.6831 73.2422 72.8146 73.0826 70.0229 72.5375C69.2704 72.3905 68.7385 71.7508 68.6397 70.9905Z" fill="#FFC8CB"/>
</mask>
<g mask="url(#mask2_223_9)">
<path d="M84.5741 65.7411C80.1026 69.2806 71.0575 69.4882 67.0938 69.1496L66.3913 63.7407L79.7403 59.9204C83.2147 60.3858 89.0456 62.2015 84.5741 65.7411Z" fill="#F2A1A5"/>
</g>
<path d="M28.5633 32.1553C25.268 42.5571 27.9033 51.5778 31.9135 58.2459C35.7215 64.5779 43.0768 67.4715 50.4577 67.816C66.1272 68.5474 81.5023 67.616 92.0712 62.8728C96.2849 60.9818 99.7863 57.7431 102.156 53.7787C107.621 44.6342 107.463 35.2901 105.537 28.1228C103.728 21.387 98.5595 16.0407 92.0818 13.455C75.1258 6.68655 55.9297 11.4028 42.8938 17.2492C36.3406 20.1882 30.7324 25.3086 28.5633 32.1553Z" fill="#FFC8CB"/>
<path d="M67.6339 24.1127C67.6418 24.1172 67.6496 24.1216 67.6571 24.126C67.6474 24.1273 67.6397 24.1228 67.6339 24.1127C67.0217 23.7697 65.024 23.2857 61.711 23.9999C62.2485 23.8922 65.3342 7.62704 72.3519 7.70377C70.6501 13.0752 67.3864 23.6824 67.6339 24.1127Z" fill="#F49DA5"/>
<path d="M72.0088 7.83747C67.6697 8.18547 67.2039 19.0331 67.5134 24.4134C71.7927 20.8388 78.1065 21.1208 80.7284 21.7087C79.6298 16.9399 76.3479 7.48948 72.0088 7.83747Z" fill="#F9BEC2"/>
<path d="M84.8949 21.2909C87.9258 20.6376 89.7778 21.1255 90.3249 21.4511L98.2748 6.02987C91.6797 4.89592 86.6069 15.7314 84.8949 21.2909Z" fill="#F2A1A5"/>
<path d="M102.91 22.1895C100.581 18.4959 93.4273 20.1657 90.1414 21.4623C91.3629 16.1347 94.7583 5.57949 98.5677 5.97931C102.377 6.37913 103.05 16.9527 102.91 22.1895Z" fill="#F9BEC2"/>
<circle cx="96.6119" cy="32.6931" r="1.40368" transform="rotate(-7.40079 96.6119 32.6931)" fill="#E0888A"/>
<circle cx="83.7869" cy="34.3591" r="1.40368" transform="rotate(-7.40079 83.7869 34.3591)" fill="#E0888A"/>
<rect x="82.9077" y="38.4763" width="16.129" height="9.73827" rx="4.86913" transform="rotate(-7.40079 82.9077 38.4763)" fill="#E0888A"/>
<mask id="mask3_223_9" style="mask-type:alpha" maskUnits="userSpaceOnUse" x="27" y="10" width="80" height="59">
<path d="M28.5655 32.1558C25.2702 42.5576 27.9055 51.5783 31.9157 58.2464C35.7237 64.5784 43.079 67.472 50.4599 67.8165C66.1294 68.5479 81.5045 67.6164 92.0734 62.8733C96.2871 60.9823 99.7885 57.7436 102.158 53.7792C107.624 44.6347 107.465 35.2906 105.54 28.1233C103.73 21.3875 98.5617 16.0412 92.084 13.4555C75.128 6.68704 55.9319 11.4033 42.896 17.2497C36.3428 20.1887 30.7346 25.309 28.5655 32.1558Z" fill="#FFC8CB"/>
</mask>
<g mask="url(#mask3_223_9)">
<path d="M87.2985 65.4621C46.581 69.6358 30.7231 44.3353 27.8838 31.1633L21.9202 38.9075L17.9406 61.926L76.8285 78.3716C97.2841 72.3294 128.016 61.2884 87.2985 65.4621Z" fill="#FEA8B0" fill-opacity="0.38"/>
</g>
<rect x="83.5334" y="38.9761" width="16.129" height="9.73827" rx="4.86913" transform="rotate(-7.40079 83.5334 38.9761)" fill="#FDB6BB"/>
<rect x="93.4368" y="40.8909" width="1.456" height="2.5679" rx="0.727998" transform="rotate(-7.40079 93.4368 40.8909)" fill="#E0888A"/>
<rect x="89.4373" y="41.4109" width="1.456" height="2.5679" rx="0.727998" transform="rotate(-7.40079 89.4373 41.4109)" fill="#E0888A"/>
<path d="M61.7802 16.6392C57.9329 16.7025 47.8553 18.1424 38.3241 23.396" stroke="#F0A2A2" stroke-width="2.73385" stroke-linecap="round"/>
<circle cx="50.0419" cy="11.3151" r="10.2392" fill="#EBC731"/>
<circle cx="48.0675" cy="11.3151" r="10.2392" fill="#FDD21B"/>
<path d="M58.3044 18.2241C53.0092 18.7311 47.0613 20.806 44.7493 21.78L45.1365 23.5404C48.6221 22.8715 55.6637 21.5195 55.9454 21.4632C56.2974 21.3927 64.9234 17.5903 58.3044 18.2241Z" fill="#FFC8CB"/>
<ellipse cx="15.4034" cy="78.8341" rx="12.9066" ry="2.28847" fill="#FDD21B"/>
<path d="M28.31 78.8992V63.7715H2.49683V78.8992H28.31Z" fill="#FDD21B"/>
<ellipse cx="15.4034" cy="63.7868" rx="12.9066" ry="2.28847" fill="#FFEEE0"/>
<path d="M27.8569 67.9217C26.4219 68.8904 21.2952 69.6022 15.3904 69.6022C9.38793 69.6022 4.2628 68.8166 2.94946 67.8093" stroke="#FFEDE0" stroke-width="1.3" stroke-linecap="round"/>
<path d="M27.8569 71.8409C26.4219 72.8096 21.2952 73.5214 15.3904 73.5214C9.38793 73.5214 4.2628 72.7358 2.94946 71.7285" stroke="#FFEDE0" stroke-width="1.3" stroke-linecap="round"/>
<path d="M27.8569 75.7618C26.4219 76.7305 21.2952 77.4423 15.3904 77.4423C9.38793 77.4423 4.2628 76.6567 2.94946 75.6494" stroke="#FFEDE0" stroke-width="1.3" stroke-linecap="round"/>
<path d="M45.9182 1.30365C48.3836 0.593594 54.0719 0.676397 57.1014 6.68807" stroke="#FFEDE0" stroke-linecap="round"/>
<path d="M44.7251 13.9934L46.1461 13.1801L46.9517 14.5877L45.5308 15.401L46.0295 16.2723L47.4504 15.459L48.5093 17.3089L49.6487 16.6568L48.5899 14.8068L50.909 13.4795L50.4103 12.6081L48.0912 13.9355L47.2856 12.5279L48.6931 11.7223C50.9854 10.4103 51.4421 8.68958 50.5751 7.17477C49.7388 5.71359 48.2574 4.95979 45.5763 6.4943C44.9865 6.83189 43.6613 7.62596 43.1385 7.92519L45.6474 12.3087L44.2264 13.122L44.7251 13.9934ZM46.2973 7.50535C47.7853 6.65369 48.7779 6.83309 49.4147 7.94574C50.0592 9.07179 49.5349 10.0837 48.1542 10.874L46.7868 11.6566L44.8917 8.34545C45.3264 8.07885 45.922 7.72018 46.2973 7.50535Z" fill="#FFEDE0"/>
</svg>
