<svg width="313" height="325" viewBox="0 0 313 325" fill="none" xmlns="http://www.w3.org/2000/svg">
<path d="M309.172 37.3876C305.536 33.1663 301.447 31.5398 298.898 31.5398L292.757 43.3505C200.874 98.5402 17.6725 210.965 19.9348 219.144C22.1972 227.323 30.1989 230.726 33.9169 231.406H301.89C308.026 231.406 313 226.431 313 220.295V50.4552C313 45.7775 312.225 40.9317 309.172 37.3876Z" fill="#2E38A8"/>
<rect x="19.5293" y="31.5235" width="288.497" height="194.83" rx="8.62796" fill="#505ACC"/>
<path d="M68.6629 88.54C127.085 112.084 138.055 147.625 135.906 163.239C162.232 192.022 200.275 239.558 141.838 199.443C91.8889 165.155 68.5662 121.271 60.5394 95.7515C58.9632 90.7403 63.7905 86.5764 68.6629 88.54Z" fill="#4ED98D"/>
<mask id="mask0_560_3277" style="mask-type:alpha" maskUnits="userSpaceOnUse" x="60" y="88" width="113" height="127">
<path d="M68.6629 88.5391C127.085 112.083 138.055 147.625 135.906 163.238C162.232 192.021 200.275 239.557 141.838 199.442C91.8889 165.154 68.5662 121.271 60.5394 95.7506C58.9632 90.7395 63.7905 86.5756 68.6629 88.5391Z" fill="#4ED98D"/>
</mask>
<g mask="url(#mask0_560_3277)">
<path d="M122.048 175.152C105.718 133.903 82.0832 99.2219 72.3071 87.0373L83.7722 85.6267L151.176 152.748C148.271 177.403 138.377 216.401 122.048 175.152Z" fill="#1F35A8" fill-opacity="0.12"/>
</g>
<mask id="mask1_560_3277" style="mask-type:alpha" maskUnits="userSpaceOnUse" x="60" y="88" width="113" height="127">
<path d="M68.6629 88.5391C127.085 112.083 138.055 147.625 135.906 163.238C162.232 192.021 200.275 239.557 141.838 199.442C91.8889 165.154 68.5662 121.271 60.5394 95.7506C58.9632 90.7395 63.7905 86.5756 68.6629 88.5391Z" fill="#4ED98D"/>
</mask>
<g mask="url(#mask1_560_3277)">
<path d="M57.1881 84.0623L133.89 163.123" stroke="#DCFFEC" stroke-width="1.57282"/>
<path d="M118.217 148.309C117.33 148.173 93.6165 147.931 84.9639 147.636" stroke="#DCFFEC" stroke-width="1.57282"/>
<circle cx="4.36481" cy="4.36481" r="3.5784" transform="matrix(-0.988526 -0.151051 -0.151051 0.988526 114.668 153.818)" stroke="#DCFFEC" stroke-width="1.57282"/>
<path d="M83.3027 111.306L63.8046 109.458" stroke="#DCFFEC" stroke-width="1.57282"/>
<path d="M89.0957 117.253L66.4764 115.566" stroke="#DCFFEC" stroke-width="1.57282"/>
<path d="M92.324 120.529L93.7686 98.9175" stroke="#DCFFEC" stroke-width="1.57282"/>
<path d="M107.078 135.642C106.191 135.506 88.6644 134.881 80.0118 134.585" stroke="#DCFFEC" stroke-width="1.57282"/>
</g>
<path d="M149.91 136.006C158.52 118.218 154.478 71.7873 92.5317 21.0639C88.0978 17.4333 81.603 20.124 81.3112 25.8473C79.4904 61.5591 86.8979 134.258 152.36 161.41C172.61 169.81 183.883 175.194 189.083 177.864C194.401 180.595 193.366 180.488 189.083 177.864C180.706 172.733 159.901 157.975 149.91 136.006Z" fill="#43EB8F"/>
<mask id="mask2_560_3277" style="mask-type:alpha" maskUnits="userSpaceOnUse" x="81" y="15" width="93" height="197">
<path d="M86.7293 16.4329C154.384 68.9889 162.911 118.885 154.04 137.213C174.133 181.395 191.598 251.537 137.857 181.6C87.2976 115.805 79.3815 48.6499 81.8994 18.4498C82.0978 16.0703 84.8436 14.9681 86.7293 16.4329Z" fill="#3EF993"/>
</mask>
<g mask="url(#mask2_560_3277)">
<path d="M86.0568 20.6412L142.37 137.728" stroke="#D3FFE7" stroke-width="1.69865"/>
<path d="M104.275 58.194L110.447 35.6713" stroke="#D3FFE7" stroke-width="1.69865"/>
<path d="M106.771 63.4251L113.748 38.98" stroke="#D3FFE7" stroke-width="1.69865"/>
<path d="M118.996 89.177L86.1693 78.5374" stroke="#D3FFE7" stroke-width="1.69865"/>
<path d="M134.161 120.51L95.0363 108.341" stroke="#D3FFE7" stroke-width="1.69865"/>
<circle cx="4.92249" cy="4.92249" r="4.07316" transform="matrix(-0.988526 -0.151051 -0.151051 0.988526 114.473 96.0175)" stroke="#D3FFE7" stroke-width="1.69865"/>
<circle cx="3.70004" cy="3.70004" r="2.85071" transform="matrix(-0.988526 -0.151051 -0.151051 0.988526 104.812 33.4439)" stroke="#D3FFE7" stroke-width="1.69865"/>
</g>
<mask id="mask3_560_3277" style="mask-type:alpha" maskUnits="userSpaceOnUse" x="0" y="21" width="309" height="206">
<rect y="21.9359" width="308.025" height="204.417" rx="8.62796" fill="#FF4E9C"/>
</mask>
<g mask="url(#mask3_560_3277)">
<path d="M189.467 106.133C130.038 116.117 96.2929 167.953 88.666 191.725L123.433 228.571L308.556 230.651L315.093 211.634C313.706 197.668 310.458 169.022 308.556 166.17C306.179 162.604 267.044 93.1008 189.467 106.133Z" fill="#FFC945"/>
</g>
<path d="M133.402 220.007C135.551 212.042 140.237 192.646 141.785 178.788" stroke="#E7B743" stroke-width="3.45118" stroke-linecap="round"/>
<rect x="61.3652" y="218.139" width="75.534" height="106.642" rx="5.17677" fill="#E4F1FF"/>
<mask id="mask4_560_3277" style="mask-type:alpha" maskUnits="userSpaceOnUse" x="61" y="218" width="76" height="107">
<rect x="61.3652" y="218.139" width="75.534" height="106.642" rx="5.17677" fill="#E4F1FF"/>
</mask>
<g mask="url(#mask4_560_3277)">
<path d="M143.437 249.866H58.5198L57.2207 215.607H143.437V249.866Z" fill="#A1A9FF" fill-opacity="0.76"/>
</g>
<path d="M147.851 43.8962L147.801 43.6108C156.231 22.0921 188.474 22.0963 200.675 28.197C212.969 50.566 219.302 101.937 186.248 102.603C158.317 103.165 151.576 64.9916 147.851 43.8962Z" fill="#FDDEBF"/>
<path d="M163.932 39.7664C169.151 37.5834 174.744 34.5759 179.861 32.2795C185.553 29.7248 191.425 33.0597 194.415 38.5354C198.02 45.1351 202.936 52.2563 207.954 54.7984C215.72 58.7333 213.692 63.7727 211.707 65.8006L213.947 77.492C224.964 72.5892 224.35 59.2204 221.544 54.7984C218.737 50.3763 226.85 41.9154 220.863 37.3251C214.876 32.7349 221.431 27.4861 214.942 13.8968C208.453 0.30759 193.096 9.41486 187.059 11.0091C181.021 12.6033 182.068 4.79601 172.228 4.31808C162.388 3.84015 160.428 16.2401 152.812 14.5448C143.672 12.5101 127.148 16.9613 131.527 32.2462C135.907 47.5311 154.888 43.5496 163.932 39.7664Z" fill="#10243D"/>
<circle cx="212.145" cy="61.2245" r="7.26208" fill="#FDDEBF"/>
<path d="M182.748 114.54L183.73 100.235L182.748 94.0645L212.142 65.4643L229.28 109.681C213.797 126.398 192.612 119.823 182.748 114.54Z" fill="#FDDEBF"/>
<path d="M122.084 198.64C117.501 187.912 108.832 183.068 101.186 181.205C94.0683 179.47 86.3955 182.291 84.0672 189.238C82.3142 194.468 81.5814 200.666 81.4365 204.48C81.4365 213.459 80.8455 233.072 81.4365 240.042C82.0193 246.917 87.4616 245.278 88.5254 243.35C90.6047 249.399 94.7903 247.156 96.6232 245.278C96.8279 246.34 97.1147 247.297 97.5045 248.076C99.4893 252.046 103.372 250.203 105.066 248.785C105.223 251.502 106.507 256.748 110.382 255.992C114.258 255.236 115.332 250.872 115.385 248.785V218.252H128.341C127.063 212.39 125.081 205.655 122.084 198.64Z" fill="#FDDEBF"/>
<path d="M93.0792 181.567C88.5555 181.134 79.7392 187.342 80.663 215.64" stroke="#F0C291" stroke-width="2.07071" stroke-linecap="round"/>
<path d="M88.8385 223.855V239.735C88.8385 242.024 87.988 244.63 85.7193 244.929C84.9371 245.032 84.1032 244.914 83.2921 244.419C81.8797 243.558 81.543 241.735 81.543 240.08V228.95" stroke="#F0C291" stroke-width="2.07071" stroke-linecap="round"/>
<path d="M87.7168 244.192C88.6164 246.301 91.4349 249.798 95.5123 246.919V246.919C96.5797 246.165 97.082 244.877 97.082 243.57V224.456" stroke="#F0C291" stroke-width="2.07071" stroke-linecap="round"/>
<path d="M105.45 226.352V249.599C105.315 251.612 106.235 255.698 110.985 255.939C112.494 256.016 113.755 254.947 114.79 253.273" stroke="#F0C291" stroke-width="2.07071" stroke-linecap="round"/>
<path d="M265.011 224.457C259.443 211.989 247.508 182.625 244.312 164.905" stroke="#E7B743" stroke-width="3.45118" stroke-linecap="round"/>
<path d="M247.754 182.369C244.552 181.23 236.812 176.866 231.471 168.529" stroke="#E7B743" stroke-width="3.45118" stroke-linecap="round"/>
<path d="M168.459 70.6444C166.957 71.3086 164.114 73.1233 165.114 74.8157C166.03 76.3682 168.149 75.486 168.956 74.9462" stroke="#11243E" stroke-width="1.38144" stroke-linecap="round"/>
<circle cx="1.46885" cy="1.46885" r="1.46885" transform="matrix(-0.993384 0.114843 0.114843 0.993384 175.391 60.7329)" fill="#11243E"/>
<circle cx="1.46885" cy="1.46885" r="1.46885" transform="matrix(-0.993384 0.114843 0.114843 0.993384 162.014 64.9687)" fill="#11243E"/>
<path d="M195.805 69.067C199.375 65.6839 195.696 56.7027 187.848 58.7651C178.899 61.1171 183.909 74.7184 192.446 71.1489C193.788 70.5879 194.959 69.8689 195.805 69.067Z" fill="#FEB7A1"/>
<path d="M159.766 82.6527C162.413 80.1446 159.685 73.4862 153.867 75.0152C147.232 76.7589 150.947 86.8425 157.276 84.1962C158.271 83.7803 159.139 83.2473 159.766 82.6527Z" fill="#FEB7A1"/>
<path d="M159.732 58.4305C158.29 58.3537 156.908 58.5116 155.397 59.7787" stroke="#11243E" stroke-width="1.38144" stroke-linecap="round"/>
<path d="M177.782 54.1163C176.282 53.363 173.758 53.1705 171.583 54.1837" stroke="#11243E" stroke-width="1.38144" stroke-linecap="round"/>
<path d="M173.563 82.4905C175.428 82.0352 179.354 80.3419 180.143 77.2105" stroke="#11243E" stroke-width="1.38144" stroke-linecap="round"/>
<circle cx="77.031" cy="267.339" r="4.61621" stroke="#505ACC" stroke-width="1.7124"/>
<path d="M82.5053 283.664L76.1188 289.93L72.1426 286.556" stroke="#3CEF8D" stroke-width="2.40723" stroke-linecap="round"/>
<path d="M82.5053 304.029L76.1188 310.295L72.1426 306.921" stroke="#3CEF8D" stroke-width="2.40723" stroke-linecap="round"/>
<path d="M93.7969 264.665H126.429" stroke="#A1A9FF" stroke-width="2.58839" stroke-linecap="round"/>
<path d="M93.7969 270.841H111.954" stroke="#A1A9FF" stroke-width="2.58839" stroke-linecap="round"/>
<path d="M94.1523 283.754H126.785" stroke="#A1A9FF" stroke-width="2.58839" stroke-linecap="round"/>
<path d="M94.1523 289.93H112.309" stroke="#A1A9FF" stroke-width="2.58839" stroke-linecap="round"/>
<path d="M94.1523 304.121H126.785" stroke="#A1A9FF" stroke-width="2.58839" stroke-linecap="round"/>
<path d="M94.1523 310.296H112.309" stroke="#A1A9FF" stroke-width="2.58839" stroke-linecap="round"/>
<path d="M96.4336 247.13C97.2584 249.089 100.053 252.249 104.63 249.218" stroke="#F0C291" stroke-width="2.07071" stroke-linecap="round"/>
</svg>
