<svg width="467" height="333" viewBox="0 0 467 333" fill="none" xmlns="http://www.w3.org/2000/svg">
<path d="M379.347 84.0825C456.037 171.536 391.027 227.059 335.308 250.066C322.235 255.464 309.881 262.542 298.344 270.724C260.331 297.683 188.439 327.698 109.019 297.872C-7.61423 254.071 -14.1544 186.284 23.9967 129.969C62.1477 73.6537 136.27 112.24 171.151 52.7962C206.032 -6.64778 271.434 -38.977 379.347 84.0825Z" fill="#DFE1F9"/>
<ellipse cx="245.015" cy="324.399" rx="108.826" ry="7.89714" fill="#DCDEF1"/>
<rect x="104.91" y="107.804" width="280.21" height="175.861" rx="3.53426" fill="#C4C9FF"/>
<rect x="117.315" y="120.296" width="255.4" height="135.727" rx="1.76713" fill="#A2A9FF"/>
<rect x="205.449" y="259.398" width="80.594" height="40.6508" fill="#C4C9FF"/>
<rect x="133.995" y="298.605" width="222.042" height="10.372" rx="2.35656" fill="#C4C9FF"/>
<path d="M353.106 198.498C352.923 191.8 347.441 186.466 340.741 186.466H311.096C305.728 186.466 301.377 190.817 301.377 196.185V225.391H341.129C348.093 225.391 353.684 219.645 353.494 212.683L353.106 198.498Z" fill="#505ACC"/>
<path d="M142.74 143.343H274.886" stroke="white" stroke-width="3.53426" stroke-linecap="round"/>
<path d="M142.74 158.885H274.885" stroke="white" stroke-width="3.53426" stroke-linecap="round"/>
<path d="M142.74 174.954H215.592M274.885 174.954H234.002" stroke="white" stroke-width="3.53426" stroke-linecap="round"/>
<path d="M142.74 190.286H176.208M274.885 190.286H196.229" stroke="white" stroke-width="3.53426" stroke-linecap="round"/>
<path d="M314.297 200.162H340.918" stroke="#43EA8E" stroke-width="1.76713" stroke-linecap="round"/>
<path d="M314.297 206.747H340.918" stroke="#43EA8E" stroke-width="1.76713" stroke-linecap="round"/>
<path d="M314.297 213.086H340.918" stroke="#43EA8E" stroke-width="1.76713" stroke-linecap="round"/>
<path d="M53.7808 197.128C53.9835 189.883 59.9148 184.116 67.1622 184.116H118.224C125.617 184.116 131.61 190.109 131.61 197.502V241.417H66.308C58.7681 241.417 52.7157 235.192 52.9266 227.655L53.7808 197.128Z" fill="#505ACC"/>
<circle cx="92.0779" cy="212.588" r="18.3157" stroke="#43EA8E" stroke-width="0.956188"/>
<path d="M101.177 213.21C101.177 218.268 100.145 222.824 98.4996 226.098C96.8401 229.399 94.6354 231.262 92.3408 231.262C90.0461 231.262 87.8415 229.399 86.182 226.098C84.5366 222.824 83.5049 218.268 83.5049 213.21C83.5049 208.151 84.5366 203.595 86.182 200.322C87.8415 197.02 90.0461 195.158 92.3408 195.158C94.6354 195.158 96.8401 197.02 98.4996 200.322C100.145 203.595 101.177 208.151 101.177 213.21Z" stroke="#43EA8E" stroke-width="0.956188"/>
<path d="M92.3407 203.554C97.3949 203.554 101.947 204.65 105.218 206.398C108.51 208.157 110.393 210.507 110.393 212.98C110.393 215.453 108.51 217.802 105.218 219.562C101.947 221.31 97.3949 222.406 92.3407 222.406C87.2865 222.406 82.7345 221.31 79.4633 219.562C76.1718 217.802 74.2886 215.453 74.2886 212.98C74.2886 210.507 76.1718 208.157 79.4633 206.398C82.7345 204.65 87.2865 203.554 92.3407 203.554Z" stroke="#43EA8E" stroke-width="0.956188"/>
<circle cx="189.871" cy="34.6471" r="23.8775" fill="#43EA8E"/>
<path fill-rule="evenodd" clip-rule="evenodd" d="M171.746 46.0869C173.044 39.1304 178.249 33.5485 184.997 31.7041C185.96 33.3992 187.782 34.5427 189.87 34.5427C191.959 34.5427 193.781 33.3993 194.743 31.7043C201.492 33.5492 206.698 39.1327 207.995 46.0909C204.423 52.4071 197.645 56.6706 189.871 56.6706C182.096 56.6706 175.317 52.4054 171.746 46.0869Z" fill="#505ACC"/>
<circle cx="189.871" cy="29.0145" r="4.51251" fill="#FDDEBF"/>
<circle cx="41.1856" cy="102.157" r="41.1856" fill="#AECEF4"/>
<path fill-rule="evenodd" clip-rule="evenodd" d="M12.5977 123.057C14.6449 112.083 22.8555 103.277 33.501 100.367C35.0196 103.041 37.8929 104.845 41.1874 104.845C44.4817 104.845 47.3549 103.041 48.8735 100.368C59.518 103.278 67.7276 112.083 69.7748 123.057C64.1418 133.022 53.4495 139.748 41.1862 139.748C28.923 139.748 18.2308 133.022 12.5977 123.057Z" fill="#505ACC"/>
<circle cx="41.1861" cy="95.0408" r="7.11769" fill="#FDDEBF"/>
<circle cx="408.197" cy="88.9116" r="57.9516" fill="#BEC5FE"/>
<path fill-rule="evenodd" clip-rule="evenodd" d="M365.633 117.575C368.68 101.237 380.903 88.1264 396.751 83.7944C399.012 87.7749 403.289 90.4601 408.194 90.4601C413.099 90.4601 417.377 87.7749 419.638 83.7942C435.486 88.1259 447.709 101.236 450.757 117.575C442.37 132.41 426.452 142.424 408.195 142.424C389.937 142.424 374.019 132.41 365.633 117.575Z" fill="#505ACC"/>
<circle cx="408.197" cy="76.9119" r="10.6807" fill="#FDDEBF"/>
<path d="M198.163 63.021L229.333 129.035" stroke="#AECEF4" stroke-width="2.6507" stroke-linecap="round"/>
<path d="M89.2075 112.854L135.067 131.316" stroke="#43EA8E" stroke-width="2.6507" stroke-linecap="round"/>
<path d="M358.609 134.265L333.802 155.13" stroke="#43EA8E" stroke-width="2.6507" stroke-linecap="round"/>
</svg>
