<svg width="515" height="357" viewBox="0 0 515 357" fill="none" xmlns="http://www.w3.org/2000/svg">
<ellipse cx="450.482" cy="83.9244" rx="15.645" ry="14.3705" fill="#FFD35A"/>
<ellipse cx="32.1255" cy="331.775" rx="32.1255" ry="2.63424" fill="#C7CBF6"/>
<path d="M143.42 308.351C222.782 332.593 266.122 201.015 267.527 197.685C251.054 187.138 169.05 185.784 137.37 139.071C97.7701 80.6796 26.8715 111.57 31.8043 166.121C36.7371 220.673 118.997 205.856 139.348 216.895C150.497 222.942 141.919 233.526 130.899 244.454C121.291 253.983 115.539 267.248 119.458 280.2C123.232 292.675 130.375 304.367 143.42 308.351Z" fill="#FFD35A"/>
<path d="M77.3982 64.3458C81.2121 90.3903 98.8622 112.04 107.21 119.609L105.558 129.943C92.1039 125.713 62.6427 110.611 52.4293 84.0416C39.6625 50.8298 72.6308 31.7901 77.3982 64.3458Z" fill="#AECEF4"/>
<path d="M56.3338 105.781C69.6405 117.979 90.9387 123.14 99.9245 124.196L99.4486 127.172C78.547 131.457 66.3327 129.122 47.8252 120.822C29.3178 112.522 39.7005 90.5332 56.3338 105.781Z" fill="#87BDFC"/>
<path d="M55.0723 115.048C60.5889 118.777 74.7663 126.079 87.3424 125.452" stroke="white" stroke-width="3.60766" stroke-linecap="round"/>
<path d="M66.8011 75.6828C67.5574 82.3881 71.5708 99.0142 90.7079 110.584" stroke="white" stroke-width="3.60766" stroke-linecap="round"/>
<path d="M427.573 41.6824C428.481 29.7441 426.214 17.47 416.498 9.57225C386.823 -14.5508 361.6 12.3591 332.849 30.5939C325.376 35.7425 309.983 42.6785 293.405 29.513C275.033 14.9238 227.272 1.37377 215.956 54.1885C208.033 91.1681 306.366 143.006 361.449 160.203C375.362 225.536 448.56 223.721 463.684 174.116C478.807 124.511 401.375 108.178 387.461 91.2393C380.035 82.1986 390.568 76.0586 403.656 70.5177C416.118 65.2423 426.548 55.1754 427.573 41.6824Z" fill="#FFD35A"/>
<circle cx="389.32" cy="16.5107" r="8.04901" fill="white" fill-opacity="0.34"/>
<ellipse cx="252.718" cy="327.95" rx="182.508" ry="15.3945" fill="#C7CBF6"/>
<path d="M475.131 116.408C474.775 127.568 468.175 129.031 465.633 129.879C472.299 130.232 475.117 139.71 475.131 143.481C475.131 135.627 480.777 130.053 484.299 129.879C478.444 128.91 474.981 121.244 475.131 116.408Z" fill="#FE2257"/>
<path d="M60.4805 299.345C62.2377 314.333 82.6073 311.252 92.0164 306.86L98.1583 281.003L93.9192 269.169L68.485 273.32C65.2343 277.027 59.0825 287.422 60.4805 299.345Z" fill="#11243E"/>
<rect x="84.8081" y="51.6176" width="340.631" height="276.33" rx="10.823" fill="#444CAE"/>
<rect x="91.832" y="77.1779" width="325.421" height="243.087" fill="#D3EDFD"/>
<path d="M109.906 274.161L108.699 268.496L82.4179 266.268C78.6723 275.895 73.4284 292.902 82.4179 283.912C91.4073 274.923 104.489 273.666 109.906 274.161Z" fill="#11243E" fill-opacity="0.16"/>
<path d="M96.058 69.7159L104.396 60.6574" stroke="white" stroke-width="3.00638" stroke-linecap="round"/>
<path d="M96.099 60.6221L104.356 69.7544" stroke="white" stroke-width="3.00638" stroke-linecap="round"/>
<circle cx="118.055" cy="65.1886" r="4.52596" stroke="white" stroke-width="2.40511"/>
<path d="M416.242 59.9382H402.418" stroke="white" stroke-width="3.00638" stroke-linecap="round"/>
<path d="M416.242 64.7468H402.418" stroke="white" stroke-width="3.00638" stroke-linecap="round"/>
<path d="M416.242 69.5539H402.418" stroke="white" stroke-width="3.00638" stroke-linecap="round"/>
<rect x="173.899" y="59.9382" width="159.44" height="9.81581" rx="4.9079" fill="#F1F1FB"/>
<rect x="203.872" y="95.4286" width="198.546" height="212.818" fill="white"/>
<path d="M361.864 130.988H383.046" stroke="#505ACC" stroke-width="7.21532" stroke-linecap="round"/>
<path d="M361.864 147.491H380.273" stroke="#FFD35A" stroke-width="7.21532" stroke-linecap="round"/>
<path d="M366.59 163.766H380.273" stroke="#C1C7FF" stroke-width="7.21532" stroke-linecap="round"/>
<path d="M355.864 180.04H363.414" stroke="#C1C7FF" stroke-width="7.21532" stroke-linecap="round"/>
<path d="M372.722 180.04H382.639" stroke="#505ACC" stroke-width="7.21532" stroke-linecap="round"/>
<path d="M355.123 196.317H382.286" stroke="#505ACC" stroke-width="7.21532" stroke-linecap="round"/>
<path d="M363.414 212.592H382.032" stroke="#C1C7FF" stroke-width="7.21532" stroke-linecap="round"/>
<path d="M363.669 228.867H382.288" stroke="#FFD35A" stroke-width="7.21532" stroke-linecap="round"/>
<path d="M363.669 245.142H382.288" stroke="#FF4E9C" stroke-width="7.21532" stroke-linecap="round"/>
<path d="M363.669 261.416H382.288" stroke="#C1C7FF" stroke-width="7.21532" stroke-linecap="round"/>
<path d="M363.669 277.692H382.288" stroke="#C1C7FF" stroke-width="7.21532" stroke-linecap="round"/>
<path d="M363.669 293.966H382.288" stroke="#C1C7FF" stroke-width="7.21532" stroke-linecap="round"/>
<circle cx="393.436" cy="131.219" r="3.60958" fill="#ACB4FF"/>
<circle cx="393.436" cy="147.493" r="3.60958" fill="#DFE2FB"/>
<circle cx="393.436" cy="163.768" r="3.60958" fill="#DFE2FB"/>
<circle cx="393.436" cy="180.044" r="3.60958" fill="#DFE2FB"/>
<circle cx="393.436" cy="196.317" r="3.60958" fill="#DFE2FB"/>
<circle cx="393.436" cy="212.593" r="3.60958" fill="#DFE2FB"/>
<circle cx="393.436" cy="228.867" r="3.60958" fill="#DFE2FB"/>
<circle cx="393.436" cy="245.142" r="3.60958" fill="#DFE2FB"/>
<circle cx="393.436" cy="261.417" r="3.60958" fill="#DFE2FB"/>
<circle cx="393.436" cy="277.692" r="3.60958" fill="#DFE2FB"/>
<circle cx="393.436" cy="293.967" r="3.60958" fill="#DFE2FB"/>
<path d="M225.167 131.216H293.496" stroke="#ACB4FF" stroke-opacity="0.84" stroke-width="7.21532" stroke-linecap="round"/>
<path d="M225.167 147.491H300.455" stroke="#ACB4FF" stroke-opacity="0.84" stroke-width="7.21532" stroke-linecap="round"/>
<path d="M225.236 163.766H304.042" stroke="#ACB4FF" stroke-opacity="0.84" stroke-width="7.21532" stroke-linecap="round"/>
<path d="M225.236 180.04H292.934" stroke="#ACB4FF" stroke-opacity="0.84" stroke-width="7.21532" stroke-linecap="round"/>
<path d="M225.236 196.317H287.969" stroke="#ACB4FF" stroke-opacity="0.84" stroke-width="7.21532" stroke-linecap="round"/>
<path d="M225.236 212.592H287.969" stroke="#ACB4FF" stroke-opacity="0.84" stroke-width="7.21532" stroke-linecap="round"/>
<path d="M225.236 228.867H314.75" stroke="#ACB4FF" stroke-opacity="0.84" stroke-width="7.21532" stroke-linecap="round"/>
<path d="M225.236 245.14H329.552" stroke="#ACB4FF" stroke-opacity="0.84" stroke-width="7.21532" stroke-linecap="round"/>
<path d="M225.167 261.416H329.484" stroke="#ACB4FF" stroke-opacity="0.84" stroke-width="7.21532" stroke-linecap="round"/>
<path d="M225.167 277.692H329.484" stroke="#ACB4FF" stroke-opacity="0.84" stroke-width="7.21532" stroke-linecap="round"/>
<path d="M225.167 293.966H329.484" stroke="#ACB4FF" stroke-opacity="0.84" stroke-width="7.21532" stroke-linecap="round"/>
<path d="M304.042 130.988H318.589" stroke="#E0E2FB" stroke-width="7.21532" stroke-linecap="round"/>
<path d="M311.315 147.491H325.862" stroke="#E0E2FB" stroke-width="7.21532" stroke-linecap="round"/>
<path d="M315.142 163.766H329.688" stroke="#E0E2FB" stroke-width="7.21532" stroke-linecap="round"/>
<path d="M304.042 180.04H318.589" stroke="#E0E2FB" stroke-width="7.21532" stroke-linecap="round"/>
<path d="M299.443 196.317H313.989" stroke="#E0E2FB" stroke-width="7.21532" stroke-linecap="round"/>
<path d="M298.978 212.592H313.525" stroke="#E0E2FB" stroke-width="7.21532" stroke-linecap="round"/>
<path d="M325.943 228.866H340.489" stroke="#E0E2FB" stroke-width="7.21532" stroke-linecap="round"/>
<circle cx="214.778" cy="131.218" r="3.60958" fill="#ACB4FF" fill-opacity="0.92"/>
<circle cx="214.777" cy="147.493" r="3.60958" fill="#ACB4FF" fill-opacity="0.92"/>
<circle cx="214.777" cy="163.768" r="3.60958" fill="#ACB4FF" fill-opacity="0.92"/>
<circle cx="214.777" cy="180.043" r="3.60958" fill="#ACB4FF" fill-opacity="0.92"/>
<circle cx="214.777" cy="196.317" r="3.60958" fill="#ACB4FF" fill-opacity="0.92"/>
<circle cx="214.777" cy="212.593" r="3.60958" fill="#ACB4FF" fill-opacity="0.92"/>
<circle cx="214.777" cy="228.867" r="3.60958" fill="#ACB4FF" fill-opacity="0.92"/>
<circle cx="214.777" cy="245.142" r="3.60958" fill="#ACB4FF" fill-opacity="0.92"/>
<circle cx="214.777" cy="261.417" r="3.60958" fill="#ACB4FF" fill-opacity="0.92"/>
<circle cx="214.777" cy="277.692" r="3.60958" fill="#ACB4FF" fill-opacity="0.92"/>
<circle cx="214.777" cy="293.967" r="3.60958" fill="#ACB4FF" fill-opacity="0.92"/>
<circle cx="123.784" cy="105.191" r="16.0049" fill="#43EA8E"/>
<path fill-rule="evenodd" clip-rule="evenodd" d="M111.635 112.859C112.505 108.195 115.994 104.453 120.518 103.217C121.163 104.353 122.384 105.119 123.784 105.119C125.184 105.119 126.405 104.353 127.05 103.217C131.574 104.453 135.063 108.196 135.933 112.86C133.539 117.094 128.995 119.953 123.784 119.953C118.573 119.953 114.029 117.094 111.635 112.859Z" fill="#505ACC"/>
<circle cx="123.784" cy="101.415" r="3.0247" fill="#FDDEBF"/>
<path d="M104.127 129.878H149.001" stroke="#505ACC" stroke-width="7.21532" stroke-linecap="round"/>
<path d="M104.127 142.684H149.001" stroke="#505ACC" stroke-width="7.21532" stroke-linecap="round"/>
<path d="M104.127 156.125H149.001" stroke="#505ACC" stroke-width="7.21532" stroke-linecap="round"/>
<path d="M104.372 169.566H149.246" stroke="#505ACC" stroke-width="7.21532" stroke-linecap="round"/>
<path d="M207.426 113.95H400.738" stroke="#D3EDFD" stroke-width="2.40511" stroke-linecap="round"/>
<path d="M97.5568 179.813L112.799 269.865C72.759 267.144 60.33 290.228 61.0233 303.056L43.3418 210.488C50.1175 185.922 78.1498 179.813 97.5568 179.813Z" fill="#43EB8F"/>
<path d="M96.7887 187.124C72.5817 187.848 59.418 196.666 52.8402 205.536C52.0891 206.453 50.0685 209.245 47.9956 213.077" stroke="#D3EDFD" stroke-width="2.40511" stroke-linecap="round"/>
<ellipse cx="92.3368" cy="183.043" rx="2.10311" ry="1.6195" fill="#D3EDFD"/>
<ellipse cx="85.9669" cy="183.791" rx="2.10311" ry="1.6195" transform="rotate(-8.41408 85.9669 183.791)" fill="#D3EDFD"/>
<ellipse cx="79.3605" cy="185.179" rx="2.10311" ry="1.6195" transform="rotate(-15.9784 79.3605 185.179)" fill="#D3EDFD"/>
<path d="M163.145 179.813L199.327 354.234" stroke="#505ACC" stroke-width="3.60766" stroke-linecap="round"/>
<path d="M162.747 179.813L126.564 354.234" stroke="#81B6F5" stroke-width="3.60766" stroke-linecap="round"/>
<path d="M189.519 179.813L225.702 354.234" stroke="#505ACC" stroke-width="3.60766" stroke-linecap="round"/>
<path d="M160.929 189.634H186.913" stroke="#81B6F5" stroke-width="3.60766" stroke-linecap="round"/>
<path d="M168.011 203.508H194.124" stroke="#505ACC" stroke-width="3.60766" stroke-linecap="round"/>
<path d="M171.242 218.696H197.356" stroke="#505ACC" stroke-width="3.60766" stroke-linecap="round"/>
<path d="M173.214 231.685H199.327" stroke="#505ACC" stroke-width="3.60766" stroke-linecap="round"/>
<path d="M177.071 245.817H202.577" stroke="#505ACC" stroke-width="3.60766" stroke-linecap="round"/>
<path d="M180.116 259.648H205.774" stroke="#505ACC" stroke-width="3.60766" stroke-linecap="round"/>
<path d="M183.479 273.562H208.223" stroke="#505ACC" stroke-width="3.60766" stroke-linecap="round"/>
<path d="M186.271 287.968H211.65" stroke="#505ACC" stroke-width="3.60766" stroke-linecap="round"/>
<path d="M188.808 301.174H214.441" stroke="#505ACC" stroke-width="3.60766" stroke-linecap="round"/>
<path d="M191.663 316.36H217.55" stroke="#505ACC" stroke-width="3.60766" stroke-linecap="round"/>
<path d="M194.554 329.681H220.215" stroke="#505ACC" stroke-width="3.60766" stroke-linecap="round"/>
<path d="M155.282 217.677H181.068" stroke="#AECEF4" stroke-width="3.60766" stroke-linecap="round"/>
<path d="M152.434 231.685H177.781" stroke="#81B6F5" stroke-width="3.60766" stroke-linecap="round"/>
<path d="M149.479 245.817H175.153" stroke="#81B6F5" stroke-width="3.60766" stroke-linecap="round"/>
<path d="M146.726 259.648H172.165" stroke="#81B6F5" stroke-width="3.60766" stroke-linecap="round"/>
<path d="M143.188 273.562H169.725" stroke="#81B6F5" stroke-width="3.60766" stroke-linecap="round"/>
<path d="M140.341 287.968H165.953" stroke="#81B6F5" stroke-width="3.60766" stroke-linecap="round"/>
<path d="M138.154 301.174H163.144" stroke="#81B6F5" stroke-width="3.60766" stroke-linecap="round"/>
<path d="M134.707 315.601H159.994" stroke="#81B6F5" stroke-width="3.60766" stroke-linecap="round"/>
<path d="M132.258 329.681H157.926" stroke="#81B6F5" stroke-width="3.60766" stroke-linecap="round"/>
<path d="M129.201 343.671H154.781" stroke="#81B6F5" stroke-width="3.60766" stroke-linecap="round"/>
<path d="M158.186 203.508H184.299" stroke="#81B6F5" stroke-width="3.60766" stroke-linecap="round"/>
<path d="M140.699 295.653L140.402 290.967C142.514 290.014 146.981 288.876 147.096 290.486C147.215 292.152 147.08 294.02 146.994 294.617C144.596 295.374 141.795 295.608 140.699 295.653Z" fill="#FDDEBF"/>
<path d="M154.316 295.653L154.019 290.967C156.131 290.014 160.598 288.876 160.713 290.486C160.831 292.152 160.696 294.02 160.611 294.617C158.213 295.374 155.412 295.608 154.316 295.653Z" fill="#FDDEBF"/>
<path d="M147.134 293.667C144.32 296.01 140.713 294.593 140.548 294.69C140.178 295.903 140.144 298.825 140.209 299.692L156.23 299.936C156.655 299.542 156.782 298.88 156.828 298.345C156.927 297.213 153.386 296.815 150.957 295.626C149.195 294.764 147.972 294.049 147.134 293.667Z" fill="#11243E"/>
<path d="M160.803 293.667C157.989 296.01 154.381 294.593 154.217 294.69C153.846 295.903 153.812 298.825 153.877 299.692L169.898 299.936C170.323 299.542 170.45 298.88 170.497 298.345C170.596 297.213 167.054 296.815 164.625 295.626C162.863 294.764 161.64 294.049 160.803 293.667Z" fill="#11243E"/>
<path d="M164.604 264.846C165.279 252.119 163.31 238.533 162.242 233.331L160.787 231.853L138.7 236.17C137.426 240.143 137.849 251.751 138.162 255.643C138.749 262.941 139.013 282.262 138.162 292.084H147.884C149.303 285.769 150.453 271.294 150.851 264.846C151.508 270.45 153.507 285.34 153.233 292.084H163.278C163.439 288.308 163.929 277.573 164.604 264.846Z" fill="#505ACC"/>
<mask id="mask0_213_10661" style="mask-type:alpha" maskUnits="userSpaceOnUse" x="138" y="231" width="27" height="62">
<path d="M164.604 264.846C165.279 252.119 163.31 238.533 162.242 233.331L160.787 231.853L138.749 236.175C137.593 244.442 138.162 251.738 138.162 255.643C138.162 261.827 139.013 282.262 138.162 292.084H147.884C149.302 285.769 150.453 271.294 150.851 264.846C151.508 270.45 153.507 285.34 153.233 292.084H163.278C163.439 288.308 163.929 277.573 164.604 264.846Z" fill="#585AFA"/>
</mask>
<g mask="url(#mask0_213_10661)">
<path d="M161.14 234.445C157.68 235.423 144.121 239.773 137.774 241.826L137.069 238.253L156.251 230.966C159.322 231.718 164.6 233.467 161.14 234.445Z" fill="#323DB9"/>
</g>
<path d="M148.647 249.771C150.079 250.487 150.712 260.391 150.849 265.254C150.864 265.737 150.441 270.327 150.227 272.561C149.861 269.644 149.033 262.997 148.647 259.749C148.166 255.689 146.858 248.877 148.647 249.771Z" fill="#323DB9"/>
<path d="M131.698 208.898C132.105 210.036 132.786 210.62 133.076 210.77L133.256 209.362V207.939C132.567 207.784 131.29 207.759 131.698 208.898Z" fill="#BA0732"/>
<path d="M120.811 202.623C122.869 201.721 129.55 198.788 132.633 197.434C136.514 199.268 142.699 203.751 136.391 207.015C131.302 209.648 125.362 211.312 122.029 211.896C120.802 212.111 119.567 211.766 118.554 211.04C111.06 205.671 105.788 199.01 103.363 195.656L107.361 192.137L120.811 202.623Z" fill="#FDDEBF"/>
<path d="M105.909 188.899C107.101 189.91 112.501 195.476 113.997 197.763L109.02 202.32C108.347 201.552 106.288 199.446 105 197.892C103.638 196.248 102.01 194.648 101.631 193.865C101.329 193.238 101.665 192.809 101.984 192.73C101.266 191.662 102.336 190.947 102.746 191.065C102.79 190.004 103.849 189.928 104.29 190.176C102.85 189.189 101.032 186.834 101.663 186.413C102.657 185.749 104.715 187.887 105.909 188.899Z" fill="#FDDEBF"/>
<mask id="mask1_213_10661" style="mask-type:alpha" maskUnits="userSpaceOnUse" x="103" y="192" width="37" height="20">
<path d="M120.811 202.623C122.869 201.721 129.55 198.788 132.633 197.434C136.514 199.268 142.699 203.751 136.391 207.015C131.302 209.648 125.362 211.312 122.029 211.896C120.802 212.111 119.567 211.766 118.554 211.04C111.06 205.671 105.788 199.01 103.363 195.656L107.361 192.137L120.811 202.623Z" fill="#FDDEBF"/>
</mask>
<g mask="url(#mask1_213_10661)">
<path d="M119.474 209.619C122.503 210.225 129.68 207.852 132.89 206.589L133.756 213.135L121.368 217.896L102.704 203.398L104.543 197.771C108.258 201.468 116.445 209.013 119.474 209.619Z" fill="#EBB47E" fill-opacity="0.29"/>
</g>
<path d="M105.981 191.886C105.523 191.439 104.864 190.79 104.207 190.128M107.477 190.63C105.683 188.674 102.805 186.247 102.187 186.26C101.569 186.273 101.345 186.862 101.924 187.68C102.204 188.076 103.204 189.117 104.207 190.128M104.207 190.128C103.032 189.751 102.757 190.561 102.766 191.013M104.517 193.124C104.061 192.687 102.786 191.414 102.766 191.013M102.766 191.013C102.248 191.033 101.499 191.806 102.072 192.686M102.072 192.686C102.249 192.958 102.603 193.337 103.001 193.724M102.072 192.686C101.579 192.771 100.882 193.239 102.04 194.434C103.489 195.927 103.263 195.693 103.889 196.342" stroke="#F0C291" stroke-width="0.392862" stroke-linecap="round"/>
<path d="M120.974 202.762C119.024 201.285 111.198 194.012 107.529 190.56V192.202C107.529 192.379 116.911 201.162 121.601 205.532C122.204 205.224 122.923 204.239 120.974 202.762Z" fill="#FDDEBF"/>
<path d="M146.877 190.584C143.838 190.539 142.973 185.9 142.897 181.96C142.856 179.787 143.476 177.238 145.637 177.015H151.327L153.151 188.833C152.714 189.441 150.846 190.642 146.877 190.584Z" fill="#FDDEBF"/>
<path d="M147.239 194.223L146.94 190.037L146.193 185.003L153.869 183.122L154.787 195.166L147.239 194.223Z" fill="#FDDEBF"/>
<path d="M140.848 177.354C140.941 180.424 146.974 179.692 149.661 178.969C150.487 181.336 152.253 186.245 153.797 186.08C155.341 185.915 155.506 182.552 154.789 181.311C154.073 180.071 155.478 177.354 154.789 175.743C154.1 174.132 152.832 175.743 150.379 174.144C147.925 172.545 146.244 173.979 145.555 174.668C144.866 175.357 140.732 173.516 140.848 177.354Z" fill="#10243D"/>
<circle cx="151.576" cy="183.536" r="1.29747" fill="#FDDEBF"/>
<path d="M151.405 189.278C150.146 190.386 147.972 190.611 147.013 190.586L147.076 192.039C149.319 191.082 150.875 189.801 151.405 189.278Z" fill="#EBB47E"/>
<path d="M142.584 238.577L142.973 243.032C143.008 243.429 142.844 243.817 142.536 244.068L140.608 245.642L138.632 245.148" stroke="#323EC6" stroke-width="1.20255" stroke-linecap="round"/>
<path d="M155.17 235.299L155.913 240.84C155.965 241.228 155.825 241.617 155.537 241.883L151.804 245.333L148.112 243.319C147.796 243.147 147.574 242.842 147.507 242.488L146.215 235.68" stroke="#323EC6" stroke-width="1.20255" stroke-linecap="round"/>
<path d="M122.201 203.592C121.688 203.231 120.418 202.31 119.438 201.513" stroke="#F0C291" stroke-width="0.481021" stroke-linecap="round"/>
<circle r="0.292767" transform="matrix(-0.990697 -0.136088 -0.136088 0.990697 144.165 183.398)" fill="#11243E"/>
<path d="M146.574 184.305C146.245 184.307 145.968 184.4 145.741 184.537C145.051 184.953 145.124 186.03 145.908 186.217C146.413 186.338 146.989 186.271 147.336 186.078C147.974 185.724 147.777 184.299 146.574 184.305Z" fill="#FEB7A1"/>
<path d="M144.954 182.473C144.736 182.238 144.296 182.034 143.838 182.07" stroke="#11243E" stroke-width="0.106038" stroke-linecap="round"/>
<path d="M151.143 183.98C151.152 183.732 151.311 183.128 151.875 182.705" stroke="#F0C291" stroke-width="0.360766" stroke-linecap="round"/>
<path d="M151.537 183.153C151.713 183.194 151.975 183.327 152.236 183.587" stroke="#F0C291" stroke-width="0.360766" stroke-linecap="round"/>
<path d="M189.122 179.813L152.939 354.234" stroke="#81B6F5" stroke-width="3.60766" stroke-linecap="round"/>
<path d="M174.584 226.799C169.718 222.391 165.639 216.47 164.208 214.061L170.487 206.481L176.278 215.556L182.289 204.62L186.983 206.159C184.855 214.768 179.45 231.207 174.584 226.799Z" fill="#FDDEBF"/>
<mask id="mask2_213_10661" style="mask-type:alpha" maskUnits="userSpaceOnUse" x="164" y="205" width="24" height="23">
<path d="M174.584 226.8C169.718 222.392 165.639 216.471 164.208 214.062L170.487 206.482L176.278 215.557L183.946 205.018L187.798 206.482C185.67 215.091 179.45 231.208 174.584 226.8Z" fill="#FDDEBF"/>
</mask>
<g mask="url(#mask2_213_10661)">
<path d="M177.254 225.231C175.141 226.053 169.393 218.745 166.783 214.989L165.607 214.66L164.971 217.107L168.103 222.833L177.695 230.614L186.699 218.037L186.21 214.22C184.106 217.548 179.368 224.409 177.254 225.231Z" fill="#EBB47E" fill-opacity="0.29"/>
</g>
<path d="M182.986 203.185C182.454 204.497 181.039 207.017 180.466 207.98L186.024 209.815C186.793 207.237 187.31 206.411 187.664 205.345C188.106 204.013 191.459 201.245 189.327 199.78L188.781 199.78C188.377 199.316 187.563 198.378 187.534 198.335C187.506 198.293 187.006 198.318 186.76 198.335L186.324 200.623L182.986 203.185Z" fill="#FDDEBF"/>
<path d="M159.686 195.011C150.212 190.412 135.703 195.125 130.404 198.416C131.086 200.764 132.609 206.13 133.071 210.765L137.427 207.925C136.824 224.016 136.488 235.897 136.824 239.922C146.725 236.944 160.428 234.251 164.319 233.949L163.653 214.157L165.749 216.52C167.596 213.863 171.137 210.683 172.523 209.453C170.615 205.909 166.832 198.48 159.686 195.011Z" fill="#FE2257"/>
<path d="M137.657 204.064C136.636 205.305 134.145 206.164 132.452 206.765L133.077 210.775L137.657 207.97V204.064Z" fill="#E7194A"/>
<path d="M163.292 209.567C163.946 211.3 165.955 213.958 166.879 215.071C166.585 215.362 166.013 216.187 165.764 216.563L163.677 214.166C163.512 213.224 163.352 210.708 163.292 209.567Z" fill="#E7194A"/>
<path d="M176.289 215.569C176.502 215.971 176.963 216.833 177.105 217.06" stroke="#F0C291" stroke-width="0.481021" stroke-linecap="round"/>
<path d="M190.028 201.328C190.466 199.293 188.298 197.07 187.222 196.285L186.737 198.342L186.901 204.849C187.503 204.503 189.59 203.364 190.028 201.328Z" fill="#FDDEBF"/>
<path d="M182.495 200.118C182.191 201.304 182.508 203.501 182.59 204.008L183.152 203.137C183.037 202.386 183.104 201.582 183.152 201.273L184.179 196.442C182.768 196.323 182.798 198.932 182.495 200.118Z" fill="#FDDEBF"/>
<path d="M186.801 198.331C186.6 198.443 184.224 199.681 183.061 200.285C182.987 200.76 182.81 201.787 182.698 202.1C182.587 202.412 183.005 203.775 183.229 204.417C184.345 203.793 186.623 202.507 186.801 202.351C187.025 202.156 187.22 198.583 186.801 198.331Z" fill="#FDDEBF"/>
<path d="M183.853 197.81C183.654 198.662 183.687 199.779 183.729 200.231L183.258 200.826L182.995 200.093L183.507 197.464C183.706 197.224 184.052 196.957 183.853 197.81Z" fill="#FDDEBF"/>
<path d="M39.8735 325.572V324.355L48.6415 323.654C48.7633 324.233 49.0008 325.426 48.9764 325.572C48.946 325.755 47.7587 325.816 47.1498 325.938C46.6626 326.035 43.7399 327.135 42.3395 327.673L39.8735 325.572Z" fill="#FDDEBF"/>
<path d="M13.4294 325.572V324.355L22.1975 323.654C22.3192 324.233 22.5567 325.426 22.5323 325.572C22.5019 325.755 21.3146 325.816 20.7057 325.938C20.2185 326.035 17.2959 327.135 15.8954 327.673L13.4294 325.572Z" fill="#FDDEBF"/>
<path d="M49.3003 323.914C45.6954 327.386 40.0964 325.032 39.8829 325.153C39.3821 326.702 39.3067 329.817 39.3723 330.93L58.2913 331.55C58.8453 331.054 58.6464 331.022 58.7177 330.336C58.8414 329.145 55.949 329.322 53.3364 327.036C51.7118 325.614 50.3674 324.422 49.3003 323.914Z" fill="#11243E"/>
<path d="M13.0403 323.914C16.6452 327.386 22.2442 325.032 22.4577 325.153C22.9585 326.702 23.0339 329.817 22.9683 330.93L4.04923 331.55C3.49527 331.054 3.69415 331.022 3.62285 330.336C3.49913 329.145 6.39157 329.322 9.00422 327.036C10.6288 325.614 11.9731 324.422 13.0403 323.914Z" fill="#11243E"/>
<path d="M53.8691 324.631L52.4914 258.695L26.3634 253.541L24.0528 257.806L25.297 264.027L9.57495 324.631H24.0528L37.1298 283.602V324.631H53.8691Z" fill="#444CAE"/>
<path d="M38.8219 265.157L38.3391 272.69" stroke="#7179DE" stroke-width="0.962043" stroke-linecap="round"/>
<path d="M31.3995 260.926C31.1871 262.4 30.7629 265.131 30.3201 267.492C29.9752 269.332 28.4704 270.703 26.6003 270.791C25.829 270.827 24.9946 270.843 24.1506 270.822" stroke="#7179DE" stroke-width="0.996341" stroke-linecap="round"/>
<path d="M47.1602 259.248C47.3916 260.9 47.9216 264.074 48.5678 266.576C48.9524 268.064 50.2614 269.063 51.7895 269.231V269.231" stroke="#7179DE" stroke-width="0.996341" stroke-linecap="round"/>
<path d="M10.2199 249.208C9.54269 246.228 14.0007 241.082 16.3143 238.881L22.9167 239.897L25.0329 247.515L20.4421 250.315C24.6744 253.983 32.3801 261.447 31.2966 264.698C29.9423 268.761 19.7848 269.523 19.5309 267.491C19.3278 265.866 22.3806 265.798 23.9325 265.967C14.8754 257.926 11.0663 252.932 10.2199 249.208Z" fill="#FDDEBF"/>
<path d="M39.5479 229.003L39.0237 223.818L32.9375 221.873L32.8142 229.003L31.7529 229.361V230.85L33.958 233.115L38.1894 234.128L42.8975 233.592L44.5662 231.268L43.9702 229.361C43.0643 229.265 40.561 229.082 39.5479 229.003Z" fill="#FDDEBF"/>
<path fill-rule="evenodd" clip-rule="evenodd" d="M41.1476 219.856C41.2377 222.244 40.8532 224.748 39.1721 225.328C36.568 226.226 34.3498 225.927 33.4626 223.573C32.2517 221.507 31.8314 217.771 32.6466 216.012C33.3443 214.507 34.9117 213.847 36.0853 213.615C36.893 213.128 37.7923 213.095 38.6923 213.726C40.5602 215.036 41.0617 217.576 41.1476 219.856Z" fill="#FDDEBF"/>
<path d="M49.7177 225.041L52.9604 221.702C53.2166 221.438 53.2096 221.016 52.9447 220.761L46.801 214.84C46.5382 214.587 46.1203 214.593 45.8651 214.854L42.5343 218.261C42.2742 218.527 42.2833 218.955 42.5545 219.21L48.7865 225.063C49.0507 225.311 49.4652 225.301 49.7177 225.041Z" fill="#ACB4FF"/>
<path d="M33.6994 220.936C33.6993 221.45 33.1283 222.483 32.8428 222.935C31.558 221.793 29.9693 218.909 30.3119 216.511C30.7402 213.513 31.7721 213.227 34.0564 213.013C36.3406 212.799 37.4058 210.853 39.5473 211.281C41.6887 211.709 41.7389 214.338 40.5968 215.409C39.4546 216.479 34.9017 214.793 33.6994 216.511C32.7 217.938 33.6994 220.294 33.6994 220.936Z" fill="#10243D"/>
<path d="M46.0021 215.806L43.4904 218.388C43.2547 218.63 43.2646 219.019 43.5124 219.249L48.5673 223.941L51.8675 220.565L46.849 215.79C46.6099 215.562 46.2322 215.569 46.0021 215.806Z" fill="white" fill-opacity="0.36"/>
<circle cx="33.4431" cy="220.527" r="1.0039" fill="#FDDEBF"/>
<path d="M74.4807 239.767C74.9206 245.078 62.2072 244.905 55.9175 243.384L55.0627 240.634L52.2848 237.023L53.0652 232.13L58.649 233.988C57.0505 232.508 53.832 228.865 53.3618 228.467C52.5379 227.77 50.1611 227.073 48.8618 227.01C47.5625 226.946 46.7702 225.362 46.485 224.728C46.1998 224.094 44.8584 223.653 44.5098 222.608C44.2963 221.967 44.5275 221.486 44.8655 221.338L48.761 225.036C49.0255 225.288 49.4432 225.278 49.6964 225.016L52.8753 221.719C53.1397 221.445 53.1198 221.005 52.8319 220.756L52.0005 220.036C51.6254 219.987 50.9037 220.046 50.4471 219.902C49.3409 219.552 49.9862 218.821 50.4471 218.498C49.8134 218.441 49.2389 218.273 49.2389 217.882C49.2389 217.064 51.3926 216.695 53.6641 217.074C55.9357 217.452 55.7146 220.443 56.2786 221.622C56.8426 222.802 73.763 231.102 74.4807 239.767Z" fill="#FDDEBF"/>
<path d="M42.034 229.121C39.4168 234.44 34.5471 231.337 31.9088 229.121C22.6434 230.809 18.1455 236.082 16.061 238.967C22.1555 241.996 23.1638 246.288 22.9175 248.786L25.3657 247.378L23.7567 259.409C27.8725 259.514 33.6432 264.551 41.9343 260.992C46.0811 259.212 52.4639 258.935 54.469 258.97C54.8067 254.496 52.2062 245.936 51.4322 241.996C52.6986 242.418 54.0851 242.942 56.1254 243.434C56.1254 239.98 55.7941 235.626 54.469 232.55C51.2608 231.115 44.8347 229.121 42.034 229.121Z" fill="#FF4E9C"/>
<path d="M30.2805 260.891C29.0551 259.36 25.4229 255.056 24.5532 254.179L23.3087 254.394C23.3087 255.471 22.3699 259.008 22.3699 259.2C22.3699 259.391 24.898 260.437 26.0069 260.891C29.2427 264.952 31.506 262.423 30.2805 260.891Z" fill="#FDDEBF"/>
<path d="M48.1185 214.686C48.6898 214.948 50.5103 216.799 51.3919 217.749L50.4341 218.314C50.0333 218.025 49.053 217.087 48.1184 216.186C47.0372 215.144 47.4044 214.358 48.1185 214.686Z" fill="#FDDEBF"/>
<circle r="0.258695" transform="matrix(-0.990832 -0.135098 -0.135098 0.990832 39.6113 219.068)" fill="#11243E"/>
<circle r="0.258695" transform="matrix(-0.990832 -0.135098 -0.135098 0.990832 37.4695 219.256)" fill="#11243E"/>
<path d="M35.6418 224.929C36.8787 225.742 38.5193 225.554 39.1851 225.358L39.3205 226.611C37.2352 225.997 35.9992 225.234 35.6418 224.929Z" fill="#EBB47E"/>
<path d="M36.6286 221.143C37.1647 220.845 36.998 219.645 35.9856 219.652C34.831 219.659 35.0158 221.458 36.1582 221.291C36.3377 221.265 36.5015 221.214 36.6286 221.143Z" fill="#FEB7A1"/>
<path d="M41.3867 220.732C41.9228 220.434 41.756 219.235 40.7436 219.241C39.5891 219.248 39.7738 221.047 40.9162 220.88C41.0958 220.854 41.2596 220.803 41.3867 220.732Z" fill="#FEB7A1"/>
<path d="M20.9207 265.36C20.4997 266.27 21.0961 266.481 21.4469 266.473L25.6742 266.195L24.3938 264.399C23.4115 264.34 21.3416 264.449 20.9207 265.36Z" fill="#FDDEBF"/>
<path d="M52.2224 218.341C51.431 218.341 49.6545 218.615 49.2429 218.084C48.7285 217.419 50.7434 216.776 53.4014 217.076C53.8625 217.128 54.2291 217.249 54.5185 217.415" stroke="#F0C291" stroke-width="0.531382" stroke-linecap="round"/>
<path d="M50.1817 216.444C49.5852 215.871 48.2883 214.701 47.8731 214.601C47.3542 214.475 47.1573 214.994 47.5689 215.567C47.8982 216.025 48.9588 217.058 49.448 217.518" stroke="#F0C291" stroke-width="0.531382" stroke-linecap="round"/>
<path d="M50.218 218.42C49.9794 218.498 49.6663 219.084 50.1103 219.577C50.3781 219.873 51.404 219.97 52.5614 219.935" stroke="#F0C291" stroke-width="0.531382" stroke-linecap="round"/>
<path d="M44.8641 221.415C44.5498 221.6 44.2267 222.067 44.7489 222.802C45.4015 223.721 46.0317 223.603 46.902 225.247C47.5982 226.562 48.6758 227.088 49.119 227.096" stroke="#F0C291" stroke-width="0.531382" stroke-linecap="round"/>
<path d="M18.3589 248.344C19.4394 249.29 21.9981 251.578 23.5892 253.169" stroke="#F0C291" stroke-width="0.531382" stroke-linecap="round"/>
<path d="M56.1672 231.352L60.9937 236.428" stroke="#F0C291" stroke-width="0.531382" stroke-linecap="round"/>
<mask id="mask3_213_10661" style="mask-type:alpha" maskUnits="userSpaceOnUse" x="9" y="253" width="45" height="72">
<path d="M53.8691 324.631L52.4914 258.695L26.3634 253.541L24.0528 257.806L25.297 264.027L9.57495 324.631H24.0528L37.1298 283.602V324.631H53.8691Z" fill="#444CAE"/>
</mask>
<g mask="url(#mask3_213_10661)">
<path d="M37.0887 281.051V283.619L35.3651 291.308L26.2003 325.867H17.7039C24.0428 314.64 33.2683 291.312 37.0887 281.051Z" fill="#343C9D"/>
</g>
<circle cx="50.7897" cy="222.669" r="0.43394" fill="#CACFFF"/>
<path d="M502.657 229.715C502.473 235.484 499.061 236.241 497.747 236.679C501.193 236.861 502.65 241.761 502.657 243.711C502.657 239.651 505.576 236.769 507.397 236.679C504.37 236.178 502.58 232.215 502.657 229.715Z" fill="#ACB4FF"/>
<mask id="mask4_213_10661" style="mask-type:alpha" maskUnits="userSpaceOnUse" x="44" y="216" width="31" height="29">
<path d="M74.4807 239.767C74.9206 245.078 62.2072 244.905 55.9175 243.384L55.0627 240.634L52.2848 237.023L53.0652 232.13L58.649 233.988C57.0505 232.508 53.832 228.865 53.3618 228.467C52.5379 227.77 50.1611 227.073 48.8618 227.009C47.5625 226.946 46.7702 225.361 46.485 224.728C46.1998 224.094 44.8584 223.653 44.5098 222.607C44.2963 221.967 44.5275 221.486 44.8655 221.338L48.761 225.036C49.0255 225.287 49.4432 225.278 49.6964 225.016L52.8753 221.719C53.1397 221.445 53.1198 221.005 52.8319 220.756L52.0005 220.036C51.6254 219.987 50.9037 220.046 50.4471 219.902C49.3409 219.552 49.9862 218.82 50.4471 218.498C49.8134 218.441 49.2389 218.273 49.2389 217.882C49.2389 217.063 51.3926 216.695 53.6641 217.074C55.9357 217.452 55.7146 220.443 56.2786 221.622C56.8426 222.802 73.763 231.102 74.4807 239.767Z" fill="#FDDEBF"/>
</mask>
<g mask="url(#mask4_213_10661)">
<path d="M73.171 240.295C70.963 243.824 60.8857 242.884 56.123 241.973L54.7698 243.732L66.3517 248.846L77.4735 242.731L73.6851 229.877L68.1647 229.471C70.7535 231.609 75.3791 236.767 73.171 240.295Z" fill="#F0C291" fill-opacity="0.36"/>
</g>
<path d="M26.9378 243.288C26.5368 243.937 23.8253 246.151 22.8689 246.889C22.9839 247.654 22.9092 248.488 22.8552 248.819L26.6137 246.804L26.9378 243.288Z" fill="#E42B7D"/>
<path d="M50.4316 239.11C51.8071 240.618 54.7746 241.612 56.0864 241.921C56.1361 242.387 56.1444 243.12 56.1237 243.433C54.404 243.01 52.2821 242.324 51.4334 241.994C51.116 241.121 50.6191 239.683 50.4316 239.11Z" fill="#E42B7D"/>
<path d="M52.5155 259.773L52.4807 259.012C53.0842 258.956 54.0566 258.961 54.4674 258.97C54.0188 259.496 52.9793 259.725 52.5155 259.773Z" fill="#E42B7D"/>
<path d="M33.367 263.25C35.9692 263.358 42.4326 263.22 47.4689 261.803" stroke="#7179DE" stroke-width="0.962043" stroke-linecap="round"/>
<path d="M40.9621 263.213L41.1705 266.963C41.2732 268.811 40.3349 270.258 38.5194 270.616V270.616" stroke="#7179DE" stroke-width="0.962043" stroke-linecap="round"/>
<path d="M19.4402 249.206L22.8747 246.891C23.0079 247.278 22.9302 248.344 22.8747 248.828L20.6808 250.189L19.4402 249.206Z" fill="#F0C291" fill-opacity="0.35"/>
<ellipse cx="456.564" cy="352.053" rx="19.1563" ry="3.94771" fill="#C7CBF6"/>
<path d="M435.553 299.147C429.526 285.544 421.994 277.798 419.673 276.762C425.833 270.258 436.444 273.214 443.067 277.956C448.366 281.75 453.672 304.96 456.012 316.222C447.496 312.699 440.913 311.242 435.553 299.147Z" fill="#9FE9C0"/>
<path d="M512.282 277.559C508.301 278.461 496.246 276.587 490.717 275.537L490.737 272.788L495.276 270.062C498.223 269.66 504.173 268.835 504.394 268.749C504.616 268.662 509.511 271.068 511.931 272.282C513.707 273.665 516.263 276.657 512.282 277.559Z" fill="#9FE9C0"/>
<path d="M491.742 262.86C473.659 262.459 464.441 285.191 462.093 296.608C483.224 292.134 482.204 279.559 494.98 273.555C505.201 268.752 512.134 272.438 514.323 274.882C510.832 269.077 503.937 263.13 491.742 262.86Z" fill="#43EB8F"/>
<path d="M449.243 271.958C429.993 258.131 394.204 232.233 412.094 213.124C434.456 189.237 449.367 255.164 449.243 271.958Z" fill="#43EB8F"/>
<path d="M459.509 278.206C457.735 261.177 462.192 217.085 479.558 227.319C498.061 238.223 473.782 266.874 459.509 278.206Z" fill="#43EB8F"/>
<path d="M472.271 242.753C468.249 250.33 459.814 269.785 458.253 286.986C457.175 298.864 457.178 310.915 457.464 319.421" stroke="#4C86CE" stroke-width="2.60652" stroke-linecap="round"/>
<path d="M489.552 266.113C482.937 266.772 468.471 275.966 460.838 301.791C458.964 308.133 458.574 313.112 458.4 319.333" stroke="#4C86CE" stroke-width="2.60652" stroke-linecap="round"/>
<path d="M426.567 236.539C435.605 244.028 451.59 267.258 453.292 291.737C453.892 300.373 454.872 311.319 455.999 319.441" stroke="#4C86CE" stroke-width="2.60652" stroke-linecap="round"/>
<path d="M423.809 274.973C424.354 275.086 435.041 276.475 441.677 294.316C446.075 306.141 451.57 312.845 454.912 315.718" stroke="#4C86CE" stroke-width="2.60652" stroke-linecap="round"/>
<path d="M383.652 279.605C385.391 263.761 418.073 260.037 435.119 269.894C438.946 272.106 442.208 275.728 444.956 280.057C429.194 267.507 415.61 280.279 406.905 287.783C398.201 295.287 381.913 295.449 383.652 279.605Z" fill="#43EB8F"/>
<path d="M477.076 318.469H435.528L439.849 349.714H473.752L477.076 318.469Z" fill="#ACB4FF"/>
<ellipse cx="456.793" cy="349.714" rx="16.9917" ry="3.65139" fill="#ACB4FF"/>
<rect x="431.213" y="310.597" width="50.9067" height="7.87215" rx="3.93608" fill="#505ACC"/>
<path d="M32.8433 220.12C33.0437 220.155 33.5195 220.305 33.8194 220.626" stroke="#EBB47E" stroke-width="0.240511" stroke-linecap="round"/>
<path d="M33.2661 220.312C33.1978 220.378 33.048 220.581 32.9956 220.867" stroke="#EBB47E" stroke-width="0.240511" stroke-linecap="round"/>
<path d="M410.348 214.738C415.093 208.581 427.125 201.282 437.293 221.347" stroke="white" stroke-width="2.40511" stroke-linecap="round"/>
<circle cx="408.175" cy="218.011" r="1.10226" fill="white"/>
<path d="M37.9803 205.403C34.7261 192.81 26.2012 164.006 11.2391 176.115C1.70864 183.828 43.9155 216.764 77.6232 146.385" stroke="#588DED" stroke-width="2.04434" stroke-linecap="round" stroke-dasharray="4.81 4.81"/>
<path d="M469.752 330.094L468.71 342.495" stroke="white" stroke-opacity="0.22" stroke-width="4.81021" stroke-linecap="round"/>
<path d="M479.895 231.701C481.487 233.952 483.88 240.232 480.718 247.346" stroke="white" stroke-opacity="0.22" stroke-width="4.81021" stroke-linecap="round"/>
<path d="M403.782 269.899C405.645 268.861 409.405 268.081 413.95 268.647" stroke="white" stroke-opacity="0.22" stroke-width="4.81021" stroke-linecap="round"/>
<path d="M25.8855 255.713L26.8273 244.338L25.4996 246.452L24.4656 254.124C24.8484 254.42 25.5717 255.307 25.8855 255.713Z" fill="#E42B7D"/>
</svg>
