<svg width="430" height="276" viewBox="0 0 430 276" fill="none" xmlns="http://www.w3.org/2000/svg">
<ellipse cx="242.841" cy="268.499" rx="187.159" ry="7.40378" fill="#C7CBF6"/>
<path d="M206.298 11.3442C234.84 16.3617 238.689 41.3987 233.721 60.8571C211.592 131.293 144.952 103.378 98.4365 126.535C51.9212 149.692 36.1075 140.044 16.6884 126.535C-2.73058 113.027 -12.7221 70.2785 29.785 65.2652C75.5416 59.8686 33.857 21.3629 67.2757 3.51273C100.695 -14.3375 116.501 41.6255 139.984 42.1079C163.468 42.5904 170.622 5.07241 206.298 11.3442Z" fill="#FFD35A"/>
<path d="M67.1681 139.725C72.3388 175.034 96.2678 204.386 107.586 214.648L105.345 228.657C87.1053 222.923 47.1634 202.448 33.3166 166.427C16.0081 121.4 60.7047 95.5873 67.1681 139.725Z" fill="#43EB8F"/>
<path d="M38.6101 195.898C56.6505 212.436 85.5255 219.433 97.708 220.864L97.0627 224.898C68.7254 230.709 52.166 227.543 27.0746 216.29C1.98323 205.037 16.0596 175.226 38.6101 195.898Z" fill="#87BDFC"/>
<path d="M36.9004 208.464C44.3796 213.52 63.6004 223.419 80.6505 222.569" stroke="white" stroke-width="2.87294" stroke-linecap="round"/>
<path d="M52.7998 155.096C53.8252 164.186 59.2664 186.727 85.2114 202.413" stroke="white" stroke-width="2.87294" stroke-linecap="round"/>
<rect width="70.0531" height="40.8166" rx="14.5925" transform="matrix(-1 0 0 1 268.727 139.074)" fill="#ED1E79"/>
<rect width="70.0531" height="41.3022" rx="14.5925" transform="matrix(-1 0 0 1 287.496 98.2573)" fill="#FFD35A"/>
<rect width="70.0531" height="40.8166" rx="14.5925" transform="matrix(-1 0 0 1 289.038 179.891)" fill="#172E4E"/>
<mask id="mask0_560_2949" style="mask-type:alpha" maskUnits="userSpaceOnUse" x="198" y="139" width="71" height="41">
<rect width="70.0531" height="40.8166" rx="14.5925" transform="matrix(-1 0 0 1 268.728 139.074)" fill="#ED1E79"/>
</mask>
<g mask="url(#mask0_560_2949)">
<path d="M193.099 155.955C204.608 160.118 222.749 161.152 230.38 161.149L248.809 170.341L254.013 178.912L230.38 185.034C220.504 181.973 200.568 175.606 199.833 174.627C199.099 173.647 195.038 161.77 193.099 155.955Z" fill="#E2136E"/>
</g>
<mask id="mask1_560_2949" style="mask-type:alpha" maskUnits="userSpaceOnUse" x="220" y="98" width="71" height="42">
<rect width="70.0531" height="40.8166" rx="14.5925" transform="matrix(-1 0 0 1 290.669 98.9185)" fill="#FFD35A"/>
</mask>
<g mask="url(#mask1_560_2949)">
<path d="M213.807 120.456C225.316 124.619 243.457 125.654 251.088 125.651L269.517 134.843L274.721 143.414L251.088 149.536C241.212 146.475 221.276 140.108 220.541 139.128C219.807 138.149 215.746 126.272 213.807 120.456Z" fill="#FAAF49" fill-opacity="0.59"/>
</g>
<mask id="mask2_560_2949" style="mask-type:alpha" maskUnits="userSpaceOnUse" x="219" y="179" width="71" height="42">
<rect width="70.0531" height="41.3022" rx="14.5925" transform="matrix(-1 0 0 1 289.546 179.647)" fill="#172E4E"/>
</mask>
<g mask="url(#mask2_560_2949)">
<path d="M214.092 198.122C225.602 202.285 243.742 203.319 251.373 203.316L269.802 212.508L275.006 221.079L251.373 227.201C241.497 224.14 221.561 217.773 220.826 216.794C220.092 215.814 216.031 203.938 214.092 198.122Z" fill="#102849"/>
</g>
<path d="M424.021 182.877H266.452C256.713 182.877 248.818 190.772 248.818 200.512C248.818 210.251 256.713 218.146 266.452 218.146H424.021V182.877Z" fill="white"/>
<path d="M403.709 142.06H246.14C236.4 142.06 228.505 149.956 228.505 159.695C228.505 169.434 236.4 177.329 246.14 177.329H403.709V142.06Z" fill="white"/>
<path fill-rule="evenodd" clip-rule="evenodd" d="M249.749 192.429L250.341 206.548L251.08 207.79C266.922 194.637 324.986 186.26 352.13 183.709H262.728L249.749 192.429Z" fill="#C7CBF6" fill-opacity="0.46"/>
<path d="M422.481 101.244H264.912C255.173 101.244 247.277 109.139 247.277 118.878C247.277 128.618 255.173 136.513 264.912 136.513H422.481V101.244Z" fill="white"/>
<path d="M418.173 194.003C416.997 194.003 322.864 194.003 275.944 194.003" stroke="#C7CBF6" stroke-width="2.1698" stroke-linecap="round"/>
<path d="M415.185 112.004C414.009 112.004 319.876 112.004 272.956 112.004" stroke="#C7CBF6" stroke-width="2.1698" stroke-linecap="round"/>
<path d="M418.173 201.327C416.997 201.327 322.864 201.327 275.944 201.327" stroke="#C7CBF6" stroke-width="2.1698" stroke-linecap="round"/>
<path d="M415.185 119.328C414.009 119.328 319.876 119.328 272.956 119.328" stroke="#C7CBF6" stroke-width="2.1698" stroke-linecap="round"/>
<path d="M418.173 208.34C416.997 208.34 322.864 208.34 275.944 208.34" stroke="#C7CBF6" stroke-width="2.1698" stroke-linecap="round"/>
<path d="M415.185 126.34C414.009 126.34 319.876 126.34 272.956 126.34" stroke="#C7CBF6" stroke-width="2.1698" stroke-linecap="round"/>
<path d="M397.198 152.556C396.023 152.556 301.89 152.556 254.97 152.556" stroke="#C7CBF6" stroke-width="2.1698" stroke-linecap="round"/>
<path d="M397.198 160.096C396.023 160.096 301.89 160.096 254.97 160.096" stroke="#C7CBF6" stroke-width="2.1698" stroke-linecap="round"/>
<path d="M397.198 167.253C396.023 167.253 301.89 167.253 254.97 167.253" stroke="#C7CBF6" stroke-width="2.1698" stroke-linecap="round"/>
<path d="M249.73 126.6C270.997 112.107 345.499 104.545 380.092 102.576L373.2 101H268.634L253.865 105.53L246.579 121.086L249.73 126.6Z" fill="#C7CBF6" fill-opacity="0.46"/>
<path d="M230.628 169.137C244.176 152.753 307.69 145.375 337.753 143.734L325.544 142.159H249.138L232.597 143.734L225.902 160.866L230.628 169.137Z" fill="#C7CBF6" fill-opacity="0.46"/>
<path d="M403.397 128.129V110.524H391V128.129L396.703 121.682L403.397 128.129Z" fill="#ED1E79"/>
<path d="M424.021 101.244H264.912C255.173 101.244 247.277 109.139 247.277 118.878V118.878C247.277 128.618 255.173 136.513 264.912 136.513H424.021" stroke="#172E4E" stroke-width="4.26622" stroke-linecap="round"/>
<path d="M426.3 182.877H266.45C256.711 182.877 248.815 190.772 248.815 200.512V200.512C248.815 210.251 256.711 218.146 266.45 218.146H426.3" stroke="#FFD35A" stroke-width="4.26622" stroke-linecap="round"/>
<path d="M406.07 142.06H246.141C236.402 142.06 228.507 149.956 228.507 159.695V159.695C228.507 169.434 236.402 177.329 246.141 177.329H406.07" stroke="#FF4F9C" stroke-width="4.26622" stroke-linecap="round"/>
<rect x="79.9775" y="25.6816" width="133.799" height="221.892" rx="6.96613" fill="#172E4E"/>
<rect x="84.5938" y="42.5024" width="124.215" height="174.206" rx="2.32204" fill="#DCDFFC"/>
<circle cx="147.898" cy="232.61" r="10.6916" fill="#24436F"/>
<circle cx="146.701" cy="231.823" r="10.6916" fill="#41608B"/>
<path d="M138.094 230.181C138.661 228.432 140.242 225.711 143.025 224.055" stroke="white" stroke-opacity="0.58" stroke-width="1.16102" stroke-linecap="round"/>
<rect x="121.062" y="32.7051" width="51.2294" height="3.5109" rx="1.25166" fill="#41608B"/>
<path d="M179.583 78.2666C165.184 67.6037 130.025 54.2096 104.573 85.9371" stroke="#87BDFC" stroke-width="2.39778" stroke-linecap="round" stroke-dasharray="6.39 6.39"/>
<circle cx="197.885" cy="102.07" r="37.6716" fill="#ACB4FF"/>
<rect x="172.291" y="86.1523" width="51.189" height="32.435" rx="1.59852" fill="#6771E6"/>
<path d="M174.97 89.4795L195.576 100.782C197.036 101.583 198.808 101.569 200.255 100.745L220.797 89.051" stroke="#B1B7F8" stroke-width="2.28794" stroke-linecap="round"/>
<path d="M205.479 98.9929L220.315 112.12" stroke="#B1B7F8" stroke-width="2.28794" stroke-linecap="round"/>
<path d="M189.806 99.7109L174.97 112.838" stroke="#B1B7F8" stroke-width="2.28794" stroke-linecap="round"/>
<path d="M95.837 121.371C92.2796 135.303 96.5477 165.213 142.079 173.394" stroke="#FF4F9C" stroke-width="2.39778" stroke-linecap="round" stroke-dasharray="6.39 6.39"/>
<circle cx="150.536" cy="169.138" r="21.7553" fill="#43EB8F"/>
<path d="M138.488 164.097C137.638 160.892 140.337 158.507 142.382 157.375C142.949 157.062 143.635 157.03 144.199 157.347C146.788 158.798 148.274 162.152 148.035 163.308C147.868 164.115 146.125 165.121 144.725 165.781C144.178 166.039 143.938 166.705 144.246 167.225C147.234 172.264 150.752 174.511 152.832 175.25C153.391 175.448 153.964 175.126 154.23 174.596C154.762 173.535 155.313 172.687 155.747 172.101C156.113 171.609 156.747 171.413 157.321 171.631C159.509 172.465 161.195 174.2 162.145 175.5C162.551 176.057 162.581 176.794 162.258 177.403C160.829 180.097 158.998 181.719 156.631 181.262C147.638 179.526 139.719 168.735 138.488 164.097Z" fill="#3B49E5"/>
<circle cx="25.1018" cy="87.8476" r="10.4094" fill="white" fill-opacity="0.37"/>
<circle cx="92.7604" cy="98.9191" r="23.1071" fill="#87BDFC"/>
<circle cx="81.6161" cy="98.9185" r="2.97544" fill="#3B49E5"/>
<circle cx="92.7596" cy="98.921" r="2.97544" fill="#3B49E5"/>
<circle cx="103.949" cy="98.921" r="2.97544" fill="#3B49E5"/>
</svg>
