<svg width="317" height="270" viewBox="0 0 317 270" fill="none" xmlns="http://www.w3.org/2000/svg">
<path d="M279.063 67.7804C235.483 32.3545 174.774 103.805 173.044 105.535C180.684 116.346 231.754 138.095 239.711 175.458C249.657 222.161 301.982 220.864 312.793 185.404C323.604 149.944 268.252 138.268 258.305 126.16C256.716 124.225 256.278 122.476 256.694 120.869C261.798 101.177 293.519 92.5995 284.386 74.4231C283.138 71.9396 281.402 69.6825 279.063 67.7804Z" fill="#FFD35A"/>
<ellipse cx="29.94" cy="186.899" rx="13.2193" ry="12.1425" fill="#FFD35A"/>
<path d="M111.164 178.4C167.184 182.39 175.877 89.0345 176.301 86.6251C163.839 82.1586 109.537 93.6668 81.5731 67.6412C46.6187 35.1092 4.51875 66.2091 16.0225 101.45C27.5263 136.692 79.5522 114.477 94.6471 118.682C97.0591 119.354 98.4223 120.534 99.0039 122.089C106.129 141.143 85.0787 166.376 102.992 176.016C105.439 177.333 108.156 178.185 111.164 178.4Z" fill="#FFD35A"/>
<ellipse cx="167.314" cy="257.861" rx="110.97" ry="11.9922" fill="#6D76E7" fill-opacity="0.38"/>
<path d="M86.2478 52.9541L81.2202 53.8583L83.1356 59.8306L187.363 95.1601L198.095 64.0511L86.2478 52.9541Z" fill="#7E88FE"/>
<path d="M153.741 194.874C152.529 201.868 150.808 209.093 151.011 216.249C151.151 221.19 153.116 226.135 155.281 230.507C159.542 239.113 166.411 247.146 175.256 251.252C183.565 255.11 192.777 256.36 201.73 254.531C206.681 253.519 211.22 251.758 215.906 249.899" stroke="#588DED" stroke-width="2.21466" stroke-linecap="round" stroke-dasharray="6.64 6.64"/>
<path d="M228.15 160.214L227.877 161.152C229.964 161.356 230.918 161.169 231.134 161.049C231.134 160.463 229.145 160.248 228.15 160.214Z" fill="#11243E"/>
<path d="M303.018 141.911C265.412 152.464 255.246 173.906 255.092 184.246C234.228 201.06 203.462 229.393 247.307 208.216C281.203 191.844 301.122 167.882 310.612 151.247C313.666 145.893 308.953 140.246 303.018 141.911Z" fill="#4ED98D"/>
<mask id="mask0_319_3036" style="mask-type:alpha" maskUnits="userSpaceOnUse" x="224" y="141" width="88" height="75">
<path d="M303.018 141.911C265.412 152.464 255.245 173.906 255.091 184.246C234.228 201.059 203.461 229.393 247.307 208.216C281.202 191.844 301.122 167.882 310.611 151.247C313.666 145.893 308.953 140.246 303.018 141.911Z" fill="#4ED98D"/>
</mask>
<g mask="url(#mask0_319_3036)">
<path d="M257.024 193.363C283.319 177.958 304.391 158.281 311.64 150.368L313.798 158.004L275.284 210.794C258.241 211.403 230.728 208.769 257.024 193.363Z" fill="#1F35A8" fill-opacity="0.12"/>
</g>
<mask id="mask1_319_3036" style="mask-type:alpha" maskUnits="userSpaceOnUse" x="224" y="141" width="88" height="75">
<path d="M303.018 141.911C265.412 152.464 255.245 173.906 255.091 184.246C234.228 201.059 203.461 229.393 247.307 208.216C281.202 191.844 301.122 167.882 310.611 151.247C313.666 145.893 308.953 140.246 303.018 141.911Z" fill="#4ED98D"/>
</mask>
<g mask="url(#mask1_319_3036)">
<path d="M316.763 138.647L256.473 184.376" stroke="#DCFFEC" stroke-width="1.84555"/>
<path d="M268.655 175.943C269.271 175.943 285.399 178.24 291.306 178.937" stroke="#DCFFEC" stroke-width="1.84555"/>
<circle cx="273.491" cy="183.051" r="2.07566" stroke="#DCFFEC" stroke-width="1.84555"/>
<path d="M296.203 154.437L309.635 155.205" stroke="#DCFFEC" stroke-width="1.84555"/>
<path d="M291.652 157.876L307.187 159.078" stroke="#DCFFEC" stroke-width="1.84555"/>
<path d="M289.12 159.765L290.382 144.939" stroke="#DCFFEC" stroke-width="1.84555"/>
<path d="M277.531 168.497C278.148 168.497 290.114 169.891 296.021 170.588" stroke="#DCFFEC" stroke-width="1.84555"/>
</g>
<path d="M294.058 95.4791C251.968 122.735 248.014 152.681 251.861 165.152C233.631 193.07 208.109 238.428 251.861 196.512C286.697 163.137 300.892 125.931 305.294 102.695C306.546 96.0877 299.703 91.8241 294.058 95.4791Z" fill="#43EB8F"/>
<path d="M24.2333 111.978L16.6738 114.04L28.9215 124.368L156.949 145.902L158.907 135.722L72.2104 126.371L66.9202 116.069L24.2333 111.978Z" fill="#ED1E79"/>
<path d="M36.551 180.14L81.8605 54.8511L193.666 66.1147L145.636 199.69L36.551 180.14Z" fill="#C8BEFF" stroke="#7E88FE" stroke-width="1.84555"/>
<mask id="mask2_319_3036" style="mask-type:alpha" maskUnits="userSpaceOnUse" x="35" y="53" width="160" height="148">
<path d="M36.551 180.14L81.8605 54.8511L193.666 66.1147L145.636 199.69L36.551 180.14Z" fill="#C8BEFF" stroke="#7E88FE" stroke-width="1.84555"/>
</mask>
<g mask="url(#mask2_319_3036)">
<path d="M152.775 71.6256L77.707 64.6057L97.1583 130.613L139.598 139.805L152.775 71.6256Z" fill="#7E88FE" fill-opacity="0.23"/>
</g>
<path d="M42.4756 63.5398L38.543 64.16V117.475L137.129 139.271L137.892 72.4498L42.4756 63.5398Z" fill="#7E88FE"/>
<path d="M134.388 199.813H39.4657V65.2128L135.631 73.9486L134.388 199.813Z" fill="white" stroke="#7E88FE" stroke-width="1.84555"/>
<mask id="mask3_319_3036" style="mask-type:alpha" maskUnits="userSpaceOnUse" x="37" y="64" width="99" height="137">
<path d="M133.517 199.888H38.5947V65.288L134.76 74.0238L133.517 199.888Z" fill="white" stroke="#7E88FE" stroke-width="1.84555"/>
</mask>
<g mask="url(#mask3_319_3036)">
<path d="M120.462 132.545C101.288 131.083 74.1071 127.77 62.5754 126.106L59.7354 133.003L141.692 150.247L136.441 97.2416C134.345 94.131 135.981 87.3889 134.682 101.346C133.902 109.739 132.678 117.774 131.604 123.903C130.668 129.243 125.868 132.957 120.462 132.545Z" fill="#C7CBF6" fill-opacity="0.37"/>
</g>
<path d="M147.35 214.495L156.81 189.947L163.502 140.642L67.6373 129.417L66.7917 127.643C64.1294 122.059 58.7475 118.268 52.5933 117.642L16.7192 113.99L35.9043 197.117C37.2681 203.027 42.1067 207.501 48.1045 208.399L135.377 221.464C140.508 222.233 145.484 219.336 147.35 214.495Z" fill="#FF4F9C"/>
<mask id="mask4_319_3036" style="mask-type:alpha" maskUnits="userSpaceOnUse" x="227" y="90" width="80" height="124">
<path d="M301.492 90.9302C252.435 119.327 247.799 151.982 251.861 165.152C233.631 193.07 208.109 238.428 251.861 196.512C291.396 158.635 304.346 115.824 306.568 94.0974C306.853 91.3101 303.916 89.5265 301.492 90.9302Z" fill="#3EF993"/>
</mask>
<g mask="url(#mask4_319_3036)">
<path d="M303.738 92.5837L253.347 166.251" stroke="#D3FFE7" stroke-width="1.9932"/>
<path d="M287.47 116.194L285.616 100.259" stroke="#D3FFE7" stroke-width="1.9932"/>
<path d="M285.233 119.488L283.031 102.164" stroke="#D3FFE7" stroke-width="1.9932"/>
<path d="M274.259 135.707L297.655 131.888" stroke="#D3FFE7" stroke-width="1.9932"/>
<path d="M260.709 155.411L288.541 151.206" stroke="#D3FFE7" stroke-width="1.9932"/>
<circle cx="280.002" cy="144.203" r="2.38494" stroke="#D3FFE7" stroke-width="1.9932"/>
<circle cx="292.215" cy="101.873" r="1.54517" stroke="#D3FFE7" stroke-width="1.9932"/>
</g>
<mask id="mask5_319_3036" style="mask-type:alpha" maskUnits="userSpaceOnUse" x="16" y="113" width="148" height="109">
<path d="M147.35 214.495L156.81 189.947L163.502 140.642L67.6373 129.417L66.7917 127.643C64.1294 122.059 58.7475 118.268 52.5933 117.642L16.7192 113.99L35.9043 197.117C37.2681 203.027 42.1067 207.501 48.1045 208.399L135.377 221.464C140.508 222.233 145.484 219.336 147.35 214.495Z" fill="#FF4F9C"/>
</mask>
<g mask="url(#mask5_319_3036)">
<path d="M111.306 209.426C75.4377 207.123 39.3112 201.266 31.8579 196.628V208.14L144.456 230.084L166.58 139.61L147.874 134.393C143.756 155.831 132.213 184.379 124.443 201.568C122.133 206.677 116.902 209.786 111.306 209.426Z" fill="#ED1E79"/>
</g>
<path d="M135.696 142.772C135.417 150.043 141.85 160.657 145.101 165.055C149.165 162.514 155.969 155.086 150.674 145.704C144.056 133.976 136.044 133.683 135.696 142.772Z" fill="#FDDEBF"/>
<path d="M148.628 123.151C146.987 131.148 154.018 144.292 157.738 149.864C163.778 147.922 174.439 141.155 168.764 129.62C161.67 115.202 150.679 113.155 148.628 123.151Z" fill="#FDDEBF"/>
<path d="M206.478 257.71C190.917 245.944 168.401 218.251 153.853 205.6L159.013 178.626C187.951 156.803 247.536 115.815 254.367 126.442C262.907 139.725 251.995 173.882 258.637 191.909C263.95 206.331 268.087 211.3 270.617 218.416C259.425 250.937 222.18 259.617 206.478 257.71Z" fill="#FDDEBF"/>
<mask id="mask6_319_3036" style="mask-type:alpha" maskUnits="userSpaceOnUse" x="135" y="136" width="18" height="30">
<path d="M135.696 142.772C135.417 150.043 141.85 160.657 145.101 165.055C149.165 162.514 155.969 155.086 150.674 145.704C144.056 133.976 136.044 133.683 135.696 142.772Z" fill="#FDDEBF"/>
</mask>
<g mask="url(#mask6_319_3036)">
<path d="M149.818 158.094C142.787 157.455 137.923 143.093 136.369 135.991L130.777 134.793L128.78 158.094L148.752 164.485C152.037 162.621 156.848 158.733 149.818 158.094Z" fill="#F8D3AC"/>
</g>
<mask id="mask7_319_3036" style="mask-type:alpha" maskUnits="userSpaceOnUse" x="148" y="116" width="23" height="34">
<path d="M148.628 123.152C146.987 131.149 154.018 144.292 157.738 149.864C163.778 147.922 174.439 141.155 168.764 129.621C161.67 115.203 150.679 113.155 148.628 123.152Z" fill="#FDDEBF"/>
</mask>
<g mask="url(#mask7_319_3036)">
<path d="M162.95 140.32C155.919 139.681 151.055 125.318 149.502 118.217L143.909 117.019L141.912 140.32L161.885 146.711C165.169 144.847 169.98 140.959 162.95 140.32Z" fill="#F8D3AC"/>
</g>
<path d="M159.634 100.026C157.993 108.023 165.023 121.166 168.744 126.738C174.784 124.796 185.445 118.029 179.77 106.495C172.676 92.0766 161.685 90.0294 159.634 100.026Z" fill="#FDDEBF"/>
<path d="M152.677 124.425C153.243 129.25 159.802 128.258 162.831 126.844L164.809 118.519L163.444 114.709L155.255 116.045C154.208 117.239 152.227 120.586 152.677 124.425Z" fill="#11243E"/>
<mask id="mask8_319_3036" style="mask-type:alpha" maskUnits="userSpaceOnUse" x="153" y="124" width="118" height="134">
<path d="M206.478 257.71C190.917 245.944 168.401 218.251 153.853 205.6L159.013 178.626C187.951 156.803 247.536 115.815 254.367 126.442C262.907 139.725 251.995 173.882 258.637 191.909C263.95 206.331 268.087 211.3 270.617 218.416C259.425 250.937 222.18 259.617 206.478 257.71Z" fill="#FDDEBF"/>
</mask>
<g mask="url(#mask8_319_3036)">
<path d="M228.552 244.097C200.8 250.313 173.27 218.343 171.716 217.454L161.725 213.68L166.832 228.555L202.354 257.862L226.554 264.744L281.615 217.454L269.848 209.684C265.333 219.083 250.754 239.123 228.552 244.097Z" fill="#FBC996" fill-opacity="0.48"/>
</g>
<path d="M177.203 89.285C172.549 90.6309 166.666 90.1729 164.306 89.7757L166.829 109.683C172.227 102.323 181.858 87.9392 177.203 89.285Z" fill="#11243E"/>
<path d="M129.182 204.675C129.203 204.571 129.225 204.473 129.248 204.382L196.019 215.474L243.518 91.3555C247.371 92.4117 249.838 94.3149 251.358 96.283C253.775 99.411 252.886 103.668 251.63 107.416L215.276 215.83C212.992 222.641 206.138 226.82 199.038 225.73L143.637 217.225C136.3 216.099 127.74 211.957 129.182 204.675Z" fill="#11243E"/>
<path d="M247.394 104.276L210.721 214.165C209.161 218.839 204.47 221.717 199.597 220.99L139.12 211.97C132.69 211.011 128.807 204.337 131.151 198.273L171.849 92.9863C173.466 88.8035 177.636 86.1777 182.107 86.5276L238.559 90.9456C245.137 91.4604 249.483 98.0171 247.394 104.276Z" fill="#7E88FE"/>
<path d="M152.295 196.912L163.52 166.929C164.52 164.258 162.773 161.353 159.946 160.984L90.4766 151.909C88.5253 151.654 86.6398 152.717 85.8479 154.518L73.2958 183.077C72.1202 185.752 73.8109 188.812 76.701 189.241L147.497 199.74C149.563 200.046 151.563 198.868 152.295 196.912Z" fill="#11243E"/>
<path d="M256.478 168.407C256.293 173.76 256.628 182.399 256.818 186.049L233.816 179.295C234.207 170.933 235.656 150.964 238.332 137.986C241.677 121.763 252.213 118.586 256.478 126.948C260.742 135.31 256.708 161.716 256.478 168.407Z" fill="#FDDEBF"/>
<path d="M250.86 126.834C249.935 128.895 248.212 133.763 248.72 136.743C249.181 139.456 253.214 138.807 256.964 137.061" stroke="#EB996C" stroke-width="2.21466" stroke-linecap="round"/>
<path d="M256.964 144.203C254.739 144.578 250.035 145.418 249.015 145.778" stroke="#EB996C" stroke-width="2.21466" stroke-linecap="round"/>
<path d="M257.232 147.682C255.007 148.057 250.303 148.897 249.283 149.257" stroke="#EB996C" stroke-width="2.21466" stroke-linecap="round"/>
<path d="M227.03 157.928C227.134 157.341 225.251 157.091 224.296 157.04C224.13 157.56 223.793 158.611 223.779 158.652C223.762 158.704 226.901 158.661 227.03 157.928Z" fill="#11243E"/>
<path d="M171.917 92.808L249.017 99.1114C249.933 94.2594 246.341 91.7506 243.293 91.3041L180.948 86.4053C179.499 86.2915 178.008 86.2282 176.645 86.7304C173.513 87.8839 172.828 90.4833 171.917 92.808Z" fill="#ACB3FE"/>
<path fill-rule="evenodd" clip-rule="evenodd" d="M213.317 207.03L210.875 214.347C209.316 219.02 204.625 221.898 199.751 221.172L139.274 212.151C132.844 211.192 128.961 204.519 131.305 198.455L132.088 196.429C132.141 196.364 132.193 196.299 132.243 196.235L213.317 207.03Z" fill="#ACB3FE"/>
<path d="M151.89 206.86L129.282 203.316L130.941 199.775L162.896 171.627L169.121 172.342L156.701 204.097C155.944 206.033 153.943 207.181 151.89 206.86Z" fill="#2760C1" fill-opacity="0.54"/>
<path d="M155.611 201.974L166.762 172.072C167.75 169.424 166.038 166.541 163.24 166.14L93.9184 156.209C91.9656 155.929 90.0632 156.975 89.2524 158.773L76.1578 187.817C74.952 190.491 76.6322 193.578 79.5327 194.017L150.798 204.805C152.87 205.119 154.879 203.937 155.611 201.974Z" fill="#11243E"/>
<ellipse cx="168.545" cy="208.045" rx="5.58196" ry="5.77897" transform="rotate(20.3139 168.545 208.045)" fill="#757FF8"/>
<rect x="199.795" y="90.4724" width="20.7344" height="1.40301" rx="0.701504" transform="rotate(4.55485 199.795 90.4724)" fill="#11243E"/>
<path d="M169.141 94.6792C167.316 93.5686 162.868 92.6918 159.679 98.0684C157.661 101.471 158.222 106.415 159.419 110.584" stroke="#11243E" stroke-width="0.386617"/>
<path d="M150.499 195.195L161.329 166.584C162.342 163.909 160.591 160.99 157.754 160.623L90.2483 151.902C88.3056 151.651 86.4287 152.705 85.6332 154.496L73.5258 181.739C72.335 184.419 74.0295 187.495 76.9307 187.921L145.713 198.009C147.771 198.311 149.762 197.14 150.499 195.195Z" fill="#43EB8F"/>
<path d="M152.353 200.412L163.582 171.858C164.637 169.175 162.887 166.214 160.027 165.845L92.5952 157.133C90.6525 156.882 88.7756 157.937 87.9801 159.727L75.8726 186.971C74.6819 189.65 76.3763 192.726 79.2773 193.152L147.588 203.173C149.625 203.472 151.6 202.328 152.353 200.412Z" fill="white"/>
<path d="M188.707 161.652H192.976H195.772L213.595 206.281L212.572 209.404C203.74 208.226 195.282 209.44 190.768 209.931C190.768 203.336 189.394 174.997 188.707 161.652Z" fill="#417ED2" fill-opacity="0.73"/>
<path d="M238.441 119.675L243.512 105.059C243.828 104.148 243.2 103.184 242.239 103.104L205.723 100.077C205.083 100.024 204.481 100.392 204.236 100.986L198.492 114.915C198.115 115.829 198.726 116.848 199.711 116.947L236.899 120.661C237.579 120.728 238.217 120.321 238.441 119.675Z" fill="white"/>
<path d="M235.973 126.566L236.902 123.996C237.229 123.091 236.617 122.12 235.66 122.025L198.364 118.307C197.736 118.244 197.137 118.588 196.875 119.162L195.765 121.587C195.345 122.506 195.951 123.566 196.956 123.67L234.433 127.533C235.108 127.603 235.743 127.204 235.973 126.566Z" fill="white"/>
<path d="M154.495 150.616L177.113 153.336C177.819 153.421 178.486 152.99 178.698 152.312L179.638 149.314C179.741 148.986 179.726 148.632 179.596 148.314L176.587 140.951C176.387 140.461 175.94 140.116 175.415 140.046L158.855 137.845C158.188 137.757 157.545 138.131 157.292 138.754L153.303 148.595C152.938 149.497 153.529 150.5 154.495 150.616Z" fill="white"/>
<path d="M210.301 171.127L212.109 175.92L209.124 179.409L205.677 178.904L204.962 172.178L210.301 171.127Z" fill="#FDDEBF"/>
<circle cx="210.298" cy="170.61" r="1.026" fill="#FDDEBF"/>
<path d="M208.506 178.402C208.096 180.8 207.731 186.967 209.549 192.454" stroke="#11243E" stroke-width="0.221466"/>
<path d="M143.886 170.18L116.402 166.58" stroke="#CBC1FC" stroke-width="2.21466" stroke-linecap="round"/>
<path d="M150.994 175.321L115.03 170.407" stroke="#CBC1FC" stroke-width="2.21466" stroke-linecap="round"/>
<path d="M150.099 179.358L113.873 174.219" stroke="#CBC1FC" stroke-width="2.21466" stroke-linecap="round"/>
<path d="M110.399 90.1766L42.729 83.2017" stroke="#C7CBF6" stroke-width="2.95288" stroke-linecap="round"/>
<path d="M110.399 95.7894L42.729 88.8145" stroke="#C7CBF6" stroke-width="2.95288" stroke-linecap="round"/>
<path d="M110.399 101.405L42.729 94.4304" stroke="#C7CBF6" stroke-width="2.95288" stroke-linecap="round"/>
<path d="M110.399 107.197L42.729 100.222" stroke="#C7CBF6" stroke-width="2.95288" stroke-linecap="round"/>
<path d="M110.399 112.738L42.729 105.763" stroke="#C7CBF6" stroke-width="2.95288" stroke-linecap="round"/>
<mask id="mask9_319_3036" style="mask-type:alpha" maskUnits="userSpaceOnUse" x="74" y="137" width="96" height="67">
<path d="M151.971 200.354L169.546 155.82C170.585 153.188 168.922 150.27 166.128 149.821L91.0289 137.756C88.7623 137.392 86.593 138.82 86.0316 141.046L74.3171 187.487C73.6755 190.031 75.3732 192.572 77.969 192.953L147.208 203.111C149.244 203.409 151.216 202.267 151.971 200.354Z" fill="#DD6464"/>
</mask>
<g mask="url(#mask9_319_3036)">
<path d="M141.269 170.576L131.4 173.953L123.826 176.74L124.547 179.118L142.45 172.51L144.373 170.337L141.269 170.576Z" fill="#43EB8F"/>
<path fill-rule="evenodd" clip-rule="evenodd" d="M128.846 173.595C128.582 173.942 128.263 176.341 127.967 178.573L127.967 178.573C127.869 179.31 127.773 180.029 127.683 180.65L127.554 181.221L120.202 190.757L114.307 184.444L108.264 187.115L106.709 190.21C109.297 193.224 114.757 199.433 115.902 200.156C117.334 201.06 119.519 202.191 122.684 200.684C124.716 199.716 128.672 192.692 131.643 187.418C132.374 186.12 133.046 184.927 133.614 183.957L133.606 183.953C134.32 183.603 134.914 183.048 135.245 182.32C135.69 181.342 136.143 180.177 136.542 179.152C136.721 178.694 136.888 178.263 137.039 177.89L137.131 177.817C137.712 177.356 138.05 176.654 138.05 175.913V173.844L137.647 173.724C137.727 172.982 137.424 172.235 136.58 172.235C135.992 172.235 135.755 172.283 135.38 172.357L135.336 172.365C135.193 172.033 134.754 171.314 134.045 171.428C133.53 171.511 129.427 172.832 128.846 173.595Z" fill="#FDDEBF"/>
<path d="M95.7471 174.622L96.6588 164.969L104.444 167.997L103.805 175.66L95.7471 174.622Z" fill="#FDDEBF"/>
<path fill-rule="evenodd" clip-rule="evenodd" d="M96.5131 171.411L96.1143 172.207C95.3868 172.871 92.1232 174.253 89.3408 175.223C85.7772 176.466 83.9906 178.566 82.8043 187.123C81.8552 193.97 82.4089 198.393 82.8043 199.75L93.8996 202.851L101.016 203.818H109.362C108.969 200.791 109.788 197.166 110.273 195.015C110.356 194.647 110.43 194.323 110.485 194.052C114.897 192.845 117.442 189.636 117.6 188.131C117.6 188.131 117.6 188.131 117.6 188.131C117.6 188.13 117.6 188.13 117.6 188.13C117.6 188.13 117.6 188.129 117.6 188.129C117.599 188.128 117.598 188.128 117.598 188.127C115.283 184.748 109.4 177.366 104.363 174.848C104.322 174.828 104.283 174.808 104.243 174.789L103.745 174.249L96.5131 171.411Z" fill="#FAAF49"/>
<path d="M108.839 161.754C109.398 166.936 108.37 170.549 104.172 170.766C100.304 170.965 97.4807 167.978 96.8643 163.491C96.2479 159.003 98.5202 154.985 101.94 154.515C109.766 152.089 108.222 157.266 108.839 161.754Z" fill="#FDDEBF"/>
<circle cx="107.794" cy="161.213" r="0.349211" transform="rotate(-7.82153 107.794 161.213)" fill="#11243E"/>
<path d="M106.447 162.449C106.688 162.45 106.906 162.492 107.101 162.562C108.241 162.972 108.075 164.689 106.869 164.798C106.371 164.843 105.865 164.755 105.534 164.571C104.771 164.147 105.007 162.441 106.447 162.449Z" fill="#FEB7A1"/>
<path d="M106.989 160.281C107.16 160.097 107.504 159.937 107.863 159.965" stroke="#11243E" stroke-width="0.159404" stroke-linecap="round"/>
<path d="M98.9246 167.982C102.553 167.526 102.595 163.41 102.479 161.526C102.479 161.104 102.514 160.717 102.577 160.364C103.072 157.586 106.55 156.825 108.56 154.843C110.018 153.406 109.781 152.25 109.464 151.512C108.993 150.412 106.488 151.679 106.193 151.04C105.898 150.402 105.103 149.567 104.484 150.746C103.865 151.924 102.479 149.537 101.272 149.567C100.065 149.596 99.7986 150.455 98.9246 151.679C98.0505 152.903 95.8364 151.446 94.5545 152.611C93.2726 153.777 94.0929 159.142 94.3266 161.207C94.6117 163.728 94.9675 168.478 98.9246 167.982Z" fill="#11243E"/>
<circle cx="101.777" cy="162.139" r="1.56922" transform="rotate(-7.82153 101.777 162.139)" fill="#FDDEBF"/>
<path d="M102.188 162.498C102.08 162.261 101.788 161.686 101.02 161.625" stroke="#E9B986" stroke-width="0.36911" stroke-linecap="round"/>
<path d="M101.665 161.926C101.526 162.005 101.312 162.101 101.203 162.505" stroke="#E9B986" stroke-width="0.36911" stroke-linecap="round"/>
<path d="M101.167 169.452C102.974 170.857 104.029 170.77 104.222 170.77L104.124 171.896C102.481 170.869 101.468 169.839 101.167 169.452Z" fill="#E4A566"/>
<path d="M103.607 172.976C101.91 171.638 98.5428 170.585 96.4358 170.08C96.0826 169.995 95.7189 170.165 95.5711 170.496C95.1664 171.405 94.8675 172.427 94.892 172.901C98.8635 173.149 103.028 174.453 104.428 175.062C104.428 174.271 104.228 173.465 103.607 172.976Z" fill="#FFDA57"/>
<path d="M79.3525 187.876C78.2497 191.749 80.0807 198.575 81.537 202.663L104.222 209.049C103.438 203.616 99.833 192.607 95.4839 187.876C91.1976 183.214 80.761 182.93 79.3525 187.876Z" fill="#11243E"/>
<path d="M137.204 178.64C136.888 178.569 136.38 177.813 136.389 177.63L135.904 175.434L136.526 174.534C136.752 174.585 137.323 174.718 137.797 174.841C138.391 174.995 138.589 176.642 138.504 177.63C138.419 178.618 137.6 178.727 137.204 178.64Z" fill="#FDDEBF"/>
<path d="M138.61 173.855C137.839 173.288 134.798 173.693 134.555 173.855L135.852 177.018C136.663 176.815 138.35 176.345 138.61 176.086C138.934 175.761 139.38 174.423 138.61 173.855Z" fill="#FDDEBF"/>
<mask id="mask10_319_3036" style="mask-type:alpha" maskUnits="userSpaceOnUse" x="123" y="170" width="22" height="10">
<path d="M141.269 170.576L131.4 173.953L123.826 176.74L124.547 179.118L142.437 172.505L144.373 170.337L141.269 170.576Z" fill="#2D3CE4"/>
</mask>
<g mask="url(#mask10_319_3036)">
<path d="M143.59 171.949L142.678 170.328L144.806 170.044L143.59 171.949Z" fill="black"/>
<path d="M141.166 170.192L142.437 172.594" stroke="white" stroke-width="0.405393"/>
</g>
<path d="M78.1132 187.673C77.0104 191.546 78.8414 198.372 80.2977 202.46L102.982 208.846C102.198 203.413 98.5938 192.404 94.2446 187.673C89.9583 183.011 79.5217 182.727 78.1132 187.673Z" fill="#E8E8E8"/>
</g>
<mask id="mask11_319_3036" style="mask-type:alpha" maskUnits="userSpaceOnUse" x="82" y="171" width="36" height="33">
<path fill-rule="evenodd" clip-rule="evenodd" d="M96.5131 171.41L96.1143 172.207C95.3868 172.871 92.1232 174.253 89.3408 175.223C85.7772 176.466 83.9906 178.565 82.8043 187.123C81.8552 193.969 82.4089 198.393 82.8043 199.749L93.8996 202.851L101.016 203.818H109.362C108.969 200.791 109.788 197.166 110.273 195.014C110.356 194.647 110.43 194.323 110.485 194.052C114.897 192.844 117.442 189.636 117.6 188.13C117.6 188.13 117.6 188.13 117.6 188.13C117.6 188.13 117.6 188.13 117.6 188.13C117.6 188.129 117.6 188.129 117.6 188.129C117.599 188.128 117.598 188.127 117.598 188.127C115.283 184.747 109.4 177.366 104.363 174.847C104.322 174.827 104.283 174.807 104.243 174.788L103.745 174.248L96.5131 171.41Z" fill="#FAAF49"/>
</mask>
<g mask="url(#mask11_319_3036)">
<path fill-rule="evenodd" clip-rule="evenodd" d="M110.633 179.11C112.087 181.256 115.153 185.976 115.782 187.692C115.139 188.717 112.979 191.139 109.489 192.627C108.559 193.89 106.743 195.288 105.362 196.303C105.065 196.522 104.866 196.705 104.753 196.858L110.245 197.697C110.53 197.722 110.797 197.757 111.037 197.805L121.003 189.194L116.855 180.97L110.633 179.11Z" fill="#EDA038"/>
</g>
<path d="M197.088 120.037L236.128 123.935" stroke="#C6CAFF" stroke-width="1.47644" stroke-linecap="round"/>
<path d="M203.818 103.389L242.077 106.808" stroke="#C6CAFF" stroke-width="1.47644" stroke-linecap="round"/>
<path d="M215.906 128.042L234.717 129.953" stroke="#C6CAFF" stroke-width="2.21466" stroke-linecap="round"/>
<path d="M214.657 131.259L233.467 133.17" stroke="#C6CAFF" stroke-width="2.21466" stroke-linecap="round"/>
<path d="M213.982 134.477L232.793 136.387" stroke="#C6CAFF" stroke-width="2.21466" stroke-linecap="round"/>
<path d="M157.362 148.148L176.114 150.364" stroke="#D0F6FF" stroke-width="2.21466" stroke-linecap="round"/>
<mask id="mask12_319_3036" style="mask-type:alpha" maskUnits="userSpaceOnUse" x="106" y="171" width="33" height="31">
<path fill-rule="evenodd" clip-rule="evenodd" d="M128.846 173.595C128.582 173.942 128.263 176.34 127.967 178.572L127.967 178.573C127.869 179.31 127.773 180.029 127.683 180.65L127.554 181.221L120.202 190.756L114.307 184.444L108.264 187.114L106.709 190.209C109.297 193.223 114.757 199.432 115.902 200.156C117.334 201.06 119.519 202.19 122.684 200.683C124.716 199.716 128.672 192.692 131.643 187.417C132.374 186.119 133.046 184.927 133.614 183.957L133.606 183.952C134.32 183.603 134.914 183.047 135.245 182.319C135.69 181.341 136.143 180.176 136.542 179.152C136.721 178.693 136.888 178.262 137.039 177.889L137.131 177.817C137.712 177.355 138.05 176.654 138.05 175.912V173.843L137.647 173.723C137.727 172.982 137.424 172.235 136.58 172.235C135.992 172.235 135.755 172.282 135.38 172.356L135.336 172.365C135.193 172.032 134.754 171.314 134.045 171.428C133.53 171.511 129.427 172.832 128.846 173.595Z" fill="#FDDEBF"/>
</mask>
<g mask="url(#mask12_319_3036)">
<path fill-rule="evenodd" clip-rule="evenodd" d="M136.193 180.106C135.771 180.956 134.501 182.863 132.796 183.691C132.08 184.04 131.297 185.293 130.222 187.014C128.157 190.319 125.014 195.35 119.196 199.009L126.56 200.115L124.437 202.212C126.347 202.013 128.309 201.735 129.976 201.459L139.334 181.369L136.193 180.106ZM121.578 202.444L117.287 202.21L116.343 201.427C116.178 202.41 118.528 202.609 121.578 202.444Z" fill="#F2C697" fill-opacity="0.4"/>
</g>
<path d="M158.341 144.841L177.093 147.056" stroke="#D0F6FF" stroke-width="2.21466" stroke-linecap="round"/>
<path d="M159.536 141.562L178.289 143.778" stroke="#D0F6FF" stroke-width="2.21466" stroke-linecap="round"/>
<ellipse cx="240.841" cy="104.626" rx="0.82299" ry="0.685825" fill="#C6CAFF"/>
<ellipse cx="238.68" cy="104.428" rx="0.82299" ry="0.685825" fill="#C6CAFF"/>
<ellipse cx="236.52" cy="104.249" rx="0.82299" ry="0.685825" fill="#C6CAFF"/>
<path d="M191.463 150.413C190.278 148.964 184.813 144.746 182.107 142.906L174.337 148.165C175.375 148.859 178.271 150.457 180.482 151.433C183.246 152.652 184.497 154.958 185.427 155.428C186.171 155.803 186.691 155.41 186.793 155.029C188.056 155.912 188.935 154.646 188.802 154.153C190.073 154.123 190.187 152.857 189.9 152.324C191.05 154.069 193.83 156.296 194.349 155.549C195.164 154.374 192.649 151.864 191.463 150.413Z" fill="#FDDEBF"/>
<path d="M174.599 129.807C174.59 130.195 174.832 131.115 175.872 131.695C177.172 132.42 177.623 133.563 177.629 134.622" stroke="#11243E" stroke-width="0.516754"/>
<path d="M176.018 132.316C174.526 131.504 174.153 130.117 174.154 129.526C173.209 130.751 171.284 133.241 171.145 133.392C171.005 133.544 172.798 135.16 173.711 135.949L177.929 135.029C177.914 134.464 177.511 133.129 176.018 132.316Z" fill="#11243E"/>
<path d="M172.241 121.675C173.036 121.781 173.137 122.599 173.089 122.995C172.442 123.77 171.147 125.352 171.138 125.481C171.129 125.61 170.154 131.312 169.668 134.147L162.053 134.607C161.874 134.39 161.87 133.579 162.177 132.808C162.974 130.807 164.213 132.089 164.906 130.94C165.358 130.193 164.313 129.672 164.81 128.273C165.365 126.715 167.322 127.408 167.815 126.287C168.198 125.416 167.258 124.502 168.352 123.186C169.227 122.133 170.704 122.388 171.333 122.647C171.305 122.279 171.446 121.568 172.241 121.675Z" fill="#11243E"/>
<path d="M183.048 133.649L172.659 133.87L170.574 137.024L174.89 140.15L189.218 139.183L183.048 133.649Z" fill="#FF3969"/>
<path d="M173.011 136.071L173.146 130.737L168.821 128.932L167.891 135.722C169.352 136.275 172.327 136.198 173.011 136.071Z" fill="#FDDEBF"/>
<path d="M175.201 127.669C175.366 130.111 173.992 132.193 172.132 132.319C170.271 132.445 168.628 130.568 168.463 128.126C168.297 125.685 169.671 123.603 171.531 123.477C174.58 123.155 175.035 125.227 175.201 127.669Z" fill="#FDDEBF"/>
<path d="M173.086 133.063L173.114 132.058C172.331 132.26 171.491 132.004 171.016 131.865C171.608 132.369 172.666 132.92 173.086 133.063Z" fill="#E6AD75"/>
<circle cx="173.723" cy="127.834" r="0.170007" transform="rotate(-3.88291 173.723 127.834)" fill="#11243E"/>
<circle cx="172.372" cy="127.787" r="0.170007" transform="rotate(-3.88291 172.372 127.787)" fill="#11243E"/>
<path d="M170.751 129.206C170.325 128.929 170.53 127.948 171.366 128.01C172.32 128.081 172.066 129.557 171.131 129.355C170.984 129.323 170.852 129.272 170.751 129.206Z" fill="#FEB7A1"/>
<path d="M174.252 129.293C173.826 129.017 174.031 128.035 174.867 128.097C175.821 128.168 175.568 129.644 174.633 129.442C174.486 129.41 174.353 129.359 174.252 129.293Z" fill="#FEB7A1"/>
<circle cx="168.266" cy="128.724" r="1.03982" transform="rotate(-3.88291 168.266 128.724)" fill="#FDDEBF"/>
<path d="M168.521 128.98C168.461 128.819 168.293 128.425 167.789 128.35" stroke="#ECB782" stroke-width="0.295288" stroke-linecap="round"/>
<path d="M168.202 128.578C168.107 128.624 167.961 128.678 167.87 128.94" stroke="#ECB782" stroke-width="0.295288" stroke-linecap="round"/>
<mask id="mask13_319_3036" style="mask-type:alpha" maskUnits="userSpaceOnUse" x="170" y="133" width="20" height="8">
<path d="M183.048 133.649L172.659 133.87L170.574 137.024L174.89 140.15L189.218 139.183L183.048 133.649Z" fill="#FF3969"/>
</mask>
<g mask="url(#mask13_319_3036)">
<path d="M179.024 138.273C176.976 138.153 174.755 136.716 173.525 135.787L170.967 136.278L176.163 140.608L190.771 140.118L192.051 139.139L185.349 137.972C184.094 138.123 181.072 138.394 179.024 138.273Z" fill="#E11748"/>
</g>
<path d="M182.148 134.727C182.349 133.489 183.515 132.647 184.754 132.847L204.961 136.107C206.233 136.312 207.08 137.532 206.828 138.795L206.474 140.573C206.235 141.772 205.089 142.568 203.882 142.372L183.741 139.11C182.502 138.909 181.66 137.742 181.861 136.502L182.148 134.727Z" fill="#F09C2A"/>
<path d="M166.389 132.614C168.68 132.931 178.419 139.773 182.78 143.372C183.529 146.47 180.064 150.094 177.448 149.913C172.953 147.576 168.378 145.309 164.066 141.407C158.008 135.927 162.208 132.035 166.389 132.614Z" fill="#FF3969"/>
<rect x="182.388" y="132.101" width="24.5927" height="6.11289" rx="2.27296" transform="rotate(9.20149 182.388 132.101)" fill="#FAAF49"/>
<path d="M185.426 136.462L200.437 139.036" stroke="white" stroke-width="1.47644" stroke-linecap="round"/>
<path d="M185.877 134.622L200.888 137.195" stroke="white" stroke-width="1.47644" stroke-linecap="round"/>
<path d="M174.331 126.264C171.79 126.208 170.639 124.869 170.644 124.269C171.633 122.678 173.577 122.18 175.441 122.799C177.306 123.418 177.763 126.341 174.331 126.264Z" fill="#11243E"/>
<path d="M168.194 127.672C170.682 128.265 171.327 125.176 171.3 123.671L171.696 123.471L170.534 123.288C169.973 123.681 168.81 124.481 168.642 124.538C168.475 124.594 168.248 126.727 168.194 127.672Z" fill="#11243E"/>
<path d="M194.477 130.817C192.805 130.129 191.52 132.398 191.105 133.5L192.974 133.821C192.828 134.138 192.857 134.128 192.735 134.643C192.442 135.878 193.549 135.881 194.139 135.728C194.249 136.409 195.108 136.261 195.525 136.102C195.928 136.848 196.839 136.492 197.243 136.221C197.428 136.6 197.696 136.799 198.079 136.68C199.669 136.187 200.264 133.613 200.029 132.566C199.841 131.728 198.875 131.704 198.415 131.796C197.869 130.811 196.998 131.032 196.631 131.265C195.976 130.595 195.34 130.916 195.104 131.16C194.932 131.035 194.725 130.919 194.477 130.817Z" fill="#FDDEBF"/>
<path d="M170.469 125.218C170.337 125.722 169.791 126.764 168.667 126.902C167.263 127.074 165.979 127.621 166.153 129.001C166.326 130.382 166.804 130.903 165.07 131.957C164.768 132.14 164.513 132.345 164.298 132.56" stroke="#253F64" stroke-width="0.227296"/>
<path d="M170.489 125.219C170.435 125.738 170.056 126.851 168.967 127.16C167.605 127.545 166.421 128.283 166.804 129.62C167.17 130.897 167.69 131.358 166.384 132.535" stroke="#253F64" stroke-width="0.227296"/>
<mask id="mask14_319_3036" style="mask-type:alpha" maskUnits="userSpaceOnUse" x="233" y="122" width="26" height="65">
<path d="M256.478 168.407C256.293 173.76 256.628 182.399 256.818 186.049L233.816 179.295C234.207 170.933 235.656 150.964 238.332 137.986C241.677 121.763 252.213 118.586 256.478 126.948C260.742 135.31 256.708 161.716 256.478 168.407Z" fill="#FDDEBF"/>
<path d="M256.964 144.202C254.739 144.577 250.035 145.417 249.015 145.777" stroke="#EB996C" stroke-width="2.21466" stroke-linecap="round"/>
<path d="M257.232 147.682C255.007 148.057 250.303 148.897 249.283 149.257" stroke="#EB996C" stroke-width="2.21466" stroke-linecap="round"/>
</mask>
<g mask="url(#mask14_319_3036)">
<path d="M242.979 191.534C235.499 161.416 242.52 129.263 247.9 123.029C244.291 123.489 236.916 124.525 236.286 124.998C235.656 125.47 226.046 155.11 223.355 169.414L242.979 191.534Z" fill="#F9C99A" fill-opacity="0.91"/>
</g>
<path d="M7.94197 117.814C7.76947 123.226 4.56927 123.935 3.33643 124.346C6.56901 124.517 7.93516 129.113 7.94197 130.941C7.94197 127.133 10.6798 124.43 12.3875 124.346C9.54864 123.876 7.86945 120.159 7.94197 117.814Z" fill="#771CC2"/>
<path d="M56.4249 216.721C56.251 222.178 53.0239 222.894 51.7808 223.308C55.0404 223.48 56.418 228.115 56.4249 229.959C56.4249 226.119 59.1857 223.393 60.9077 223.308C58.045 222.834 56.3518 219.086 56.4249 216.721Z" fill="#43EB8F"/>
<path d="M218.328 157.574L219.015 149.512C218.763 147.162 218.637 142.22 219.354 142.171C220.536 142.089 220.77 143.648 220.837 146.03C221.558 146.012 222.972 146.291 222.866 147.549C223.514 147.537 224.763 147.885 224.574 149.376C225.083 149.383 226.081 149.755 226 151.18C225.898 152.962 226.043 154.045 225.184 154.325C225.154 154.988 224.935 156.326 224.307 156.379L223.721 160.314C222.312 160.024 219.263 159.071 218.328 157.574Z" fill="#FDDEBF"/>
<path d="M175.043 184.893C174.397 184.5 175.169 183.11 175.612 182.315L176.908 182.956L175.043 184.893Z" fill="#11243E"/>
<path d="M223.759 237.635L221.538 203.204C229.717 204.443 246.155 209.957 246.476 222.102C246.797 234.247 231.465 237.518 223.759 237.635Z" fill="#11243E"/>
<path d="M191.477 159.357L192.694 207.463C234.154 204.182 245.41 215.812 246.611 222.779L244.449 168.366C234.359 158.276 204.93 158.156 191.477 159.357Z" fill="#E3E2FF"/>
<path d="M191.983 164.311C207.103 161.637 235.852 164.256 244.097 172.936" stroke="#B6A9FF" stroke-width="1.47644" stroke-linecap="round"/>
<path d="M218.57 187.257C221.082 190.988 217.423 195.838 215.531 195.356L211.899 192.138L213.068 188.562C214.121 186.967 216.695 184.473 218.57 187.257Z" fill="#11243E"/>
<path d="M200.378 193.816L197.018 200.005L194.091 206.835C199.821 206.125 202.043 206.378 204.731 206.378L206.424 201.77L208.675 206.473C215.427 206.35 223.509 207.619 226.062 208.278C222.341 200.485 216.221 192.57 212.979 190.728C207.142 193.558 203.529 193.816 200.378 193.816Z" fill="#43EB8F"/>
<path d="M199.893 169.706C199.836 170.226 199.338 171.566 197.805 172.767C195.742 174.385 194.782 176.272 196.044 178.088" stroke="#11243E" stroke-width="0.516754" stroke-linecap="round"/>
<path d="M197.796 172.935C199.148 171.673 199.085 170.899 198.884 170.67L200.088 170.87L202.154 176.802L196.079 177.12C196.088 176.251 196.444 174.196 197.796 172.935Z" fill="#11243E"/>
<path d="M206.736 169.616C206.734 169.531 206.801 169.459 206.887 169.457C206.972 169.455 207.044 169.523 207.046 169.608L206.736 169.616ZM210.08 173.014L210.15 172.876L210.08 173.014ZM207.046 169.608C207.053 169.874 206.988 170.232 207.323 170.754C207.665 171.286 208.43 171.995 210.15 172.876L210.009 173.152C208.27 172.261 207.447 171.521 207.062 170.921C206.671 170.311 206.742 169.854 206.736 169.616L207.046 169.608ZM210.15 172.876C212.081 173.866 212.57 175.663 212.697 177.477L212.387 177.499C212.263 175.719 211.791 174.066 210.009 173.152L210.15 172.876Z" fill="#11243E"/>
<path d="M209.274 172.813C207.255 171.74 206.821 170.005 206.854 169.377L205.273 169.378L205.077 173.608L205.277 177.508L209.077 177.506C209.156 176.867 208.967 176.286 208.747 176.055C209.403 176.468 209.517 177.01 209.65 177.506L212.57 177.504C212.624 176.381 211.488 173.99 209.274 172.813Z" fill="#11243E"/>
<path d="M200.18 176.895L200.437 170.843L205.474 169.13L206.006 176.892C204.309 177.407 200.945 177.091 200.18 176.895Z" fill="#FDDEBF"/>
<path d="M198.346 167.21C197.971 169.963 199.367 172.427 201.465 172.713C203.563 172.999 205.567 170.999 205.943 168.246C206.318 165.493 204.922 163.029 202.824 162.743C199.396 162.144 198.722 164.457 198.346 167.21Z" fill="#FDDEBF"/>
<path d="M200.327 173.482L200.373 172.341C201.244 172.631 202.215 172.405 202.764 172.284C202.055 172.81 200.814 173.352 200.327 173.482Z" fill="#E6AD75"/>
<path d="M200.882 168.135C200.669 168.17 200.248 168.309 200.321 168.557C200.387 168.784 200.685 168.741 200.805 168.698" stroke="#11243E" stroke-width="0.310042" stroke-linecap="round"/>
<circle cx="0.192996" cy="0.192996" r="0.192996" transform="matrix(-0.990832 -0.135098 -0.135098 0.990832 201.972 167.569)" fill="#11243E"/>
<circle cx="0.192996" cy="0.192996" r="0.192996" transform="matrix(-0.990832 -0.135098 -0.135098 0.990832 200.509 167.37)" fill="#11243E"/>
<path d="M204.402 169.518C204.906 169.238 204.749 168.11 203.797 168.116C202.712 168.123 202.885 169.815 203.959 169.657C204.128 169.632 204.282 169.585 204.402 169.518Z" fill="#FEB7A1"/>
<path d="M199.215 169.287C199.719 169.006 199.563 167.878 198.611 167.884C197.525 167.891 197.699 169.583 198.773 169.426C198.942 169.401 199.096 169.353 199.215 169.287Z" fill="#FEB7A1"/>
<path d="M200.261 166.494C200.08 166.437 199.899 166.413 199.666 166.525" stroke="#11243E" stroke-width="0.310042" stroke-linecap="round"/>
<path d="M202.916 166.828C202.766 166.667 202.464 166.527 202.149 166.552" stroke="#11243E" stroke-width="0.310042" stroke-linecap="round"/>
<path d="M200.887 169.934C201.139 169.937 201.694 169.849 201.896 169.477" stroke="#11243E" stroke-width="0.310042" stroke-linecap="round"/>
<path d="M202.019 162.629C202.312 164.069 203.105 166.679 206.052 167.879" stroke="#11243E" stroke-width="0.516754" stroke-linecap="round"/>
<path d="M205.462 167.571C203.599 166.051 202.319 163.613 201.966 162.587C202.208 162.208 203.799 161.764 205.16 163.022C206.491 164.251 206.74 165.925 206.595 167.146C206.528 167.709 205.901 167.929 205.462 167.571Z" fill="#11243E"/>
<path d="M201.893 162.605C201.658 163.591 200.704 166.099 198.069 167.434" stroke="#11243E" stroke-width="0.516754" stroke-linecap="round"/>
<path d="M198.635 166.811C200.473 165.526 201.678 163.377 201.981 162.632L203.664 163.366C203.92 163.042 204.32 162.416 203.893 162.298C203.44 162.173 200.96 161.462 199.215 162.917C198.044 163.893 197.661 165.213 197.57 166.208C197.515 166.812 198.138 167.159 198.635 166.811Z" fill="#11243E"/>
<mask id="mask15_319_3036" style="mask-type:alpha" maskUnits="userSpaceOnUse" x="205" y="169" width="8" height="9">
<path d="M209.274 172.813C207.255 171.74 206.821 170.005 206.854 169.377L205.273 169.378L205.077 173.608L205.277 177.508L209.077 177.506C209.156 176.867 208.967 176.286 208.747 176.055C209.403 176.468 209.517 177.01 209.65 177.506L212.57 177.504C212.624 176.381 211.488 173.99 209.274 172.813Z" fill="#11243E"/>
</mask>
<g mask="url(#mask15_319_3036)">
<path d="M209.631 173.717C207.31 172.338 206.332 170.541 206.133 169.814L205.851 169.893C206.008 170.713 206.865 172.755 209.036 174.36C211.207 175.964 211.123 178.331 210.81 179.314L211.814 179.768C212.053 178.325 211.952 175.095 209.631 173.717Z" fill="#253F64"/>
</g>
<circle cx="1.18043" cy="1.18043" r="1.18043" transform="matrix(-0.990832 -0.135098 -0.135098 0.990832 207.448 167.927)" fill="#FDDEBF"/>
<path d="M205.811 169.208C205.892 169.03 206.112 168.597 206.689 168.55" stroke="#EBB57E" stroke-width="0.310042" stroke-linecap="round"/>
<path d="M206.204 168.777C206.308 168.837 206.469 168.909 206.552 169.212" stroke="#EBB57E" stroke-width="0.310042" stroke-linecap="round"/>
<path d="M205.628 170.052C205.738 170.883 205.831 172.156 208.257 174.944C208.406 175.115 208.544 175.281 208.662 175.454" stroke="#253F64" stroke-width="0.112971" stroke-linecap="round"/>
<path d="M176.042 176.571C176.681 177.904 178.784 180.218 179.756 181.209C179.425 183.328 178.597 187.283 177.926 186.148C177.088 184.729 173.782 182.303 172.598 181.506C171.414 180.709 169.052 180.494 169.122 179.734C169.206 178.815 170.595 179.366 171.056 179.523C170.049 178.616 167.977 178.427 168.126 177.779C168.234 177.306 168.616 177.253 168.84 177.291C167.945 177.083 167.457 176.516 167.803 176.104C168.085 175.767 168.822 175.896 169.155 176.003C168.444 175.385 169 174.714 170.278 175.013C172.47 175.528 174.095 176.746 174.633 177.291C174.274 176.538 173.658 174.971 174.061 174.73C174.565 174.428 175.244 174.904 176.042 176.571Z" fill="#FDDEBF"/>
<mask id="mask16_319_3036" style="mask-type:alpha" maskUnits="userSpaceOnUse" x="167" y="174" width="13" height="13">
<path d="M176.042 176.571C176.681 177.904 178.784 180.218 179.756 181.209C179.425 183.328 178.597 187.283 177.926 186.148C177.088 184.729 173.782 182.303 172.598 181.506C171.414 180.709 169.052 180.494 169.122 179.734C169.206 178.815 170.595 179.366 171.056 179.523C170.049 178.616 167.977 178.427 168.126 177.779C168.234 177.306 168.616 177.253 168.84 177.291C167.945 177.083 167.457 176.516 167.803 176.104C168.085 175.767 168.822 175.896 169.155 176.003C168.444 175.385 169 174.714 170.278 175.013C172.47 175.528 174.095 176.746 174.633 177.291C174.274 176.538 173.658 174.971 174.061 174.73C174.565 174.428 175.244 174.904 176.042 176.571Z" fill="#FDDEBF"/>
</mask>
<g mask="url(#mask16_319_3036)">
<path d="M172.789 181.044C170.925 180.572 169.463 179.961 169.021 179.563L168.307 180.258L169.28 182.101L177.08 184.819L179.224 180.903C179.128 179.591 178.737 177.384 177.941 179.045C176.944 181.122 175.119 181.635 172.789 181.044Z" fill="#F8CFA4"/>
</g>
<path d="M208.958 194.2C204.742 195.522 200.744 194.905 199.503 194.2C198.371 190.267 197.206 185.875 197.25 184.126C194.077 187.724 189.873 191.544 188.091 191.544C183.032 191.544 177.942 187.715 175.037 184.872C177.397 182.391 177.999 180.543 178.352 179.609L186.467 184.346C187.52 182.811 188.85 180.942 190.403 178.884C193.137 175.258 197.519 174.701 200.162 174.4C200.498 175.23 201.199 176.407 203.273 176.123C204.997 175.887 205.512 174.219 205.743 173.115C205.743 172.865 205.875 172.632 206.094 172.511C208.638 171.11 211.373 170.56 214.19 169.111C215.292 168.544 216.008 167.458 216.269 166.246L218.342 156.626C221.348 158.048 225.288 158.576 227.035 158.048L224.972 168.359C224.324 171.602 222.255 174.384 219.335 175.938L213.265 179.169C214.947 180.932 217.836 185.833 218.723 187.431C212.884 188.619 214.228 192.546 208.958 194.2Z" fill="#FE2257"/>
<path d="M209.639 179.257L205.8 180.36L206.675 183.43L208.176 183.715C208.687 183.813 209.212 183.634 209.557 183.244L210.453 182.233L209.639 179.257Z" fill="#FFE267"/>
<ellipse cx="242.174" cy="168.601" rx="0.704761" ry="0.608038" transform="rotate(29.9167 242.174 168.601)" fill="#B6A9FF"/>
<ellipse cx="240.558" cy="167.621" rx="0.704761" ry="0.608038" transform="rotate(29.9167 240.558 167.621)" fill="#B6A9FF"/>
<ellipse cx="238.729" cy="166.776" rx="0.704761" ry="0.608038" transform="rotate(29.9167 238.729 166.776)" fill="#B6A9FF"/>
<path d="M220.685 146.319C221.171 145.966 222.49 145.848 222.741 146.818C222.803 147.057 222.835 147.291 222.847 147.633M222.847 147.633C222.872 148.393 222.799 150.149 222.741 150.621L222.847 147.633ZM222.847 147.633C223.499 147.551 224.758 147.792 224.576 149.416M224.576 149.416C224.492 150.169 224.385 150.866 224.385 151.292M224.576 149.416C225.084 149.433 226.084 149.831 226.026 151.292C225.953 153.118 225.94 154.271 225.116 154.324C224.292 154.378 224.292 153.072 224.292 152.519" stroke="#F0C291" stroke-width="0.590576"/>
<path d="M222.535 154.684L220.727 152.297C221.626 152.504 223.572 152.857 224.159 152.608C224.892 152.297 224.884 151.343 223.598 150.878C222.57 150.507 221.397 150.248 220.938 150.164" stroke="#F0C291" stroke-width="0.516754" stroke-linecap="round"/>
<mask id="mask17_319_3036" style="mask-type:alpha" maskUnits="userSpaceOnUse" x="194" y="190" width="33" height="19">
<path d="M200.378 193.816L197.018 200.005L194.091 206.835C199.821 206.125 202.043 206.378 204.731 206.378L206.424 201.77L208.675 206.473C215.427 206.35 223.509 207.619 226.062 208.278C222.341 200.485 216.221 192.57 212.979 190.728C207.142 193.558 203.529 193.816 200.378 193.816Z" fill="#43EB8F"/>
</mask>
<g mask="url(#mask17_319_3036)">
<path d="M223.645 208.626C222.478 205.213 214.973 195.174 212.56 191.987L213.758 190.503L226.049 204.096L229.289 209.497C227.518 209.207 223.909 208.626 223.645 208.626Z" fill="#35D37D"/>
<path d="M204.955 201.406C205.806 201.718 206.255 201.772 206.374 201.761L205.416 206.759H201.623C203.552 205.114 204.648 202.505 204.955 201.406Z" fill="#35D37D"/>
</g>
<path d="M33.561 140.109L39.9254 167.996" stroke="white" stroke-opacity="0.73" stroke-width="8.12043" stroke-linecap="round"/>
<path d="M164.961 205.187C163.978 206.775 163.196 211.213 167.911 212.524" stroke="white" stroke-opacity="0.56" stroke-width="1.47644" stroke-linecap="round"/>
<path d="M175.037 78.2615C176.143 78.9276 177.288 79.5339 178.192 80.4715C179.992 82.3397 182.123 83.8349 183.931 85.6936C187.038 88.8891 188.723 93.6133 188.966 98.027C189.072 99.9598 189.604 102.985 188.226 104.568C186.616 106.418 183.268 104.853 181.828 103.552C180.488 102.342 182.276 100.215 183.182 99.2835C185.473 96.9306 190.411 97.743 192.815 99.3459C196.835 102.025 201.035 105.558 203.874 109.487" stroke="#CDD1FE" stroke-width="2.21466" stroke-linecap="round" stroke-dasharray="6.64 6.64"/>
<path d="M200.75 197.035C200.447 197.343 199.611 198.505 198.689 200.688" stroke="white" stroke-opacity="0.65" stroke-width="1.47644" stroke-linecap="round"/>
<path d="M168.995 177.354C169.587 177.518 170.843 177.957 172.361 178.941" stroke="#F0C291" stroke-width="0.442932" stroke-linecap="round"/>
<path d="M169.345 176.105C169.937 176.269 171.193 176.707 172.711 177.691" stroke="#F0C291" stroke-width="0.442932" stroke-linecap="round"/>
<path d="M171.386 179.623C171.577 179.694 171.946 179.884 172.21 180.069" stroke="#F0C291" stroke-width="0.442932" stroke-linecap="round"/>
<path d="M172.884 177.354C172.696 177.79 172.308 178.983 172.264 180.269" stroke="#F0C291" stroke-width="0.442932" stroke-linecap="round"/>
<path d="M174.634 177.805C174.519 178.294 174.439 179.433 175.037 180.077" stroke="#F0C291" stroke-width="0.442932" stroke-linecap="round"/>
<path d="M134.603 172.747C133.33 173.194 130.688 174.199 130.302 174.639C130.164 174.797 130.027 175.141 129.903 175.557" stroke="#F0C291" stroke-width="0.590576" stroke-linecap="round"/>
<path d="M136.188 172.255C136.66 172.199 137.617 172.37 137.675 173.502" stroke="#F2C697" stroke-width="0.590576" stroke-linecap="round"/>
<path d="M134.396 174.802C135.484 174.427 137.785 173.693 138.28 173.76C138.9 173.845 139.069 174.295 139.097 174.802" stroke="#F2C697" stroke-width="0.590576" stroke-linecap="round"/>
<path d="M137.075 176.859C137.051 177.243 136.965 178.115 136.811 178.537" stroke="#F2C697" stroke-width="0.590576" stroke-linecap="round"/>
<mask id="mask18_319_3036" style="mask-type:alpha" maskUnits="userSpaceOnUse" x="161" y="132" width="22" height="18">
<path d="M166.389 132.614C168.68 132.931 178.419 139.773 182.78 143.372C183.529 146.47 180.064 150.094 177.448 149.913C172.953 147.576 168.378 145.309 164.066 141.407C158.008 135.927 162.208 132.035 166.389 132.614Z" fill="#E11748"/>
</mask>
<g mask="url(#mask18_319_3036)">
<path d="M176.596 148.427C180.387 146.881 182.041 144.01 182.393 142.768L184.51 142.4L184.786 146.31L178.161 152.199L163.806 144.7L159.757 136.418C163.622 141.571 172.594 146.571 176.596 148.427Z" fill="#E11748"/>
</g>
<path d="M105.714 187.451C107.229 189.487 110.055 192.522 111.278 193.785H110.479L110.094 194.465C108.721 193.021 106.602 189.187 105.714 187.451Z" fill="#EDA038"/>
<circle cx="259.434" cy="70.5743" r="6.17683" fill="white" fill-opacity="0.34"/>
<circle cx="245.419" cy="189.851" r="0.622496" fill="white"/>
<path d="M246.564 216.28L245.52 192.903" stroke="white" stroke-width="1.47644" stroke-linecap="round"/>
<path d="M220.653 144.813C220.701 145.604 220.808 147.415 220.847 148.325" stroke="#F0C291" stroke-width="0.590576" stroke-linecap="round"/>
<path d="M193.44 132.451C193.138 133.102 192.578 134.602 192.757 135.393C192.852 135.811 193.412 135.869 194.072 135.774M194.072 135.774C194.364 135.29 194.97 133.917 195.064 132.298M194.072 135.774C194.266 136.031 194.831 136.462 195.546 136.123M195.546 136.123C196.441 135.699 196.876 132.639 196.617 131.286M195.546 136.123C195.825 136.436 196.556 136.897 197.253 136.229M197.253 136.229C198.124 135.393 198.557 133.662 198.449 131.945M197.253 136.229C197.429 136.562 197.964 137.055 198.692 136.358" stroke="#F0C291" stroke-width="0.590576" stroke-linecap="round"/>
<path d="M187.89 150.264C188.416 150.823 189.179 151.626 189.957 152.427M189.426 148.501C191.729 150.691 194.573 154.188 194.544 154.928C194.516 155.667 193.805 155.923 192.838 155.212C192.371 154.868 191.146 153.649 189.957 152.427M189.957 152.427C190.383 153.841 189.408 154.153 188.867 154.132M186.377 151.991C186.89 152.546 188.387 154.1 188.867 154.132M188.867 154.132C188.831 154.752 187.89 155.632 186.849 154.928M186.849 154.928C186.527 154.71 186.081 154.278 185.627 153.794M186.849 154.928C186.737 155.516 186.161 156.34 184.756 154.928C183 153.162 183.274 153.437 182.511 152.673" stroke="#F0C291" stroke-width="0.590576" stroke-linecap="round"/>
<mask id="mask19_319_3036" style="mask-type:alpha" maskUnits="userSpaceOnUse" x="175" y="156" width="53" height="39">
<path d="M208.958 194.2C204.742 195.522 200.744 194.905 199.503 194.2C198.37 190.267 197.206 185.875 197.25 184.126C194.077 187.724 189.873 191.544 188.091 191.544C183.032 191.544 177.942 187.715 175.037 184.872C177.397 182.391 177.999 180.543 178.352 179.609L186.467 184.346C187.52 182.811 188.85 180.942 190.403 178.884C193.137 175.258 197.519 174.701 200.162 174.4C200.498 175.23 201.199 176.407 203.273 176.123C204.997 175.887 205.512 174.219 205.743 173.115C205.743 172.865 205.875 172.632 206.094 172.511C208.638 171.11 211.373 170.56 214.19 169.111C215.292 168.544 216.008 167.458 216.269 166.246L218.342 156.626C221.348 158.048 225.288 158.576 227.034 158.048L224.972 168.359C224.324 171.602 222.255 174.384 219.335 175.938L213.265 179.169C214.947 180.932 217.836 185.833 218.723 187.431C212.884 188.619 214.228 192.546 208.958 194.2Z" fill="#FE2257"/>
</mask>
<g mask="url(#mask19_319_3036)">
<path d="M215.316 185.892C214.625 184.12 212.449 180.095 211.603 178.367L213.92 177.275L221.025 187.244L213.733 193.671L201.635 196.858L197.206 193.671L197.638 192.267C199.319 193.112 208.146 194.281 210.007 191.107C211.603 188.383 214.871 186.086 215.316 185.892Z" fill="#E11748"/>
<path d="M221.683 171.871C223.758 168.058 225.492 160.89 226.099 157.782L227.966 157.35L229.598 159.389C229.068 163.441 227.999 171.611 227.966 171.871C227.934 172.132 221.915 176.876 218.91 179.215H213.362L212.14 178.036C216.439 176.233 220.516 174.017 221.683 171.871Z" fill="#E11748"/>
<path d="M197.246 183.227V184.205V188.686L190.206 192.827L178.422 190.229L173.715 185.071L174.958 183.716C178.522 186.414 185.831 191.133 188.09 190.229C190.349 189.326 195.263 185.335 197.246 183.227Z" fill="#E11748"/>
</g>
<path d="M208.823 180.742L206.358 181.485" stroke="#FAAF49" stroke-opacity="0.79" stroke-width="0.738221" stroke-linecap="round"/>
<path d="M235.875 150.802C236.354 142.218 239.569 124.516 248.597 122.382C259.883 119.715 258.653 141.179 257.547 156.294C256.441 171.41 256.13 192.552 263.445 203.729C266.151 207.862 268.653 213.122 270.628 218.579C266.882 231.407 249.313 257.235 209.006 257.923C202.46 253.822 188.391 243.482 170.191 222.025" stroke="#EB996C" stroke-width="2.21466" stroke-linecap="round"/>
<path d="M202.818 257.502L198.301 260.38L201.248 256.105L202.818 257.502Z" fill="#588DED"/>
<path d="M218.759 246.549L192.395 250.019L198.3 254.577V260.326L201.304 256.494L208.451 262.502L218.759 246.549Z" fill="#E4F1FF"/>
<path d="M198.302 254.581V260.384L201.266 256.512L218.77 246.527L198.302 254.581Z" fill="#ABC7F3"/>
<path d="M140.339 157.457C137.028 152.153 132.524 140.309 137.74 136.372C141.261 133.715 146.485 139.162 150.571 146.269" stroke="#EB996C" stroke-width="2.21466" stroke-linecap="round"/>
<path d="M152.708 140.703C149.72 135.234 144.668 122.768 150.852 118.326" stroke="#EB996C" stroke-width="2.21466" stroke-linecap="round"/>
<path d="M173.125 78.5908L176.892 80.9914L174.435 77.4255L173.125 78.5908Z" fill="#588DED"/>
<path d="M159.831 69.4563L181.818 72.3504L176.894 76.1517V80.9465L174.388 77.75L168.427 82.7607L159.831 69.4563Z" fill="#E4F1FF"/>
<path d="M176.892 76.1551V80.9946L174.419 77.7653L159.821 69.4385L176.892 76.1551Z" fill="#ABC7F3"/>
<path d="M160.178 128.075L173.049 94.2758C174.573 90.2746 178.563 87.7668 182.829 88.1287L194.821 89.1461" stroke="white" stroke-opacity="0.33" stroke-width="3.6911" stroke-linecap="round"/>
<path d="M164.615 85.938L169.522 114.933C156.63 114.057 152.628 121.489 152.852 125.619L147.159 95.8146C149.34 87.9051 158.366 85.938 164.615 85.938Z" fill="#43EB8F"/>
<ellipse cx="163.295" cy="87.3062" rx="1.01082" ry="0.872096" fill="#D5FFE8"/>
<ellipse cx="160.438" cy="87.7088" rx="1.01082" ry="0.872096" fill="#D5FFE8"/>
<ellipse cx="157.581" cy="88.3245" rx="1.01082" ry="0.872096" fill="#D5FFE8"/>
<path d="M150.165 111.135L147.061 95.8495C147.18 93.8592 149.067 89.3293 155.659 87.1321" stroke="white" stroke-width="1.47644" stroke-linecap="round"/>
<circle cx="150.737" cy="113.603" r="0.622496" fill="white"/>
<path d="M193.466 218.718L199.917 219.721C204.232 220.393 208.392 217.82 209.718 213.659L210.078 212.532" stroke="white" stroke-opacity="0.33" stroke-width="2.95288" stroke-linecap="round"/>
</svg>
