<svg width="409" height="284" viewBox="0 0 409 284" fill="none" xmlns="http://www.w3.org/2000/svg">
<ellipse cx="358.109" cy="66.7152" rx="12.4369" ry="11.4237" fill="#FFD35A"/>
<ellipse cx="25.538" cy="263.742" rx="25.538" ry="2.09407" fill="#C7CBF6"/>
<path d="M114.01 245.122C177.098 264.392 211.551 159.796 212.668 157.148C199.574 148.764 134.385 147.688 109.201 110.554C77.7212 64.1357 21.3608 88.6917 25.2821 132.057C29.2034 175.423 94.5957 163.644 110.774 172.419C118.574 176.65 114.227 183.674 107.101 191.219C97.8099 201.058 91.4309 214.259 96.3828 226.852C99.6416 235.14 105.09 242.397 114.01 245.122Z" fill="#FFD35A"/>
<path d="M61.5277 51.1512C64.5596 71.8552 78.5904 89.0655 85.2268 95.0827L83.913 103.297C73.2179 99.9346 49.7979 87.9295 41.6788 66.8083C31.53 40.4067 57.7379 25.2712 61.5277 51.1512Z" fill="#AECEF4"/>
<path d="M44.7816 84.0898C55.3596 93.7868 72.2905 97.8894 79.4337 98.7286L79.0554 101.094C62.4398 104.501 52.7301 102.645 38.0177 96.0467C23.3054 89.4485 31.5591 71.9687 44.7816 84.0898Z" fill="#87BDFC"/>
<path d="M43.7803 91.4568C48.1657 94.4213 59.4359 100.226 69.4332 99.7271" stroke="white" stroke-width="3.60766" stroke-linecap="round"/>
<path d="M53.1021 60.1638C53.7033 65.4941 56.8938 78.7109 72.1067 87.9087" stroke="white" stroke-width="3.60766" stroke-linecap="round"/>
<path d="M340.04 28.7903C339.932 20.7513 337.64 12.9307 331.094 7.6094C307.504 -11.5671 287.453 9.82477 264.598 24.3204C258.657 28.4132 246.42 33.927 233.241 23.4612C218.637 11.8636 180.67 1.09207 171.674 43.0768C165.376 72.4735 243.545 113.681 287.333 127.352C298.393 179.289 356.581 177.846 368.604 138.413C380.626 98.9793 319.072 85.9952 308.011 72.5301C302.885 66.2892 308.524 61.787 316.911 57.8257C329.146 52.0462 340.221 42.3211 340.04 28.7903Z" fill="#FFD35A"/>
<circle cx="309.486" cy="13.1251" r="6.39851" fill="white" fill-opacity="0.34"/>
<ellipse cx="200.896" cy="260.702" rx="145.083" ry="12.2378" fill="#C7CBF6"/>
<path d="M377.702 92.5376C377.419 101.41 372.173 102.573 370.151 103.246C375.451 103.527 377.691 111.061 377.702 114.059C377.702 107.816 382.191 103.385 384.99 103.246C380.336 102.476 377.583 96.3819 377.702 92.5376Z" fill="#FE2257"/>
<path d="M48.0777 237.962C49.4746 249.877 65.6673 247.428 73.147 243.936L78.0294 223.381L74.6596 213.974L54.4408 217.274C51.8567 220.221 46.9664 228.484 48.0777 237.962Z" fill="#11243E"/>
<rect x="67.417" y="41.033" width="270.782" height="219.667" rx="10.823" fill="#444CAE"/>
<rect x="73.001" y="61.3521" width="258.691" height="193.24" fill="#D3EDFD"/>
<path d="M87.3699 217.943L86.4101 213.44L65.518 211.668C62.5405 219.321 58.3719 232.841 65.518 225.694C72.6641 218.548 83.0635 217.549 87.3699 217.943Z" fill="#11243E" fill-opacity="0.16"/>
<path d="M76.3609 55.4203L82.9889 48.2193" stroke="white" stroke-width="3.00638" stroke-linecap="round"/>
<path d="M76.3926 48.1913L82.9563 55.451" stroke="white" stroke-width="3.00638" stroke-linecap="round"/>
<circle cx="93.8458" cy="51.8212" r="3.35129" stroke="white" stroke-width="2.40511"/>
<path d="M330.889 47.6475H319.899" stroke="white" stroke-width="3.00638" stroke-linecap="round"/>
<path d="M330.889 51.4697H319.899" stroke="white" stroke-width="3.00638" stroke-linecap="round"/>
<path d="M330.889 55.2915H319.899" stroke="white" stroke-width="3.00638" stroke-linecap="round"/>
<rect x="138.24" y="47.6475" width="126.746" height="7.80302" rx="3.90151" fill="#F1F1FB"/>
<rect x="162.066" y="75.8604" width="157.833" height="169.178" fill="white"/>
<path d="M287.661 104.128H304.5" stroke="#505ACC" stroke-width="7.21532" stroke-linecap="round"/>
<path d="M287.661 117.247H302.295" stroke="#FFD35A" stroke-width="7.21532" stroke-linecap="round"/>
<path d="M291.419 130.185H302.296" stroke="#C1C7FF" stroke-width="7.21532" stroke-linecap="round"/>
<path d="M282.892 143.122H288.894" stroke="#C1C7FF" stroke-width="7.21532" stroke-linecap="round"/>
<path d="M296.294 143.122H304.177" stroke="#505ACC" stroke-width="7.21532" stroke-linecap="round"/>
<path d="M282.304 156.061H303.897" stroke="#505ACC" stroke-width="7.21532" stroke-linecap="round"/>
<path d="M288.895 168.999H303.695" stroke="#C1C7FF" stroke-width="7.21532" stroke-linecap="round"/>
<path d="M289.099 181.936H303.899" stroke="#FFD35A" stroke-width="7.21532" stroke-linecap="round"/>
<path d="M289.099 194.874H303.899" stroke="#FF4E9C" stroke-width="7.21532" stroke-linecap="round"/>
<path d="M289.099 207.812H303.899" stroke="#C1C7FF" stroke-width="7.21532" stroke-linecap="round"/>
<path d="M289.099 220.749H303.899" stroke="#C1C7FF" stroke-width="7.21532" stroke-linecap="round"/>
<path d="M289.099 233.687H303.899" stroke="#C1C7FF" stroke-width="7.21532" stroke-linecap="round"/>
<circle cx="312.759" cy="104.311" r="2.86941" fill="#ACB4FF"/>
<circle cx="312.759" cy="117.249" r="2.86941" fill="#DFE2FB"/>
<circle cx="312.759" cy="130.186" r="2.86941" fill="#DFE2FB"/>
<circle cx="312.759" cy="143.124" r="2.86941" fill="#DFE2FB"/>
<circle cx="312.759" cy="156.061" r="2.86941" fill="#DFE2FB"/>
<circle cx="312.759" cy="168.999" r="2.86941" fill="#DFE2FB"/>
<circle cx="312.759" cy="181.937" r="2.86941" fill="#DFE2FB"/>
<circle cx="312.759" cy="194.874" r="2.86941" fill="#DFE2FB"/>
<circle cx="312.759" cy="207.812" r="2.86941" fill="#DFE2FB"/>
<circle cx="312.759" cy="220.749" r="2.86941" fill="#DFE2FB"/>
<circle cx="312.759" cy="233.687" r="2.86941" fill="#DFE2FB"/>
<path d="M178.996 104.31H233.314" stroke="#ACB4FF" stroke-opacity="0.84" stroke-width="7.21532" stroke-linecap="round"/>
<path d="M178.996 117.247H238.846" stroke="#ACB4FF" stroke-opacity="0.84" stroke-width="7.21532" stroke-linecap="round"/>
<path d="M179.05 130.185H241.697" stroke="#ACB4FF" stroke-opacity="0.84" stroke-width="7.21532" stroke-linecap="round"/>
<path d="M179.05 143.122H232.866" stroke="#ACB4FF" stroke-opacity="0.84" stroke-width="7.21532" stroke-linecap="round"/>
<path d="M179.05 156.061H228.92" stroke="#ACB4FF" stroke-opacity="0.84" stroke-width="7.21532" stroke-linecap="round"/>
<path d="M179.05 168.999H228.92" stroke="#ACB4FF" stroke-opacity="0.84" stroke-width="7.21532" stroke-linecap="round"/>
<path d="M179.05 181.937H250.209" stroke="#ACB4FF" stroke-opacity="0.84" stroke-width="7.21532" stroke-linecap="round"/>
<path d="M179.05 194.873H261.976" stroke="#ACB4FF" stroke-opacity="0.84" stroke-width="7.21532" stroke-linecap="round"/>
<path d="M178.996 207.812H261.922" stroke="#ACB4FF" stroke-opacity="0.84" stroke-width="7.21532" stroke-linecap="round"/>
<path d="M178.996 220.75H261.922" stroke="#ACB4FF" stroke-opacity="0.84" stroke-width="7.21532" stroke-linecap="round"/>
<path d="M178.996 233.687H261.922" stroke="#ACB4FF" stroke-opacity="0.84" stroke-width="7.21532" stroke-linecap="round"/>
<path d="M241.695 104.128H253.259" stroke="#E0E2FB" stroke-width="7.21532" stroke-linecap="round"/>
<path d="M247.478 117.247H259.041" stroke="#E0E2FB" stroke-width="7.21532" stroke-linecap="round"/>
<path d="M250.519 130.185H262.082" stroke="#E0E2FB" stroke-width="7.21532" stroke-linecap="round"/>
<path d="M241.695 143.122H253.259" stroke="#E0E2FB" stroke-width="7.21532" stroke-linecap="round"/>
<path d="M238.039 156.061H249.603" stroke="#E0E2FB" stroke-width="7.21532" stroke-linecap="round"/>
<path d="M237.67 168.999H249.234" stroke="#E0E2FB" stroke-width="7.21532" stroke-linecap="round"/>
<path d="M259.104 181.936H270.668" stroke="#E0E2FB" stroke-width="7.21532" stroke-linecap="round"/>
<circle cx="170.735" cy="104.311" r="2.86941" fill="#ACB4FF" fill-opacity="0.92"/>
<circle cx="170.735" cy="117.249" r="2.86941" fill="#ACB4FF" fill-opacity="0.92"/>
<circle cx="170.735" cy="130.186" r="2.86941" fill="#ACB4FF" fill-opacity="0.92"/>
<circle cx="170.735" cy="143.124" r="2.86941" fill="#ACB4FF" fill-opacity="0.92"/>
<circle cx="170.735" cy="156.061" r="2.86941" fill="#ACB4FF" fill-opacity="0.92"/>
<circle cx="170.735" cy="168.999" r="2.86941" fill="#ACB4FF" fill-opacity="0.92"/>
<circle cx="170.735" cy="181.937" r="2.86941" fill="#ACB4FF" fill-opacity="0.92"/>
<circle cx="170.735" cy="194.874" r="2.86941" fill="#ACB4FF" fill-opacity="0.92"/>
<circle cx="170.735" cy="207.811" r="2.86941" fill="#ACB4FF" fill-opacity="0.92"/>
<circle cx="170.735" cy="220.749" r="2.86941" fill="#ACB4FF" fill-opacity="0.92"/>
<circle cx="170.735" cy="233.687" r="2.86941" fill="#ACB4FF" fill-opacity="0.92"/>
<circle cx="98.3998" cy="83.6207" r="12.723" fill="#43EA8E"/>
<path fill-rule="evenodd" clip-rule="evenodd" d="M88.7402 89.7163C89.4319 86.009 92.2057 83.0342 95.802 82.0515C96.315 82.9546 97.2856 83.5638 98.3984 83.5638C99.5112 83.5638 100.482 82.9548 100.995 82.0518C104.591 83.0348 107.364 86.0097 108.056 89.7169C106.153 93.0829 102.541 95.3551 98.3981 95.3551C94.2552 95.3551 90.6431 93.0827 88.7402 89.7163Z" fill="#505ACC"/>
<circle cx="98.4006" cy="80.6193" r="2.40446" fill="#FDDEBF"/>
<path d="M82.7744 103.245H118.447" stroke="#505ACC" stroke-width="7.21532" stroke-linecap="round"/>
<path d="M82.7744 113.426H118.447" stroke="#505ACC" stroke-width="7.21532" stroke-linecap="round"/>
<path d="M82.7744 124.11H118.447" stroke="#505ACC" stroke-width="7.21532" stroke-linecap="round"/>
<path d="M82.9688 134.795H118.641" stroke="#505ACC" stroke-width="7.21532" stroke-linecap="round"/>
<path d="M164.893 90.5835H318.564" stroke="#D3EDFD" stroke-width="2.40511" stroke-linecap="round"/>
<path d="M77.552 142.941L89.6686 214.528C57.8391 212.365 47.9588 230.715 48.5099 240.913L34.4541 167.326C39.8404 147.798 62.1245 142.941 77.552 142.941Z" fill="#43EB8F"/>
<path d="M76.9431 148.753C57.6998 149.329 47.2355 156.338 42.0065 163.39C41.4093 164.118 39.8031 166.338 38.1553 169.385" stroke="#D3EDFD" stroke-width="2.40511" stroke-linecap="round"/>
<ellipse cx="73.4033" cy="145.509" rx="1.67186" ry="1.28741" fill="#D3EDFD"/>
<ellipse cx="68.3403" cy="146.104" rx="1.67186" ry="1.28741" transform="rotate(-8.41408 68.3403 146.104)" fill="#D3EDFD"/>
<ellipse cx="63.0896" cy="147.207" rx="1.67186" ry="1.28741" transform="rotate(-15.9784 63.0896 147.207)" fill="#D3EDFD"/>
<path d="M129.69 142.941L158.453 281.596" stroke="#505ACC" stroke-width="3.60766" stroke-linecap="round"/>
<path d="M129.375 142.941L100.611 281.596" stroke="#81B6F5" stroke-width="3.60766" stroke-linecap="round"/>
<path d="M150.658 142.941L179.421 281.596" stroke="#505ACC" stroke-width="3.60766" stroke-linecap="round"/>
<path d="M127.93 150.749H148.585" stroke="#81B6F5" stroke-width="3.60766" stroke-linecap="round"/>
<path d="M133.559 161.778H154.317" stroke="#505ACC" stroke-width="3.60766" stroke-linecap="round"/>
<path d="M136.128 173.851H156.887" stroke="#505ACC" stroke-width="3.60766" stroke-linecap="round"/>
<path d="M137.695 184.176H158.454" stroke="#505ACC" stroke-width="3.60766" stroke-linecap="round"/>
<path d="M140.762 195.411H161.037" stroke="#505ACC" stroke-width="3.60766" stroke-linecap="round"/>
<path d="M143.183 206.406H163.579" stroke="#505ACC" stroke-width="3.60766" stroke-linecap="round"/>
<path d="M145.854 217.467H165.525" stroke="#505ACC" stroke-width="3.60766" stroke-linecap="round"/>
<path d="M148.074 228.918H168.249" stroke="#505ACC" stroke-width="3.60766" stroke-linecap="round"/>
<path d="M150.092 239.416H170.468" stroke="#505ACC" stroke-width="3.60766" stroke-linecap="round"/>
<path d="M152.361 251.489H172.94" stroke="#505ACC" stroke-width="3.60766" stroke-linecap="round"/>
<path d="M154.66 262.078H175.059" stroke="#505ACC" stroke-width="3.60766" stroke-linecap="round"/>
<path d="M123.44 173.041H143.939" stroke="#AECEF4" stroke-width="3.60766" stroke-linecap="round"/>
<path d="M121.176 184.176H141.326" stroke="#81B6F5" stroke-width="3.60766" stroke-linecap="round"/>
<path d="M118.827 195.411H139.237" stroke="#81B6F5" stroke-width="3.60766" stroke-linecap="round"/>
<path d="M116.639 206.406H136.862" stroke="#81B6F5" stroke-width="3.60766" stroke-linecap="round"/>
<path d="M113.827 217.467H134.923" stroke="#81B6F5" stroke-width="3.60766" stroke-linecap="round"/>
<path d="M111.562 228.918H131.923" stroke="#81B6F5" stroke-width="3.60766" stroke-linecap="round"/>
<path d="M109.824 239.416H129.69" stroke="#81B6F5" stroke-width="3.60766" stroke-linecap="round"/>
<path d="M107.083 250.885H127.185" stroke="#81B6F5" stroke-width="3.60766" stroke-linecap="round"/>
<path d="M105.137 262.078H125.541" stroke="#81B6F5" stroke-width="3.60766" stroke-linecap="round"/>
<path d="M102.708 273.199H123.042" stroke="#81B6F5" stroke-width="3.60766" stroke-linecap="round"/>
<path d="M125.749 161.778H146.508" stroke="#81B6F5" stroke-width="3.60766" stroke-linecap="round"/>
<path d="M111.848 235.027L111.612 231.302C113.291 230.544 116.842 229.64 116.934 230.92C117.028 232.244 116.921 233.729 116.852 234.204C114.947 234.806 112.72 234.991 111.848 235.027Z" fill="#FDDEBF"/>
<path d="M122.674 235.027L122.437 231.302C124.117 230.544 127.668 229.64 127.759 230.92C127.853 232.244 127.746 233.729 127.677 234.204C125.772 234.806 123.545 234.991 122.674 235.027Z" fill="#FDDEBF"/>
<path d="M116.963 233.449C114.726 235.312 111.859 234.185 111.728 234.262C111.433 235.227 111.406 237.55 111.458 238.238L124.193 238.432C124.532 238.119 124.632 237.593 124.669 237.167C124.748 236.268 121.933 235.951 120.002 235.006C118.601 234.321 117.629 233.753 116.963 233.449Z" fill="#11243E"/>
<path d="M127.829 233.449C125.592 235.312 122.725 234.185 122.594 234.262C122.299 235.227 122.272 237.55 122.324 238.238L135.06 238.432C135.398 238.119 135.498 237.593 135.536 237.167C135.614 236.268 132.799 235.951 130.868 235.006C129.468 234.321 128.495 233.753 127.829 233.449Z" fill="#11243E"/>
<path d="M130.852 210.538C131.389 200.421 129.824 189.62 128.974 185.485L127.818 184.31L110.26 187.741C109.247 190.9 109.583 200.128 109.832 203.222C110.299 209.023 110.509 224.382 109.832 232.19H117.56C118.688 227.17 119.603 215.663 119.919 210.538C120.441 214.993 122.031 226.829 121.813 232.19H129.798C129.926 229.188 130.316 220.655 130.852 210.538Z" fill="#505ACC"/>
<mask id="mask0_560_2658" style="mask-type:alpha" maskUnits="userSpaceOnUse" x="109" y="184" width="22" height="49">
<path d="M130.851 210.538C131.388 200.421 129.823 189.62 128.973 185.485L127.817 184.31L110.298 187.746C109.379 194.318 109.831 200.118 109.831 203.222C109.831 208.138 110.508 224.383 109.831 232.19H117.56C118.687 227.17 119.602 215.664 119.918 210.538C120.44 214.993 122.03 226.829 121.812 232.19H129.797C129.925 229.188 130.315 220.655 130.851 210.538Z" fill="#585AFA"/>
</mask>
<g mask="url(#mask0_560_2658)">
<path d="M128.097 186.371C125.346 187.148 114.568 190.606 109.522 192.238L108.962 189.398L124.21 183.605C126.652 184.203 130.848 185.593 128.097 186.371Z" fill="#323DB9"/>
</g>
<path d="M118.167 198.554C119.304 199.123 119.808 206.996 119.917 210.862C119.929 211.246 119.592 214.894 119.422 216.67C119.131 214.351 118.473 209.068 118.167 206.486C117.784 203.258 116.744 197.843 118.167 198.554Z" fill="#323DB9"/>
<path d="M104.692 166.062C105.016 166.967 105.558 167.431 105.788 167.55L105.931 166.431V165.3C105.383 165.177 104.369 165.157 104.692 166.062Z" fill="#BA0732"/>
<path d="M96.0383 161.074C97.6739 160.357 102.985 158.025 105.436 156.949C108.521 158.407 113.438 161.97 108.423 164.565C104.568 166.56 100.097 167.855 97.3926 168.374C96.1685 168.609 94.9316 168.269 93.925 167.534C88.1372 163.308 84.0609 158.154 82.168 155.536L85.3466 152.738L96.0383 161.074Z" fill="#FDDEBF"/>
<path d="M84.1901 150.164C85.1379 150.968 89.4306 155.392 90.6201 157.211L86.6632 160.832C86.1286 160.223 84.4915 158.548 83.4676 157.313C82.3848 156.006 81.0904 154.734 80.7897 154.111C80.5491 153.613 80.8165 153.272 81.0703 153.209C80.4995 152.36 81.3502 151.792 81.676 151.886C81.7107 151.043 82.5525 150.982 82.9033 151.179C81.7585 150.395 80.313 148.522 80.815 148.187C81.6051 147.66 83.2415 149.359 84.1901 150.164Z" fill="#FDDEBF"/>
<mask id="mask1_560_2658" style="mask-type:alpha" maskUnits="userSpaceOnUse" x="82" y="152" width="29" height="17">
<path d="M96.0364 161.074C97.672 160.357 102.983 158.025 105.434 156.949C108.519 158.407 113.436 161.97 108.421 164.565C104.566 166.56 100.095 167.855 97.3906 168.374C96.1666 168.609 94.9297 168.269 93.9231 167.534C88.1352 163.308 84.059 158.154 82.166 155.536L85.3447 152.738L96.0364 161.074Z" fill="#FDDEBF"/>
</mask>
<g mask="url(#mask1_560_2658)">
<path d="M94.9741 166.635C97.3823 167.117 103.088 165.231 105.639 164.227L106.327 169.431L96.4793 173.215L81.6426 161.69L83.1049 157.217C86.0579 160.156 92.5659 166.154 94.9741 166.635Z" fill="#EBB47E" fill-opacity="0.29"/>
</g>
<path d="M84.2502 152.539C83.8854 152.183 83.3619 151.667 82.8395 151.141M85.4387 151.54C84.0127 149.985 81.7249 148.056 81.2338 148.066C80.7427 148.076 80.5643 148.545 81.0247 149.195C81.2472 149.51 82.042 150.337 82.8395 151.141M82.8395 151.141C81.9057 150.842 81.687 151.485 81.6943 151.845M83.0861 153.523C82.7237 153.176 81.7097 152.164 81.6943 151.845M81.6943 151.845C81.2824 151.861 80.6868 152.475 81.1422 153.174M81.1422 153.174C81.2832 153.391 81.5642 153.692 81.8805 154M81.1422 153.174C80.7501 153.242 80.1962 153.614 81.1173 154.564C82.2685 155.751 82.0893 155.565 82.5871 156.081" stroke="#F0C291" stroke-width="0.392862" stroke-linecap="round"/>
<path d="M96.1673 161.185C94.6176 160.01 88.3964 154.229 85.4795 151.485V152.79C85.4795 152.931 92.9372 159.913 96.6661 163.386C97.1455 163.141 97.717 162.359 96.1673 161.185Z" fill="#FDDEBF"/>
<path d="M116.76 151.503C114.344 151.468 113.656 147.78 113.596 144.648C113.563 142.921 114.056 140.894 115.774 140.717H120.298L121.747 150.111C121.4 150.595 119.915 151.55 116.76 151.503Z" fill="#FDDEBF"/>
<path d="M117.047 154.397L116.809 151.068L116.215 147.067L122.317 145.572L123.047 155.146L117.047 154.397Z" fill="#FDDEBF"/>
<path d="M111.967 140.987C112.041 143.427 116.837 142.845 118.973 142.27C119.629 144.153 121.033 148.055 122.261 147.924C123.488 147.792 123.619 145.119 123.049 144.133C122.48 143.146 123.597 140.987 123.049 139.706C122.502 138.426 121.494 139.706 119.543 138.435C117.593 137.164 116.256 138.304 115.709 138.851C115.161 139.399 111.874 137.936 111.967 140.987Z" fill="#10243D"/>
<circle cx="120.494" cy="145.901" r="1.03142" fill="#FDDEBF"/>
<path d="M120.359 150.465C119.358 151.346 117.63 151.525 116.867 151.505L116.917 152.66C118.701 151.899 119.938 150.881 120.359 150.465Z" fill="#EBB47E"/>
<path d="M113.346 189.656L113.644 193.067C113.679 193.464 113.515 193.852 113.206 194.103L111.775 195.272L110.204 194.879" stroke="#323EC6" stroke-width="1.20255" stroke-linecap="round"/>
<path d="M123.352 187.049L123.926 191.327C123.978 191.715 123.837 192.105 123.55 192.37L120.676 195.026L117.844 193.481C117.527 193.309 117.305 193.003 117.238 192.65L116.233 187.352" stroke="#323EC6" stroke-width="1.20255" stroke-linecap="round"/>
<path d="M97.1424 161.844C96.7348 161.557 95.725 160.825 94.9463 160.191" stroke="#F0C291" stroke-width="0.481021" stroke-linecap="round"/>
<circle cx="0.232345" cy="0.232345" r="0.232345" transform="matrix(-0.990697 -0.136088 -0.136088 0.990697 114.865 145.592)" fill="#11243E"/>
<path d="M116.52 146.512C116.361 146.513 116.217 146.541 116.088 146.587C115.329 146.858 115.44 148.001 116.242 148.072C116.572 148.102 116.907 148.043 117.126 147.922C117.632 147.64 117.476 146.507 116.52 146.512Z" fill="#FEB7A1"/>
<path d="M115.23 145.056C115.056 144.869 114.706 144.707 114.342 144.736" stroke="#11243E" stroke-width="0.106038" stroke-linecap="round"/>
<path d="M120.149 146.254C120.157 146.056 120.283 145.577 120.732 145.24" stroke="#F0C291" stroke-width="0.360766" stroke-linecap="round"/>
<path d="M120.463 145.596C120.603 145.629 120.812 145.734 121.019 145.941" stroke="#F0C291" stroke-width="0.360766" stroke-linecap="round"/>
<path d="M150.34 142.941L121.577 281.596" stroke="#81B6F5" stroke-width="3.60766" stroke-linecap="round"/>
<path d="M138.784 180.292C134.916 176.788 131.674 172.082 130.536 170.167L135.528 164.141L140.131 171.355L144.91 162.661L148.641 163.885C146.95 170.728 142.653 183.796 138.784 180.292Z" fill="#FDDEBF"/>
<mask id="mask2_560_2658" style="mask-type:alpha" maskUnits="userSpaceOnUse" x="130" y="162" width="20" height="19">
<path d="M138.784 180.293C134.916 176.789 131.674 172.082 130.536 170.167L135.528 164.141L140.131 171.356L146.227 162.978L149.289 164.141C147.597 170.985 142.653 183.797 138.784 180.293Z" fill="#FDDEBF"/>
</mask>
<g mask="url(#mask2_560_2658)">
<path d="M140.907 179.046C139.227 179.699 134.658 173.89 132.583 170.904L131.648 170.643L131.143 172.588L133.632 177.14L141.257 183.325L148.415 173.327L148.026 170.293C146.354 172.938 142.588 178.392 140.907 179.046Z" fill="#EBB47E" fill-opacity="0.29"/>
</g>
<path d="M145.464 161.521C145.041 162.564 143.916 164.567 143.46 165.333L147.879 166.791C148.49 164.742 148.901 164.085 149.182 163.238C149.534 162.179 152.199 159.978 150.505 158.814L150.07 158.814C149.749 158.445 149.102 157.699 149.079 157.666C149.057 157.632 148.66 157.651 148.464 157.666L148.117 159.484L145.464 161.521Z" fill="#FDDEBF"/>
<path d="M126.941 155.023C119.41 151.366 107.876 155.114 103.664 157.729C104.206 159.596 105.417 163.862 105.784 167.546L109.247 165.288C108.767 178.08 108.501 187.525 108.767 190.724C116.638 188.357 127.531 186.216 130.624 185.976L130.095 170.243L131.761 172.121C133.23 170.009 136.044 167.481 137.147 166.504C135.63 163.686 132.623 157.781 126.941 155.023Z" fill="#FE2257"/>
<path d="M109.43 162.22C108.618 163.206 106.638 163.889 105.292 164.367L105.789 167.555L109.43 165.325V162.22Z" fill="#E7194A"/>
<path d="M129.809 166.594C130.328 167.972 131.926 170.085 132.66 170.97C132.426 171.201 131.972 171.857 131.774 172.156L130.115 170.25C129.983 169.501 129.856 167.501 129.809 166.594Z" fill="#E7194A"/>
<path d="M140.14 171.365C140.309 171.685 140.676 172.37 140.789 172.551" stroke="#F0C291" stroke-width="0.481021" stroke-linecap="round"/>
<path d="M151.062 160.045C151.41 158.427 149.687 156.659 148.832 156.036L148.446 157.671L148.576 162.844C149.055 162.568 150.714 161.663 151.062 160.045Z" fill="#FDDEBF"/>
<path d="M145.074 159.082C144.833 160.025 145.085 161.772 145.15 162.175L145.597 161.482C145.505 160.886 145.559 160.246 145.597 160.001L146.413 156.161C145.292 156.065 145.316 158.14 145.074 159.082Z" fill="#FDDEBF"/>
<path d="M148.496 157.662C148.336 157.751 146.448 158.735 145.523 159.216C145.464 159.593 145.323 160.41 145.234 160.658C145.146 160.907 145.479 161.989 145.656 162.5C146.544 162.004 148.354 160.982 148.496 160.858C148.674 160.702 148.829 157.862 148.496 157.662Z" fill="#FDDEBF"/>
<path d="M146.153 157.248C145.995 157.925 146.021 158.813 146.054 159.173L145.68 159.646L145.471 159.063L145.878 156.973C146.036 156.782 146.311 156.57 146.153 157.248Z" fill="#FDDEBF"/>
<path d="M31.6992 258.812V257.844L38.6693 257.287C38.7661 257.747 38.9549 258.695 38.9355 258.812C38.9113 258.957 37.9674 259.005 37.4834 259.102C37.0962 259.179 34.7728 260.054 33.6595 260.482L31.6992 258.812Z" fill="#FDDEBF"/>
<path d="M10.6768 258.812V257.844L17.6468 257.287C17.7436 257.747 17.9324 258.695 17.9131 258.812C17.8889 258.957 16.945 259.005 16.4609 259.102C16.0737 259.179 13.7503 260.054 12.6371 260.482L10.6768 258.812Z" fill="#FDDEBF"/>
<path d="M39.1937 257.493C36.328 260.253 31.8771 258.381 31.7073 258.478C31.3092 259.71 31.2493 262.186 31.3015 263.07L46.341 263.564C46.7814 263.169 46.6233 263.144 46.68 262.598C46.7783 261.651 44.479 261.792 42.4021 259.975C41.1107 258.845 40.042 257.897 39.1937 257.493Z" fill="#11243E"/>
<path d="M10.3669 257.493C13.2326 260.253 17.6835 258.381 17.8532 258.478C18.2513 259.71 18.3112 262.186 18.2591 263.07L3.21951 263.564C2.77915 263.169 2.93725 263.144 2.88056 262.598C2.78222 261.651 5.08154 261.792 7.15845 259.975C8.44989 258.845 9.51858 257.897 10.3669 257.493Z" fill="#11243E"/>
<path d="M42.8256 258.063L41.7304 205.648L20.9602 201.55L19.1234 204.941L20.1124 209.887L7.61426 258.063H19.1234L29.5188 225.447V258.063H42.8256Z" fill="#444CAE"/>
<path d="M30.8643 210.785L30.4804 216.773" stroke="#7179DE" stroke-width="0.962043" stroke-linecap="round"/>
<path d="M24.9626 207.421C24.8122 208.465 24.5282 210.302 24.2191 212.017C23.8873 213.86 22.3859 215.239 20.5143 215.287C20.0879 215.297 19.6457 215.299 19.2002 215.288" stroke="#7179DE" stroke-width="0.996341" stroke-linecap="round"/>
<path d="M37.4912 206.088C37.6752 207.401 38.0965 209.924 38.6102 211.913C38.9159 213.096 39.9565 213.89 41.1713 214.024V214.024" stroke="#7179DE" stroke-width="0.996341" stroke-linecap="round"/>
<path d="M8.12729 198.106C7.58898 195.737 11.1328 191.646 12.972 189.896L18.2206 190.704L19.9028 196.76L16.2534 198.986C19.6179 201.902 25.7434 207.836 24.8821 210.419C23.8055 213.649 15.7309 214.255 15.5291 212.64C15.3676 211.348 17.7944 211.294 19.028 211.429C11.8282 205.036 8.80018 201.066 8.12729 198.106Z" fill="#FDDEBF"/>
<path d="M31.4407 182.044L31.024 177.922L26.1858 176.376L26.0878 182.044L25.2441 182.328V183.513L26.997 185.313L30.3607 186.118L34.1034 185.692L35.4299 183.844L34.9562 182.328C34.2361 182.252 32.2461 182.107 31.4407 182.044Z" fill="#FDDEBF"/>
<path fill-rule="evenodd" clip-rule="evenodd" d="M32.7205 175.477C32.6929 177.139 32.3135 178.719 31.142 179.123C29.0733 179.836 27.311 179.599 26.6047 177.731C25.6404 176.09 25.3053 173.116 25.9538 171.717C26.5087 170.52 27.7556 169.996 28.6887 169.811C29.1415 169.538 29.6304 169.445 30.1303 169.589C32.322 170.223 32.7584 173.195 32.7205 175.477Z" fill="#FDDEBF"/>
<path d="M39.6179 178.799L42.007 176.338C42.2632 176.075 42.2562 175.653 41.9914 175.397L37.3032 170.88C37.0404 170.626 36.6225 170.633 36.3674 170.894L33.9113 173.406C33.6512 173.672 33.6603 174.1 33.9315 174.354L38.6866 178.82C38.9509 179.069 39.3653 179.059 39.6179 178.799Z" fill="#ACB4FF"/>
<path d="M26.7919 175.632C26.7919 176.04 26.338 176.861 26.111 177.22C25.0896 176.313 23.8267 174.02 24.0991 172.113C24.4396 169.73 25.2599 169.503 27.0757 169.333C28.8915 169.163 29.7384 167.616 31.4407 167.956C33.143 168.296 33.1829 170.386 32.275 171.237C31.3671 172.089 27.7477 170.748 26.7919 172.113C25.9975 173.248 26.792 175.121 26.7919 175.632Z" fill="#10243D"/>
<path d="M36.4857 171.641L34.6623 173.515C34.4265 173.758 34.4365 174.147 34.6843 174.377L38.61 178.02L41.2334 175.337L37.3325 171.624C37.0934 171.397 36.7158 171.404 36.4857 171.641Z" fill="white" fill-opacity="0.36"/>
<circle cx="26.5871" cy="175.306" r="0.798043" fill="#FDDEBF"/>
<path d="M59.21 190.601C59.5596 194.823 49.4532 194.685 44.4532 193.476L43.7737 191.291L41.5655 188.42L42.1858 184.53L46.6246 186.007C45.3539 184.831 42.7954 181.935 42.4216 181.618C41.7666 181.064 39.8772 180.51 38.8444 180.46C37.8115 180.409 37.1817 179.15 36.955 178.646C36.7282 178.142 35.6618 177.792 35.3848 176.96C35.2151 176.451 35.3988 176.069 35.6676 175.951L38.6662 178.798C38.9308 179.049 39.3484 179.04 39.6016 178.777L41.9351 176.357C42.1995 176.083 42.1796 175.643 41.8917 175.394L41.3394 174.916C41.0413 174.877 40.4675 174.924 40.1046 174.809C39.2252 174.532 39.7382 173.95 40.1046 173.694C39.6009 173.648 39.1442 173.515 39.1442 173.204C39.1442 172.553 40.8562 172.26 42.6619 172.561C44.4677 172.862 44.2919 175.24 44.7403 176.177C45.1887 177.115 58.6394 183.713 59.21 190.601Z" fill="#FDDEBF"/>
<path d="M33.4156 182.138C31.3351 186.366 27.4639 183.899 25.3666 182.138C18.0012 183.48 14.4256 187.672 12.7686 189.965C17.6133 192.373 18.4148 195.785 18.2191 197.77L20.1653 196.651L18.8862 206.215C22.158 206.299 26.7454 210.302 33.3364 207.473C36.6328 206.058 41.7068 205.838 43.3007 205.866C43.5692 202.309 41.5019 195.505 40.8867 192.373C41.8934 192.708 42.9955 193.125 44.6174 193.516C44.6174 190.77 44.3541 187.309 43.3007 184.864C40.7504 183.723 35.642 182.138 33.4156 182.138Z" fill="#FF4E9C"/>
<path d="M24.0737 207.394C23.0995 206.176 20.2121 202.755 19.5208 202.057L18.5315 202.229C18.5315 203.085 17.7852 205.897 17.7852 206.049C17.7852 206.201 19.7949 207.032 20.6764 207.394C23.2487 210.621 25.0478 208.611 24.0737 207.394Z" fill="#FDDEBF"/>
<path d="M38.2541 170.663C38.7082 170.872 40.1554 172.343 40.8562 173.098L40.0949 173.547C39.7762 173.318 38.9969 172.572 38.254 171.856C37.3944 171.027 37.6864 170.402 38.2541 170.663Z" fill="#FDDEBF"/>
<circle cx="0.205305" cy="0.205305" r="0.205305" transform="matrix(-0.990832 -0.135098 -0.135098 0.990832 31.7207 173.97)" fill="#11243E"/>
<circle cx="0.205305" cy="0.205305" r="0.205305" transform="matrix(-0.990832 -0.135098 -0.135098 0.990832 30.0195 174.12)" fill="#11243E"/>
<path d="M28.335 178.806C29.3182 179.452 30.6224 179.302 31.1516 179.147L31.2593 180.143C29.6016 179.655 28.619 179.048 28.335 178.806Z" fill="#EBB47E"/>
<path d="M29.1184 175.796C29.5446 175.559 29.4121 174.606 28.6073 174.611C27.6894 174.617 27.8363 176.047 28.7445 175.914C28.8872 175.893 29.0174 175.853 29.1184 175.796Z" fill="#FEB7A1"/>
<path d="M32.9016 175.47C33.3279 175.233 33.1953 174.279 32.3905 174.284C31.4727 174.29 31.6195 175.72 32.5277 175.587C32.6704 175.566 32.8006 175.526 32.9016 175.47Z" fill="#FEB7A1"/>
<path d="M16.6317 210.946C16.2971 211.67 16.7711 211.837 17.05 211.831L20.4105 211.609L19.3926 210.182C18.6117 210.135 16.9663 210.222 16.6317 210.946Z" fill="#FDDEBF"/>
<path d="M41.5166 173.569C40.8874 173.569 39.4752 173.787 39.148 173.364C38.7391 172.836 40.3408 172.325 42.4537 172.563C42.8203 172.605 43.1118 172.701 43.3418 172.832" stroke="#F0C291" stroke-width="0.531382" stroke-linecap="round"/>
<path d="M39.8947 172.061C39.4205 171.605 38.3895 170.675 38.0595 170.595C37.647 170.496 37.4905 170.908 37.8177 171.363C38.0794 171.728 38.9226 172.549 39.3115 172.914" stroke="#F0C291" stroke-width="0.531382" stroke-linecap="round"/>
<path d="M39.9209 173.632C39.7313 173.693 39.4824 174.16 39.8353 174.551C40.0482 174.787 40.8638 174.864 41.7839 174.836" stroke="#F0C291" stroke-width="0.531382" stroke-linecap="round"/>
<path d="M35.6665 176.012C35.4166 176.159 35.1598 176.531 35.5748 177.115C36.0937 177.845 36.5946 177.751 37.2865 179.058C37.8399 180.104 38.6965 180.522 39.0488 180.528" stroke="#F0C291" stroke-width="0.531382" stroke-linecap="round"/>
<path d="M14.5947 197.419C15.4536 198.171 17.4877 199.99 18.7526 201.255" stroke="#F0C291" stroke-width="0.531382" stroke-linecap="round"/>
<path d="M44.6504 183.912L48.4871 187.947" stroke="#F0C291" stroke-width="0.531382" stroke-linecap="round"/>
<mask id="mask3_560_2658" style="mask-type:alpha" maskUnits="userSpaceOnUse" x="7" y="201" width="36" height="58">
<path d="M42.8256 258.063L41.7304 205.648L20.9602 201.55L19.1234 204.941L20.1124 209.887L7.61426 258.063H19.1234L29.5188 225.447V258.063H42.8256Z" fill="#444CAE"/>
</mask>
<g mask="url(#mask3_560_2658)">
<path d="M29.487 223.419V225.461L28.1168 231.573L20.8314 259.045H14.0771C19.1163 250.121 26.45 231.576 29.487 223.419Z" fill="#343C9D"/>
</g>
<circle cx="40.3762" cy="177.009" r="0.344958" fill="#CACFFF"/>
<path d="M399.584 182.611C399.438 187.197 396.726 187.798 395.681 188.147C398.42 188.292 399.578 192.187 399.584 193.737C399.584 190.509 401.905 188.218 403.352 188.147C400.946 187.748 399.523 184.598 399.584 182.611Z" fill="#ACB4FF"/>
<mask id="mask4_560_2658" style="mask-type:alpha" maskUnits="userSpaceOnUse" x="35" y="172" width="25" height="23">
<path d="M59.209 190.602C59.5587 194.823 49.4523 194.686 44.4523 193.476L43.7728 191.291L41.5645 188.42L42.1848 184.53L46.6236 186.008C45.3529 184.831 42.7944 181.935 42.4207 181.619C41.7657 181.064 39.8763 180.51 38.8434 180.46C37.8105 180.409 37.1807 179.15 36.954 178.646C36.7273 178.142 35.6609 177.792 35.3838 176.961C35.2141 176.451 35.3979 176.069 35.6666 175.952L38.6652 178.798C38.9298 179.049 39.3474 179.04 39.6007 178.778L41.9341 176.358C42.1985 176.083 42.1787 175.644 41.8907 175.394L41.3384 174.916C41.0403 174.877 40.4666 174.924 40.1036 174.81C39.2242 174.532 39.7372 173.95 40.1036 173.694C39.5999 173.648 39.1432 173.515 39.1432 173.204C39.1432 172.553 40.8552 172.26 42.661 172.561C44.4667 172.862 44.291 175.24 44.7393 176.177C45.1877 177.115 58.6384 183.713 59.209 190.602Z" fill="#FDDEBF"/>
</mask>
<g mask="url(#mask4_560_2658)">
<path d="M58.168 191.021C56.4127 193.826 48.4018 193.079 44.6158 192.355L43.54 193.753L52.747 197.819L61.5883 192.957L58.5766 182.739L54.1883 182.416C56.2462 184.116 59.9233 188.216 58.168 191.021Z" fill="#F0C291" fill-opacity="0.36"/>
</g>
<path d="M21.4134 193.4C21.0946 193.917 18.9391 195.676 18.1789 196.263C18.2703 196.871 18.2109 197.534 18.168 197.798L21.1557 196.195L21.4134 193.4Z" fill="#E42B7D"/>
<path d="M40.0898 190.079C41.1833 191.278 43.5423 192.068 44.5851 192.314C44.6246 192.684 44.6311 193.267 44.6147 193.516C43.2477 193.179 41.5609 192.634 40.8862 192.372C40.6339 191.678 40.2389 190.535 40.0898 190.079Z" fill="#E42B7D"/>
<path d="M41.7464 206.505L41.7188 205.9C42.1985 205.856 42.9715 205.859 43.298 205.867C42.9415 206.285 42.1151 206.467 41.7464 206.505Z" fill="#E42B7D"/>
<path d="M26.5255 209.269C28.5941 209.355 33.7321 209.245 37.7357 208.119" stroke="#7179DE" stroke-width="0.962043" stroke-linecap="round"/>
<path d="M32.5616 209.24L32.7272 212.22C32.8089 213.689 32.063 214.839 30.6197 215.125V215.125" stroke="#7179DE" stroke-width="0.962043" stroke-linecap="round"/>
<path d="M15.4541 198.105L18.1843 196.265C18.2902 196.573 18.2284 197.419 18.1843 197.804L16.4404 198.887L15.4541 198.105Z" fill="#F0C291" fill-opacity="0.35"/>
<ellipse cx="362.943" cy="279.862" rx="15.2282" ry="3.13821" fill="#C7CBF6"/>
<path d="M346.24 237.805C341.448 226.991 335.46 220.834 333.615 220.01C338.513 214.84 346.947 217.19 352.213 220.96C356.425 223.976 360.643 242.426 362.503 251.379C355.733 248.579 350.5 247.42 346.24 237.805Z" fill="#9FE9C0"/>
<path d="M407.235 220.644C404.07 221.361 394.487 219.871 390.091 219.036L390.108 216.851L393.716 214.684C396.058 214.364 400.788 213.709 400.964 213.64C401.14 213.571 405.032 215.484 406.956 216.449C408.368 217.548 410.4 219.927 407.235 220.644Z" fill="#9FE9C0"/>
<path d="M390.908 208.959C376.533 208.64 369.205 226.711 367.338 235.786C384.136 232.231 383.325 222.234 393.481 217.461C401.606 213.643 407.118 216.573 408.858 218.516C406.083 213.901 400.602 209.174 390.908 208.959Z" fill="#43EB8F"/>
<path d="M357.123 216.191C341.82 205.2 313.371 184.612 327.592 169.421C345.368 150.433 357.222 202.841 357.123 216.191Z" fill="#43EB8F"/>
<path d="M365.285 221.158C363.875 207.621 367.418 172.57 381.222 180.706C395.932 189.374 376.631 212.15 365.285 221.158Z" fill="#43EB8F"/>
<path d="M375.429 192.975C372.231 198.998 365.526 214.464 364.285 228.138C363.428 237.58 363.43 247.16 363.658 253.921" stroke="#4C86CE" stroke-width="2.60652" stroke-linecap="round"/>
<path d="M389.167 211.544C383.908 212.069 372.408 219.377 366.34 239.907C364.851 244.948 364.541 248.906 364.402 253.851" stroke="#4C86CE" stroke-width="2.60652" stroke-linecap="round"/>
<path d="M339.097 188.035C346.281 193.988 358.989 212.455 360.341 231.915C360.818 238.779 361.597 247.482 362.493 253.938" stroke="#4C86CE" stroke-width="2.60652" stroke-linecap="round"/>
<path d="M336.903 218.588C337.337 218.678 345.832 219.782 351.107 233.965C354.604 243.365 358.972 248.694 361.629 250.978" stroke="#4C86CE" stroke-width="2.60652" stroke-linecap="round"/>
<path d="M304.981 222.27C306.363 209.674 332.344 206.715 345.894 214.55C348.936 216.309 351.53 219.188 353.715 222.629C341.184 212.653 330.386 222.805 323.466 228.771C316.546 234.736 303.599 234.865 304.981 222.27Z" fill="#43EB8F"/>
<path d="M379.249 253.165H346.22L349.655 278.003H376.606L379.249 253.165Z" fill="#ACB4FF"/>
<ellipse cx="363.125" cy="278.003" rx="13.5074" ry="2.90265" fill="#ACB4FF"/>
<rect x="342.789" y="246.907" width="40.468" height="6.25792" rx="3.12896" fill="#505ACC"/>
<path d="M26.1084 174.983C26.2677 175.011 26.646 175.13 26.8844 175.385" stroke="#EBB47E" stroke-width="0.240511" stroke-linecap="round"/>
<path d="M26.4441 175.136C26.3899 175.188 26.2711 175.349 26.2295 175.577" stroke="#EBB47E" stroke-width="0.240511" stroke-linecap="round"/>
<path d="M326.202 170.705C329.974 165.81 339.539 160.008 347.622 175.958" stroke="white" stroke-width="2.40511" stroke-linecap="round"/>
<circle cx="324.477" cy="173.307" r="0.876237" fill="white"/>
<path d="M30.1929 163.283C27.606 153.273 20.8292 130.375 8.93515 140.001C1.35896 146.133 34.911 172.315 61.7067 116.368" stroke="#588DED" stroke-width="2.04434" stroke-linecap="round" stroke-dasharray="4.81 4.81"/>
<path d="M373.425 262.406L372.597 272.264" stroke="white" stroke-opacity="0.22" stroke-width="4.81021" stroke-linecap="round"/>
<path d="M381.489 184.19C382.755 185.979 384.658 190.971 382.144 196.626" stroke="white" stroke-opacity="0.22" stroke-width="4.81021" stroke-linecap="round"/>
<path d="M320.985 214.554C322.466 213.729 325.455 213.109 329.068 213.559" stroke="white" stroke-opacity="0.22" stroke-width="4.81021" stroke-linecap="round"/>
<path d="M20.577 203.278L21.3257 194.235L20.2702 195.916L19.4482 202.014C19.7525 202.25 20.3275 202.955 20.577 203.278Z" fill="#E42B7D"/>
</svg>
