<svg width="380" height="261" viewBox="0 0 380 261" fill="none" xmlns="http://www.w3.org/2000/svg">
<path d="M23.7037 74.6971C7.54801 70.9105 4.56088 83.2167 5.08676 89.8431L10.7665 122.975C9.92504 139.278 8.24216 172.262 8.24216 173.777C8.24216 175.67 10.4509 200.598 10.7665 203.753C11.0189 206.278 17.6032 215.323 20.8638 219.53C27.8057 182.191 41.7526 107.072 42.005 105.305C42.3206 103.096 43.8983 79.4302 23.7037 74.6971Z" fill="#D3D6FB"/>
<path d="M67.9676 67.2053C6.38351 137.433 59.122 181.899 103.793 200.129C113.848 204.233 123.326 209.665 132.155 215.987C162.389 237.635 220.166 262.068 284.034 238.083C377.257 203.074 382.484 148.893 351.991 103.881C321.498 58.8697 262.254 89.711 234.374 42.1988C206.494 -5.31342 154.22 -31.1534 67.9676 67.2053Z" fill="#E2E5FF"/>
<path d="M146.686 168.41H376.796" stroke="#43EA8E" stroke-width="6.28641" stroke-linecap="round"/>
<path d="M195.189 190.751L168.211 249.852" stroke="#43EA8E" stroke-width="6.28641" stroke-linecap="round"/>
<path d="M330.918 190.751L359.373 253.514" stroke="#43EA8E" stroke-width="6.28641" stroke-linecap="round"/>
<path d="M67.2831 222.211H17.941C9.72911 222.211 3.8029 213.227 5.59298 205.213C9.52191 187.622 11.4864 162.346 11.4864 133.987C11.4864 118.764 7.6006 102.389 9.50795 86.3908" stroke="#D3D6FB" stroke-width="4.71481" stroke-linecap="round"/>
<path d="M70.6325 260.882L91.0493 221.177L123.465 215.66L138.638 225.316L120.27 260.882H70.6325Z" fill="#6C76DC"/>
<path d="M23.7626 215.419C12.7561 198.848 19.3567 178.521 23.7626 167.506L73.3276 174.115C90.1246 173.84 130.327 174.941 156.762 181.55C172.312 185.437 191.61 226.187 209.784 260.882H143.601L125.963 226.652C112.718 226.652 34.769 231.99 23.7626 215.419Z" fill="#8891F2"/>
<path d="M138.422 167.116C132.657 166.748 121.813 163.283 117.111 161.596L120.484 158.224C125.033 159.655 134.988 162.67 138.422 163.283C142.714 164.05 145.628 167.576 138.422 167.116Z" fill="#FDDEBF"/>
<path d="M36.9922 73.3338L46.1099 50.0509L64.5084 67.1468L59.7867 88.1504C54.9673 80.9864 42.5823 75.2877 36.9922 73.3338Z" fill="#FDDEBF"/>
<path d="M74.0896 71.5155C81.1286 67.2507 83.7679 49.5223 84.7803 41.511C85.1972 38.2121 82.0804 31.2459 80.4221 29.3703C70.5795 18.2383 60.1659 26.5701 54.3636 29.3704C49.7217 31.6107 46.4954 45.9101 45.1004 52.4554L52.9464 67.2038C57.0612 70.4181 67.0506 75.7804 74.0896 71.5155Z" fill="#FDDEBF"/>
<path d="M37.8203 70.8527C16.7896 86.4403 19.2637 144.564 22.975 170.44L72.7685 181.265C74.6242 166.316 77.2221 130.852 72.7685 108.584C68.3149 86.3165 47.614 74.1517 37.8203 70.8527Z" fill="#505ACD"/>
<path d="M61.7529 139.672C51.5221 128.791 34.4838 125.259 27.2436 124.853C24.2812 149.343 22.716 194.777 40.4082 196.03C60.3325 197.442 99.0364 172.803 117.325 162.335C128.145 164.158 149.714 166.71 149.432 162.335C149.079 156.867 132.137 149.373 123.951 147.14C117.402 145.354 78.8094 154.95 60.3318 159.972L61.7529 139.672Z" fill="#FDDEBF"/>
<path d="M88.7676 28.7868C88.864 39.7789 69.3978 45.7465 60.7599 45.9073L59.444 47.1553C58.6118 53.8123 55.5052 69.2622 49.7358 77.8055C42.5239 88.4845 24.6333 89.594 20.1952 78.915C15.7572 68.2359 19.6303 59.7101 34.0936 49.1036C48.5569 38.4972 40.9636 33.6761 48.1953 25.1186C53.9806 18.2726 64.8628 19.5465 69.001 21.6758C75.5496 19.4661 88.6711 17.7948 88.7676 28.7868Z" fill="#10243D"/>
<path d="M55.6172 68.031C58.8014 70.6183 62.0124 72.0589 63.3184 72.4734L62.8314 74.9342C60.0452 73.3919 56.861 69.6894 55.6172 68.031Z" fill="#E4A566"/>
<path d="M72.6186 21.7745C70.677 19.9716 64.6355 16.438 54.7812 21.7744" stroke="#10243D" stroke-width="0.785801"/>
<path d="M58.7482 50.4256C59.2269 59.0432 56.9926 77.8743 44.2258 84.2578C31.459 90.6413 23.4797 82.8748 21.0859 78.1936" stroke="#10243D" stroke-width="0.785801"/>
<circle cx="60.1753" cy="48.0988" r="3.83743" fill="#FDDEBF"/>
<path d="M161.084 162.82H207.355L235.067 119.43" stroke="#10243D" stroke-width="3.28723" stroke-linecap="round"/>
<mask id="mask0_560_3156" style="mask-type:alpha" maskUnits="userSpaceOnUse" x="17" y="167" width="192" height="95">
<path d="M23.7645 215.535C12.7581 198.924 19.3587 178.548 23.7645 167.506L73.3295 174.131C90.1266 173.855 130.329 174.959 156.764 181.584C172.314 185.481 190.599 225.28 208.773 260.06L143.634 261L125.965 226.796C112.72 226.796 34.771 232.147 23.7645 215.535Z" fill="#8891F2"/>
</mask>
<g mask="url(#mask0_560_3156)">
<path d="M131.455 218.708L159.545 269.879H144.303L122.092 232.426L33.031 241.136L14.3043 224.587C12.1993 213.917 8.72983 192.055 19.5304 206.513C30.3309 220.972 100.026 221.683 131.455 218.708Z" fill="#7C85E7"/>
</g>
<mask id="mask1_560_3156" style="mask-type:alpha" maskUnits="userSpaceOnUse" x="25" y="124" width="125" height="73">
<path d="M61.7529 139.672C51.5221 128.791 34.4838 125.259 27.2436 124.853C24.2812 149.343 22.716 194.777 40.4082 196.03C60.3325 197.442 99.0364 172.803 117.325 162.335C128.145 164.158 149.714 166.71 149.432 162.335C149.079 156.867 132.137 149.373 123.951 147.14C117.402 145.354 78.8094 154.95 60.3318 159.971L61.7529 139.672Z" fill="#FDDEBF"/>
</mask>
<g mask="url(#mask1_560_3156)">
<path d="M45.1755 189.073C32.873 184.316 31.301 143.076 32.0529 123.05L21.1857 117.309C18.1101 133.507 11.9178 166.396 11.7538 168.364C11.5898 170.333 22.3476 192.423 27.747 203.221C34.6501 203.085 48.9482 202.606 50.9166 201.786C52.885 200.966 77.4353 190.646 89.4643 185.588L101.972 172.465C88.1657 179.983 57.4779 193.831 45.1755 189.073Z" fill="#E4A566" fill-opacity="0.24"/>
</g>
<rect x="140.457" y="92.1997" width="59.7245" height="31.0839" rx="7.88017" fill="#A1A9FF"/>
<path d="M189.119 132.777C184.071 127.456 180.883 120.568 179.92 117.789C176.437 115.12 169.866 111.185 171.442 116.794C173.018 122.403 183.883 129.786 189.119 132.777Z" fill="#A1A9FF"/>
<rect x="111.664" y="33.2078" width="77.8493" height="40.517" rx="10.2716" fill="#A1A9FF"/>
<path d="M123.934 84.685C130.741 78.1249 135.537 69.0886 137.084 65.3905C141.639 62.2552 150.08 57.8657 147.398 65.3905C144.716 72.9153 130.638 81.3888 123.934 84.685Z" fill="#A1A9FF"/>
<circle cx="135.921" cy="53.4654" r="4.16874" fill="white"/>
<circle cx="150.587" cy="53.4654" r="4.16874" fill="white"/>
<circle cx="165.251" cy="53.4654" r="4.16874" fill="white"/>
<path d="M159.332 101.576H179.511" stroke="white" stroke-width="1.64362" stroke-linecap="round"/>
<path d="M159.332 107.742H179.511" stroke="white" stroke-width="1.64362" stroke-linecap="round"/>
<path d="M159.332 113.585H179.511" stroke="white" stroke-width="1.64362" stroke-linecap="round"/>
<path d="M333.259 118.145C331.424 104.69 323.064 99.7882 314.758 98.7036C305.86 97.5416 297.405 103.161 296.112 112.041C293.496 130.004 336.921 145.003 333.259 118.145Z" fill="#F6F7FE" fill-opacity="0.54"/>
</svg>
