<svg width="377" height="322" viewBox="0 0 377 322" fill="none" xmlns="http://www.w3.org/2000/svg">
<path d="M332.55 80.7724C280.617 38.5563 208.271 123.702 206.21 125.763C215.314 138.646 276.173 164.565 285.655 209.089C297.507 264.744 359.862 263.198 372.745 220.941C385.628 178.684 319.666 164.771 307.814 150.342C304.207 145.951 305.573 142.364 309.479 139.216C325.32 126.453 346.045 114.116 341.007 94.4076C339.674 89.1906 337.05 84.4304 332.55 80.7724Z" fill="#FFD35A"/>
<ellipse cx="35.6784" cy="222.723" rx="15.7531" ry="14.4698" fill="#FFD35A"/>
<path d="M132.471 212.594C199.229 217.349 209.589 106.1 210.093 103.229C195.243 97.9061 130.532 111.62 97.2089 80.6061C55.5546 41.8387 5.38525 78.8995 19.094 120.896C32.8028 162.892 94.8006 136.419 112.789 141.43C118.262 142.955 119.203 146.676 117.812 151.496C112.168 171.039 102.28 193.039 117.719 206.284C121.805 209.791 126.687 212.182 132.471 212.594Z" fill="#FFD35A"/>
<ellipse cx="199.382" cy="307.287" rx="132.24" ry="14.2908" fill="#6D76E7" fill-opacity="0.38"/>
<path d="M102.779 63.1042L96.7881 64.1818L99.0706 71.2988L223.276 113.4L236.065 76.3283L102.779 63.1042Z" fill="#7E88FE"/>
<path d="M183.208 232.227C181.764 240.561 179.713 249.171 179.955 257.699C180.122 263.587 182.463 269.479 185.044 274.69C190.122 284.945 198.307 294.518 208.847 299.411C218.749 304.008 229.727 305.498 240.396 303.318C246.296 302.113 251.705 300.014 257.289 297.798" stroke="#588DED" stroke-width="2.21466" stroke-linecap="round" stroke-dasharray="6.64 6.64"/>
<path d="M271.88 190.923L271.555 192.041C274.042 192.284 275.179 192.061 275.436 191.919C275.436 191.22 273.065 190.963 271.88 190.923Z" fill="#11243E"/>
<path d="M363.618 168.428C316.737 180.738 304.173 207.012 303.986 219.561C279.123 239.598 242.46 273.362 294.709 248.126C336.687 227.85 360.677 197.806 371.422 177.945C374.355 172.523 369.58 166.863 363.618 168.428Z" fill="#4ED98D"/>
<mask id="mask0_464_1718" style="mask-type:alpha" maskUnits="userSpaceOnUse" x="268" y="168" width="105" height="90">
<path d="M363.618 168.428C316.737 180.738 304.173 207.012 303.986 219.561C279.123 239.598 242.46 273.362 294.709 248.125C336.687 227.85 360.677 197.806 371.422 177.944C374.355 172.523 369.58 166.862 363.618 168.428Z" fill="#4ED98D"/>
</mask>
<g mask="url(#mask0_464_1718)">
<path d="M306.288 230.426C337.624 212.068 362.735 188.619 371.373 179.189L373.945 188.289L328.049 251.198C307.739 251.923 274.953 248.784 306.288 230.426Z" fill="#1F35A8" fill-opacity="0.12"/>
</g>
<mask id="mask1_464_1718" style="mask-type:alpha" maskUnits="userSpaceOnUse" x="268" y="168" width="105" height="90">
<path d="M363.618 168.428C316.737 180.738 304.173 207.012 303.986 219.561C279.123 239.598 242.46 273.362 294.709 248.125C336.687 227.85 360.677 197.806 371.422 177.944C374.355 172.523 369.58 166.862 363.618 168.428Z" fill="#4ED98D"/>
</mask>
<g mask="url(#mask1_464_1718)">
<path d="M377.48 165.223L305.634 219.717" stroke="#DCFFEC" stroke-width="1.84555"/>
<path d="M320.15 209.667C320.885 209.667 340.104 212.404 347.143 213.234" stroke="#DCFFEC" stroke-width="1.84555"/>
<circle cx="325.911" cy="218.137" r="2.65038" stroke="#DCFFEC" stroke-width="1.84555"/>
<path d="M352.978 184.039L368.985 184.954" stroke="#DCFFEC" stroke-width="1.84555"/>
<path d="M347.554 188.137L366.067 189.569" stroke="#DCFFEC" stroke-width="1.84555"/>
<path d="M344.538 190.388L346.041 172.721" stroke="#DCFFEC" stroke-width="1.84555"/>
<path d="M330.729 200.793C331.463 200.793 345.724 202.455 352.762 203.285" stroke="#DCFFEC" stroke-width="1.84555"/>
</g>
<path d="M352.832 112.244C300.415 145.127 295.48 181.711 300.135 196.807C278.412 230.076 247.998 284.128 300.135 234.178C343.086 193.03 359.706 146.994 364.315 119.564C365.429 112.932 358.529 108.67 352.832 112.244Z" fill="#43EB8F"/>
<path d="M28.8775 133.441L19.8691 135.898L34.4644 148.206L187.031 173.867L189.364 161.737L86.0507 150.593L79.7464 138.316L28.8775 133.441Z" fill="#ED1E79"/>
<path d="M43.3181 214.805L97.4305 65.175L231.029 78.6342L173.666 238.166L43.3181 214.805Z" fill="#C8BEFF" stroke="#7E88FE" stroke-width="1.84555"/>
<mask id="mask2_464_1718" style="mask-type:alpha" maskUnits="userSpaceOnUse" x="42" y="64" width="191" height="176">
<path d="M43.3185 214.805L97.431 65.1753L231.03 78.6344L173.666 238.166L43.3185 214.805Z" fill="#C8BEFF" stroke="#7E88FE" stroke-width="1.84555"/>
</mask>
<g mask="url(#mask2_464_1718)">
<path d="M182.058 85.3547L92.6021 76.9893L115.782 155.648L166.356 166.603L182.058 85.3547Z" fill="#7E88FE" fill-opacity="0.23"/>
</g>
<path d="M50.6161 75.7192L45.9297 76.4583V139.992L163.412 165.966L164.321 86.3371L50.6161 75.7192Z" fill="#7E88FE"/>
<path d="M160.321 238.289H46.8525V77.5187L161.805 87.9612L160.321 238.289Z" fill="white" stroke="#7E88FE" stroke-width="1.84555"/>
<mask id="mask3_464_1718" style="mask-type:alpha" maskUnits="userSpaceOnUse" x="44" y="76" width="118" height="164">
<path d="M159.283 238.379H45.8149V77.609L160.768 88.0516L159.283 238.379Z" fill="white" stroke="#7E88FE" stroke-width="1.84555"/>
</mask>
<g mask="url(#mask3_464_1718)">
<path d="M145.348 158.084C122.432 156.419 88.6761 152.313 74.57 150.278L71.1855 158.497L168.851 179.046L162.594 115.881C160.096 112.174 162.045 104.14 160.498 120.772C159.49 131.605 157.863 141.937 156.514 149.426C155.553 154.761 150.755 158.477 145.348 158.084Z" fill="#C7CBF6" fill-opacity="0.37"/>
</g>
<path d="M174.979 257.196L186.864 226.354L194.839 167.599L80.6001 154.223L78.7706 150.386C76.1084 144.802 70.7265 141.011 64.5722 140.384L19.9224 135.839L43.2179 236.777C44.5817 242.686 49.4203 247.161 55.4181 248.058L163.007 264.165C168.138 264.934 173.114 262.037 174.979 257.196Z" fill="#FF4F9C"/>
<mask id="mask4_464_1718" style="mask-type:alpha" maskUnits="userSpaceOnUse" x="271" y="107" width="95" height="148">
<path d="M360.315 107.764C300.886 141.741 295.267 181.022 300.135 196.807C278.412 230.077 247.998 284.128 300.135 234.178C347.989 188.332 363.158 136.42 365.445 110.932C365.695 108.142 362.748 106.373 360.315 107.764Z" fill="#3EF993"/>
</mask>
<g mask="url(#mask4_464_1718)">
<path d="M361.956 110.33L301.907 198.117" stroke="#D3FFE7" stroke-width="1.9932"/>
<path d="M342.57 138.466L340.36 119.477" stroke="#D3FFE7" stroke-width="1.9932"/>
<path d="M339.904 142.391L337.28 121.747" stroke="#D3FFE7" stroke-width="1.9932"/>
<path d="M326.827 161.719L354.707 157.169" stroke="#D3FFE7" stroke-width="1.9932"/>
<path d="M310.68 185.199L343.846 180.189" stroke="#D3FFE7" stroke-width="1.9932"/>
<circle cx="333.671" cy="171.843" r="3.03309" stroke="#D3FFE7" stroke-width="1.9932"/>
<circle cx="348.223" cy="121.4" r="2.03236" stroke="#D3FFE7" stroke-width="1.9932"/>
</g>
<mask id="mask5_464_1718" style="mask-type:alpha" maskUnits="userSpaceOnUse" x="19" y="135" width="176" height="130">
<path d="M174.979 257.196L186.864 226.354L194.839 167.599L80.5996 154.223L78.7701 150.386C76.1079 144.802 70.726 141.011 64.5717 140.384L19.9219 135.839L43.2174 236.777C44.5812 242.686 49.4198 247.161 55.4176 248.058L163.007 264.165C168.137 264.934 173.113 262.037 174.979 257.196Z" fill="#FF4F9C"/>
</mask>
<g mask="url(#mask5_464_1718)">
<path d="M134.407 249.679C91.0889 247.016 46.9668 239.919 37.9624 234.316V248.034L172.143 274.185L198.507 166.369L176.215 160.153C171.176 186.386 156.807 221.554 147.557 241.825C145.229 246.926 140.003 250.023 134.407 249.679Z" fill="#ED1E79"/>
</g>
<path d="M161.705 170.138C161.373 178.803 169.038 191.451 172.913 196.692C177.756 193.664 185.864 184.813 179.554 173.632C171.667 159.656 162.12 159.307 161.705 170.138Z" fill="#FDDEBF"/>
<path d="M177.113 146.756C175.158 156.286 183.536 171.949 187.97 178.589C195.167 176.275 207.872 168.21 201.109 154.465C192.655 137.283 179.558 134.844 177.113 146.756Z" fill="#FDDEBF"/>
<path d="M246.054 307.106C227.511 293.086 200.679 260.084 183.342 245.009L189.491 212.864C223.976 186.859 294.982 138.015 303.123 150.678C313.299 166.507 300.296 207.211 308.211 228.694C314.542 245.88 319.472 251.802 322.487 260.281C309.15 299.036 264.766 309.379 246.054 307.106Z" fill="#FDDEBF"/>
<mask id="mask6_464_1718" style="mask-type:alpha" maskUnits="userSpaceOnUse" x="161" y="162" width="21" height="35">
<path d="M161.706 170.138C161.374 178.803 169.04 191.451 172.914 196.692C177.757 193.664 185.865 184.813 179.556 173.632C171.669 159.656 162.121 159.307 161.706 170.138Z" fill="#FDDEBF"/>
</mask>
<g mask="url(#mask6_464_1718)">
<path d="M178.536 188.398C170.158 187.636 164.361 170.521 162.51 162.058L155.846 160.63L153.466 188.398L177.267 196.014C181.18 193.792 186.914 189.159 178.536 188.398Z" fill="#F8D3AC"/>
</g>
<mask id="mask7_464_1718" style="mask-type:alpha" maskUnits="userSpaceOnUse" x="176" y="139" width="28" height="40">
<path d="M177.114 146.756C175.159 156.286 183.537 171.948 187.971 178.588C195.168 176.274 207.873 168.21 201.11 154.465C192.656 137.283 179.559 134.844 177.114 146.756Z" fill="#FDDEBF"/>
</mask>
<g mask="url(#mask7_464_1718)">
<path d="M194.182 167.216C185.805 166.454 180.008 149.339 178.157 140.876L171.492 139.448L169.112 167.216L192.913 174.832C196.827 172.61 202.56 167.977 194.182 167.216Z" fill="#F8D3AC"/>
</g>
<path d="M190.229 119.198C188.274 128.728 196.652 144.391 201.085 151.031C208.283 148.717 220.988 140.652 214.225 126.907C205.771 109.726 192.673 107.286 190.229 119.198Z" fill="#FDDEBF"/>
<path d="M181.94 148.274C182.615 154.025 190.43 152.843 194.04 151.157L196.397 141.236L194.77 136.696L185.012 138.288C183.764 139.711 181.404 143.699 181.94 148.274Z" fill="#11243E"/>
<mask id="mask8_464_1718" style="mask-type:alpha" maskUnits="userSpaceOnUse" x="183" y="148" width="140" height="160">
<path d="M246.054 307.106C227.512 293.086 200.68 260.084 183.343 245.009L189.492 212.864C223.977 186.859 294.982 138.014 303.123 150.678C313.299 166.507 300.296 207.211 308.211 228.693C314.543 245.879 319.472 251.801 322.487 260.281C309.151 299.035 264.767 309.379 246.054 307.106Z" fill="#FDDEBF"/>
</mask>
<g mask="url(#mask8_464_1718)">
<path d="M272.361 290.884C239.289 298.292 206.482 260.193 204.63 259.135L192.725 254.637L198.81 272.364L241.141 307.287L269.98 315.489L335.594 259.135L321.571 249.875C316.192 261.075 298.818 284.957 272.361 290.884Z" fill="#FBC996" fill-opacity="0.48"/>
</g>
<path d="M211.169 106.399C205.623 108.003 198.612 107.457 195.799 106.984L198.806 130.707C205.238 121.936 216.716 104.795 211.169 106.399Z" fill="#11243E"/>
<path d="M153.746 246.109C153.748 245.046 153.866 244.168 154.021 243.557L233.591 256.775L290.193 108.866C295.394 110.292 298.474 113.011 300.199 115.672C302.348 118.989 301.481 123.171 300.224 126.919L255.781 259.458C253.497 266.269 246.643 270.448 239.543 269.358L168.981 258.526C161.644 257.4 153.731 253.532 153.746 246.109Z" fill="#11243E"/>
<path d="M295.601 121.903L250.594 256.764C249.034 261.438 244.343 264.316 239.47 263.589L163.382 252.241C156.952 251.282 153.069 244.608 155.413 238.544L205.31 109.459C206.927 105.276 211.097 102.65 215.568 103L286.766 108.572C293.344 109.087 297.69 115.644 295.601 121.903Z" fill="#7E88FE"/>
<path d="M181.245 235.297L195.236 197.924C196.236 195.253 194.489 192.348 191.662 191.979L107.187 180.943C105.235 180.688 103.35 181.752 102.558 183.553L86.8964 219.187C85.7208 221.861 87.4115 224.922 90.3016 225.35L176.447 238.126C178.513 238.432 180.512 237.254 181.245 235.297Z" fill="#11243E"/>
<path d="M305.639 200.687C305.419 207.066 305.818 217.36 306.045 221.71L278.634 213.661C279.099 203.696 280.826 179.9 284.015 164.434C288.001 145.102 300.557 141.316 305.639 151.281C310.721 161.245 305.914 192.713 305.639 200.687Z" fill="#FDDEBF"/>
<path d="M298.945 151.145C297.843 153.601 295.79 159.402 296.394 162.954C296.945 166.186 301.75 165.413 306.22 163.332" stroke="#EB996C" stroke-width="2.21466" stroke-linecap="round"/>
<path d="M306.219 171.843C303.568 172.29 297.962 173.291 296.746 173.72" stroke="#EB996C" stroke-width="2.21466" stroke-linecap="round"/>
<path d="M306.539 175.988C303.887 176.435 298.281 177.436 297.065 177.865" stroke="#EB996C" stroke-width="2.21466" stroke-linecap="round"/>
<path d="M270.546 188.199C270.669 187.5 268.425 187.202 267.288 187.14C267.089 187.76 266.687 189.013 266.671 189.062C266.65 189.124 270.392 189.072 270.546 188.199Z" fill="#11243E"/>
<path d="M204.87 110.597L296.748 118.108C297.838 112.326 293.558 109.337 289.926 108.805L215.214 102.934C213.765 102.82 212.283 102.778 210.899 103.219C206.827 104.515 205.993 107.731 204.87 110.597Z" fill="#ACB3FE"/>
<path fill-rule="evenodd" clip-rule="evenodd" d="M254.204 246.712L250.778 256.981C249.218 261.654 244.527 264.532 239.654 263.806L163.566 252.457C157.136 251.498 153.253 244.824 155.597 238.76L157.406 234.079C157.469 234.001 157.53 233.924 157.59 233.849L254.204 246.712Z" fill="#ACB3FE"/>
<path d="M181.675 246.615L154.06 242.286L156.038 238.066L194.117 204.523L201.535 205.376L186.486 243.852C185.729 245.788 183.728 246.937 181.675 246.615Z" fill="#2760C1" fill-opacity="0.54"/>
<path d="M185.196 241.333L199.094 204.067C200.082 201.419 198.37 198.536 195.572 198.135L111.288 186.06C109.335 185.78 107.432 186.826 106.622 188.624L90.2945 224.838C89.0887 227.512 90.7689 230.599 93.6694 231.038L180.383 244.165C182.455 244.478 184.464 243.297 185.196 241.333Z" fill="#11243E"/>
<ellipse cx="200.85" cy="247.922" rx="6.65187" ry="6.88664" transform="rotate(20.3139 200.85 247.922)" fill="#757FF8"/>
<rect x="238.089" y="107.814" width="24.7086" height="1.67193" rx="0.835963" transform="rotate(4.55485 238.089 107.814)" fill="#11243E"/>
<path d="M201.559 112.827C199.384 111.504 194.084 110.459 190.284 116.866C187.879 120.921 188.547 126.812 189.974 131.781" stroke="#11243E" stroke-width="0.386617"/>
<path d="M179.102 233.247L192.63 197.509C193.643 194.834 191.892 191.915 189.055 191.548L106.917 180.936C104.974 180.685 103.097 181.74 102.302 183.53L87.1625 217.597C85.9717 220.276 87.6662 223.352 90.5674 223.778L174.316 236.062C176.375 236.363 178.365 235.193 179.102 233.247Z" fill="#43EB8F"/>
<path d="M181.304 239.453L195.33 203.786C196.385 201.103 194.635 198.142 191.775 197.773L109.711 187.17C107.768 186.919 105.891 187.974 105.096 189.764L89.9561 223.831C88.7654 226.51 90.4598 229.586 93.3608 230.012L176.539 242.215C178.576 242.513 180.55 241.369 181.304 239.453Z" fill="white"/>
<path d="M224.877 192.637H229.964H233.296L254.535 245.82L253.316 249.541C242.791 248.138 232.712 249.585 227.333 250.169C227.333 242.311 225.696 208.54 224.877 192.637Z" fill="#417ED2" fill-opacity="0.73"/>
<path d="M284.07 142.825L290.306 124.852C290.622 123.941 289.994 122.976 289.033 122.896L244.948 119.242C244.308 119.189 243.707 119.557 243.462 120.151L236.393 137.293C236.016 138.207 236.627 139.226 237.611 139.325L282.529 143.81C283.209 143.878 283.846 143.47 284.07 142.825Z" fill="white"/>
<path d="M281.126 151.034L282.432 147.421C282.759 146.516 282.147 145.545 281.19 145.45L236.182 140.963C235.554 140.901 234.956 141.244 234.693 141.818L233.123 145.251C232.702 146.17 233.308 147.23 234.314 147.334L279.586 152.001C280.261 152.07 280.896 151.672 281.126 151.034Z" fill="white"/>
<path d="M183.74 179.441L211.294 182.755C212 182.84 212.666 182.409 212.879 181.73L214.1 177.836C214.203 177.508 214.188 177.154 214.058 176.836L210.372 167.816C210.171 167.326 209.724 166.981 209.199 166.911L189.085 164.238C188.418 164.15 187.776 164.523 187.523 165.147L182.548 177.42C182.182 178.322 182.774 179.325 183.74 179.441Z" fill="white"/>
<path d="M250.61 203.928L252.764 209.639L249.208 213.797L245.1 213.196L244.248 205.181L250.61 203.928Z" fill="#FDDEBF"/>
<circle cx="250.605" cy="203.311" r="1.22265" fill="#FDDEBF"/>
<path d="M248.471 212.597C247.982 215.455 247.547 222.804 249.715 229.343" stroke="#11243E" stroke-width="0.221466"/>
<path d="M171.465 202.799L138.713 198.509" stroke="#CBC1FC" stroke-width="2.21466" stroke-linecap="round"/>
<path d="M179.934 208.926L137.077 203.07" stroke="#CBC1FC" stroke-width="2.21466" stroke-linecap="round"/>
<path d="M178.868 213.737L135.698 207.613" stroke="#CBC1FC" stroke-width="2.21466" stroke-linecap="round"/>
<path d="M131.559 107.461L50.918 99.1494" stroke="#C7CBF6" stroke-width="2.95288" stroke-linecap="round"/>
<path d="M131.559 114.15L50.918 105.838" stroke="#C7CBF6" stroke-width="2.95288" stroke-linecap="round"/>
<path d="M131.559 120.843L50.918 112.531" stroke="#C7CBF6" stroke-width="2.95288" stroke-linecap="round"/>
<path d="M131.559 127.745L50.918 119.433" stroke="#C7CBF6" stroke-width="2.95288" stroke-linecap="round"/>
<path d="M131.559 134.347L50.918 126.035" stroke="#C7CBF6" stroke-width="2.95288" stroke-linecap="round"/>
<mask id="mask9_464_1718" style="mask-type:alpha" maskUnits="userSpaceOnUse" x="88" y="163" width="115" height="80">
<path d="M180.854 239.383L202.432 184.705C203.471 182.073 201.808 179.155 199.014 178.706L107.71 164.037C105.443 163.673 103.274 165.101 102.713 167.327L88.3328 224.335C87.6911 226.879 89.3888 229.42 91.9846 229.801L176.091 242.14C178.126 242.438 180.099 241.296 180.854 239.383Z" fill="#DD6464"/>
</mask>
<g mask="url(#mask9_464_1718)">
<path d="M168.346 203.271L156.585 207.296L147.559 210.617L148.419 213.451L169.753 205.577L172.044 202.987L168.346 203.271Z" fill="#43EB8F"/>
<path fill-rule="evenodd" clip-rule="evenodd" d="M153.544 206.869C153.229 207.283 152.85 210.141 152.496 212.801C152.38 213.679 152.266 214.534 152.159 215.274L152.004 215.957L143.242 227.32L136.217 219.798L129.016 222.98L127.164 226.669C130.247 230.26 136.754 237.66 138.119 238.522C139.825 239.599 142.429 240.946 146.201 239.15C148.622 237.997 153.336 229.627 156.876 223.342C157.746 221.798 158.544 220.381 159.221 219.226C160.018 218.886 160.688 218.299 161.056 217.512C161.622 216.299 162.206 214.8 162.715 213.492C162.928 212.945 163.128 212.432 163.308 211.987L163.593 211.761C164.174 211.299 164.512 210.598 164.512 209.856V207.165L164.032 207.022C164.128 206.139 163.766 205.249 162.76 205.249C162.06 205.249 161.777 205.305 161.33 205.394L161.278 205.404C161.108 205.008 160.584 204.151 159.74 204.287C159.126 204.386 154.236 205.961 153.544 206.869Z" fill="#FDDEBF"/>
<path d="M114.099 208.093L115.186 196.589L124.463 200.197L123.702 209.329L114.099 208.093Z" fill="#FDDEBF"/>
<path fill-rule="evenodd" clip-rule="evenodd" d="M115.011 204.266L114.536 205.215C113.669 206.006 109.78 207.653 106.464 208.809C102.218 210.29 100.088 212.792 98.6748 222.99C97.5438 231.148 98.2035 236.42 98.6748 238.036L111.897 241.733L120.377 242.885H130.322C129.854 239.278 130.83 234.958 131.409 232.394C131.508 231.956 131.595 231.57 131.662 231.247C136.918 229.808 139.951 225.985 140.139 224.19C140.14 224.19 140.14 224.19 140.141 224.191C140.14 224.19 140.14 224.19 140.14 224.189C140.14 224.189 140.14 224.189 140.14 224.189C140.139 224.188 140.139 224.188 140.139 224.188C137.381 220.161 130.37 211.363 124.366 208.362C124.318 208.337 124.27 208.314 124.222 208.291L123.629 207.647L115.011 204.266Z" fill="#FAAF49"/>
<path d="M129.7 192.758C130.366 198.933 129.142 203.239 124.138 203.497C119.53 203.735 116.165 200.176 115.43 194.828C114.696 189.481 117.404 184.692 121.478 184.132C130.805 181.241 128.965 187.411 129.7 192.758Z" fill="#FDDEBF"/>
<circle cx="128.456" cy="192.114" r="0.416145" transform="rotate(-7.82153 128.456 192.114)" fill="#11243E"/>
<path d="M126.851 193.586C127.281 193.589 127.649 193.7 127.956 193.869C129.018 194.453 128.895 196.091 127.708 196.334C127.011 196.478 126.237 196.379 125.763 196.116C124.854 195.611 125.134 193.577 126.851 193.586Z" fill="#FEB7A1"/>
<path d="M127.495 191.003C127.699 190.783 128.11 190.593 128.537 190.627" stroke="#11243E" stroke-width="0.159404" stroke-linecap="round"/>
<path d="M117.885 200.179C122.209 199.637 122.26 194.732 122.121 192.487C122.121 191.648 122.238 190.927 122.429 190.312C123.266 187.618 126.578 186.852 128.762 185.065C131.162 183.099 130.861 181.524 130.445 180.553C129.883 179.243 126.898 180.752 126.547 179.991C126.196 179.23 125.248 178.235 124.51 179.64C123.773 181.045 122.121 178.2 120.683 178.235C119.244 178.27 118.927 179.294 117.885 180.752C116.844 182.21 114.205 180.474 112.678 181.863C111.15 183.252 112.128 189.645 112.406 192.106C112.746 195.11 113.17 200.771 117.885 200.179Z" fill="#11243E"/>
<circle cx="121.287" cy="193.217" r="1.87" transform="rotate(-7.82153 121.287 193.217)" fill="#FDDEBF"/>
<path d="M121.775 193.645C121.647 193.363 121.298 192.677 120.383 192.605" stroke="#E9B986" stroke-width="0.36911" stroke-linecap="round"/>
<path d="M121.151 192.963C120.986 193.058 120.731 193.172 120.601 193.653" stroke="#E9B986" stroke-width="0.36911" stroke-linecap="round"/>
<path d="M120.558 201.932C122.711 203.606 123.969 203.502 124.199 203.502L124.081 204.844C122.124 203.621 120.917 202.393 120.558 201.932Z" fill="#E4A566"/>
<path d="M123.627 206.262C121.633 204.581 117.376 203.26 114.808 202.653C114.454 202.57 114.09 202.739 113.939 203.069C113.432 204.178 113.051 205.458 113.081 206.042C117.814 206.338 122.776 207.892 124.445 208.618V208.412C124.445 207.604 124.244 206.782 123.627 206.262Z" fill="#FFDA57"/>
<path d="M94.5612 223.887C93.247 228.503 95.4289 236.636 97.1644 241.509L124.197 249.118C123.263 242.643 118.967 229.525 113.785 223.887C108.677 218.332 96.2396 217.993 94.5612 223.887Z" fill="#11243E"/>
<path d="M163.503 212.881C163.126 212.797 162.521 211.895 162.532 211.677L161.954 209.061L162.695 207.988C162.964 208.049 163.644 208.208 164.21 208.354C164.917 208.537 165.153 210.5 165.052 211.677C164.951 212.855 163.974 212.985 163.503 212.881Z" fill="#FDDEBF"/>
<path d="M165.178 207.179C164.26 206.503 160.636 206.986 160.346 207.179L161.892 210.949C162.858 210.707 164.869 210.146 165.178 209.837C165.564 209.451 166.096 207.856 165.178 207.179Z" fill="#FDDEBF"/>
<mask id="mask10_464_1718" style="mask-type:alpha" maskUnits="userSpaceOnUse" x="147" y="202" width="26" height="12">
<path d="M168.345 203.271L156.584 207.296L147.558 210.617L148.418 213.45L169.737 205.57L172.043 202.987L168.345 203.271Z" fill="#2D3CE4"/>
</mask>
<g mask="url(#mask10_464_1718)">
<path d="M171.11 204.907L170.023 202.975L172.559 202.637L171.11 204.907Z" fill="black"/>
<path d="M168.221 202.813L169.736 205.676" stroke="white" stroke-width="0.405393"/>
</g>
<path d="M93.0861 223.646C91.7719 228.261 93.9538 236.395 95.6893 241.267L122.722 248.877C121.788 242.402 117.492 229.283 112.309 223.646C107.202 218.09 94.7645 217.751 93.0861 223.646Z" fill="#E8E8E8"/>
</g>
<mask id="mask11_464_1718" style="mask-type:alpha" maskUnits="userSpaceOnUse" x="98" y="204" width="43" height="39">
<path fill-rule="evenodd" clip-rule="evenodd" d="M115.01 204.265L114.534 205.215C113.668 206.005 109.778 207.653 106.463 208.809C102.216 210.29 100.087 212.791 98.6733 222.99C97.5423 231.148 98.2021 236.42 98.6733 238.036L111.895 241.732L120.376 242.884H130.321C129.853 239.277 130.829 234.957 131.408 232.393C131.506 231.956 131.594 231.569 131.66 231.246C136.917 229.808 139.95 225.984 140.138 224.19C140.138 224.19 140.138 224.19 140.139 224.19C140.138 224.19 140.138 224.189 140.138 224.189C140.138 224.189 140.138 224.188 140.138 224.188C140.138 224.187 140.137 224.187 140.136 224.186C137.379 220.16 130.368 211.363 124.364 208.361C124.316 208.337 124.268 208.313 124.221 208.29L123.628 207.647L115.01 204.265Z" fill="#FAAF49"/>
</mask>
<g mask="url(#mask11_464_1718)">
<path fill-rule="evenodd" clip-rule="evenodd" d="M131.836 213.441C133.569 215.998 137.222 221.623 137.972 223.668C137.205 224.89 134.631 227.776 130.472 229.549C129.364 231.054 127.2 232.72 125.554 233.93C125.2 234.19 124.964 234.408 124.829 234.59L131.377 235.591C131.716 235.621 132.032 235.662 132.317 235.72L144.193 225.458L139.25 215.657L131.836 213.441Z" fill="#EDA038"/>
</g>
<path d="M234.864 143.045L281.387 147.689" stroke="#C6CAFF" stroke-width="1.47644" stroke-linecap="round"/>
<path d="M242.884 123.206L288.475 127.28" stroke="#C6CAFF" stroke-width="1.47644" stroke-linecap="round"/>
<path d="M257.289 152.584L279.705 154.861" stroke="#C6CAFF" stroke-width="2.21466" stroke-linecap="round"/>
<path d="M255.799 156.418L278.215 158.695" stroke="#C6CAFF" stroke-width="2.21466" stroke-linecap="round"/>
<path d="M254.996 160.252L277.412 162.529" stroke="#C6CAFF" stroke-width="2.21466" stroke-linecap="round"/>
<path d="M187.522 176.545L209.869 179.185" stroke="#D0F6FF" stroke-width="2.21466" stroke-linecap="round"/>
<mask id="mask12_464_1718" style="mask-type:alpha" maskUnits="userSpaceOnUse" x="127" y="204" width="38" height="37">
<path fill-rule="evenodd" clip-rule="evenodd" d="M153.545 206.869C153.23 207.283 152.85 210.141 152.497 212.8L152.497 212.801C152.38 213.678 152.267 214.535 152.159 215.274L152.005 215.955L143.242 227.32L136.217 219.797L129.016 222.98L127.164 226.668C130.247 230.26 136.754 237.659 138.119 238.521C139.825 239.598 142.429 240.945 146.201 239.149C148.622 237.996 153.336 229.626 156.876 223.341C157.746 221.798 158.544 220.38 159.22 219.226C160.018 218.885 160.689 218.299 161.057 217.511C161.623 216.299 162.207 214.799 162.716 213.491L162.716 213.491L162.716 213.49C162.929 212.944 163.129 212.431 163.309 211.986L163.593 211.76C164.174 211.299 164.513 210.597 164.513 209.855V207.165L164.032 207.022C164.128 206.138 163.767 205.249 162.761 205.249C162.061 205.249 161.777 205.305 161.331 205.393L161.278 205.403C161.108 205.007 160.585 204.151 159.741 204.286C159.126 204.385 154.236 205.96 153.545 206.869Z" fill="#FDDEBF"/>
</mask>
<g mask="url(#mask12_464_1718)">
<path fill-rule="evenodd" clip-rule="evenodd" d="M162.296 214.628C161.794 215.64 160.281 217.913 158.249 218.9C157.396 219.315 156.463 220.809 155.181 222.86C152.72 226.798 148.975 232.794 142.042 237.154L150.818 238.472L148.288 240.97C150.563 240.734 152.902 240.403 154.888 240.073L166.04 216.133L162.296 214.628ZM144.878 241.248L139.766 240.969L138.642 240.036C138.445 241.207 141.245 241.444 144.878 241.248Z" fill="#F2C697" fill-opacity="0.4"/>
</g>
<path d="M188.689 172.603L211.036 175.243" stroke="#D0F6FF" stroke-width="2.21466" stroke-linecap="round"/>
<path d="M190.113 168.695L212.46 171.336" stroke="#D0F6FF" stroke-width="2.21466" stroke-linecap="round"/>
<ellipse cx="287.002" cy="124.68" rx="0.980735" ry="0.81728" fill="#C6CAFF"/>
<ellipse cx="284.429" cy="124.444" rx="0.980735" ry="0.81728" fill="#C6CAFF"/>
<ellipse cx="281.854" cy="124.231" rx="0.980735" ry="0.81728" fill="#C6CAFF"/>
<path d="M228.16 179.243C226.749 177.517 220.236 172.49 217.011 170.297L207.751 176.564C208.989 177.391 212.439 179.296 215.074 180.458C218.368 181.911 219.859 184.659 220.967 185.219C221.853 185.667 222.474 185.198 222.595 184.744C224.1 185.796 225.148 184.288 224.989 183.7C226.504 183.665 226.64 182.156 226.297 181.52C227.668 183.6 230.981 186.254 231.599 185.364C232.57 183.963 229.574 180.972 228.16 179.243Z" fill="#FDDEBF"/>
<path d="M208.065 154.688C208.054 155.15 208.343 156.247 209.582 156.938C211.132 157.802 211.669 159.164 211.677 160.426" stroke="#11243E" stroke-width="0.516754"/>
<path d="M209.757 157.678C207.978 156.71 207.534 155.058 207.534 154.353C206.408 155.813 204.115 158.78 203.949 158.96C203.782 159.141 205.919 161.067 207.007 162.007L212.034 160.911C212.016 160.237 211.536 158.646 209.757 157.678Z" fill="#11243E"/>
<path d="M205.253 144.997C206.201 145.124 206.321 146.098 206.263 146.57C205.493 147.494 203.949 149.379 203.939 149.533C203.928 149.686 202.766 156.481 202.187 159.86L193.112 160.409C192.899 160.15 192.894 159.183 193.26 158.264C194.21 155.879 195.686 157.408 196.513 156.038C197.05 155.148 195.805 154.527 196.398 152.861C197.058 151.003 199.391 151.83 199.979 150.494C200.436 149.455 199.315 148.366 200.618 146.798C201.661 145.544 203.421 145.847 204.171 146.156C204.137 145.717 204.306 144.87 205.253 144.997Z" fill="#11243E"/>
<path d="M218.132 159.267L205.752 159.53L203.267 163.288L208.41 167.013L225.485 165.862L218.132 159.267Z" fill="#FF3969"/>
<path d="M206.173 162.153L206.334 155.796L201.18 153.645L200.071 161.736C201.813 162.395 205.358 162.304 206.173 162.153Z" fill="#FDDEBF"/>
<path d="M208.782 152.14C208.979 155.05 207.342 157.531 205.124 157.682C202.907 157.832 200.95 155.595 200.752 152.685C200.555 149.775 202.192 147.294 204.409 147.144C208.042 146.76 208.584 149.23 208.782 152.14Z" fill="#FDDEBF"/>
<path d="M206.262 158.568L206.295 157.37C205.362 157.612 204.361 157.306 203.794 157.14C204.5 157.741 205.761 158.398 206.262 158.568Z" fill="#E6AD75"/>
<circle cx="207.019" cy="152.337" r="0.202593" transform="rotate(-3.88291 207.019 152.337)" fill="#11243E"/>
<circle cx="205.411" cy="152.281" r="0.202593" transform="rotate(-3.88291 205.411 152.281)" fill="#11243E"/>
<path d="M203.479 153.972C202.971 153.642 203.215 152.472 204.212 152.546C205.348 152.63 205.046 154.39 203.932 154.149C203.757 154.111 203.599 154.05 203.479 153.972Z" fill="#FEB7A1"/>
<path d="M207.652 154.076C207.144 153.746 207.388 152.576 208.385 152.65C209.521 152.734 209.219 154.494 208.105 154.253C207.93 154.215 207.772 154.154 207.652 154.076Z" fill="#FEB7A1"/>
<circle cx="200.517" cy="153.397" r="1.23913" transform="rotate(-3.88291 200.517 153.397)" fill="#FDDEBF"/>
<path d="M200.821 153.702C200.75 153.51 200.55 153.041 199.949 152.951" stroke="#ECB782" stroke-width="0.295288" stroke-linecap="round"/>
<path d="M200.442 153.223C200.328 153.278 200.155 153.342 200.046 153.654" stroke="#ECB782" stroke-width="0.295288" stroke-linecap="round"/>
<mask id="mask13_464_1718" style="mask-type:alpha" maskUnits="userSpaceOnUse" x="203" y="159" width="23" height="9">
<path d="M218.132 159.267L205.751 159.53L203.266 163.288L208.41 167.013L225.485 165.862L218.132 159.267Z" fill="#FF3969"/>
</mask>
<g mask="url(#mask13_464_1718)">
<path d="M213.337 164.777C210.896 164.633 208.249 162.921 206.783 161.814L203.735 162.399L209.927 167.558L227.335 166.975L228.86 165.809L220.874 164.418C219.379 164.597 215.777 164.92 213.337 164.777Z" fill="#E11748"/>
</g>
<path d="M217.13 160.122C217.33 158.883 218.497 158.042 219.735 158.241L244.692 162.267C245.963 162.473 246.811 163.692 246.559 164.955L245.966 167.929C245.727 169.129 244.582 169.925 243.374 169.729L218.528 165.704C217.289 165.503 216.447 164.336 216.648 163.097L217.13 160.122Z" fill="#F09C2A"/>
<path d="M198.281 158.032C201.012 158.41 212.617 166.563 217.813 170.852C218.706 174.544 214.577 178.863 211.46 178.648C206.103 175.863 200.651 173.161 195.512 168.511C188.294 161.981 193.299 157.342 198.281 158.032Z" fill="#FF3969"/>
<rect x="217.347" y="157.422" width="29.3065" height="7.28457" rx="2.27296" transform="rotate(9.20149 217.347 157.422)" fill="#FAAF49"/>
<path d="M220.966 162.618L238.855 165.685" stroke="white" stroke-width="1.47644" stroke-linecap="round"/>
<path d="M221.504 160.426L239.393 163.492" stroke="white" stroke-width="1.47644" stroke-linecap="round"/>
<path d="M207.743 150.466C204.715 150.399 203.344 148.803 203.35 148.089C204.529 146.192 206.845 145.599 209.067 146.337C211.288 147.074 211.833 150.557 207.743 150.466Z" fill="#11243E"/>
<path d="M200.431 152.144C203.395 152.85 204.164 149.17 204.132 147.377L204.604 147.137L203.219 146.92C202.55 147.388 201.164 148.341 200.965 148.409C200.765 148.476 200.495 151.018 200.431 152.144Z" fill="#11243E"/>
<path d="M231.751 155.891C229.76 155.071 228.228 157.775 227.734 159.088L229.961 159.472C229.786 159.848 229.821 159.837 229.676 160.451C229.327 161.923 230.646 161.926 231.349 161.744C231.48 162.555 232.504 162.379 233 162.19C233.481 163.078 234.566 162.654 235.048 162.331C235.268 162.783 235.588 163.02 236.044 162.878C237.939 162.29 238.648 159.223 238.368 157.975C238.144 156.977 236.993 156.948 236.445 157.059C235.794 155.885 234.757 156.147 234.319 156.425C233.538 155.626 232.78 156.009 232.499 156.3C232.294 156.151 232.047 156.013 231.751 155.891Z" fill="#FDDEBF"/>
<path d="M203.142 149.219C202.984 149.82 202.334 151.062 200.995 151.226C199.321 151.431 197.791 152.083 197.998 153.727C198.205 155.372 198.774 155.994 196.708 157.249C196.349 157.467 196.045 157.712 195.789 157.968" stroke="#253F64" stroke-width="0.227296"/>
<path d="M203.166 149.221C203.103 149.838 202.651 151.166 201.353 151.533C199.73 151.992 198.318 152.871 198.775 154.465C199.212 155.987 199.831 156.536 198.275 157.939" stroke="#253F64" stroke-width="0.227296"/>
<mask id="mask14_464_1718" style="mask-type:alpha" maskUnits="userSpaceOnUse" x="278" y="145" width="30" height="77">
<path d="M305.64 200.687C305.42 207.066 305.819 217.36 306.046 221.71L278.635 213.661C279.1 203.696 280.827 179.9 284.016 164.434C288.002 145.103 300.558 141.316 305.64 151.281C310.722 161.246 305.915 192.713 305.64 200.687Z" fill="#FDDEBF"/>
<path d="M306.22 171.843C303.569 172.289 297.963 173.29 296.747 173.719" stroke="#EB996C" stroke-width="2.21466" stroke-linecap="round"/>
<path d="M306.54 175.988C303.888 176.435 298.282 177.436 297.066 177.865" stroke="#EB996C" stroke-width="2.21466" stroke-linecap="round"/>
</mask>
<g mask="url(#mask14_464_1718)">
<path d="M289.552 228.247C280.638 192.355 289.004 154.04 295.416 146.611C291.116 147.159 282.327 148.394 281.576 148.957C280.825 149.52 269.373 184.841 266.167 201.887L289.552 228.247Z" fill="#F9C99A" fill-opacity="0.91"/>
</g>
<path d="M9.46291 140.397C9.25735 146.845 5.44376 147.691 3.97461 148.181C7.82679 148.384 9.4548 153.861 9.46291 156.04C9.46291 151.502 12.7255 148.281 14.7605 148.181C11.3775 147.621 9.37649 143.191 9.46291 140.397Z" fill="#771CC2"/>
<path d="M67.2399 258.262C67.0326 264.765 63.187 265.617 61.7056 266.111C65.59 266.316 67.2317 271.839 67.2399 274.036C67.2399 269.46 70.5298 266.212 72.5819 266.111C69.1705 265.546 67.1527 261.079 67.2399 258.262Z" fill="#43EB8F"/>
<path d="M260.174 187.777L260.993 178.17C260.692 175.37 260.542 169.48 261.396 169.421C262.805 169.324 263.084 171.182 263.164 174.02C264.022 173.999 265.707 174.331 265.581 175.831C266.354 175.816 267.843 176.231 267.617 178.007C268.224 178.017 269.413 178.46 269.316 180.158C269.194 182.281 269.367 183.572 268.344 183.906C268.308 184.695 268.047 186.29 267.298 186.353L266.6 191.042C264.922 190.697 261.288 189.561 260.174 187.777Z" fill="#FDDEBF"/>
<path d="M208.593 220.332C207.823 219.864 208.743 218.208 209.27 217.26L210.816 218.024L208.593 220.332Z" fill="#11243E"/>
<path d="M266.646 283.184L263.999 242.154C273.745 243.63 293.334 250.201 293.717 264.674C294.099 279.147 275.829 283.045 266.646 283.184Z" fill="#11243E"/>
<path d="M228.177 189.902L229.627 247.229C279.034 243.319 292.447 257.178 293.879 265.48L291.302 200.637C279.278 188.613 244.209 188.47 228.177 189.902Z" fill="#E3E2FF"/>
<path d="M228.78 195.806C246.798 192.619 281.057 195.74 290.883 206.083" stroke="#B6A9FF" stroke-width="1.47644" stroke-linecap="round"/>
<path d="M260.464 223.15C263.458 227.595 259.098 233.375 256.843 232.8L252.516 228.967L253.908 224.705C255.162 222.804 258.23 219.831 260.464 223.15Z" fill="#11243E"/>
<path d="M238.786 230.966L234.782 238.341L231.293 246.48C238.123 245.634 240.77 245.936 243.973 245.936L245.99 240.445L248.673 246.049C256.72 245.902 266.351 247.414 269.393 248.2C264.959 238.913 257.665 229.481 253.801 227.286C246.847 230.658 242.541 230.966 238.786 230.966Z" fill="#43EB8F"/>
<path d="M238.206 202.235C238.137 202.854 237.544 204.45 235.718 205.882C233.259 207.81 232.114 210.059 233.618 212.223" stroke="#11243E" stroke-width="0.516754" stroke-linecap="round"/>
<path d="M235.706 206.082C237.317 204.578 237.241 203.656 237.002 203.383L238.437 203.621L240.899 210.69L233.659 211.069C233.67 210.033 234.094 207.585 235.706 206.082Z" fill="#11243E"/>
<path d="M246.389 202.127C246.387 202.041 246.454 201.97 246.54 201.968C246.625 201.966 246.696 202.033 246.699 202.119L246.389 202.127ZM250.344 206.177L250.415 206.039L250.344 206.177ZM246.699 202.119C246.707 202.433 246.63 202.868 247.034 203.499C247.445 204.139 248.363 204.988 250.415 206.039L250.273 206.315C248.202 205.254 247.228 204.375 246.773 203.666C246.312 202.948 246.396 202.413 246.389 202.127L246.699 202.119ZM250.415 206.039C252.701 207.211 253.282 209.339 253.433 211.497L253.123 211.519C252.975 209.394 252.411 207.411 250.273 206.315L250.415 206.039Z" fill="#11243E"/>
<path d="M249.384 205.937C246.978 204.658 246.461 202.591 246.5 201.843L244.616 201.843L244.382 206.885L244.621 211.532L249.149 211.53C249.243 210.767 249.018 210.076 248.755 209.8C249.537 210.293 249.674 210.939 249.832 211.529L253.311 211.527C253.376 210.188 252.023 207.339 249.384 205.937Z" fill="#11243E"/>
<path d="M238.547 210.801L238.853 203.588L244.856 201.548L245.49 210.798C243.467 211.411 239.459 211.035 238.547 210.801Z" fill="#FDDEBF"/>
<path d="M236.362 199.26C235.915 202.54 237.579 205.476 240.079 205.817C242.578 206.158 244.968 203.775 245.415 200.494C245.862 197.214 244.198 194.278 241.698 193.937C237.614 193.223 236.81 195.979 236.362 199.26Z" fill="#FDDEBF"/>
<path d="M238.722 206.735L238.776 205.375C239.814 205.72 240.971 205.451 241.626 205.306C240.781 205.933 239.302 206.58 238.722 206.735Z" fill="#E6AD75"/>
<path d="M239.384 200.362C239.13 200.404 238.628 200.569 238.714 200.865C238.793 201.136 239.149 201.084 239.292 201.034" stroke="#11243E" stroke-width="0.310042" stroke-linecap="round"/>
<circle cx="0.229989" cy="0.229989" r="0.229989" transform="matrix(-0.990832 -0.135098 -0.135098 0.990832 240.682 199.688)" fill="#11243E"/>
<circle cx="0.229989" cy="0.229989" r="0.229989" transform="matrix(-0.990832 -0.135098 -0.135098 0.990832 238.938 199.45)" fill="#11243E"/>
<path d="M243.578 202.011C244.179 201.676 243.992 200.333 242.857 200.34C241.564 200.348 241.771 202.364 243.051 202.176C243.252 202.147 243.436 202.09 243.578 202.011Z" fill="#FEB7A1"/>
<path d="M237.399 201.735C237.999 201.4 237.813 200.056 236.678 200.063C235.384 200.072 235.592 202.088 236.872 201.9C237.073 201.871 237.256 201.814 237.399 201.735Z" fill="#FEB7A1"/>
<path d="M238.644 198.407C238.429 198.339 238.213 198.31 237.934 198.443" stroke="#11243E" stroke-width="0.310042" stroke-linecap="round"/>
<path d="M241.808 198.805C241.629 198.613 241.269 198.446 240.895 198.476" stroke="#11243E" stroke-width="0.310042" stroke-linecap="round"/>
<path d="M239.391 202.506C239.691 202.509 240.353 202.405 240.594 201.961" stroke="#11243E" stroke-width="0.310042" stroke-linecap="round"/>
<path d="M240.74 193.801C241.089 195.518 242.034 198.628 245.546 200.057" stroke="#11243E" stroke-width="0.516754" stroke-linecap="round"/>
<path d="M245.003 199.819C242.696 198.019 241.107 195.003 240.675 193.752C240.964 193.299 242.861 192.771 244.483 194.269C246.144 195.803 246.39 197.92 246.164 199.388C246.078 199.948 245.45 200.168 245.003 199.819Z" fill="#11243E"/>
<path d="M240.589 193.772C240.309 194.948 239.172 197.936 236.033 199.527" stroke="#11243E" stroke-width="0.516754" stroke-linecap="round"/>
<path d="M236.517 198.913C238.814 197.401 240.323 194.717 240.694 193.804L242.699 194.679C243.004 194.293 243.481 193.547 242.972 193.406C242.432 193.257 239.477 192.411 237.398 194.144C235.911 195.384 235.49 197.09 235.421 198.295C235.386 198.901 236.01 199.247 236.517 198.913Z" fill="#11243E"/>
<mask id="mask15_464_1718" style="mask-type:alpha" maskUnits="userSpaceOnUse" x="244" y="201" width="10" height="11">
<path d="M249.384 205.936C246.978 204.658 246.461 202.59 246.5 201.842L244.616 201.843L244.382 206.884L244.621 211.531L249.149 211.529C249.243 210.767 249.018 210.075 248.755 209.8C249.537 210.293 249.674 210.938 249.832 211.529L253.311 211.527C253.376 210.188 252.023 207.339 249.384 205.936Z" fill="#11243E"/>
</mask>
<g mask="url(#mask15_464_1718)">
<path d="M249.81 207.014C247.043 205.371 245.878 203.229 245.641 202.363L245.304 202.457C245.492 203.435 246.513 205.868 249.1 207.78C251.687 209.692 251.587 212.512 251.214 213.683L252.41 214.224C252.696 212.505 252.576 208.656 249.81 207.014Z" fill="#253F64"/>
</g>
<circle cx="1.40669" cy="1.40669" r="1.40669" transform="matrix(-0.990832 -0.135098 -0.135098 0.990832 247.208 200.115)" fill="#FDDEBF"/>
<path d="M245.257 201.64C245.353 201.428 245.615 200.912 246.303 200.857" stroke="#EBB57E" stroke-width="0.310042" stroke-linecap="round"/>
<path d="M245.726 201.128C245.85 201.199 246.042 201.284 246.14 201.647" stroke="#EBB57E" stroke-width="0.310042" stroke-linecap="round"/>
<path d="M245.038 202.647C245.17 203.637 245.28 205.154 248.171 208.477C248.348 208.68 248.513 208.879 248.654 209.084" stroke="#253F64" stroke-width="0.112971" stroke-linecap="round"/>
<path d="M209.784 210.415C210.545 212.004 213.051 214.762 214.208 215.942C213.815 218.468 212.828 223.18 212.029 221.828C211.029 220.137 207.09 217.246 205.679 216.296C204.268 215.347 201.453 215.091 201.537 214.184C201.637 213.09 203.293 213.746 203.841 213.933C202.641 212.853 200.172 212.627 200.349 211.855C200.479 211.291 200.934 211.228 201.2 211.274C200.134 211.026 199.553 210.35 199.965 209.859C200.301 209.458 201.179 209.611 201.576 209.738C200.729 209.002 201.392 208.202 202.914 208.559C205.527 209.172 207.463 210.624 208.105 211.274C207.677 210.376 206.942 208.508 207.422 208.221C208.023 207.862 208.833 208.429 209.784 210.415Z" fill="#FDDEBF"/>
<mask id="mask16_464_1718" style="mask-type:alpha" maskUnits="userSpaceOnUse" x="199" y="208" width="16" height="15">
<path d="M209.784 210.415C210.545 212.004 213.051 214.762 214.208 215.942C213.815 218.468 212.828 223.18 212.029 221.828C211.029 220.137 207.09 217.246 205.679 216.296C204.268 215.347 201.453 215.091 201.537 214.184C201.637 213.09 203.293 213.746 203.841 213.933C202.641 212.853 200.172 212.627 200.349 211.855C200.479 211.291 200.934 211.228 201.2 211.274C200.134 211.026 199.553 210.35 199.965 209.859C200.301 209.458 201.179 209.611 201.576 209.738C200.729 209.002 201.392 208.202 202.914 208.559C205.527 209.172 207.463 210.624 208.105 211.274C207.677 210.376 206.942 208.508 207.422 208.221C208.023 207.862 208.833 208.429 209.784 210.415Z" fill="#FDDEBF"/>
</mask>
<g mask="url(#mask16_464_1718)">
<path d="M205.907 215.746C203.686 215.183 201.944 214.455 201.416 213.98L200.566 214.808L201.725 217.005L211.02 220.245L213.575 215.577C213.461 214.014 212.995 211.384 212.046 213.364C210.859 215.839 208.683 216.45 205.907 215.746Z" fill="#F8CFA4"/>
</g>
<path d="M249.008 231.423C243.984 232.999 239.22 232.263 237.741 231.423C236.392 226.737 235.004 221.503 235.056 219.418C231.276 223.706 226.266 228.258 224.142 228.258C218.113 228.258 212.047 223.695 208.586 220.307C211.398 217.351 212.116 215.148 212.537 214.035L222.206 219.681C223.462 217.851 225.046 215.624 226.897 213.171C230.155 208.851 235.377 208.186 238.527 207.828C238.927 208.817 239.763 210.219 242.233 209.881C244.289 209.6 244.902 207.613 245.177 206.297C245.177 205.999 245.335 205.721 245.596 205.577C248.726 203.853 252.1 203.211 255.571 201.353C256.665 200.768 257.381 199.686 257.643 198.473L260.191 186.647C263.773 188.341 268.468 188.971 270.55 188.341L267.896 201.611C267.247 204.854 265.178 207.636 262.258 209.19L254.141 213.512C256.145 215.612 259.589 221.453 260.645 223.357C253.688 224.773 255.288 229.452 249.008 231.423Z" fill="#FE2257"/>
<path d="M249.822 213.616L245.247 214.93L246.29 218.589L248.236 218.959C248.747 219.057 249.272 218.878 249.617 218.488L250.791 217.163L249.822 213.616Z" fill="#FFE267"/>
<ellipse cx="288.592" cy="200.918" rx="0.839845" ry="0.724583" transform="rotate(29.9167 288.592 200.918)" fill="#B6A9FF"/>
<ellipse cx="286.665" cy="199.75" rx="0.839845" ry="0.724583" transform="rotate(29.9167 286.665 199.75)" fill="#B6A9FF"/>
<ellipse cx="284.487" cy="198.743" rx="0.839845" ry="0.724583" transform="rotate(29.9167 284.487 198.743)" fill="#B6A9FF"/>
<path d="M262.984 174.365C263.563 173.945 265.135 173.803 265.435 174.96C265.509 175.245 265.546 175.523 265.56 175.93M265.56 175.93C265.591 176.836 265.503 178.929 265.435 179.492L265.56 175.93ZM265.56 175.93C266.338 175.833 267.838 176.121 267.622 178.056M267.622 178.056C267.521 178.953 267.394 179.784 267.394 180.291M267.622 178.056C268.226 178.076 269.418 178.55 269.349 180.291C269.261 182.467 269.246 183.841 268.264 183.905C267.283 183.968 267.283 182.413 267.283 181.754" stroke="#F0C291" stroke-width="0.590576"/>
<path d="M265.189 184.334L263.033 181.488C264.105 181.735 266.424 182.156 267.123 181.859C267.997 181.488 267.987 180.351 266.456 179.798C265.23 179.356 263.832 179.047 263.286 178.947" stroke="#F0C291" stroke-width="0.516754" stroke-linecap="round"/>
<mask id="mask17_464_1718" style="mask-type:alpha" maskUnits="userSpaceOnUse" x="231" y="227" width="39" height="22">
<path d="M238.784 230.966L234.781 238.341L231.292 246.48C238.121 245.634 240.768 245.936 243.971 245.936L245.989 240.445L248.672 246.049C256.718 245.903 266.349 247.415 269.391 248.2C264.957 238.914 257.664 229.481 253.8 227.286C246.845 230.658 242.539 230.966 238.784 230.966Z" fill="#43EB8F"/>
</mask>
<g mask="url(#mask17_464_1718)">
<path d="M266.51 248.615C265.12 244.547 256.176 232.583 253.301 228.786L254.728 227.017L269.375 243.216L273.237 249.653C271.126 249.307 266.825 248.615 266.51 248.615Z" fill="#35D37D"/>
<path d="M244.238 240.011C245.252 240.383 245.787 240.448 245.928 240.433L244.787 246.39H240.267C242.565 244.43 243.872 241.321 244.238 240.011Z" fill="#35D37D"/>
</g>
<path d="M39.9922 166.964L47.5764 200.197" stroke="white" stroke-opacity="0.73" stroke-width="8.12043" stroke-linecap="round"/>
<path d="M196.579 244.516C195.407 246.409 194.476 251.697 200.094 253.259" stroke="white" stroke-opacity="0.56" stroke-width="1.47644" stroke-linecap="round"/>
<path d="M208.586 93.2627C209.904 94.0564 211.269 94.779 212.345 95.8963C214.491 98.1227 217.03 99.9044 219.184 102.119C222.887 105.927 224.895 111.557 225.184 116.817C225.311 119.12 225.944 122.725 224.303 124.611C222.384 126.816 218.394 124.951 216.678 123.401C215.081 121.959 217.212 119.424 218.292 118.314C221.022 115.51 226.907 116.478 229.772 118.388C234.561 121.581 239.567 125.791 242.951 130.473" stroke="#CDD1FE" stroke-width="2.21466" stroke-linecap="round" stroke-dasharray="6.64 6.64"/>
<path d="M239.228 234.802C238.868 235.169 237.871 236.553 236.772 239.155" stroke="white" stroke-opacity="0.65" stroke-width="1.47644" stroke-linecap="round"/>
<path d="M201.387 211.349C202.092 211.544 203.589 212.067 205.399 213.239" stroke="#F0C291" stroke-width="0.442932" stroke-linecap="round"/>
<path d="M201.804 209.86C202.509 210.055 204.006 210.578 205.815 211.75" stroke="#F0C291" stroke-width="0.442932" stroke-linecap="round"/>
<path d="M204.236 214.052C204.463 214.136 204.903 214.363 205.217 214.584" stroke="#F0C291" stroke-width="0.442932" stroke-linecap="round"/>
<path d="M206.021 211.349C205.797 211.868 205.335 213.29 205.282 214.822" stroke="#F0C291" stroke-width="0.442932" stroke-linecap="round"/>
<path d="M208.105 211.885C207.968 212.468 207.872 213.825 208.585 214.593" stroke="#F0C291" stroke-width="0.442932" stroke-linecap="round"/>
<path d="M160.401 205.858C158.884 206.391 155.736 207.588 155.277 208.113C155.112 208.302 154.949 208.711 154.8 209.207" stroke="#F0C291" stroke-width="0.590576" stroke-linecap="round"/>
<path d="M162.29 205.272C162.852 205.205 163.993 205.409 164.062 206.758" stroke="#F2C697" stroke-width="0.590576" stroke-linecap="round"/>
<path d="M160.156 208.307C161.453 207.86 164.195 206.985 164.786 207.066C165.524 207.166 165.725 207.703 165.759 208.307" stroke="#F2C697" stroke-width="0.590576" stroke-linecap="round"/>
<path d="M163.347 210.758C163.318 211.216 163.216 212.256 163.033 212.759" stroke="#F2C697" stroke-width="0.590576" stroke-linecap="round"/>
<mask id="mask18_464_1718" style="mask-type:alpha" maskUnits="userSpaceOnUse" x="191" y="157" width="27" height="22">
<path d="M198.281 158.032C201.012 158.411 212.617 166.564 217.813 170.852C218.706 174.544 214.577 178.863 211.46 178.648C206.103 175.863 200.651 173.161 195.512 168.512C188.294 161.981 193.299 157.343 198.281 158.032Z" fill="#E11748"/>
</mask>
<g mask="url(#mask18_464_1718)">
<path d="M210.445 176.876C214.963 175.034 216.933 171.613 217.353 170.132L219.875 169.694L220.204 174.354L212.309 181.372L195.203 172.435L190.378 162.566C194.984 168.707 205.675 174.665 210.445 176.876Z" fill="#E11748"/>
</g>
<path d="M125.977 223.38C127.782 225.807 131.15 229.424 132.608 230.928H131.655L131.197 231.74C129.56 230.018 127.035 225.45 125.977 223.38Z" fill="#EDA038"/>
<circle cx="309.161" cy="84.1017" r="7.36076" fill="white" fill-opacity="0.34"/>
<circle cx="292.46" cy="226.24" r="0.741811" fill="white"/>
<path d="M293.823 257.736L292.578 229.878" stroke="white" stroke-width="1.47644" stroke-linecap="round"/>
<path d="M262.944 172.571C263.002 173.513 263.129 175.67 263.175 176.756" stroke="#F0C291" stroke-width="0.590576" stroke-linecap="round"/>
<path d="M230.517 157.839C230.157 158.615 229.49 160.402 229.703 161.345C229.816 161.843 230.484 161.912 231.271 161.799M231.271 161.799C231.618 161.222 232.34 159.586 232.452 157.656M231.271 161.799C231.501 162.105 232.174 162.618 233.027 162.214M233.027 162.214C234.093 161.709 234.612 158.063 234.303 156.45M233.027 162.214C233.359 162.588 234.23 163.137 235.06 162.34M235.06 162.34C236.098 161.345 236.615 159.282 236.486 157.236M235.06 162.34C235.271 162.738 235.908 163.325 236.776 162.495" stroke="#F0C291" stroke-width="0.590576" stroke-linecap="round"/>
<path d="M223.902 179.066C224.528 179.732 225.437 180.689 226.365 181.643M225.732 176.966C228.476 179.575 231.865 183.743 231.831 184.624C231.797 185.505 230.95 185.81 229.798 184.962C229.241 184.553 227.782 183.1 226.365 181.643M226.365 181.643C226.872 183.328 225.71 183.7 225.066 183.676M222.098 181.124C222.71 181.785 224.493 183.638 225.066 183.676M225.066 183.676C225.023 184.414 223.902 185.463 222.661 184.624M222.661 184.624C222.277 184.364 221.745 183.85 221.204 183.272M222.661 184.624C222.527 185.325 221.841 186.307 220.167 184.624C218.074 182.519 218.401 182.847 217.491 181.937" stroke="#F0C291" stroke-width="0.590576" stroke-linecap="round"/>
<mask id="mask19_464_1718" style="mask-type:alpha" maskUnits="userSpaceOnUse" x="208" y="186" width="63" height="47">
<path d="M249.01 231.423C243.985 232.999 239.221 232.264 237.742 231.423C236.393 226.737 235.006 221.503 235.057 219.419C231.277 223.707 226.267 228.258 224.144 228.258C218.115 228.258 212.049 223.696 208.587 220.307C211.399 217.352 212.117 215.149 212.538 214.036L222.208 219.681C223.463 217.852 225.048 215.625 226.898 213.172C230.157 208.851 235.378 208.187 238.528 207.829C238.928 208.818 239.764 210.22 242.235 209.882C244.29 209.601 244.904 207.613 245.178 206.297C245.178 205.999 245.336 205.722 245.597 205.578C248.727 203.854 252.101 203.211 255.572 201.354C256.666 200.769 257.383 199.686 257.644 198.474L260.193 186.648C263.775 188.342 268.47 188.971 270.551 188.342L267.897 201.611C267.249 204.855 265.18 207.637 262.26 209.191L254.142 213.512C256.147 215.612 259.59 221.453 260.646 223.357C253.689 224.774 255.29 229.453 249.01 231.423Z" fill="#FE2257"/>
</mask>
<g mask="url(#mask19_464_1718)">
<path d="M256.587 221.523C255.763 219.412 253.17 214.616 252.162 212.556L254.922 211.255L263.39 223.134L254.7 230.794L240.282 234.591L235.004 230.794L235.519 229.12C237.523 230.128 248.042 231.52 250.259 227.738C252.162 224.492 256.055 221.754 256.587 221.523Z" fill="#E11748"/>
<path d="M264.174 204.815C266.646 200.271 268.712 191.729 269.436 188.025L271.661 187.51L273.605 189.941C272.973 194.769 271.7 204.505 271.661 204.815C271.622 205.126 264.45 210.779 260.869 213.566H254.258L252.801 212.161C257.925 210.013 262.783 207.372 264.174 204.815Z" fill="#E11748"/>
<path d="M235.053 218.347V219.513V224.852L226.663 229.788L212.62 226.692L207.012 220.545L208.492 218.93C212.74 222.146 221.449 227.769 224.141 226.692C226.833 225.615 232.69 220.859 235.053 218.347Z" fill="#E11748"/>
</g>
<path d="M248.847 215.386L245.91 216.271" stroke="#FAAF49" stroke-opacity="0.79" stroke-width="0.738221" stroke-linecap="round"/>
<path d="M281.086 179.707C281.656 169.477 285.487 148.383 296.246 145.84C309.695 142.661 308.229 168.24 306.911 186.252C305.593 204.265 305.222 229.459 313.941 242.779C317.164 247.704 320.146 253.972 322.5 260.475C318.036 275.762 297.1 306.54 249.066 307.36C241.266 302.473 224.5 290.151 202.812 264.581" stroke="#EB996C" stroke-width="2.21466" stroke-linecap="round"/>
<path d="M241.691 306.858L236.309 310.288L239.82 305.193L241.691 306.858Z" fill="#588DED"/>
<path d="M260.687 293.806L229.271 297.941L236.307 303.373V310.224L239.887 305.657L248.404 312.816L260.687 293.806Z" fill="#E4F1FF"/>
<path d="M236.309 303.378V310.293L239.841 305.678L260.7 293.78L236.309 303.378Z" fill="#ABC7F3"/>
<path d="M167.237 187.637C163.292 181.317 157.924 167.203 164.141 162.511C168.337 159.344 174.562 165.835 179.431 174.305" stroke="#EB996C" stroke-width="2.21466" stroke-linecap="round"/>
<path d="M181.978 167.672C178.418 161.155 172.397 146.299 179.767 141.006" stroke="#EB996C" stroke-width="2.21466" stroke-linecap="round"/>
<path d="M206.31 93.6555L210.798 96.5162L207.87 92.2668L206.31 93.6555Z" fill="#588DED"/>
<path d="M190.467 82.77L216.668 86.2189L210.8 90.7488V96.4626L207.814 92.6534L200.71 98.6246L190.467 82.77Z" fill="#E4F1FF"/>
<path d="M210.798 90.7525V96.5197L207.852 92.6714L190.456 82.7485L210.798 90.7525Z" fill="#ABC7F3"/>
<path d="M190.879 152.623L206.711 111.05C208.235 107.049 212.225 104.541 216.491 104.903L232.162 106.233" stroke="white" stroke-opacity="0.33" stroke-width="3.6911" stroke-linecap="round"/>
<path d="M196.165 102.41L202.013 136.963C186.65 135.919 181.881 144.776 182.148 149.698L175.363 114.18C177.963 104.755 188.719 102.41 196.165 102.41Z" fill="#43EB8F"/>
<ellipse cx="194.595" cy="104.041" rx="1.20457" ry="1.03925" fill="#D5FFE8"/>
<ellipse cx="191.189" cy="104.521" rx="1.20457" ry="1.03925" fill="#D5FFE8"/>
<ellipse cx="187.785" cy="105.255" rx="1.20457" ry="1.03925" fill="#D5FFE8"/>
<path d="M178.947 132.437L175.247 114.222C175.389 111.85 177.638 106.452 185.493 103.833" stroke="white" stroke-width="1.47644" stroke-linecap="round"/>
<circle cx="179.63" cy="135.379" r="0.741811" fill="white"/>
<path d="M230.549 260.641L239.673 262.06C243.988 262.731 248.148 260.158 249.475 255.998L250.345 253.269" stroke="white" stroke-opacity="0.33" stroke-width="2.95288" stroke-linecap="round"/>
</svg>
