<svg width="421" height="350" viewBox="0 0 421 350" fill="none" xmlns="http://www.w3.org/2000/svg">
<path d="M415.94 218.05C416.335 216.584 416.463 215.157 416.326 214.581C305.091 196.738 82.4822 161.777 81.9256 164.676C81.6477 166.124 81.54 167.923 81.6852 169.606C81.94 172.56 84.2676 174.647 86.7956 176.196L275.264 291.669C282.065 295.836 290.623 295.864 297.451 291.741L411.98 222.584C413.768 221.504 415.397 220.067 415.94 218.05Z" fill="#9A49DC" fill-opacity="0.92"/>
<path d="M87.8252 158.98L140.902 125.543L195.813 91.5656L412.061 209.918C415.68 211.898 415.779 217.061 412.239 219.179L297.45 287.867C290.646 291.939 282.146 291.903 275.375 287.776L87.9317 173.496C82.5197 170.196 82.4622 162.358 87.8252 158.98Z" fill="#F0E7F7"/>
<path d="M373.51 124.817C368.714 135.606 375.019 140.605 378.964 141.778C380.963 132.988 378.05 127.128 375.561 124.41C374.94 123.732 373.883 123.976 373.51 124.817Z" fill="#9A49DC"/>
<path d="M364.677 134.497C360.521 145.549 367.108 150.17 371.114 151.11C372.596 142.218 369.345 136.539 366.701 133.971C366.041 133.33 365.001 133.636 364.677 134.497Z" fill="#9A49DC"/>
<path d="M356.065 146.217C352.881 157.587 359.844 161.621 363.916 162.211C364.623 153.224 360.892 147.848 358.036 145.518C357.324 144.937 356.313 145.331 356.065 146.217Z" fill="#9A49DC"/>
<path d="M395.245 143.855C387.788 139.092 381.288 140.643 378.817 142.155C382.687 148.842 390.272 147.954 395.028 146.155C396.051 145.768 396.167 144.444 395.245 143.855Z" fill="#9A49DC"/>
<path d="M390.171 151.185C381.286 146.502 374.125 148.926 371.515 150.878C376.585 158.012 385.1 156.068 390.169 153.517C391.146 153.025 391.138 151.695 390.171 151.185Z" fill="#9A49DC"/>
<path d="M383.61 162.291C374.725 157.609 367.564 160.032 364.954 161.985C370.024 169.119 378.539 167.175 383.608 164.623C384.585 164.131 384.578 162.801 383.61 162.291Z" fill="#9A49DC"/>
<path d="M384.075 136.797C380.147 140.373 370.345 151.063 362.559 165.209" stroke="#771CC2" stroke-width="1.50458"/>
<path d="M398.541 119.637C385.748 122.225 382.551 133.099 382.59 138.443C394.22 136.605 398.895 127.109 400.123 121.194C400.32 120.246 399.49 119.446 398.541 119.637Z" fill="#9A49DC"/>
<path d="M130.045 125.313V119.065L204.733 115.222L221.379 120.506L169.618 151.589L130.045 125.313Z" fill="#C7CBF6"/>
<path d="M179.584 10.3657V3L137.067 26.4962L129.049 32.8365L131.38 36.7525L179.584 10.3657Z" fill="#E32478"/>
<path d="M178.299 8.20612L189.724 16.633L143.375 44.4264L131.464 35.0269L178.299 8.20612Z" fill="#FFF5F1"/>
<path d="M196.098 101.195V14.9607L145.272 43.7503V132.18L196.098 101.195Z" fill="#E32478"/>
<path d="M133.875 36.4272L178.564 10.6153" stroke="#EBB47E" stroke-opacity="0.62" stroke-width="1.77206" stroke-linecap="round"/>
<path d="M136.959 39.2223L181.647 13.4104" stroke="#EBB47E" stroke-opacity="0.62" stroke-width="1.77206" stroke-linecap="round"/>
<path d="M141.348 41.2874L186.036 15.4755" stroke="#EBB47E" stroke-opacity="0.62" stroke-width="1.77206" stroke-linecap="round"/>
<path d="M178.866 3L131.794 30.2329C129.49 31.566 129.423 34.8689 131.672 36.294L142.087 42.8956C143.201 43.6017 144.615 43.6308 145.757 42.9712L195.435 14.2811" stroke="#FF4E9C" stroke-width="4.1348" stroke-linecap="round"/>
<path d="M145.272 132.147V43.9449L144.374 42.5226L130.194 34.373C130.389 32.6533 130.897 29.7159 129.536 30.8221C128.174 31.9284 127.627 32.4891 127.644 33.0757V119.138C127.644 120.359 128.272 121.493 129.306 122.141L145.272 132.147Z" fill="#FF4E9C"/>
<path d="M127.639 56.2726L145.295 66.6859V56.0679L127.639 46.1247V56.2726Z" fill="#E32478"/>
<path d="M127.639 65.9333L145.295 76.3466V70.7211L127.639 60.7779V65.9333Z" fill="#E32478"/>
<path d="M203.305 25.9908V18.6251L160.788 42.1214L152.769 48.4616L155.1 52.3777L203.305 25.9908Z" fill="#34C977"/>
<path d="M202.02 23.8317L213.445 32.2586L167.096 60.052L155.184 50.6525L202.02 23.8317Z" fill="#FFF5F1"/>
<path d="M219.819 118.286V30.5858L168.993 59.3754V147.806L219.819 118.286Z" fill="#34C977"/>
<path d="M157.596 52.0537L202.285 26.2418" stroke="#EBB47E" stroke-opacity="0.62" stroke-width="1.77206" stroke-linecap="round"/>
<path d="M160.679 54.8488L205.368 29.0369" stroke="#EBB47E" stroke-opacity="0.62" stroke-width="1.77206" stroke-linecap="round"/>
<path d="M165.069 56.913L209.757 31.1011" stroke="#EBB47E" stroke-opacity="0.62" stroke-width="1.77206" stroke-linecap="round"/>
<path d="M202.587 18.6251L155.515 45.858C153.211 47.1911 153.144 50.494 155.393 51.9192L165.808 58.5208C166.922 59.2268 168.336 59.2559 169.478 58.5964L219.156 29.9062" stroke="#43EB8F" stroke-width="4.1348" stroke-linecap="round"/>
<path d="M168.992 147.774V59.5718L168.095 58.1496L153.914 49.9999C154.109 48.2803 154.618 45.3428 153.256 46.4491C151.895 47.5553 151.347 48.116 151.365 48.7027V134.765C151.365 135.986 151.993 137.12 153.027 137.768L168.992 147.774Z" fill="#43EB8F"/>
<path d="M151.36 71.8986L169.016 82.312V71.6939L151.36 61.7508V71.8986Z" fill="#34C977"/>
<path d="M151.36 81.5579L169.016 91.9713V86.3458L151.36 76.4026V81.5579Z" fill="#34C977"/>
<path d="M136.907 192.029C134.272 190.063 135.724 184.684 135.94 183.126C209.105 189.704 353.803 207.495 356.133 210.069C359.07 213.313 355.84 217.483 352.041 219.656L274.633 263.936C269.356 266.954 262.871 266.943 257.617 263.883C213.123 237.969 138.639 193.322 136.907 192.029Z" fill="#C7CBF6"/>
<path d="M229.348 24.1018L228.064 24.6863L256.125 68.6133L358.235 198.483C358.717 198.452 359.276 198.31 359.865 198.102C363.353 196.873 365.238 192.982 365.238 189.284V100.035C365.238 95.7306 362.883 91.7709 359.099 89.7169L238.863 24.4362C235.919 22.8381 232.396 22.7143 229.348 24.1018Z" fill="#AECEF4"/>
<rect x="238.605" y="130.492" width="116.267" height="4.36101" rx="2.18051" transform="rotate(29.0437 238.605 130.492)" fill="#82B9ED"/>
<path d="M358.141 205.73V204.194L181.143 178.848C166.824 177.406 137.492 175.386 136.302 178.848C135.512 181.148 135.686 183.663 136.036 185.696C136.329 187.389 137.433 188.818 138.907 189.701L256.573 260.242C262.251 263.646 269.332 263.688 275.049 260.351L352.847 214.948C356.125 213.035 358.141 209.525 358.141 205.73Z" fill="#352E8D"/>
<path d="M217.569 130.471L139.133 176.719C136.345 178.362 136.328 182.388 139.1 184.056L256.854 254.891C262.182 258.096 268.832 258.152 274.214 255.037L354.095 208.794C357.676 206.72 357.638 201.537 354.027 199.517L230.327 130.325C226.351 128.101 221.493 128.157 217.569 130.471Z" fill="#AECEF4"/>
<path d="M226.998 29.0546V117.089C226.998 122.089 229.688 126.702 234.039 129.165L353.817 196.961C357.375 198.975 361.783 196.405 361.783 192.316V103.521C361.783 98.4398 359.006 93.7651 354.544 91.3348L233.31 25.3051C230.464 23.7555 226.998 25.8149 226.998 29.0546Z" fill="#DEEDFF"/>
<path d="M242.543 50.6756V113.809C242.543 118.809 245.233 123.422 249.584 125.885L338.27 176.082C341.828 178.096 346.236 175.526 346.236 171.437V108.613C346.236 103.549 343.478 98.8873 339.039 96.4499L248.868 46.9331C246.023 45.3706 242.543 47.4293 242.543 50.6756Z" fill="white"/>
<path d="M217.139 132.825L176.461 157.001C174.373 158.242 174.372 161.263 176.458 162.506L296.476 233.964C299.147 235.555 302.472 235.568 305.155 233.999L348.289 208.775C351.126 207.116 351.104 203.009 348.249 201.381L227.881 132.728C224.544 130.825 220.442 130.862 217.139 132.825Z" fill="#88B6ED"/>
<path d="M227.884 229.111L251.391 214.182C252.734 213.329 252.705 211.358 251.337 210.545L211.13 186.65C210.091 186.032 208.792 186.052 207.773 186.702L184.49 201.548C183.152 202.401 183.179 204.363 184.539 205.179L224.52 229.154C225.559 229.778 226.861 229.761 227.884 229.111Z" fill="#505ACC"/>
<path d="M340.09 249.676L289.113 280.549C286.912 281.882 284.039 282.263 282.286 280.379C301.702 267.555 340.855 241.477 341.91 243.334C342.258 243.946 342.479 244.54 342.612 245.106C343.053 246.969 341.728 248.685 340.09 249.676Z" fill="#C7CBF6"/>
<path d="M334.214 239.67L281.359 270.669C279.697 271.644 278.418 273.334 278.644 275.247C278.975 278.045 280.526 279.615 282.125 280.41C283.664 281.176 285.441 280.62 286.911 279.728L340.489 247.196C341.615 246.512 342.434 245.337 342.306 244.025C342.095 241.873 341.101 240.449 339.943 239.507C338.32 238.188 336.018 238.612 334.214 239.67Z" fill="#FF4E9C"/>
<path d="M299.759 259.833L279.507 271.659L282.407 279.488C282.871 280.739 284.355 281.263 285.501 280.581L305.932 268.421C306.196 262.046 301.837 259.951 299.759 259.833Z" fill="#EF3A8A"/>
<path d="M284.496 275.127C285.026 276.337 285.179 277.533 285.038 278.467C284.894 279.413 284.482 279.963 284.003 280.172C283.524 280.382 282.841 280.312 282.048 279.775C281.266 279.246 280.491 278.323 279.961 277.112C279.431 275.901 279.279 274.706 279.42 273.772C279.563 272.825 279.976 272.276 280.455 272.066C280.933 271.857 281.617 271.926 282.41 272.463C283.192 272.993 283.966 273.916 284.496 275.127Z" fill="#FF4E9C" stroke="#DF2778" stroke-width="1.70784"/>
<path d="M285.135 271.217C284.386 270.503 283.483 269.978 282.863 269.779L307.16 255.513C307.404 255.37 307.696 255.325 307.963 255.42C308.538 255.625 309.142 255.937 309.671 256.251C310.322 256.637 310.274 257.548 309.621 257.931L286.593 271.444C286.124 271.718 285.528 271.592 285.135 271.217Z" fill="#DF2778"/>
<path d="M303.386 195.033L308.635 191.75C309.311 191.327 309.301 190.339 308.617 189.929L302.349 186.177C301.664 185.767 300.807 185.773 300.128 186.194L294.799 189.497C294.117 189.92 294.128 190.916 294.82 191.324L301.17 195.063C301.857 195.466 302.71 195.455 303.386 195.033Z" fill="#505ACC"/>
<path d="M298.459 204.28L303.708 200.997C304.384 200.574 304.375 199.586 303.69 199.176L297.422 195.424C296.737 195.013 295.88 195.02 295.201 195.441L289.873 198.743C289.19 199.166 289.202 200.163 289.894 200.571L296.244 204.309C296.93 204.713 297.784 204.702 298.459 204.28Z" fill="#505ACC"/>
<path d="M283.582 207.921L288.831 204.639C289.507 204.216 289.497 203.228 288.813 202.818L282.545 199.065C281.86 198.655 281.003 198.662 280.324 199.083L274.995 202.385C274.313 202.808 274.324 203.805 275.016 204.212L281.367 207.951C282.053 208.355 282.906 208.344 283.582 207.921Z" fill="#505ACC"/>
<path d="M277.486 217.983L279.549 216.782C280.255 216.371 280.256 215.35 279.55 214.938L272.062 210.57C271.39 210.178 270.557 210.182 269.89 210.582L267.947 211.746C267.254 212.16 267.255 213.165 267.948 213.578L275.319 217.972C275.985 218.369 276.815 218.373 277.486 217.983Z" fill="#505ACC"/>
<path d="M290.234 225.368L292.29 224.207C293.005 223.803 293.015 222.776 292.308 222.358L284.821 217.941C284.148 217.543 283.311 217.546 282.64 217.948L280.703 219.107C280.01 219.522 280.011 220.526 280.705 220.94L288.091 225.343C288.749 225.735 289.567 225.745 290.234 225.368Z" fill="#505ACC"/>
<path d="M302.478 232.651L304.531 231.488C305.247 231.082 305.254 230.052 304.542 229.637L297.079 225.287C296.407 224.895 295.575 224.9 294.907 225.299L292.972 226.458C292.278 226.874 292.281 227.882 292.979 228.293L300.342 232.633C301 233.021 301.814 233.028 302.478 232.651Z" fill="#505ACC"/>
<path d="M314.544 201.47L319.794 198.135C320.466 197.708 320.451 196.722 319.767 196.316L313.519 192.604C312.837 192.199 311.987 192.205 311.311 192.621L305.799 196.008C305.106 196.434 305.125 197.447 305.833 197.847L312.35 201.527C313.035 201.914 313.879 201.892 314.544 201.47Z" fill="#505ACC"/>
<path d="M315.489 214.279L321.091 210.778C321.776 210.35 321.756 209.346 321.055 208.946L308.584 201.819C307.907 201.432 307.072 201.445 306.407 201.854L300.853 205.268C300.165 205.691 300.177 206.694 300.875 207.1L313.284 214.314C313.969 214.712 314.817 214.698 315.489 214.279Z" fill="#505ACC"/>
<path d="M294.74 214.357L299.991 211.022C300.662 210.595 300.648 209.61 299.963 209.203L293.715 205.491C293.033 205.086 292.183 205.093 291.507 205.508L285.995 208.896C285.303 209.321 285.321 210.335 286.03 210.734L292.546 214.414C293.232 214.802 294.075 214.78 294.74 214.357Z" fill="#505ACC"/>
<path d="M324.434 194.698L326.44 193.462C327.131 193.037 327.113 192.027 326.409 191.626L320.277 188.133C319.63 187.764 318.837 187.76 318.186 188.121L316.164 189.242C315.444 189.641 315.428 190.671 316.136 191.093L322.223 194.715C322.906 195.121 323.758 195.115 324.434 194.698Z" fill="#505ACC"/>
<path d="M335.264 201.009L337.27 199.773C337.961 199.348 337.943 198.338 337.239 197.937L331.107 194.444C330.46 194.076 329.667 194.071 329.016 194.432L326.994 195.553C326.274 195.952 326.258 196.982 326.966 197.404L333.053 201.026C333.735 201.432 334.587 201.426 335.264 201.009Z" fill="#505ACC"/>
<path d="M313.533 188.364L315.542 187.126C316.233 186.701 316.216 185.691 315.511 185.29L309.439 181.832C308.76 181.445 307.923 181.46 307.259 181.871L305.364 183.044C304.682 183.466 304.692 184.462 305.383 184.871L311.327 188.384C312.009 188.788 312.858 188.78 313.533 188.364Z" fill="#505ACC"/>
<path d="M303.152 182.387L305.158 181.151C305.849 180.726 305.831 179.716 305.127 179.315L298.995 175.823C298.348 175.454 297.555 175.449 296.904 175.81L294.883 176.931C294.162 177.33 294.146 178.361 294.854 178.782L300.941 182.404C301.624 182.81 302.476 182.804 303.152 182.387Z" fill="#505ACC"/>
<path d="M292.656 176.268L294.662 175.032C295.353 174.607 295.336 173.597 294.631 173.196L288.5 169.703C287.852 169.335 287.059 169.33 286.408 169.691L284.387 170.812C283.666 171.211 283.651 172.242 284.358 172.663L290.445 176.285C291.128 176.691 291.98 176.685 292.656 176.268Z" fill="#505ACC"/>
<path d="M281.547 169.809L283.553 168.573C284.243 168.148 284.226 167.138 283.521 166.737L277.39 163.244C276.743 162.876 275.95 162.871 275.298 163.232L273.277 164.353C272.557 164.752 272.541 165.782 273.249 166.204L279.335 169.826C280.018 170.232 280.87 170.226 281.547 169.809Z" fill="#505ACC"/>
<path d="M270.459 163.368L272.465 162.132C273.156 161.706 273.138 160.697 272.434 160.295L266.302 156.803C265.655 156.434 264.862 156.43 264.211 156.791L262.189 157.912C261.469 158.311 261.453 159.341 262.161 159.762L268.248 163.385C268.93 163.791 269.782 163.784 270.459 163.368Z" fill="#505ACC"/>
<path d="M259.364 157.001L261.37 155.765C262.061 155.34 262.043 154.33 261.339 153.929L255.207 150.436C254.56 150.067 253.767 150.063 253.116 150.424L251.094 151.545C250.374 151.944 250.358 152.974 251.066 153.395L257.153 157.018C257.835 157.424 258.687 157.417 259.364 157.001Z" fill="#505ACC"/>
<path d="M248.948 150.903L250.954 149.667C251.645 149.241 251.628 148.232 250.923 147.83L244.792 144.338C244.144 143.969 243.351 143.965 242.7 144.326L240.679 145.447C239.958 145.846 239.943 146.876 240.65 147.297L246.737 150.919C247.42 151.326 248.272 151.319 248.948 150.903Z" fill="#505ACC"/>
<path d="M238.12 144.65L240.126 143.414C240.817 142.989 240.799 141.979 240.095 141.578L233.963 138.085C233.316 137.717 232.523 137.712 231.872 138.073L229.851 139.194C229.13 139.593 229.114 140.624 229.822 141.045L235.909 144.667C236.592 145.073 237.444 145.067 238.12 144.65Z" fill="#505ACC"/>
<path d="M325.217 207.688L330.642 204.408C331.334 203.989 331.328 202.983 330.63 202.574L324.199 198.803C323.505 198.396 322.641 198.413 321.965 198.849L316.779 202.184C316.112 202.613 316.129 203.593 316.81 203.999L323.021 207.695C323.699 208.098 324.543 208.095 325.217 207.688Z" fill="#505ACC"/>
<path d="M305.413 220.576L310.838 217.296C311.53 216.878 311.524 215.871 310.826 215.462L304.395 211.691C303.701 211.284 302.837 211.302 302.161 211.737L296.975 215.073C296.308 215.501 296.325 216.482 297.006 216.888L303.217 220.584C303.895 220.987 304.739 220.984 305.413 220.576Z" fill="#505ACC"/>
<path d="M292.419 188.638L297.861 185.366C298.555 184.949 298.55 183.941 297.851 183.531L291.403 179.748C290.709 179.341 289.844 179.359 289.168 179.794L283.982 183.13C283.315 183.558 283.332 184.539 284.013 184.945L290.228 188.643C290.903 189.045 291.745 189.043 292.419 188.638Z" fill="#505ACC"/>
<path d="M287.493 197.885L292.935 194.613C293.629 194.196 293.623 193.188 292.925 192.778L286.476 188.995C285.782 188.588 284.918 188.606 284.241 189.041L279.056 192.376C278.389 192.805 278.406 193.786 279.087 194.191L285.301 197.89C285.977 198.292 286.819 198.29 287.493 197.885Z" fill="#505ACC"/>
<path d="M272.616 201.525L278.057 198.253C278.751 197.836 278.746 196.828 278.047 196.418L271.599 192.635C270.905 192.228 270.041 192.246 269.364 192.681L264.178 196.016C263.511 196.445 263.528 197.426 264.21 197.831L270.424 201.53C271.1 201.932 271.942 201.93 272.616 201.525Z" fill="#505ACC"/>
<path d="M281.521 182.277L286.857 178.949C287.539 178.524 287.524 177.527 286.831 177.122L280.494 173.415C279.8 173.01 278.937 173.028 278.261 173.463L273.074 176.799C272.407 177.228 272.424 178.208 273.105 178.614L279.299 182.3C279.986 182.709 280.843 182.7 281.521 182.277Z" fill="#505ACC"/>
<path d="M276.594 191.523L281.931 188.195C282.612 187.77 282.598 186.773 281.905 186.368L275.568 182.661C274.874 182.256 274.011 182.274 273.335 182.709L268.148 186.045C267.481 186.474 267.498 187.454 268.179 187.86L274.373 191.546C275.059 191.954 275.917 191.946 276.594 191.523Z" fill="#505ACC"/>
<path d="M261.717 195.165L267.054 191.837C267.735 191.412 267.721 190.415 267.028 190.01L260.69 186.304C259.996 185.898 259.134 185.916 258.458 186.351L253.27 189.687C252.603 190.116 252.62 191.097 253.302 191.502L259.496 195.188C260.182 195.597 261.039 195.588 261.717 195.165Z" fill="#505ACC"/>
<path d="M265.607 211.075L271.022 207.689C271.702 207.264 271.688 206.269 270.997 205.864L222.205 177.243C221.511 176.835 220.647 176.853 219.97 177.288L214.79 180.62C214.122 181.05 214.141 182.033 214.825 182.437L263.39 211.103C264.077 211.508 264.931 211.497 265.607 211.075Z" fill="#505ACC"/>
<path d="M270.552 176.011L275.965 172.676C276.653 172.253 276.639 171.248 275.94 170.844L269.525 167.131C268.832 166.73 267.974 166.75 267.301 167.183L262.108 170.523C261.441 170.952 261.458 171.932 262.139 172.338L268.34 176.028C269.023 176.434 269.875 176.428 270.552 176.011Z" fill="#505ACC"/>
<path d="M265.627 185.257L271.041 181.922C271.729 181.498 271.715 180.494 271.016 180.089L264.6 176.376C263.908 175.976 263.049 175.996 262.376 176.429L257.183 179.768C256.516 180.197 256.533 181.178 257.215 181.583L263.416 185.274C264.098 185.68 264.95 185.673 265.627 185.257Z" fill="#505ACC"/>
<path d="M250.75 188.899L256.163 185.565C256.851 185.141 256.837 184.137 256.138 183.732L249.723 180.019C249.03 179.618 248.172 179.638 247.499 180.071L242.306 183.411C241.639 183.84 241.656 184.821 242.337 185.226L248.538 188.916C249.221 189.323 250.073 189.316 250.75 188.899Z" fill="#505ACC"/>
<path d="M259.749 169.758L265.126 166.4C265.809 165.973 265.792 164.973 265.095 164.57L258.718 160.888C258.026 160.488 257.168 160.508 256.496 160.941L251.302 164.281C250.635 164.71 250.652 165.691 251.333 166.096L257.526 169.782C258.213 170.191 259.071 170.181 259.749 169.758Z" fill="#505ACC"/>
<path d="M254.824 179.003L260.202 175.645C260.885 175.219 260.867 174.218 260.17 173.816L253.794 170.133C253.101 169.733 252.244 169.754 251.571 170.186L246.377 173.527C245.71 173.956 245.727 174.936 246.409 175.342L252.602 179.027C253.289 179.436 254.146 179.427 254.824 179.003Z" fill="#505ACC"/>
<path d="M239.947 182.647L245.324 179.288C246.007 178.862 245.99 177.861 245.293 177.459L238.916 173.776C238.224 173.376 237.366 173.397 236.694 173.829L231.5 177.17C230.833 177.599 230.85 178.579 231.531 178.985L237.724 182.67C238.411 183.079 239.269 183.07 239.947 182.647Z" fill="#505ACC"/>
<path d="M191.232 167.164L196.148 163.853C196.798 163.416 196.771 162.451 196.098 162.05L184.488 155.144C183.813 154.742 182.971 154.744 182.298 155.148L176.89 158.393C176.194 158.811 176.201 159.823 176.903 160.231L188.967 167.24C189.674 167.65 190.554 167.621 191.232 167.164Z" fill="#505ACC"/>
<path d="M249.035 163.452L254.36 160.08C255.037 159.651 255.017 158.656 254.323 158.254L248.002 154.595C247.309 154.195 246.45 154.215 245.777 154.648L240.584 157.987C239.918 158.416 239.935 159.397 240.616 159.802L246.801 163.483C247.492 163.894 248.356 163.883 249.035 163.452Z" fill="#505ACC"/>
<path d="M244.108 172.699L249.433 169.327C250.111 168.898 250.091 167.903 249.397 167.501L243.075 163.842C242.383 163.441 241.524 163.462 240.851 163.894L235.658 167.234C234.991 167.663 235.008 168.644 235.689 169.049L241.875 172.73C242.566 173.141 243.429 173.129 244.108 172.699Z" fill="#505ACC"/>
<path d="M229.231 176.341L234.556 172.968C235.233 172.539 235.214 171.545 234.52 171.143L228.198 167.484C227.505 167.083 226.647 167.103 225.974 167.536L220.78 170.876C220.114 171.305 220.131 172.286 220.812 172.691L226.997 176.372C227.688 176.783 228.552 176.771 229.231 176.341Z" fill="#505ACC"/>
<path d="M212.46 179.482L217.784 176.11C218.462 175.681 218.442 174.686 217.748 174.284L211.426 170.625C210.734 170.225 209.875 170.245 209.202 170.678L204.009 174.017C203.342 174.446 203.359 175.427 204.041 175.832L210.226 179.513C210.917 179.925 211.78 179.913 212.46 179.482Z" fill="#505ACC"/>
<path d="M238.303 157.167L243.559 153.822C244.232 153.393 244.214 152.405 243.526 152.001L237.272 148.327C236.578 147.919 235.713 147.937 235.036 148.372L229.851 151.707C229.184 152.136 229.201 153.116 229.882 153.522L236.065 157.201C236.757 157.613 237.623 157.6 238.303 157.167Z" fill="#505ACC"/>
<path d="M233.376 166.415L238.632 163.069C239.305 162.641 239.288 161.653 238.6 161.249L232.345 157.575C231.651 157.167 230.787 157.184 230.109 157.62L224.924 160.955C224.257 161.383 224.274 162.364 224.956 162.77L231.138 166.449C231.831 166.861 232.696 166.848 233.376 166.415Z" fill="#505ACC"/>
<path d="M218.499 170.056L223.755 166.711C224.428 166.282 224.41 165.294 223.722 164.89L217.468 161.216C216.774 160.808 215.909 160.826 215.232 161.261L210.047 164.596C209.38 165.025 209.397 166.005 210.078 166.411L216.261 170.09C216.953 170.502 217.819 170.489 218.499 170.056Z" fill="#505ACC"/>
<path d="M201.727 173.196L206.984 169.85C207.657 169.422 207.639 168.434 206.951 168.029L200.697 164.356C200.002 163.948 199.138 163.965 198.461 164.401L193.276 167.735C192.609 168.164 192.626 169.145 193.307 169.55L199.489 173.23C200.182 173.642 201.047 173.629 201.727 173.196Z" fill="#505ACC"/>
<path d="M227.794 150.906L233.033 147.615C233.717 147.185 233.694 146.18 232.99 145.782L226.665 142.208C225.982 141.822 225.143 141.842 224.479 142.259L219.294 145.517C218.613 145.946 218.633 146.945 219.33 147.346L225.595 150.949C226.279 151.342 227.126 151.326 227.794 150.906Z" fill="#505ACC"/>
<path d="M222.87 160.153L228.108 156.862C228.793 156.432 228.769 155.427 228.065 155.029L221.741 151.455C221.058 151.069 220.218 151.089 219.554 151.506L214.37 154.764C213.688 155.192 213.708 156.192 214.406 156.593L220.67 160.195C221.355 160.589 222.201 160.573 222.87 160.153Z" fill="#505ACC"/>
<path d="M207.992 163.795L213.231 160.504C213.915 160.074 213.892 159.069 213.188 158.671L206.863 155.097C206.18 154.711 205.341 154.731 204.677 155.148L199.492 158.406C198.811 158.835 198.831 159.834 199.528 160.236L205.793 163.838C206.477 164.231 207.324 164.215 207.992 163.795Z" fill="#505ACC"/>
<path d="M217.567 145.142L222.943 141.752C223.633 141.317 223.6 140.301 222.883 139.911L216.701 136.552C216.046 136.196 215.253 136.208 214.609 136.582L209.016 139.834C208.3 140.251 208.311 141.29 209.037 141.691L215.396 145.204C216.077 145.581 216.909 145.557 217.567 145.142Z" fill="#505ACC"/>
<path d="M212.661 154.376L218.05 150.978C218.732 150.548 218.709 149.545 218.008 149.147L206.663 142.703C206.002 142.328 205.192 142.332 204.535 142.713L198.936 145.969C198.226 146.382 198.229 147.409 198.942 147.818L210.46 154.422C211.146 154.815 211.992 154.797 212.661 154.376Z" fill="#505ACC"/>
<path d="M197.79 158.013L203.179 154.615C203.859 154.186 203.839 153.187 203.141 152.787L196.658 149.067C195.996 148.688 195.182 148.69 194.522 149.073L188.917 152.333C188.209 152.744 188.209 153.766 188.917 154.178L195.578 158.053C196.265 158.452 197.118 158.437 197.79 158.013Z" fill="#505ACC"/>
<path d="M299.381 61.4906L352.538 90.8685C357.923 93.8447 361.291 99.4875 361.354 105.64L361.768 145.795" stroke="#505ACC" stroke-width="2.1348" stroke-linecap="round"/>
<circle cx="361.621" cy="149.215" r="0.971114" fill="#505ACC"/>
<mask id="mask0_213_10903" style="mask-type:alpha" maskUnits="userSpaceOnUse" x="242" y="46" width="105" height="131">
<path d="M242.544 50.6764V113.81C242.544 118.809 245.234 123.423 249.585 125.886L338.271 176.083C341.829 178.097 346.237 175.526 346.237 171.438V108.614C346.237 103.55 343.479 98.8882 339.04 96.4507L248.869 46.9339C246.024 45.3714 242.544 47.4301 242.544 50.6764Z" fill="white"/>
</mask>
<g mask="url(#mask0_213_10903)">
<path d="M234.974 59.5021L349.68 121.771L357.128 87.8058L288.007 39.8381L230.505 37.4547L234.974 59.5021Z" fill="#505ACC"/>
</g>
<path d="M188.726 199.351L206.705 187.945C208.404 186.868 210.563 186.836 212.292 187.864L247.176 208.609" stroke="#444CAE" stroke-width="2.1348" stroke-linecap="round"/>
<path d="M192.665 199.116L232.87 223.402" stroke="#969DEA" stroke-width="2.1348" stroke-linecap="round"/>
<path d="M211.47 210.468L204.646 215.614" stroke="#969DEA" stroke-width="2.1348" stroke-linecap="round"/>
<ellipse cx="114.733" cy="164.717" rx="14.8602" ry="5.28921" fill="#C7CBF6"/>
<path d="M101.522 161.725L96.8674 142.225L132.596 140.842L128.318 161.725H101.522Z" fill="#ACB4FF"/>
<ellipse cx="114.923" cy="161.435" rx="13.3974" ry="5.73245" fill="#ACB4FF"/>
<ellipse cx="114.541" cy="140.205" rx="19.2062" ry="8.00749" fill="#505ACC"/>
<ellipse cx="114.732" cy="129.657" rx="21.2423" ry="12.5143" fill="#505ACC"/>
<path d="M135.687 131.648L133.7 140.771L95.4073 140.899L93.8423 131.648H135.687Z" fill="#505ACC"/>
<ellipse cx="114.543" cy="133.499" rx="17.4119" ry="8.76285" fill="#10243D"/>
<path d="M134.907 129.657C134.907 132.581 132.888 135.42 129.211 137.587C125.558 139.739 120.441 141.104 114.732 141.104C109.023 141.104 103.907 139.739 100.254 137.587C96.576 135.42 94.5574 132.581 94.5574 129.657C94.5574 126.734 96.576 123.895 100.254 121.728C103.907 119.576 109.023 118.21 114.732 118.21C120.441 118.21 125.558 119.576 129.211 121.728C132.888 123.895 134.907 126.734 134.907 129.657Z" stroke="#ACB4FF" stroke-width="2.1348"/>
<path d="M114.665 102.933C109.568 96.0686 103.4 77.5722 113.555 76.2985C127.861 74.5042 118.364 99.3567 114.665 102.933Z" fill="#43EB8F"/>
<path d="M126.351 93.091C117.812 96.423 117.239 103.504 117.031 103.817C125.882 95.6942 134.369 102.515 136.4 98.7143C138.43 94.9135 134.89 89.7589 126.351 93.091Z" fill="#43EB8F"/>
<path d="M98.6725 98.1712C108.847 99.0118 112.541 107.216 113.13 111.031C110.431 108.466 105.84 105.808 99.6387 107.105C88.6741 109.399 85.9549 97.1205 98.6725 98.1712Z" fill="#43EB8F"/>
<path d="M125.914 119.855C123.44 113.835 120.298 111.592 119.036 111.223C125.083 110.345 137.917 111.223 139.209 120.548C140.502 129.873 129.007 127.38 125.914 119.855Z" fill="#43EB8F"/>
<path d="M114.875 133.5V88.5444" stroke="#4C86CE" stroke-width="1.0674" stroke-linecap="round"/>
<path d="M114.859 108.607C115.709 105.491 119.183 98.3446 126.28 94.6898" stroke="#4C86CE" stroke-width="1.0674" stroke-linecap="round"/>
<path d="M101.048 101.277C105.35 101.879 114.224 106.246 114.861 118.782" stroke="#4C86CE" stroke-width="1.0674" stroke-linecap="round"/>
<path d="M114.956 114.295C115.914 112.746 119.047 110.114 123.913 111.972C128.779 113.83 132.834 118.386 134.253 120.432" stroke="#4C86CE" stroke-width="1.0674" stroke-linecap="round"/>
<path d="M382.307 93.1863C382.016 102.3 376.626 103.495 374.55 104.187C379.994 104.475 382.295 112.216 382.307 115.295C382.307 108.882 386.918 104.33 389.794 104.187C385.013 103.396 382.185 97.1355 382.307 93.1863Z" fill="#FE2257"/>
<path d="M84.6998 108.104C84.4839 114.878 80.4782 115.766 78.9351 116.28C82.9813 116.494 84.6913 122.247 84.6998 124.535C84.6998 119.769 88.1268 116.386 90.2643 116.28C86.7109 115.692 84.6091 111.039 84.6998 108.104Z" fill="#FDD21B"/>
<ellipse cx="372.951" cy="274.582" rx="25.009" ry="11.1973" fill="#C7CBF6"/>
<path d="M349.242 227.421V269.309H396.66V227.421H349.242Z" fill="#FED460"/>
<ellipse cx="372.951" cy="227.42" rx="23.709" ry="13.3323" fill="#F3A93A"/>
<ellipse cx="372.951" cy="269.309" rx="23.709" ry="12.8989" fill="#FED460"/>
<mask id="mask1_213_10903" style="mask-type:alpha" maskUnits="userSpaceOnUse" x="353" y="219" width="40" height="21">
<path d="M355.709 235.709L353.082 233.082C353.52 231.386 354.412 227.862 354.478 227.337C354.543 226.811 357.022 225.421 358.253 224.792C362.056 223.123 369.745 219.703 370.073 219.374C370.484 218.964 383.535 221.837 383.945 222.001C384.273 222.133 389.663 226.817 392.317 229.143L391.415 234.806L384.848 237.433C381.537 238.172 374.834 239.649 374.506 239.649H365.723L358.828 237.433L355.709 235.709Z" fill="#C4C4C4"/>
</mask>
<g mask="url(#mask1_213_10903)">
<ellipse cx="372.95" cy="235.661" rx="18.7293" ry="11.6055" fill="#AC5626"/>
</g>
<path d="M395.52 227.42C395.52 230.507 393.283 233.534 389.157 235.854C385.067 238.154 379.339 239.613 372.951 239.613C366.562 239.613 360.835 238.154 356.745 235.854C352.618 233.534 350.381 230.507 350.381 227.42C350.381 224.334 352.618 221.307 356.745 218.987C360.835 216.686 366.562 215.228 372.951 215.228C379.339 215.228 385.067 216.686 389.157 218.987C393.283 221.307 395.52 224.334 395.52 227.42Z" stroke="#F9F3E5" stroke-width="2.2794"/>
<path d="M390.459 260.209L385.941 262.169L386.823 264.039L394.602 268.496L394.954 262.632L390.459 260.209Z" fill="#EAA845"/>
<path d="M402.302 268.581C401.999 270.454 398.361 272.034 396.581 272.59V265.257C396.581 264.983 395.535 255.686 395.012 251.072L387.495 245.186L386.369 242.215L390.602 240.752C393.721 242.17 396.883 244.057 399.221 245.707C401.313 247.183 402.335 249.634 402.376 252.194C402.479 258.558 402.549 267.063 402.302 268.581Z" fill="#EAA845"/>
<path d="M386.364 248.286V242.178L394.568 246.802C397.077 248.216 398.629 250.872 398.629 253.752V269.05C398.629 271.687 395.768 273.331 393.489 272.004L388.182 268.914C386.78 268.097 385.917 266.597 385.917 264.974V262.124L393.48 266.469V253.706C393.48 252.892 393.045 252.139 392.339 251.732L386.364 248.286Z" fill="#FFBD3C"/>
<ellipse cx="252.62" cy="58.9797" rx="2.63102" ry="3.02073" transform="rotate(-20.7511 252.62 58.9797)" fill="#FF4E9C"/>
<ellipse cx="259.682" cy="62.7363" rx="2.63102" ry="3.02073" transform="rotate(-20.7511 259.682 62.7363)" fill="#FED460"/>
<ellipse cx="267.36" cy="66.7635" rx="2.63102" ry="3.02073" transform="rotate(-20.7511 267.36 66.7635)" fill="#ACB4FF"/>
<path d="M249.066 115.97V77.9808C249.066 77.1726 249.929 76.6576 250.64 77.0416L301.361 104.425C302.396 104.984 303.042 106.066 303.042 107.243V146.595C303.042 147.413 302.16 147.927 301.448 147.524L250.689 118.756C249.686 118.187 249.066 117.123 249.066 115.97Z" fill="#FFD35A"/>
<path d="M255.093 88.9512L280.997 103.165M296.788 111.829L286.317 106.084" stroke="white" stroke-width="3.2022" stroke-linecap="round"/>
<path d="M255.093 96.261L265.978 102.234M296.788 119.139L272.264 105.887" stroke="white" stroke-width="3.2022" stroke-linecap="round"/>
<path d="M255.093 103.855L287.251 121.501M296.788 126.733L290.849 123.548" stroke="white" stroke-width="3.2022" stroke-linecap="round"/>
<path d="M255.093 111.667L296.788 134.545" stroke="white" stroke-width="3.2022" stroke-linecap="round"/>
<path d="M312.76 119.935L335.136 132.587" stroke="#43EB8F" stroke-width="4.2696" stroke-linecap="round"/>
<path d="M312.76 127.376L335.136 140.029" stroke="#43EB8F" stroke-width="4.2696" stroke-linecap="round"/>
<path d="M312.76 134.841L335.136 147.494" stroke="#43EB8F" stroke-width="4.2696" stroke-linecap="round"/>
<path d="M312.76 142.409L335.136 155.062" stroke="#43EB8F" stroke-width="4.2696" stroke-linecap="round"/>
<path d="M215.531 292.994L215.531 289.688L200.189 289.249L25.912 259.239C19.1628 258.095 6.60129 255.347 6.34641 256.73C6.22673 257.379 6.09105 258.773 6.01389 260.116C5.89136 262.25 6.98579 263.954 8.74591 265.167L54.9554 297.012C56.0389 303.404 62.2969 305.361 65.5299 304.359L117.827 340.225C119.925 341.664 122.635 341.866 124.923 340.753L212.214 298.296C214.244 297.309 215.531 295.25 215.531 292.994Z" fill="#C7CBF6"/>
<path d="M9.46354 253.865L12.7532 252.025L63.0293 289.454L56.9976 294.563L9.10734 261.877C6.21426 259.903 6.40665 255.575 9.46354 253.865Z" fill="#505ACC"/>
<path d="M66.425 300.382L70.8931 296.123L208.751 284.524L213.074 287.106C215.496 288.553 215.333 292.114 212.788 293.333L125.677 335.067C122.644 336.52 119.068 336.249 116.289 334.355L66.425 300.382Z" fill="#505ACC"/>
<path d="M56.9027 294.497L62.6124 288.773L73.0532 295.73L67.4469 301.027C61.0016 301.82 57.1316 296.907 56.9027 294.497Z" fill="#3943B9"/>
<path d="M11.431 252.974L12.6858 237.828L64.8644 280.965L121.528 312.581L212.096 269.775L210.833 285.021C210.659 287.119 209.38 288.965 207.477 289.864L122.453 330.05C120.926 330.772 119.13 330.622 117.743 329.657L55.653 286.449L13.4476 257.242C12.0607 256.282 11.2918 254.655 11.431 252.974Z" fill="#D9DCF9"/>
<path d="M212.009 269.841L204.415 267.874L122.046 309.391L72.2044 285.04L121.775 312.663L212.009 269.841Z" fill="#ACB4FF"/>
<path d="M11.6377 237.231L26.8406 229.416L62.9511 279.471L11.6377 237.231Z" fill="#ACB4FF"/>
<path d="M12.7168 233.287L93.1449 194.687C106.665 205.918 133.667 232.432 145.478 244.285L209.57 265.373L122.094 309.45L66.9705 282.715L61.7357 278.614L12.7168 233.287Z" fill="#EEF0FF"/>
<path d="M145.974 250.269L76.3447 287.287L73.2443 285.727C96.6359 271.892 143.741 244.733 145.523 246.405C147.306 248.078 146.566 249.678 145.974 250.269Z" fill="#96A0F7" fill-opacity="0.33"/>
<path d="M150.524 239.12L140.605 241.945L145.097 248.148L151.709 241.059C152.524 240.185 151.672 238.793 150.524 239.12Z" fill="#FCE7DE"/>
<path d="M70.7051 290.317C67.026 290.295 65.3927 288.225 65.0359 287.193L71.1937 284.418L76.3547 287.349C74.1569 288.706 72.5373 290.327 70.7051 290.317Z" fill="#454E9F" fill-opacity="0.22"/>
<path d="M140.553 241.924L69.8625 279.336L73.9493 285.911L145.153 248.106C146.119 242.867 142.489 241.802 140.553 241.924Z" fill="#FED460"/>
<mask id="mask2_213_10903" style="mask-type:alpha" maskUnits="userSpaceOnUse" x="140" y="239" width="13" height="10">
<path d="M150.524 239.121L140.605 241.945L145.097 248.148L151.709 241.059C152.524 240.186 151.673 238.794 150.524 239.121Z" fill="#FFF5F1"/>
</mask>
<g mask="url(#mask2_213_10903)">
<path d="M151.144 244.183C150.884 242.87 150.444 239.942 147.404 238.892L147.518 237.517L153.608 236.407L155.653 241.42C154.362 242.774 151.404 245.497 151.144 244.183Z" fill="#10243D"/>
</g>
<path d="M74.0848 285.978C74.3404 282.893 71.3329 279.964 69.9547 279.305L66.4161 281.398C64.8539 282.322 63.2272 283.659 63.4377 285.461C63.5987 286.84 64.487 288.042 65.7975 288.691C67.2922 289.432 69.0179 288.781 70.4776 287.973L74.0848 285.978Z" fill="#FF4E9C"/>
<path d="M72.1228 281.181C72.8258 281.873 74.2078 283.777 74.1112 285.86" stroke="#FFF0C6" stroke-width="1.17918" stroke-linecap="round"/>
<path d="M79.1589 276.776L129.568 249.915" stroke="white" stroke-opacity="0.35" stroke-width="2.35837" stroke-linecap="round"/>
<path d="M147.611 252.126L194.043 268.047" stroke="#B3B9EC" stroke-width="2.94796" stroke-linecap="round"/>
<path d="M138.865 256.592L184.799 272.52" stroke="#B3B9EC" stroke-width="2.94796" stroke-linecap="round"/>
<path d="M130.438 261.518L174.215 277.08" stroke="#B3B9EC" stroke-width="2.94796" stroke-linecap="round"/>
<path d="M120.859 266.162L165.719 282.056" stroke="#B3B9EC" stroke-width="2.94796" stroke-linecap="round"/>
<path d="M111.369 271.551L154.469 286.931" stroke="#B3B9EC" stroke-width="2.94796" stroke-linecap="round"/>
<path d="M131.32 240.673L90.4663 201.896" stroke="#8A92DF" stroke-opacity="0.59" stroke-width="2.94796" stroke-linecap="round"/>
<path d="M124.532 244.711L84.1943 206.687" stroke="#8A92DF" stroke-opacity="0.59" stroke-width="2.94796" stroke-linecap="round"/>
<path d="M117.422 248.845L77.0841 210.822M109.183 253.118L68.8447 215.094" stroke="#8A92DF" stroke-opacity="0.59" stroke-width="2.94796" stroke-linecap="round"/>
</svg>
