<svg width="279" height="238" viewBox="0 0 279 238" fill="none" xmlns="http://www.w3.org/2000/svg">
<path d="M245.541 59.6391C207.196 28.4684 153.779 91.3366 152.257 92.8586C158.979 102.371 203.915 121.508 210.916 154.383C219.668 195.476 265.708 194.335 275.22 163.134C284.733 131.933 236.029 121.66 227.278 111.006C226.997 110.664 226.757 110.329 226.555 110C215.941 92.6462 260.922 78.1106 248.162 62.2676C247.405 61.3272 246.535 60.4468 245.541 59.6391Z" fill="#FFD35A"/>
<ellipse cx="26.3431" cy="164.45" rx="11.6315" ry="10.684" fill="#FFD35A"/>
<path d="M97.8112 156.971C147.103 160.482 154.752 78.3401 155.124 76.2201C144.159 72.29 96.3795 82.416 71.7749 59.5165C41.0191 30.8921 3.97597 58.2563 14.098 89.2647C24.22 120.273 69.9967 100.727 83.2784 104.426C83.7049 104.545 84.094 104.682 84.4478 104.836C103.101 112.952 74.6141 150.675 94.1565 156.323C95.3165 156.658 96.5341 156.88 97.8112 156.971Z" fill="#FFD35A"/>
<ellipse cx="147.216" cy="226.888" rx="97.6408" ry="10.5518" fill="#6D76E7" fill-opacity="0.38"/>
<path d="M75.888 46.5937L71.4644 47.3893L73.1497 52.6443L164.858 83.73L174.301 56.3578L75.888 46.5937Z" fill="#7E88FE"/>
<path d="M135.274 171.467C134.207 177.621 132.693 183.978 132.871 190.275C132.995 194.622 134.724 198.973 136.629 202.82C140.378 210.392 146.422 217.46 154.205 221.073C161.516 224.467 169.621 225.567 177.499 223.958C181.855 223.068 185.849 221.518 189.972 219.882" stroke="#588DED" stroke-width="2.21466" stroke-linecap="round" stroke-dasharray="6.64 6.64"/>
<path d="M200.745 140.97L200.505 141.795C202.341 141.975 203.181 141.81 203.371 141.705C203.371 141.189 201.62 141 200.745 140.97Z" fill="#11243E"/>
<path d="M265.035 125.324C233.245 134.759 224.584 153.165 224.451 162.115C206.093 176.91 179.022 201.84 217.602 183.206C246.471 169.262 263.817 149.061 272.472 134.506C275.622 129.208 270.944 123.57 265.035 125.324Z" fill="#4ED98D"/>
<mask id="mask0_213_10364" style="mask-type:alpha" maskUnits="userSpaceOnUse" x="197" y="124" width="77" height="66">
<path d="M265.034 125.324C233.244 134.759 224.584 153.165 224.451 162.115C206.093 176.909 179.022 201.839 217.601 183.206C246.47 169.262 263.817 149.061 272.471 134.506C275.622 129.208 270.944 123.57 265.034 125.324Z" fill="#4ED98D"/>
</mask>
<g mask="url(#mask0_213_10364)">
<path d="M226.151 170.138C249.288 156.583 267.829 139.269 274.207 132.306L276.106 139.025L242.218 185.475C227.222 186.01 203.014 183.693 226.151 170.138Z" fill="#1F35A8" fill-opacity="0.12"/>
</g>
<mask id="mask1_213_10364" style="mask-type:alpha" maskUnits="userSpaceOnUse" x="197" y="124" width="77" height="66">
<path d="M265.034 125.324C233.244 134.759 224.584 153.165 224.451 162.115C206.093 176.909 179.022 201.839 217.601 183.206C246.47 169.262 263.817 149.061 272.471 134.506C275.622 129.208 270.944 123.57 265.034 125.324Z" fill="#4ED98D"/>
</mask>
<g mask="url(#mask1_213_10364)">
<path d="M278.715 121.994L225.667 162.23" stroke="#DCFFEC" stroke-width="1.84555"/>
<path d="M236.385 154.81C236.928 154.81 251.119 156.83 256.316 157.444" stroke="#DCFFEC" stroke-width="1.84555"/>
<circle cx="240.639" cy="161.064" r="1.7155" stroke="#DCFFEC" stroke-width="1.84555"/>
<path d="M260.624 135.887L272.443 136.563" stroke="#DCFFEC" stroke-width="1.84555"/>
<path d="M256.619 138.913L270.289 139.97" stroke="#DCFFEC" stroke-width="1.84555"/>
<path d="M254.392 140.575L255.502 127.53" stroke="#DCFFEC" stroke-width="1.84555"/>
<path d="M244.196 148.258C244.739 148.258 255.268 149.485 260.465 150.098" stroke="#DCFFEC" stroke-width="1.84555"/>
</g>
<path d="M257.244 84.9908C221.609 108.707 218.269 134.491 221.608 145.314C205.567 169.879 183.111 209.789 221.608 172.908C251.393 144.372 264.029 112.653 268.274 92.1225C269.635 85.5373 262.842 81.2652 257.244 84.9908Z" fill="#43EB8F"/>
<path d="M21.3218 98.528L14.6704 100.342L25.447 109.43L138.096 128.377L139.819 119.42L63.5362 111.192L58.8814 102.127L21.3218 98.528Z" fill="#ED1E79"/>
<path d="M32.3085 158.416L72.1016 48.3818L170.251 58.2696L128.069 175.579L32.3085 158.416Z" fill="#C8BEFF" stroke="#7E88FE" stroke-width="1.84555"/>
<mask id="mask2_213_10364" style="mask-type:alpha" maskUnits="userSpaceOnUse" x="31" y="47" width="141" height="130">
<path d="M32.3095 158.417L72.1026 48.3819L170.252 58.2698L128.07 175.579L32.3095 158.417Z" fill="#C8BEFF" stroke="#7E88FE" stroke-width="1.84555"/>
</mask>
<g mask="url(#mask2_213_10364)">
<path d="M134.424 63.0225L68.3735 56.8458L85.4884 114.924L122.831 123.013L134.424 63.0225Z" fill="#7E88FE" fill-opacity="0.23"/>
</g>
<path d="M37.3731 55.9081L33.9128 56.4538V103.365L120.657 122.543L121.328 63.7479L37.3731 55.9081Z" fill="#7E88FE"/>
<path d="M118.136 175.702H34.8356V57.5011L119.227 65.1674L118.136 175.702Z" fill="white" stroke="#7E88FE" stroke-width="1.84555"/>
<mask id="mask3_213_10364" style="mask-type:alpha" maskUnits="userSpaceOnUse" x="33" y="56" width="87" height="121">
<path d="M117.369 175.768H34.0693V57.5678L118.461 65.2341L117.369 175.768Z" fill="white" stroke="#7E88FE" stroke-width="1.84555"/>
</mask>
<g mask="url(#mask3_213_10364)">
<path d="M104.871 116.537C88.077 115.211 64.983 112.391 55.0595 110.959L52.5605 117.028L124.673 132.2L120.053 85.5621C118.208 82.8251 119.648 76.8928 118.505 89.1734C117.865 96.0599 116.885 102.672 115.99 107.907C115.075 113.25 110.275 116.964 104.871 116.537Z" fill="#C7CBF6" fill-opacity="0.37"/>
</g>
<path d="M130.033 187.736L137.973 167.131L143.862 123.748L59.512 113.872L59.2829 113.392C56.6207 107.808 51.2388 104.017 45.0845 103.39L14.71 100.298L31.3191 172.264C32.6829 178.174 37.5216 182.648 43.5193 183.546L118.061 194.705C123.191 195.474 128.168 192.577 130.033 187.736Z" fill="#FF4F9C"/>
<mask id="mask4_213_10364" style="mask-type:alpha" maskUnits="userSpaceOnUse" x="200" y="79" width="70" height="109">
<path d="M264.624 80.3891C222.073 105.285 218.053 133.786 221.609 145.315C205.568 169.88 183.112 209.789 221.609 172.908C255.957 140.001 267.499 102.86 269.667 83.5262C269.979 80.7418 267.042 78.9742 264.624 80.3891Z" fill="#3EF993"/>
</mask>
<g mask="url(#mask4_213_10364)">
<path d="M267.255 81.4636L222.917 146.282" stroke="#D3FFE7" stroke-width="1.9932"/>
<path d="M252.94 102.238L251.309 88.217" stroke="#D3FFE7" stroke-width="1.9932"/>
<path d="M250.972 105.136L249.035 89.893" stroke="#D3FFE7" stroke-width="1.9932"/>
<path d="M241.317 119.407L261.903 116.047" stroke="#D3FFE7" stroke-width="1.9932"/>
<path d="M229.394 136.744L253.883 133.044" stroke="#D3FFE7" stroke-width="1.9932"/>
<circle cx="246.37" cy="126.882" r="1.97876" stroke="#D3FFE7" stroke-width="1.9932"/>
<circle cx="257.115" cy="89.6372" r="1.23986" stroke="#D3FFE7" stroke-width="1.9932"/>
</g>
<mask id="mask5_213_10364" style="mask-type:alpha" maskUnits="userSpaceOnUse" x="14" y="100" width="130" height="95">
<path d="M130.033 187.736L137.973 167.131L143.862 123.748L59.5117 113.872L59.2827 113.392C56.6204 107.808 51.2385 104.017 45.0843 103.39L14.7097 100.298L31.3188 172.264C32.6826 178.174 37.5213 182.648 43.5191 183.546L118.061 194.705C123.191 195.473 128.167 192.577 130.033 187.736Z" fill="#FF4F9C"/>
</mask>
<g mask="url(#mask5_213_10364)">
<path d="M96.8274 184.198C65.6348 182.124 34.5113 177.043 28.03 173.01V183.139L127.103 202.447L146.57 122.84L130.11 118.25C126.566 136.701 116.772 161.137 109.947 176.35C107.652 181.466 102.422 184.57 96.8274 184.198Z" fill="#ED1E79"/>
</g>
<path d="M119.396 125.623C119.151 132.021 124.811 141.36 127.672 145.23C131.248 142.994 137.235 136.458 132.576 128.203C126.752 117.884 119.703 117.626 119.396 125.623Z" fill="#FDDEBF"/>
<path d="M130.774 108.359C129.33 115.395 135.516 126.96 138.79 131.863C144.104 130.154 153.485 124.2 148.491 114.051C142.249 101.365 132.579 99.5634 130.774 108.359Z" fill="#FDDEBF"/>
<path d="M181.677 226.755C167.985 216.403 148.174 192.036 135.373 180.905L139.913 157.171C165.375 137.969 217.803 101.904 223.814 111.255C231.327 122.942 221.727 152.996 227.571 168.858C232.246 181.548 235.885 185.92 238.112 192.181C228.264 220.796 195.493 228.433 181.677 226.755Z" fill="#FDDEBF"/>
<mask id="mask6_213_10364" style="mask-type:alpha" maskUnits="userSpaceOnUse" x="119" y="120" width="16" height="26">
<path d="M119.397 125.623C119.152 132.021 124.812 141.36 127.673 145.23C131.248 142.994 137.235 136.458 132.577 128.203C126.753 117.884 119.704 117.626 119.397 125.623Z" fill="#FDDEBF"/>
</mask>
<g mask="url(#mask6_213_10364)">
<path d="M131.824 139.105C125.638 138.543 121.357 125.906 119.991 119.657L115.07 118.603L113.313 139.105L130.886 144.729C133.776 143.089 138.009 139.668 131.824 139.105Z" fill="#F8D3AC"/>
</g>
<mask id="mask7_213_10364" style="mask-type:alpha" maskUnits="userSpaceOnUse" x="130" y="102" width="20" height="30">
<path d="M130.774 108.359C129.33 115.395 135.516 126.96 138.79 131.863C144.104 130.154 153.485 124.2 148.491 114.051C142.249 101.365 132.579 99.5633 130.774 108.359Z" fill="#FDDEBF"/>
</mask>
<g mask="url(#mask7_213_10364)">
<path d="M143.377 123.465C137.191 122.903 132.911 110.266 131.544 104.017L126.623 102.963L124.866 123.465L142.439 129.089C145.329 127.449 149.563 124.028 143.377 123.465Z" fill="#F8D3AC"/>
</g>
<path d="M140.458 88.0113C139.014 95.0477 145.2 106.612 148.474 111.515C153.788 109.807 163.169 103.852 158.175 93.7031C151.933 81.017 142.262 79.2157 140.458 88.0113Z" fill="#FDDEBF"/>
<path d="M134.337 109.48C134.835 113.726 140.606 112.853 143.272 111.609L145.012 104.283L143.811 100.931L136.605 102.107C135.684 103.157 133.941 106.102 134.337 109.48Z" fill="#11243E"/>
<mask id="mask8_213_10364" style="mask-type:alpha" maskUnits="userSpaceOnUse" x="135" y="109" width="104" height="118">
<path d="M181.677 226.755C167.985 216.403 148.174 192.036 135.373 180.905L139.913 157.17C165.376 137.969 217.803 101.904 223.814 111.254C231.328 122.942 221.727 152.996 227.571 168.858C232.246 181.548 235.886 185.92 238.112 192.181C228.265 220.796 195.493 228.433 181.677 226.755Z" fill="#FDDEBF"/>
</mask>
<g mask="url(#mask8_213_10364)">
<path d="M201.101 214.777C176.682 220.247 152.459 192.116 151.091 191.335L142.301 188.014L146.794 201.103L178.05 226.889L199.343 232.945L247.789 191.335L237.436 184.498C233.464 192.768 220.636 210.401 201.101 214.777Z" fill="#FBC996" fill-opacity="0.48"/>
</g>
<path d="M155.919 78.5607C151.824 79.7449 146.647 79.3419 144.57 78.9924L146.791 96.5086C151.54 90.0325 160.014 77.3765 155.919 78.5607Z" fill="#11243E"/>
<path d="M173.654 198.39L126.647 191.174C120.022 190.157 112.077 186.33 113.723 179.833L172.474 189.592L214.267 80.3824C217.295 81.2123 219.349 82.6364 220.707 84.1649C223.333 87.12 222.433 91.4464 221.177 95.1941L189.893 188.49C187.609 195.301 180.754 199.48 173.654 198.39Z" fill="#11243E"/>
<path d="M217.184 93.2306L185.734 187.47C184.174 192.144 179.483 195.022 174.61 194.295L123.916 186.734C117.485 185.775 113.603 179.101 115.947 173.037L150.88 82.664C152.496 78.4812 156.667 75.8554 161.138 76.2053L208.349 79.9001C214.928 80.415 219.273 86.9716 217.184 93.2306Z" fill="#7E88FE"/>
<path d="M134.152 172.857L143.643 147.505C144.643 144.835 142.896 141.93 140.069 141.56L80.0038 133.714C78.0525 133.459 76.167 134.522 75.3751 136.324L64.7717 160.449C63.596 163.124 65.2867 166.184 68.1768 166.612L129.354 175.685C131.421 175.992 133.42 174.813 134.152 172.857Z" fill="#11243E"/>
<path d="M225.671 148.179C225.509 152.889 225.803 160.49 225.971 163.702L205.732 157.759C206.075 150.401 207.35 132.831 209.705 121.412C212.648 107.138 221.919 104.342 225.671 111.7C229.423 119.057 225.874 142.291 225.671 148.179Z" fill="#FDDEBF"/>
<path d="M220.729 111.6C219.915 113.413 218.399 117.696 218.846 120.319C219.252 122.705 222.8 122.134 226.1 120.598" stroke="#EB996C" stroke-width="2.21466" stroke-linecap="round"/>
<path d="M226.1 126.882C224.142 127.212 220.003 127.951 219.105 128.268" stroke="#EB996C" stroke-width="2.21466" stroke-linecap="round"/>
<path d="M226.335 129.943C224.378 130.273 220.238 131.012 219.341 131.328" stroke="#EB996C" stroke-width="2.21466" stroke-linecap="round"/>
<path d="M199.76 138.959C199.852 138.442 198.195 138.222 197.355 138.177C197.208 138.635 196.912 139.56 196.899 139.596C196.884 139.642 199.647 139.604 199.76 138.959Z" fill="#11243E"/>
<path d="M151.267 81.6602L219.106 87.2065C219.912 82.9373 216.751 80.7299 214.07 80.337L159.475 76.0472C158.026 75.9334 156.525 75.8511 155.183 76.408C152.635 77.4654 152.045 79.6765 151.267 81.6602Z" fill="#ACB3FE"/>
<path fill-rule="evenodd" clip-rule="evenodd" d="M187.695 182.162L185.87 187.63C184.31 192.303 179.619 195.182 174.746 194.455L124.052 186.893C117.621 185.934 113.739 179.261 116.083 173.197L116.223 172.834C116.269 172.777 116.314 172.72 116.358 172.664L187.695 182.162Z" fill="#ACB3FE"/>
<path d="M133.222 181.947L113.752 178.894L115.212 175.779L143.329 151.012L148.806 151.641L138.033 179.184C137.276 181.12 135.275 182.268 133.222 181.947Z" fill="#2760C1" fill-opacity="0.54"/>
<path d="M137.07 177.309L146.5 152.023C147.488 149.375 145.776 146.492 142.978 146.091L83.0331 137.503C81.0803 137.223 79.1778 138.269 78.367 140.067L67.2981 164.618C66.0924 167.292 67.7725 170.379 70.6731 170.818L132.257 180.141C134.329 180.454 136.338 179.273 137.07 177.309Z" fill="#11243E"/>
<ellipse cx="148.299" cy="183.056" rx="4.91148" ry="5.08482" transform="rotate(20.3139 148.299 183.056)" fill="#757FF8"/>
<rect x="175.796" y="79.6057" width="18.2438" height="1.23448" rx="0.617242" transform="rotate(4.55485 175.796 79.6057)" fill="#11243E"/>
<path d="M148.823 83.3071C147.217 82.33 143.304 81.5584 140.498 86.2893C138.722 89.2832 139.216 93.6329 140.269 97.3019" stroke="#11243E" stroke-width="0.386617"/>
<path d="M132.571 171.349L141.711 147.205C142.724 144.529 140.973 141.61 138.136 141.244L79.7999 133.707C77.8572 133.456 75.9803 134.511 75.1847 136.301L64.9775 159.269C63.7867 161.949 65.4812 165.025 68.3823 165.45L127.786 174.163C129.844 174.465 131.835 173.294 132.571 171.349Z" fill="#43EB8F"/>
<path d="M134.205 175.947L143.68 151.851C144.736 149.167 142.986 146.207 140.126 145.837L81.8634 138.31C79.9206 138.059 78.0437 139.114 77.2482 140.904L67.0409 163.872C65.8501 166.552 67.5445 169.628 70.4456 170.053L129.44 178.708C131.477 179.007 133.451 177.863 134.205 175.947Z" fill="white"/>
<path d="M166.04 142.236H169.796H172.256L187.938 181.504L187.038 184.251C179.267 183.215 171.825 184.283 167.853 184.715C167.853 178.913 166.644 153.978 166.04 142.236Z" fill="#417ED2" fill-opacity="0.73"/>
<path d="M209.846 105.168L214.187 92.656C214.503 91.7449 213.875 90.7803 212.914 90.7006L181.142 88.0671C180.501 88.014 179.9 88.3814 179.655 88.9756L174.741 100.891C174.364 101.806 174.975 102.825 175.959 102.923L208.305 106.153C208.985 106.221 209.622 105.814 209.846 105.168Z" fill="white"/>
<path d="M207.675 111.233L208.368 109.316C208.695 108.411 208.083 107.441 207.126 107.345L174.662 104.109C174.034 104.047 173.436 104.39 173.173 104.964L172.353 106.758C171.932 107.677 172.538 108.737 173.544 108.841L206.135 112.2C206.81 112.27 207.445 111.871 207.675 111.233Z" fill="white"/>
<path d="M136.168 132.552L155.693 134.9C156.399 134.985 157.065 134.555 157.278 133.876L158.041 131.44C158.144 131.112 158.129 130.758 157.999 130.44L155.415 124.116C155.215 123.626 154.767 123.281 154.243 123.211L139.91 121.306C139.243 121.218 138.6 121.592 138.347 122.215L134.976 130.532C134.61 131.434 135.202 132.436 136.168 132.552Z" fill="white"/>
<path d="M185.041 150.573L186.631 154.789L184.005 157.859L180.972 157.416L180.343 151.497L185.041 150.573Z" fill="#FDDEBF"/>
<circle cx="185.037" cy="150.117" r="0.902759" fill="#FDDEBF"/>
<path d="M183.461 156.973C183.1 159.083 182.779 164.51 184.379 169.338" stroke="#11243E" stroke-width="0.221466"/>
<path d="M126.603 149.739L102.42 146.571" stroke="#CBC1FC" stroke-width="2.21466" stroke-linecap="round"/>
<path d="M132.856 154.263L101.212 149.939" stroke="#CBC1FC" stroke-width="2.21466" stroke-linecap="round"/>
<path d="M132.069 157.815L100.195 153.293" stroke="#CBC1FC" stroke-width="2.21466" stroke-linecap="round"/>
<path d="M97.1378 79.3452L37.5957 73.2081" stroke="#C7CBF6" stroke-width="2.95288" stroke-linecap="round"/>
<path d="M97.1378 84.2838L37.5957 78.1467" stroke="#C7CBF6" stroke-width="2.95288" stroke-linecap="round"/>
<path d="M97.1378 89.2254L37.5957 83.0883" stroke="#C7CBF6" stroke-width="2.95288" stroke-linecap="round"/>
<path d="M97.1378 94.3217L37.5957 88.1846" stroke="#C7CBF6" stroke-width="2.95288" stroke-linecap="round"/>
<path d="M97.1378 99.1963L37.5957 93.0591" stroke="#C7CBF6" stroke-width="2.95288" stroke-linecap="round"/>
<mask id="mask9_213_10364" style="mask-type:alpha" maskUnits="userSpaceOnUse" x="65" y="121" width="85" height="58">
<path d="M133.872 175.896L148.938 137.72C149.977 135.087 148.315 132.169 145.52 131.721L80.5762 121.287C78.3095 120.923 76.1403 122.351 75.5788 124.577L65.5347 164.396C64.893 166.94 66.5907 169.481 69.1865 169.862L129.109 178.653C131.144 178.952 133.117 177.81 133.872 175.896Z" fill="#DD6464"/>
</mask>
<g mask="url(#mask9_213_10364)">
<path d="M124.3 150.087L115.616 153.059L108.951 155.511L109.586 157.604L125.338 151.79L127.03 149.878L124.3 150.087Z" fill="#43EB8F"/>
<path fill-rule="evenodd" clip-rule="evenodd" d="M113.371 152.744C113.138 153.05 112.858 155.16 112.597 157.124C112.511 157.772 112.427 158.405 112.347 158.951L112.233 159.454L105.764 167.844L100.577 162.29L95.2601 164.64L93.8926 167.363C96.1689 170.015 100.974 175.478 101.981 176.115C103.241 176.91 105.164 177.905 107.948 176.579C109.736 175.728 113.217 169.548 115.831 164.906C116.474 163.764 117.065 162.715 117.565 161.862L117.543 161.849C118.21 161.498 118.76 160.961 119.07 160.266C119.439 159.439 119.812 158.482 120.142 157.634C120.299 157.23 120.447 156.851 120.58 156.523C121.142 156.076 121.469 155.398 121.469 154.681V152.963L121.114 152.857C121.185 152.205 120.918 151.548 120.175 151.548C119.658 151.548 119.449 151.589 119.119 151.655L119.081 151.662C118.955 151.37 118.569 150.737 117.945 150.837C117.492 150.91 113.881 152.073 113.371 152.744Z" fill="#FDDEBF"/>
<path d="M84.2458 153.648L85.0481 145.154L91.898 147.818L91.3361 154.561L84.2458 153.648Z" fill="#FDDEBF"/>
<path fill-rule="evenodd" clip-rule="evenodd" d="M84.9192 150.822L84.5683 151.523C83.9283 152.107 81.0567 153.323 78.6085 154.177C75.4729 155.27 73.9009 157.117 72.8571 164.647C72.022 170.671 72.5091 174.563 72.8571 175.757L82.6197 178.486L88.8814 179.337H96.2244C95.8789 176.673 96.5992 173.484 97.0267 171.591C97.0997 171.267 97.1642 170.982 97.2133 170.744C101.095 169.681 103.334 166.858 103.473 165.533C103.473 165.533 103.473 165.533 103.474 165.534C103.473 165.533 103.473 165.533 103.473 165.533C103.473 165.532 103.473 165.532 103.473 165.532C103.473 165.532 103.472 165.531 103.472 165.531C101.436 162.558 96.2592 156.062 91.8264 153.846C91.7908 153.828 91.7555 153.811 91.7204 153.794L91.2824 153.319L84.9192 150.822Z" fill="#FAAF49"/>
<path d="M95.7647 142.325C96.2566 146.884 95.3528 150.064 91.6586 150.254C88.2555 150.43 85.7712 147.802 85.2288 143.853C84.6864 139.905 86.6858 136.369 89.6944 135.956C96.5811 133.821 95.2223 138.377 95.7647 142.325Z" fill="#FDDEBF"/>
<circle cx="94.8465" cy="141.849" r="0.307265" transform="rotate(-7.82153 94.8465 141.849)" fill="#11243E"/>
<path d="M93.6611 142.937C93.788 142.937 93.9074 142.951 94.0196 142.975C95.2047 143.227 95.0188 145.013 93.8071 145.014C93.4461 145.015 93.0993 144.938 92.858 144.804C92.1865 144.431 92.3938 142.93 93.6611 142.937Z" fill="#FEB7A1"/>
<path d="M94.1371 141.029C94.2877 140.867 94.5908 140.727 94.9064 140.752" stroke="#11243E" stroke-width="0.159404" stroke-linecap="round"/>
<path d="M87.0416 147.805C90.2341 147.404 90.2715 143.782 90.169 142.125C90.169 141.945 90.1763 141.772 90.1901 141.607C90.4243 138.795 94.0724 138.05 95.8632 135.87C96.7595 134.778 96.5657 133.897 96.3152 133.313C95.9003 132.346 93.6964 133.46 93.4371 132.898C93.1778 132.336 92.4777 131.602 91.9332 132.639C91.3887 133.676 90.169 131.576 89.1069 131.602C88.0449 131.628 87.8107 132.384 87.0416 133.46C86.2726 134.537 84.3244 133.255 83.1965 134.281C82.0686 135.306 82.7904 140.026 82.996 141.844C83.2469 144.062 83.5599 148.241 87.0416 147.805Z" fill="#11243E"/>
<circle cx="89.5531" cy="142.664" r="1.38073" transform="rotate(-7.82153 89.5531 142.664)" fill="#FDDEBF"/>
<path d="M89.913 142.98C89.8188 142.772 89.5611 142.265 88.8857 142.212" stroke="#E9B986" stroke-width="0.36911" stroke-linecap="round"/>
<path d="M89.453 142.476C89.331 142.546 89.1429 142.63 89.0465 142.986" stroke="#E9B986" stroke-width="0.36911" stroke-linecap="round"/>
<path d="M89.0146 149.099C90.6047 150.335 91.5335 150.258 91.703 150.258L91.6165 151.249C90.171 150.345 89.2797 149.439 89.0146 149.099Z" fill="#E4A566"/>
<path d="M91.1624 152.199C89.6881 151.037 86.7825 150.119 84.9246 149.669C84.5717 149.583 84.207 149.752 84.0619 150.085C83.721 150.867 83.4732 151.728 83.4942 152.133C86.9886 152.352 90.6527 153.499 91.8848 154.035C91.8848 153.339 91.7089 152.63 91.1624 152.199Z" fill="#FFDA57"/>
<path d="M69.82 165.31C68.8497 168.717 70.4607 174.723 71.7421 178.321L91.7021 183.939C91.0121 179.158 87.8405 169.472 84.0138 165.31C80.2423 161.208 71.0593 160.957 69.82 165.31Z" fill="#11243E"/>
<path d="M120.724 157.183C120.445 157.121 119.999 156.455 120.007 156.294L119.58 154.362L120.127 153.57C120.326 153.615 120.828 153.732 121.246 153.84C121.768 153.976 121.942 155.425 121.868 156.294C121.793 157.163 121.072 157.26 120.724 157.183Z" fill="#FDDEBF"/>
<path d="M121.961 152.973C121.283 152.474 118.607 152.83 118.393 152.973L119.535 155.756C120.248 155.578 121.732 155.164 121.961 154.935C122.246 154.65 122.639 153.473 121.961 152.973Z" fill="#FDDEBF"/>
<mask id="mask10_213_10364" style="mask-type:alpha" maskUnits="userSpaceOnUse" x="108" y="149" width="20" height="9">
<path d="M124.299 150.087L115.615 153.059L108.951 155.511L109.586 157.603L125.327 151.785L127.03 149.878L124.299 150.087Z" fill="#2D3CE4"/>
</mask>
<g mask="url(#mask10_213_10364)">
<path d="M126.34 151.295L125.538 149.869L127.41 149.619L126.34 151.295Z" fill="black"/>
<path d="M124.208 149.749L125.327 151.863" stroke="white" stroke-width="0.405393"/>
</g>
<path d="M68.7304 165.131C67.7601 168.539 69.3711 174.545 70.6525 178.142L90.6125 183.761C89.9225 178.98 86.7509 169.294 82.9242 165.131C79.1527 161.029 69.9697 160.779 68.7304 165.131Z" fill="#E8E8E8"/>
</g>
<mask id="mask11_213_10364" style="mask-type:alpha" maskUnits="userSpaceOnUse" x="72" y="150" width="32" height="30">
<path fill-rule="evenodd" clip-rule="evenodd" d="M84.919 150.821L84.5681 151.522C83.928 152.106 81.0564 153.322 78.6082 154.176C75.4727 155.27 73.9007 157.117 72.8568 164.647C72.0218 170.671 72.5089 174.563 72.8568 175.756L82.6194 178.485L88.8812 179.336H96.2241C95.8786 176.673 96.599 173.483 97.0265 171.59C97.0995 171.267 97.1639 170.982 97.2131 170.743C101.095 169.681 103.334 166.858 103.473 165.533C103.473 165.533 103.473 165.533 103.473 165.533C103.473 165.533 103.473 165.533 103.473 165.532C103.473 165.532 103.473 165.532 103.473 165.532C103.472 165.531 103.472 165.531 103.472 165.53C101.435 162.557 96.2587 156.062 91.826 153.845C91.7904 153.828 91.7551 153.81 91.72 153.793L91.2821 153.318L84.919 150.821Z" fill="#FAAF49"/>
</mask>
<g mask="url(#mask11_213_10364)">
<path fill-rule="evenodd" clip-rule="evenodd" d="M97.3425 157.597C98.622 159.484 101.319 163.638 101.873 165.148C101.307 166.05 99.4065 168.181 96.3357 169.49C95.5176 170.601 93.92 171.831 92.7044 172.724C92.4429 172.917 92.2686 173.077 92.1687 173.212L97.0038 173.951C97.2538 173.973 97.4878 174.004 97.6977 174.046L106.467 166.469L102.817 159.233L97.3425 157.597Z" fill="#EDA038"/>
</g>
<path d="M173.414 105.619L207.765 109.048" stroke="#C6CAFF" stroke-width="1.47644" stroke-linecap="round"/>
<path d="M179.336 90.9707L212.999 93.9788" stroke="#C6CAFF" stroke-width="1.47644" stroke-linecap="round"/>
<path d="M189.972 112.662L206.523 114.343" stroke="#C6CAFF" stroke-width="2.21466" stroke-linecap="round"/>
<path d="M188.872 115.493L205.423 117.174" stroke="#C6CAFF" stroke-width="2.21466" stroke-linecap="round"/>
<path d="M188.279 118.324L204.83 120.005" stroke="#C6CAFF" stroke-width="2.21466" stroke-linecap="round"/>
<path d="M138.459 130.354L154.959 132.303" stroke="#D0F6FF" stroke-width="2.21466" stroke-linecap="round"/>
<mask id="mask12_213_10364" style="mask-type:alpha" maskUnits="userSpaceOnUse" x="93" y="150" width="29" height="28">
<path fill-rule="evenodd" clip-rule="evenodd" d="M113.371 152.744C113.138 153.049 112.858 155.159 112.597 157.123C112.511 157.772 112.427 158.404 112.348 158.951L112.234 159.453L105.764 167.844L100.577 162.289L95.2603 164.639L93.8928 167.363C96.1692 170.015 100.974 175.478 101.982 176.114C103.241 176.91 105.164 177.904 107.949 176.578C109.736 175.727 113.217 169.547 115.831 164.906C116.475 163.764 117.065 162.715 117.566 161.861L117.543 161.849C118.21 161.497 118.761 160.96 119.071 160.266C119.44 159.439 119.812 158.482 120.143 157.633L120.143 157.633L120.143 157.633C120.3 157.229 120.447 156.85 120.58 156.522C121.142 156.076 121.47 155.398 121.47 154.68V152.962L121.114 152.857C121.185 152.205 120.918 151.547 120.176 151.547C119.659 151.547 119.45 151.589 119.12 151.654L119.081 151.662C118.956 151.369 118.569 150.737 117.946 150.837C117.492 150.91 113.882 152.073 113.371 152.744Z" fill="#FDDEBF"/>
</mask>
<g mask="url(#mask12_213_10364)">
<path fill-rule="evenodd" clip-rule="evenodd" d="M119.833 158.473C119.462 159.22 118.345 160.898 116.844 161.627C116.214 161.934 115.525 163.036 114.579 164.551C112.762 167.459 109.996 171.885 104.877 175.105L111.357 176.078L109.49 177.923C111.17 177.748 112.896 177.504 114.363 177.26L122.597 159.584L119.833 158.473ZM106.972 178.128L103.198 177.922L102.367 177.233C102.222 178.098 104.289 178.273 106.972 178.128Z" fill="#F2C697" fill-opacity="0.4"/>
</g>
<path d="M139.32 127.443L155.82 129.393" stroke="#D0F6FF" stroke-width="2.21466" stroke-linecap="round"/>
<path d="M140.372 124.558L156.872 126.508" stroke="#D0F6FF" stroke-width="2.21466" stroke-linecap="round"/>
<ellipse cx="211.911" cy="92.0588" rx="0.724136" ry="0.603447" fill="#C6CAFF"/>
<ellipse cx="210.011" cy="91.8843" rx="0.724136" ry="0.603447" fill="#C6CAFF"/>
<ellipse cx="208.11" cy="91.7275" rx="0.724136" ry="0.603447" fill="#C6CAFF"/>
<path d="M168.465 132.346C167.422 131.071 162.614 127.36 160.232 125.741L153.396 130.368C154.31 130.978 156.857 132.385 158.803 133.243C161.235 134.316 162.335 136.345 163.154 136.758C163.808 137.089 164.266 136.743 164.356 136.408C165.467 137.184 166.241 136.071 166.124 135.637C167.242 135.611 167.342 134.497 167.089 134.027C168.101 135.563 170.548 137.523 171.004 136.866C171.721 135.831 169.508 133.622 168.465 132.346Z" fill="#FDDEBF"/>
<path d="M153.627 114.215C153.619 114.557 153.832 115.366 154.747 115.877C155.891 116.514 156.288 117.52 156.294 118.452" stroke="#11243E" stroke-width="0.516754"/>
<path d="M154.876 116.423C153.562 115.708 153.234 114.488 153.235 113.968C152.403 115.046 150.71 117.237 150.587 117.37C150.464 117.504 152.042 118.925 152.846 119.62L156.557 118.81C156.544 118.313 156.189 117.138 154.876 116.423Z" fill="#11243E"/>
<path d="M151.551 107.06C152.25 107.154 152.339 107.873 152.296 108.221C151.728 108.903 150.588 110.296 150.58 110.409C150.572 110.522 149.715 115.54 149.287 118.034L142.586 118.439C142.429 118.248 142.425 117.534 142.695 116.856C143.397 115.095 144.487 116.223 145.097 115.212C145.494 114.555 144.575 114.097 145.013 112.866C145.5 111.495 147.222 112.105 147.656 111.119C147.994 110.352 147.167 109.548 148.129 108.39C148.899 107.464 150.198 107.688 150.752 107.916C150.727 107.591 150.851 106.966 151.551 107.06Z" fill="#11243E"/>
<path d="M161.06 117.596L151.919 117.791L150.084 120.565L153.882 123.316L166.489 122.466L161.06 117.596Z" fill="#FF3969"/>
<path d="M152.23 119.727L152.349 115.033L148.544 113.445L147.725 119.419C149.01 119.906 151.628 119.839 152.23 119.727Z" fill="#FDDEBF"/>
<path d="M154.156 112.334C154.301 114.483 153.093 116.315 151.455 116.426C149.818 116.537 148.373 114.885 148.227 112.737C148.081 110.588 149.29 108.756 150.927 108.645C153.609 108.362 154.01 110.186 154.156 112.334Z" fill="#FDDEBF"/>
<path d="M152.295 117.081L152.32 116.196C151.631 116.374 150.892 116.148 150.473 116.026C150.994 116.47 151.926 116.955 152.295 117.081Z" fill="#E6AD75"/>
<circle cx="152.855" cy="112.479" r="0.149586" transform="rotate(-3.88291 152.855 112.479)" fill="#11243E"/>
<circle cx="151.667" cy="112.438" r="0.149586" transform="rotate(-3.88291 151.667 112.438)" fill="#11243E"/>
<path d="M150.241 113.686C149.865 113.443 150.046 112.579 150.782 112.634C151.621 112.696 151.398 113.995 150.575 113.817C150.446 113.789 150.33 113.744 150.241 113.686Z" fill="#FEB7A1"/>
<path d="M153.322 113.763C152.947 113.52 153.127 112.656 153.863 112.711C154.702 112.773 154.479 114.072 153.657 113.894C153.527 113.866 153.411 113.821 153.322 113.763Z" fill="#FEB7A1"/>
<circle cx="148.054" cy="113.262" r="0.914921" transform="rotate(-3.88291 148.054 113.262)" fill="#FDDEBF"/>
<path d="M148.279 113.488C148.226 113.346 148.079 112.999 147.635 112.933" stroke="#ECB782" stroke-width="0.295288" stroke-linecap="round"/>
<path d="M147.998 113.134C147.914 113.174 147.786 113.221 147.706 113.452" stroke="#ECB782" stroke-width="0.295288" stroke-linecap="round"/>
<mask id="mask13_213_10364" style="mask-type:alpha" maskUnits="userSpaceOnUse" x="150" y="117" width="17" height="7">
<path d="M161.06 117.596L151.919 117.791L150.084 120.565L153.882 123.316L166.489 122.466L161.06 117.596Z" fill="#FF3969"/>
</mask>
<g mask="url(#mask13_213_10364)">
<path d="M157.519 121.665C155.717 121.559 153.762 120.294 152.68 119.477L150.43 119.909L155.001 123.718L167.855 123.288L168.981 122.426L163.084 121.4C161.98 121.532 159.321 121.771 157.519 121.665Z" fill="#E11748"/>
</g>
<path d="M160.225 118.814C160.425 117.576 161.592 116.734 162.831 116.934L180.062 119.714C181.333 119.919 182.18 121.138 181.929 122.402L181.724 123.43C181.485 124.63 180.339 125.425 179.131 125.229L161.939 122.444C160.7 122.244 159.858 121.076 160.059 119.837L160.225 118.814Z" fill="#F09C2A"/>
<path d="M146.403 116.685C148.419 116.964 156.988 122.984 160.825 126.15C161.484 128.877 158.435 132.065 156.134 131.907C152.178 129.85 148.153 127.855 144.359 124.422C139.029 119.6 142.724 116.175 146.403 116.685Z" fill="#FF3969"/>
<rect x="160.48" y="116.234" width="21.6388" height="5.37864" rx="2.27296" transform="rotate(9.20149 160.48 116.234)" fill="#FAAF49"/>
<path d="M163.153 120.071L176.361 122.335" stroke="white" stroke-width="1.47644" stroke-linecap="round"/>
<path d="M163.55 118.452L176.758 120.716" stroke="white" stroke-width="1.47644" stroke-linecap="round"/>
<path d="M153.39 111.098C151.154 111.049 150.141 109.87 150.145 109.343C151.016 107.943 152.726 107.505 154.367 108.049C156.007 108.594 156.409 111.166 153.39 111.098Z" fill="#11243E"/>
<path d="M147.99 112.337C150.179 112.859 150.747 110.141 150.723 108.817L151.072 108.64L150.049 108.48C149.555 108.826 148.532 109.529 148.384 109.579C148.237 109.629 148.038 111.505 147.99 112.337Z" fill="#11243E"/>
<path d="M171.116 115.104C169.646 114.498 168.515 116.495 168.149 117.465L169.794 117.748C169.665 118.026 169.69 118.018 169.583 118.47C169.326 119.557 170.3 119.56 170.818 119.425C170.915 120.024 171.672 119.894 172.038 119.754C172.393 120.41 173.194 120.097 173.55 119.859C173.713 120.193 173.949 120.368 174.286 120.263C175.685 119.829 176.208 117.564 176.002 116.643C175.836 115.906 174.986 115.884 174.582 115.966C174.101 115.099 173.335 115.293 173.012 115.498C172.435 114.908 171.876 115.191 171.668 115.406C171.517 115.296 171.334 115.194 171.116 115.104Z" fill="#FDDEBF"/>
<path d="M149.992 110.177C149.876 110.621 149.395 111.538 148.407 111.659C147.171 111.811 146.041 112.292 146.194 113.506C146.347 114.721 146.767 115.18 145.241 116.106C144.976 116.268 144.752 116.448 144.562 116.637" stroke="#253F64" stroke-width="0.227296"/>
<path d="M150.01 110.179C149.963 110.635 149.629 111.615 148.671 111.886C147.473 112.225 146.43 112.874 146.768 114.051C147.09 115.174 147.547 115.58 146.398 116.616" stroke="#253F64" stroke-width="0.227296"/>
<mask id="mask14_213_10364" style="mask-type:alpha" maskUnits="userSpaceOnUse" x="205" y="107" width="23" height="57">
<path d="M225.672 148.179C225.51 152.889 225.804 160.49 225.972 163.702L205.733 157.759C206.076 150.401 207.351 132.831 209.706 121.412C212.649 107.138 221.92 104.342 225.672 111.7C229.424 119.057 225.875 142.291 225.672 148.179Z" fill="#FDDEBF"/>
<path d="M226.101 126.882C224.143 127.212 220.004 127.951 219.106 128.267" stroke="#EB996C" stroke-width="2.21466" stroke-linecap="round"/>
<path d="M226.336 129.943C224.379 130.273 220.239 131.012 219.342 131.328" stroke="#EB996C" stroke-width="2.21466" stroke-linecap="round"/>
</mask>
<g mask="url(#mask14_213_10364)">
<path d="M213.794 168.528C207.212 142.027 213.39 113.737 218.124 108.252C214.948 108.656 208.459 109.568 207.905 109.984C207.35 110.4 198.895 136.479 196.527 149.065L213.794 168.528Z" fill="#F9C99A" fill-opacity="0.91"/>
</g>
<path d="M6.98691 103.663C6.83514 108.425 4.01933 109.049 2.93457 109.411C5.77887 109.561 6.98093 113.605 6.98691 115.214C6.98691 111.863 9.39588 109.485 10.8985 109.411C8.4006 108.997 6.92311 105.727 6.98691 103.663Z" fill="#771CC2"/>
<path d="M49.6473 190.69C49.4943 195.492 46.6549 196.121 45.561 196.486C48.4292 196.637 49.6413 200.715 49.6473 202.337C49.6473 198.959 52.0765 196.561 53.5917 196.486C51.0729 196.069 49.583 192.771 49.6473 190.69Z" fill="#43EB8F"/>
<path d="M192.102 138.647L192.707 131.553C192.485 129.486 192.374 125.137 193.005 125.094C194.045 125.022 194.251 126.394 194.31 128.489C194.944 128.474 196.188 128.719 196.095 129.826C196.665 129.816 197.764 130.122 197.598 131.433C198.046 131.44 198.924 131.768 198.852 133.021C198.762 134.589 198.89 135.542 198.135 135.789C198.108 136.372 197.916 137.549 197.362 137.596L196.847 141.058C195.608 140.803 192.924 139.964 192.102 138.647Z" fill="#FDDEBF"/>
<path d="M154.017 162.684C153.448 162.339 154.128 161.116 154.517 160.416L155.658 160.98L154.017 162.684Z" fill="#11243E"/>
<path d="M196.881 209.092L194.927 178.797C202.123 179.887 216.586 184.738 216.869 195.425C217.151 206.111 203.661 208.989 196.881 209.092Z" fill="#11243E"/>
<path d="M168.477 140.216L169.547 182.544C206.028 179.657 215.931 189.89 216.988 196.02L215.086 148.143C206.208 139.265 180.314 139.159 168.477 140.216Z" fill="#E3E2FF"/>
<path d="M168.922 144.575C182.226 142.222 207.522 144.527 214.777 152.164" stroke="#B6A9FF" stroke-width="1.47644" stroke-linecap="round"/>
<path d="M192.316 164.765C194.527 168.047 191.308 172.315 189.643 171.891L186.447 169.06L187.475 165.913C188.402 164.51 190.666 162.315 192.316 164.765Z" fill="#11243E"/>
<path d="M176.31 170.536L173.354 175.982L170.778 181.991C175.82 181.366 177.775 181.589 180.14 181.589L181.629 177.535L183.611 181.673C189.552 181.565 196.663 182.681 198.909 183.261C195.635 176.404 190.25 169.44 187.397 167.819C182.262 170.309 179.082 170.536 176.31 170.536Z" fill="#43EB8F"/>
<path d="M175.881 149.322C175.831 149.779 175.393 150.958 174.044 152.015C172.229 153.438 171.384 155.099 172.494 156.697" stroke="#11243E" stroke-width="0.516754" stroke-linecap="round"/>
<path d="M174.036 152.162C175.226 151.052 175.17 150.371 174.993 150.17L176.052 150.346L177.871 155.565L172.525 155.845C172.533 155.08 172.846 153.273 174.036 152.162Z" fill="#11243E"/>
<path d="M181.883 149.244C181.881 149.158 181.948 149.087 182.034 149.085C182.12 149.082 182.191 149.15 182.193 149.235L181.883 149.244ZM184.844 152.233L184.915 152.095L184.844 152.233ZM182.193 149.235C182.199 149.471 182.143 149.78 182.434 150.234C182.732 150.698 183.402 151.32 184.915 152.095L184.773 152.371C183.242 151.586 182.515 150.933 182.173 150.401C181.826 149.859 181.889 149.451 181.883 149.244L182.193 149.235ZM184.915 152.095C186.622 152.97 187.054 154.56 187.165 156.159L186.856 156.18C186.747 154.616 186.332 153.17 184.773 152.371L184.915 152.095Z" fill="#11243E"/>
<path d="M184.135 152.056C182.359 151.112 181.977 149.585 182.006 149.032L180.615 149.033L180.442 152.755L180.618 156.187L183.962 156.185C184.031 155.622 183.865 155.111 183.671 154.908C184.248 155.272 184.349 155.749 184.466 156.185L187.035 156.183C187.083 155.195 186.083 153.091 184.135 152.056Z" fill="#11243E"/>
<path d="M176.134 155.647L176.359 150.322L180.791 148.815L181.26 155.645C179.766 156.097 176.807 155.819 176.134 155.647Z" fill="#FDDEBF"/>
<path d="M174.521 147.126C174.191 149.548 175.419 151.716 177.265 151.967C179.111 152.219 180.875 150.459 181.205 148.037C181.535 145.615 180.307 143.447 178.461 143.195C175.445 142.668 174.851 144.703 174.521 147.126Z" fill="#FDDEBF"/>
<path d="M176.263 152.645L176.304 151.641C177.07 151.896 177.924 151.697 178.408 151.59C177.784 152.053 176.692 152.53 176.263 152.645Z" fill="#E6AD75"/>
<path d="M176.752 147.939C176.565 147.971 176.194 148.092 176.258 148.31C176.316 148.511 176.578 148.473 176.684 148.435" stroke="#11243E" stroke-width="0.310042" stroke-linecap="round"/>
<circle r="0.169814" transform="matrix(-0.990832 -0.135098 -0.135098 0.990832 177.519 147.587)" fill="#11243E"/>
<circle r="0.169814" transform="matrix(-0.990832 -0.135098 -0.135098 0.990832 176.232 147.412)" fill="#11243E"/>
<path d="M179.848 149.157C180.292 148.91 180.154 147.918 179.316 147.923C178.361 147.929 178.514 149.417 179.459 149.279C179.608 149.257 179.743 149.215 179.848 149.157Z" fill="#FEB7A1"/>
<path d="M175.286 148.953C175.73 148.706 175.592 147.713 174.754 147.719C173.799 147.725 173.952 149.213 174.897 149.075C175.045 149.053 175.181 149.011 175.286 148.953Z" fill="#FEB7A1"/>
<path d="M176.206 146.496C176.047 146.446 175.887 146.424 175.682 146.523" stroke="#11243E" stroke-width="0.310042" stroke-linecap="round"/>
<path d="M178.541 146.79C178.409 146.647 178.144 146.525 177.867 146.547" stroke="#11243E" stroke-width="0.310042" stroke-linecap="round"/>
<path d="M176.756 149.522C176.978 149.525 177.466 149.448 177.645 149.12" stroke="#11243E" stroke-width="0.310042" stroke-linecap="round"/>
<path d="M177.753 143.095C178.011 144.362 178.708 146.659 181.301 147.714" stroke="#11243E" stroke-width="0.516754" stroke-linecap="round"/>
<path d="M180.683 147.361C179.097 146.019 178.01 143.943 177.705 143.058C177.918 142.724 179.319 142.334 180.516 143.441C181.641 144.479 181.888 145.88 181.792 146.941C181.741 147.505 181.115 147.727 180.683 147.361Z" fill="#11243E"/>
<path d="M177.641 143.073C177.435 143.942 176.595 146.148 174.277 147.323" stroke="#11243E" stroke-width="0.516754" stroke-linecap="round"/>
<path d="M174.892 146.691C176.443 145.553 177.459 143.737 177.719 143.097L179.2 143.743C179.425 143.458 179.777 142.907 179.401 142.803C179.002 142.693 176.82 142.068 175.286 143.348C174.31 144.161 173.956 145.245 173.853 146.101C173.781 146.704 174.403 147.05 174.892 146.691Z" fill="#11243E"/>
<mask id="mask15_213_10364" style="mask-type:alpha" maskUnits="userSpaceOnUse" x="180" y="149" width="8" height="8">
<path d="M184.136 152.055C182.359 151.111 181.978 149.585 182.007 149.032L180.616 149.033L180.443 152.755L180.619 156.186L183.962 156.185C184.032 155.622 183.866 155.111 183.672 154.908C184.249 155.272 184.35 155.748 184.467 156.184L187.036 156.183C187.084 155.194 186.084 153.091 184.136 152.055Z" fill="#11243E"/>
</mask>
<g mask="url(#mask15_213_10364)">
<path d="M184.45 152.851C182.407 151.638 181.547 150.056 181.372 149.417L181.123 149.486C181.262 150.208 182.016 152.005 183.926 153.417C185.836 154.828 185.762 156.911 185.487 157.775L186.37 158.175C186.581 156.906 186.492 154.064 184.45 152.851Z" fill="#253F64"/>
</g>
<circle r="1.03864" transform="matrix(-0.990832 -0.135098 -0.135098 0.990832 181.359 148.646)" fill="#FDDEBF"/>
<path d="M181.088 148.883C181.159 148.727 181.352 148.345 181.86 148.305" stroke="#EBB57E" stroke-width="0.310042" stroke-linecap="round"/>
<path d="M181.435 148.505C181.526 148.557 181.668 148.62 181.741 148.888" stroke="#EBB57E" stroke-width="0.310042" stroke-linecap="round"/>
<path d="M180.927 149.626C181.024 150.357 181.106 151.477 183.241 153.931C183.371 154.081 183.493 154.228 183.597 154.379" stroke="#253F64" stroke-width="0.112971" stroke-linecap="round"/>
<path d="M154.896 155.362C155.458 156.536 157.308 158.572 158.163 159.443C157.873 161.308 157.144 164.788 156.554 163.789C155.816 162.541 152.907 160.406 151.865 159.705C150.824 159.004 148.745 158.815 148.807 158.145C148.881 157.337 150.103 157.822 150.508 157.96C149.622 157.162 147.799 156.996 147.93 156.426C148.026 156.009 148.362 155.963 148.559 155.996C147.771 155.813 147.342 155.314 147.646 154.952C147.895 154.655 148.543 154.769 148.836 154.862C148.211 154.319 148.7 153.728 149.824 153.992C151.753 154.445 153.183 155.517 153.656 155.996C153.34 155.333 152.798 153.954 153.153 153.742C153.596 153.477 154.194 153.896 154.896 155.362Z" fill="#FDDEBF"/>
<mask id="mask16_213_10364" style="mask-type:alpha" maskUnits="userSpaceOnUse" x="147" y="153" width="12" height="11">
<path d="M154.896 155.362C155.458 156.536 157.308 158.572 158.163 159.443C157.873 161.308 157.144 164.788 156.554 163.789C155.816 162.541 152.907 160.406 151.866 159.705C150.824 159.004 148.746 158.815 148.807 158.145C148.881 157.337 150.104 157.822 150.508 157.96C149.623 157.162 147.8 156.996 147.93 156.426C148.026 156.009 148.362 155.963 148.559 155.996C147.772 155.813 147.342 155.314 147.646 154.952C147.895 154.655 148.543 154.769 148.836 154.862C148.211 154.319 148.7 153.728 149.824 153.992C151.753 154.445 153.183 155.517 153.657 155.996C153.341 155.333 152.798 153.954 153.153 153.742C153.596 153.477 154.194 153.896 154.896 155.362Z" fill="#FDDEBF"/>
</mask>
<g mask="url(#mask16_213_10364)">
<path d="M152.033 159.298C150.393 158.882 149.107 158.345 148.718 157.995L148.09 158.606L148.946 160.228L155.809 162.62L157.695 159.174C157.611 158.02 157.268 156.078 156.566 157.539C155.69 159.367 154.083 159.818 152.033 159.298Z" fill="#F8CFA4"/>
</g>
<path d="M183.858 170.873C180.148 172.037 176.631 171.494 175.539 170.873C174.543 167.414 173.518 163.549 173.556 162.01C170.765 165.176 167.066 168.537 165.498 168.537C161.047 168.537 156.568 165.168 154.012 162.666C156.088 160.483 156.618 158.857 156.929 158.035L164.069 162.204C164.996 160.853 166.166 159.209 167.532 157.397C169.938 154.207 173.793 153.717 176.119 153.452C176.414 154.183 177.032 155.218 178.856 154.968C180.373 154.761 180.826 153.293 181.029 152.322C181.029 152.101 181.146 151.896 181.339 151.79C183.514 150.592 185.849 150.101 188.254 148.903C189.364 148.351 190.079 147.262 190.34 146.05L192.115 137.813C194.76 139.064 198.227 139.528 199.764 139.064L198.072 147.521C197.424 150.764 195.355 153.546 192.435 155.1L187.648 157.649C189.128 159.199 191.67 163.512 192.45 164.918C187.313 165.964 188.495 169.419 183.858 170.873Z" fill="#FE2257"/>
<path d="M184.459 157.726L181.081 158.696L181.851 161.397L183.072 161.63C183.583 161.727 184.108 161.548 184.453 161.159L185.174 160.345L184.459 157.726Z" fill="#FFE267"/>
<ellipse cx="213.085" cy="148.35" rx="0.620108" ry="0.535003" transform="rotate(29.9167 213.085 148.35)" fill="#B6A9FF"/>
<ellipse cx="211.662" cy="147.487" rx="0.620108" ry="0.535003" transform="rotate(29.9167 211.662 147.487)" fill="#B6A9FF"/>
<ellipse cx="210.054" cy="146.744" rx="0.620108" ry="0.535003" transform="rotate(29.9167 210.054 146.744)" fill="#B6A9FF"/>
<path d="M194.177 128.744C194.604 128.434 195.765 128.33 195.987 129.183C196.041 129.394 196.069 129.599 196.079 129.9M196.079 129.9C196.102 130.569 196.037 132.114 195.987 132.53L196.079 129.9ZM196.079 129.9C196.653 129.828 197.761 130.041 197.601 131.469M197.601 131.469C197.527 132.132 197.433 132.745 197.433 133.12M197.601 131.469C198.048 131.484 198.928 131.834 198.876 133.12C198.812 134.727 198.801 135.741 198.076 135.788C197.351 135.835 197.351 134.686 197.351 134.2" stroke="#F0C291" stroke-width="0.590576"/>
<path d="M195.805 136.105L194.213 134.004C195.005 134.186 196.717 134.497 197.233 134.278C197.878 134.004 197.871 133.164 196.74 132.756C195.835 132.429 194.803 132.201 194.4 132.128" stroke="#F0C291" stroke-width="0.516754" stroke-linecap="round"/>
<mask id="mask17_213_10364" style="mask-type:alpha" maskUnits="userSpaceOnUse" x="170" y="167" width="29" height="17">
<path d="M176.309 170.536L173.353 175.982L170.777 181.991C175.819 181.367 177.774 181.589 180.139 181.589L181.628 177.535L183.61 181.673C189.551 181.565 196.662 182.681 198.908 183.261C195.634 176.404 190.249 169.44 187.396 167.819C182.261 170.309 179.081 170.536 176.309 170.536Z" fill="#43EB8F"/>
</mask>
<g mask="url(#mask17_213_10364)">
<path d="M196.78 183.567C195.754 180.564 189.15 171.73 187.027 168.926L188.081 167.621L198.895 179.581L201.747 184.334C200.188 184.078 197.013 183.567 196.78 183.567Z" fill="#35D37D"/>
<path d="M180.336 177.215C181.084 177.489 181.479 177.537 181.583 177.527L180.741 181.925H177.404C179.1 180.478 180.065 178.182 180.336 177.215Z" fill="#35D37D"/>
</g>
<path d="M29.5288 123.28L35.1287 147.817" stroke="white" stroke-opacity="0.73" stroke-width="8.12043" stroke-linecap="round"/>
<path d="M145.146 180.541C144.281 181.939 143.593 185.843 147.742 186.996" stroke="white" stroke-opacity="0.56" stroke-width="1.47644" stroke-linecap="round"/>
<path d="M154.012 68.8615C154.985 69.4475 155.993 69.9811 156.788 70.806C158.372 72.4498 160.247 73.7654 161.837 75.4009C164.572 78.2125 166.054 82.3693 166.267 86.2528C166.361 87.9534 166.829 90.6155 165.617 92.0081C164.2 93.6361 161.254 92.259 159.987 91.1143C158.808 90.0493 160.381 88.1776 161.179 87.3584C163.194 85.2881 167.539 86.0029 169.655 87.4133C173.191 89.7709 176.887 92.8792 179.386 96.3364" stroke="#CDD1FE" stroke-width="2.21466" stroke-linecap="round" stroke-dasharray="6.64 6.64"/>
<path d="M176.637 173.368C176.37 173.639 175.635 174.661 174.823 176.582" stroke="white" stroke-opacity="0.65" stroke-width="1.47644" stroke-linecap="round"/>
<path d="M148.697 156.052C149.217 156.196 150.322 156.582 151.658 157.448" stroke="#F0C291" stroke-width="0.442932" stroke-linecap="round"/>
<path d="M149.004 154.952C149.525 155.097 150.63 155.482 151.966 156.348" stroke="#F0C291" stroke-width="0.442932" stroke-linecap="round"/>
<path d="M150.8 158.047C150.968 158.11 151.293 158.277 151.524 158.44" stroke="#F0C291" stroke-width="0.442932" stroke-linecap="round"/>
<path d="M152.118 156.052C151.952 156.435 151.611 157.485 151.572 158.616" stroke="#F0C291" stroke-width="0.442932" stroke-linecap="round"/>
<path d="M153.657 156.448C153.556 156.878 153.485 157.88 154.011 158.447" stroke="#F0C291" stroke-width="0.442932" stroke-linecap="round"/>
<path d="M118.434 151.998C117.314 152.391 114.989 153.275 114.65 153.662C114.528 153.802 114.408 154.104 114.299 154.47" stroke="#F0C291" stroke-width="0.590576" stroke-linecap="round"/>
<path d="M119.829 151.565C120.244 151.515 121.086 151.666 121.137 152.662" stroke="#F2C697" stroke-width="0.590576" stroke-linecap="round"/>
<path d="M118.253 153.806C119.21 153.475 121.235 152.83 121.671 152.889C122.216 152.963 122.364 153.36 122.389 153.806" stroke="#F2C697" stroke-width="0.590576" stroke-linecap="round"/>
<path d="M120.609 155.616C120.588 155.953 120.512 156.721 120.377 157.093" stroke="#F2C697" stroke-width="0.590576" stroke-linecap="round"/>
<mask id="mask18_213_10364" style="mask-type:alpha" maskUnits="userSpaceOnUse" x="141" y="116" width="20" height="16">
<path d="M146.403 116.685C148.419 116.964 156.988 122.984 160.825 126.151C161.484 128.877 158.435 132.065 156.134 131.907C152.178 129.85 148.153 127.855 144.359 124.422C139.029 119.6 142.724 116.175 146.403 116.685Z" fill="#E11748"/>
</mask>
<g mask="url(#mask18_213_10364)">
<path d="M155.384 130.598C158.72 129.238 160.175 126.712 160.485 125.619L162.347 125.295L162.59 128.736L156.761 133.918L144.13 127.319L140.568 120.032C143.968 124.566 151.862 128.965 155.384 130.598Z" fill="#E11748"/>
</g>
<path d="M93.0164 164.935C94.3497 166.727 96.836 169.397 97.9125 170.508H97.2093L96.8707 171.107C95.6623 169.836 93.7977 166.463 93.0164 164.935Z" fill="#EDA038"/>
<circle cx="228.272" cy="62.0974" r="5.43489" fill="white" fill-opacity="0.34"/>
<circle cx="215.94" cy="167.047" r="0.547724" fill="white"/>
<path d="M216.947 190.302L216.028 169.733" stroke="white" stroke-width="1.47644" stroke-linecap="round"/>
<path d="M194.148 127.419C194.191 128.115 194.284 129.708 194.318 130.509" stroke="#F0C291" stroke-width="0.590576" stroke-linecap="round"/>
<path d="M170.204 116.542C169.938 117.115 169.446 118.435 169.603 119.131C169.687 119.499 170.18 119.55 170.761 119.466M170.761 119.466C171.017 119.04 171.55 117.832 171.633 116.407M170.761 119.466C170.931 119.692 171.428 120.071 172.057 119.773M172.057 119.773C172.844 119.4 173.228 116.708 173 115.517M172.057 119.773C172.303 120.049 172.946 120.454 173.559 119.866M173.559 119.866C174.325 119.131 174.707 117.608 174.612 116.097M173.559 119.866C173.714 120.159 174.185 120.593 174.826 119.98" stroke="#F0C291" stroke-width="0.590576" stroke-linecap="round"/>
<path d="M165.32 132.216C165.782 132.707 166.454 133.413 167.139 134.118M166.671 130.664C168.698 132.591 171.2 135.668 171.175 136.319C171.15 136.969 170.524 137.194 169.674 136.569C169.263 136.267 168.185 135.194 167.139 134.118M167.139 134.118C167.513 135.362 166.655 135.637 166.18 135.619M163.989 133.735C164.44 134.223 165.757 135.591 166.18 135.619M166.18 135.619C166.148 136.164 165.32 136.939 164.404 136.319M164.404 136.319C164.121 136.127 163.728 135.747 163.328 135.321M164.404 136.319C164.305 136.837 163.799 137.562 162.562 136.319C161.017 134.765 161.259 135.007 160.587 134.335" stroke="#F0C291" stroke-width="0.590576" stroke-linecap="round"/>
<mask id="mask19_213_10364" style="mask-type:alpha" maskUnits="userSpaceOnUse" x="154" y="137" width="46" height="35">
<path d="M183.859 170.874C180.149 172.037 176.631 171.494 175.539 170.874C174.543 167.414 173.519 163.549 173.557 162.01C170.766 165.176 167.066 168.537 165.498 168.537C161.047 168.537 156.568 165.168 154.012 162.666C156.089 160.484 156.619 158.857 156.93 158.035L164.069 162.204C164.996 160.853 166.166 159.209 167.532 157.398C169.938 154.208 173.794 153.717 176.119 153.452C176.415 154.183 177.032 155.218 178.856 154.968C180.374 154.761 180.827 153.293 181.03 152.322C181.03 152.101 181.146 151.897 181.339 151.79C183.515 150.592 185.85 150.101 188.254 148.904C189.365 148.351 190.079 147.263 190.341 146.05L192.116 137.813C194.761 139.064 198.227 139.529 199.764 139.064L198.073 147.521C197.424 150.765 195.355 153.546 192.435 155.101L187.648 157.649C189.128 159.199 191.671 163.512 192.451 164.918C187.314 165.964 188.496 169.419 183.859 170.874Z" fill="#FE2257"/>
</mask>
<g mask="url(#mask19_213_10364)">
<path d="M189.453 163.564C188.845 162.005 186.93 158.464 186.186 156.943L188.224 155.982L194.476 164.753L188.06 170.409L177.415 173.213L173.518 170.409L173.898 169.173C175.378 169.917 183.144 170.945 184.781 168.153C186.186 165.756 189.061 163.735 189.453 163.564Z" fill="#E11748"/>
<path d="M195.055 151.227C196.88 147.872 198.406 141.565 198.94 138.83L200.583 138.45L202.019 140.245C201.552 143.81 200.612 150.998 200.583 151.227C200.554 151.457 195.259 155.631 192.615 157.689H187.733L186.657 156.651C190.441 155.065 194.028 153.115 195.055 151.227Z" fill="#E11748"/>
<path d="M173.554 161.219V162.08V166.022L167.359 169.666L156.99 167.38L152.849 162.842L153.942 161.649C157.078 164.023 163.509 168.175 165.497 167.38C167.484 166.585 171.809 163.074 173.554 161.219Z" fill="#E11748"/>
</g>
<path d="M183.739 159.032L181.57 159.686" stroke="#FAAF49" stroke-opacity="0.79" stroke-width="0.738221" stroke-linecap="round"/>
<path d="M207.543 132.688C207.964 125.135 210.793 109.56 218.737 107.682C228.667 105.335 227.585 124.221 226.611 137.521C225.638 150.821 225.364 169.423 231.802 179.258C234.182 182.895 236.384 187.523 238.121 192.324C234.825 203.611 219.367 226.337 183.901 226.943C178.142 223.334 165.762 214.236 149.748 195.356" stroke="#EB996C" stroke-width="2.21466" stroke-linecap="round"/>
<path d="M178.455 226.572L174.481 229.105L177.074 225.343L178.455 226.572Z" fill="#588DED"/>
<path d="M192.481 216.935L169.284 219.988L174.48 223.999V229.057L177.123 225.685L183.412 230.971L192.481 216.935Z" fill="#E4F1FF"/>
<path d="M174.481 224.002V229.108L177.089 225.701L192.491 216.916L174.481 224.002Z" fill="#ABC7F3"/>
<path d="M123.481 138.544C120.568 133.877 116.605 123.456 121.195 119.991C124.293 117.653 128.89 122.446 132.485 128.7" stroke="#EB996C" stroke-width="2.21466" stroke-linecap="round"/>
<path d="M134.365 123.802C131.736 118.991 127.291 108.022 132.732 104.114" stroke="#EB996C" stroke-width="2.21466" stroke-linecap="round"/>
<path d="M152.331 69.1514L155.645 71.2637L153.483 68.1261L152.331 69.1514Z" fill="#588DED"/>
<path d="M140.633 61.1141L159.979 63.6606L155.646 67.0053V71.2241L153.442 68.4115L148.197 72.8204L140.633 61.1141Z" fill="#E4F1FF"/>
<path d="M155.645 67.008V71.2663L153.47 68.4248L140.625 61.0982L155.645 67.008Z" fill="#ABC7F3"/>
<path d="M140.937 112.691L151.954 83.7635C153.477 79.7624 157.467 77.2546 161.733 77.6165L171.419 78.4383" stroke="white" stroke-opacity="0.33" stroke-width="3.6911" stroke-linecap="round"/>
<path d="M144.841 75.6157L149.159 101.128C137.816 100.357 134.294 106.897 134.491 110.531L129.482 84.306C131.401 77.3466 139.343 75.6157 144.841 75.6157Z" fill="#43EB8F"/>
<ellipse cx="143.681" cy="76.8195" rx="0.889409" ry="0.767344" fill="#D5FFE8"/>
<ellipse cx="141.167" cy="77.174" rx="0.889409" ry="0.767344" fill="#D5FFE8"/>
<ellipse cx="138.653" cy="77.7158" rx="0.889409" ry="0.767344" fill="#D5FFE8"/>
<path d="M132.128 97.7862L129.396 84.3369C129.501 82.5857 131.161 78.5999 136.961 76.6666" stroke="white" stroke-width="1.47644" stroke-linecap="round"/>
<circle cx="132.631" cy="99.9581" r="0.547724" fill="white"/>
<path d="M170.228 192.447L175.003 193.19C179.318 193.861 183.479 191.288 184.805 187.127L184.844 187.004" stroke="white" stroke-opacity="0.33" stroke-width="2.95288" stroke-linecap="round"/>
</svg>
