<svg width="341" height="251" viewBox="0 0 341 251" fill="none" xmlns="http://www.w3.org/2000/svg">
<path d="M106.507 209.461H312.486" stroke="#2D3595" stroke-width="12.4642" stroke-linecap="round"/>
<path d="M323.542 166.149C326.85 134.734 291.859 119.206 282.676 123.268C266.119 137.391 240.212 166.032 238.975 186.813C237.427 212.789 275.89 227.491 278.91 201.152C281.93 174.814 320.283 197.113 323.542 166.149Z" fill="#FF4E9C"/>
<path d="M114.738 38.4082C99.4932 66.0745 125.71 93.9704 135.75 93.7916C156.491 87.2047 191.485 70.8692 200.694 52.1988C212.206 28.8609 182.468 0.379703 169.459 23.4793C156.45 46.5789 129.763 11.1394 114.738 38.4082Z" fill="#FF4E9C"/>
<circle cx="330.677" cy="129.794" r="6.55914" fill="#FF4E9C"/>
<path d="M258.814 9.88568C262.305 9.38529 270.391 11.3833 274.802 23.3784C280.316 38.3723 273.327 43.132 280.015 50.6652C286.703 58.1985 289.329 60.8839 289.052 68.073" stroke="#0A2D4D" stroke-width="0.713882"/>
<path d="M171.166 199.102L163.15 176.305L203.733 172.297L209.52 190.509C210.872 194.762 207.697 199.102 203.235 199.102H171.166Z" fill="#6771E6"/>
<path d="M203.733 174.049L210.604 194.257C211.412 196.634 209.645 199.101 207.135 199.101H169.914" stroke="#4C54BD" stroke-width="4.39683" stroke-linecap="round"/>
<path d="M309.095 52.9779L282.415 177.615C281.981 179.643 280.189 181.092 278.115 181.092H92.0623C89.7246 181.092 87.9847 178.932 88.4822 176.648L115.627 52.0081C116.067 49.9877 117.856 48.5469 119.924 48.5469H305.513C307.845 48.5469 309.584 50.6972 309.095 52.9779Z" fill="#6771E7"/>
<path d="M295.53 66.4322L277.083 149.67C276.636 151.683 274.852 153.115 272.79 153.115H107.419C105.072 153.115 103.331 150.94 103.844 148.65L122.509 65.4101C122.96 63.4024 124.742 61.9753 126.8 61.9753H291.953C294.296 61.9753 296.037 64.1445 295.53 66.4322Z" fill="white"/>
<path d="M203.302 181.117H164.855L166.813 186.619H205.104L203.302 181.117Z" fill="#444CAE" fill-opacity="0.49"/>
<path d="M222.657 38.0953L206.033 103.444C205.562 105.297 206.962 107.098 208.874 107.098H319.647C320.983 107.098 322.15 106.195 322.484 104.901L339.395 39.5523C339.875 37.6965 338.474 35.8867 336.557 35.8867H225.498C224.157 35.8867 222.988 36.7961 222.657 38.0953Z" fill="#D1E4FC"/>
<path d="M236.016 35.2532C235.039 37.7924 233.354 43.0398 228.851 48.5102C223.353 55.1894 230.569 64.5109 234.366 66.4119" stroke="#0A2D4D" stroke-width="0.713882"/>
<path d="M273.487 24.2115C269.165 12.8725 259.054 10.4777 254.538 10.6977C254.355 11.7689 248.703 10.7785 247.062 10.8663C241.883 11.1436 237.046 14.862 234.705 19.1425C229.525 28.616 239.923 32.5774 232.266 45.3073C226.14 55.4912 231.857 63.9789 234.705 65.8186L287.866 76.3064C290.954 69.1872 290.567 61.6581 281.295 53.7233C272.023 45.7884 278.89 38.3851 273.487 24.2115Z" fill="#0B2F4E"/>
<path d="M213.918 93.5466C219.227 71.8369 240.225 59.7557 250.059 56.4287C250.794 58.6741 252.234 63.4009 252.116 64.3448C251.998 65.2887 232.108 84.206 222.177 93.5466H213.918Z" fill="#FDD21B"/>
<path d="M249.673 59.1049L251.633 47.6876L265.826 38.5325L270.53 58.2075L274.242 60.7104L275.433 64.6461L268.659 69.1119L258.146 69.2707L251.722 66.9473L245.272 65.0977L245.945 61.1793C247.862 60.7344 247.522 59.5442 249.673 59.1049Z" fill="#FDDEBF"/>
<path d="M140.452 87.2368H255.163" stroke="#B9C0FF" stroke-width="4.39683" stroke-linecap="round"/>
<path d="M136.046 100.516H250.757" stroke="#B9C0FF" stroke-width="4.39683" stroke-linecap="round"/>
<path d="M132.656 113.037H247.367" stroke="#B9C0FF" stroke-width="4.39683" stroke-linecap="round"/>
<path d="M129.882 126.732H244.593" stroke="#B9C0FF" stroke-width="4.39683" stroke-linecap="round"/>
<path fill-rule="evenodd" clip-rule="evenodd" d="M237.761 27.2809C237.289 36.2931 238.436 51.4592 246.423 53.1521C255.144 55.0007 262.149 53.1572 264.065 45.246C267.134 38.1281 266.999 25.9591 263.68 20.6322C260.841 16.074 255.545 14.5788 251.683 14.298C247.063 12.239 242.131 14.2751 238.597 23.3297C238.105 24.5894 237.832 25.9304 237.761 27.2809Z" fill="#FDDEBF"/>
<path d="M260.517 51.0186C256.33 53.4732 252.816 54.1138 250.538 53.7401L249.809 57.9838C256.63 55.175 258.596 52.5929 260.517 51.0186Z" fill="#EBB47E"/>
<path d="M249.263 58.4094C260.005 62.6577 267.528 58.0621 269.811 54.8188C300.346 65.6278 308.924 97.275 310.763 107.099H213.234C220.634 86.3078 241.252 61.1699 249.263 58.4094Z" fill="#FDD21B"/>
<path d="M271.401 105.013H200.013" stroke="#505ACC" stroke-width="3.28855" stroke-linecap="round"/>
<path d="M239.784 73.5134L249.65 104.098L198.021 105.311L188.298 74.4006C188.001 73.4589 188.705 72.5005 189.692 72.5005H238.393C239.027 72.5005 239.589 72.9097 239.784 73.5134Z" fill="#505ACC"/>
<path d="M246.811 21.8446C249.469 20.4642 251.923 15.1639 252.238 13.3264L246.796 12.3924C245.537 12.1761 237.705 20.0195 233.946 23.9682C234.517 27.2549 236.708 35.053 237.315 31.5161C238.236 26.1461 242.026 24.3291 246.811 21.8446Z" fill="#0A2D4D"/>
<path d="M266.306 31.7942C253.809 32.0008 248.727 19.3082 247.051 14.5887C247.663 12.9103 251.709 9.27944 256.9 9.26257C263.389 9.24148 274.467 16.4935 274.873 30.1828C275.199 41.1342 270.704 34.0069 268.416 29.0743L266.306 31.7942Z" fill="#0A2D4D"/>
<circle r="4.09456" transform="matrix(-0.992424 0.122859 0.122859 0.992424 265.271 35.0986)" fill="#FDDEBF"/>
<path d="M263.269 35.9902C263.543 35.1918 264.678 33.4681 267.024 32.9604" stroke="#EBB47E" stroke-width="0.535412" stroke-linecap="round"/>
<path d="M265.141 33.7697C265.779 34.0785 267.091 35.085 267.239 36.6408" stroke="#EBB47E" stroke-width="0.535412" stroke-linecap="round"/>
<path d="M240.264 36.1408C241.637 36.3855 242.521 37.2141 243.051 38.0616C243.656 39.0277 243.428 40.3767 242.372 40.8054C240.846 41.4251 238.692 40.9771 237.658 40.1445C236.252 39.0124 237.333 35.6182 240.264 36.1408Z" fill="#FEB7A1"/>
<path d="M255.146 37.7963C256.541 38.0449 257.41 38.9227 257.906 39.7843C258.396 40.6355 258.212 41.7813 257.323 42.2006C255.855 42.8938 253.674 42.4626 252.647 41.6353C251.299 40.5498 252.335 37.2952 255.146 37.7963Z" fill="#FEB7A1"/>
<path d="M271.401 59.8105C268.718 62.3469 260.55 66.4271 249.346 62.4571" stroke="#FDE46E" stroke-width="1.07082" stroke-linecap="round"/>
<circle r="0.593131" transform="matrix(-1 0 0 1 247.179 61.3693)" fill="#FDE46E"/>
<path d="M39.717 125.693L39.6765 99.2123L61.6304 105.412L61.894 126.41L39.717 125.693Z" fill="#FDDEBF"/>
<path d="M71.9472 87.2918C74.819 101.233 72.9696 111.324 61.6124 113.008C51.1503 114.56 42.6952 107.177 39.8484 95.1385C37.0017 83.1001 42.1302 71.5826 51.3034 69.4134C71.9477 60.7768 69.1005 75.2535 71.9472 87.2918Z" fill="#FDDEBF"/>
<circle cx="69.0374" cy="86.09" r="0.954031" transform="rotate(-13.3045 69.0374 86.09)" fill="#11243E"/>
<path d="M65.6967 89.7992C67.3612 89.6485 68.68 90.2505 69.6352 91.0322C70.9863 92.138 71.1699 94.2783 69.7015 95.2227C67.9529 96.3474 65.2856 96.4693 63.7695 95.808C61.5842 94.8548 61.7791 90.154 65.6967 89.7992Z" fill="#FEB7A1"/>
<path d="M66.5348 83.7735C66.9521 83.2273 67.8473 82.704 68.83 82.6873" stroke="#11243E" stroke-width="0.229678" stroke-linecap="round"/>
<path d="M46.6217 106.809C56.3665 104.625 55.408 93.4234 54.5996 88.3322C54.25 84.6907 54.9585 81.9297 56.0437 79.9219C57.9769 76.3453 62.1968 74.8116 65.4055 72.3148C73.477 66.0342 72.3134 61.7291 70.9758 59.2856C69.4072 56.4199 62.9282 60.5166 61.9605 58.8574C60.9927 57.1981 58.6119 55.1363 57.2371 58.5023C55.8624 61.8682 51.4711 55.7409 48.1974 56.136C44.9237 56.5311 44.4243 58.9357 42.3676 62.4902C40.3109 66.0446 33.9116 62.6624 30.7309 66.1649C27.5502 69.6674 31.1801 84.0381 32.3543 89.5919C33.7873 96.3705 35.9938 109.191 46.6217 106.809Z" fill="#11243E"/>
<circle cx="52.8518" cy="90.1806" r="4.28555" transform="rotate(-13.3045 52.8518 90.1806)" fill="#FDDEBF"/>
<path d="M54.0618 91.0533C53.709 90.4375 52.7623 88.9481 50.6589 88.9834" stroke="#E9B986" stroke-width="0.531835" stroke-linecap="round"/>
<path d="M52.4915 89.6329C52.1353 89.8859 51.5788 90.2015 51.3865 91.3288" stroke="#E9B986" stroke-width="0.531835" stroke-linecap="round"/>
<path d="M53.0996 110.22C58.3786 113.567 61.2257 113.056 61.7495 113.005L61.776 116.092C57.0421 113.729 54.0193 111.193 53.0996 110.22Z" fill="#E4A566"/>
<path d="M84.3971 129.361C61.227 113.554 41.5012 120.504 27.4939 130.07C16.8084 137.367 10.5898 149.568 8.91565 162.399C5.2534 190.466 7.14792 212.791 11.3429 232.921C11.8349 235.282 13.9391 236.943 16.3505 236.924L96.0482 236.325C97.5311 236.313 98.7721 235.196 98.9388 233.723L100.632 218.752L81.2241 189.83C85.5555 194.798 104.819 181.262 113.04 171.026C105.301 151.993 96.8275 137.841 84.3971 129.361Z" fill="#43EB8F"/>
<path d="M101.844 38.1449L94.311 70.0775C93.9854 71.4578 95.0325 72.7807 96.4507 72.7807H140.522C141.892 72.7807 143.08 71.8314 143.382 70.4947L150.585 38.569C150.896 37.1942 149.85 35.8867 148.441 35.8867H104.697C103.337 35.8867 102.156 36.8216 101.844 38.1449Z" fill="#DEEDFF"/>
<path d="M108.536 45.0338L104.252 63.1904C103.927 64.5707 104.974 65.8936 106.392 65.8936H132.095C133.466 65.8936 134.653 64.9442 134.955 63.6076L139.05 45.4579C139.36 44.0831 138.315 42.7756 136.906 42.7756H111.389C110.029 42.7756 108.848 43.7106 108.536 45.0338Z" fill="#A2ABFA"/>
<path d="M193.336 90.2922L188.381 74.4896C188.085 73.5456 188.79 72.5854 189.779 72.5854H219.199" stroke="#43EB8F" stroke-width="1.24577" stroke-linecap="round"/>
<circle cx="221.866" cy="72.5005" r="0.806444" fill="#43EB8F"/>
<mask id="mask0_213_10141" style="mask-type:alpha" maskUnits="userSpaceOnUse" x="0" y="117" width="114" height="132">
<path d="M84.3963 129.361C60.9664 113.378 36.5926 116.31 19.8476 123.398C7.93157 128.441 1.29957 140.605 0.430222 153.515C-1.95501 188.936 6.09824 227.684 11.7825 248.056H97.2917L100.631 218.752L81.2233 189.831C94.8835 186.85 104.818 181.262 113.039 171.027C105.301 151.994 96.8267 137.841 84.3963 129.361Z" fill="#43EB8F"/>
</mask>
<g mask="url(#mask0_213_10141)">
<path d="M71.8015 175.602C77.1665 185.632 80.3545 189.306 81.2779 189.889L101.98 212.341C106.888 225.462 113.381 247.796 100.085 232.168C86.7887 216.539 75.6892 187.945 71.8015 175.602Z" fill="#32DA7E"/>
</g>
<path d="M112.844 170.606L123.74 193.298C131.671 186.402 148.302 170.852 151.377 163.823C155.221 155.037 162.254 147.324 166.168 148.363C170.083 149.401 159.138 155.591 162.653 159.707C166.168 163.823 179.834 151.377 181.04 153.387C181.84 154.721 177.804 158.363 174.609 160.864C176.885 159.19 179.925 157.189 181.24 157.865C183.378 158.964 176.508 164.571 174.25 166.175C174.832 165.772 177.615 164.369 178.297 165.381C178.958 166.364 175.493 169.392 174.107 170.132C174.67 169.881 175.831 170.891 174.221 172.147C172.18 173.739 163.358 174.083 160.545 182.321C157.732 190.559 151.905 213.264 128.396 229.339C112.8 240.002 91.819 211.452 80.0901 188.885C86.5312 187.218 103.407 182.289 112.844 170.606Z" fill="#FDDEBF"/>
<mask id="mask1_213_10141" style="mask-type:alpha" maskUnits="userSpaceOnUse" x="80" y="148" width="102" height="84">
<path d="M112.844 170.606L123.74 193.298C131.671 186.402 148.302 170.852 151.377 163.823C155.221 155.037 162.254 147.324 166.168 148.363C170.083 149.401 159.138 155.591 162.653 159.707C166.168 163.823 179.834 151.377 181.04 153.387C181.84 154.721 177.804 158.363 174.609 160.864C176.885 159.19 179.925 157.189 181.24 157.865C183.378 158.964 176.508 164.571 174.25 166.175C174.832 165.772 177.615 164.369 178.297 165.381C178.958 166.364 175.493 169.392 174.107 170.132C174.67 169.881 175.831 170.891 174.221 172.147C172.18 173.739 163.358 174.083 160.545 182.321C157.732 190.559 151.905 213.264 128.396 229.339C112.8 240.002 91.819 211.452 80.0901 188.885C86.5312 187.218 103.407 182.289 112.844 170.606Z" fill="#FDDEBF"/>
</mask>
<g mask="url(#mask1_213_10141)">
<path d="M125.697 222.503C108.975 227.738 90.1319 200.691 82.8007 186.513L76.0754 187.967L73.3489 206.144L111.156 232.318L134.785 233.772L161.868 211.779L154.052 204.144C151.568 208.083 142.419 217.268 125.697 222.503Z" fill="#EBB47E" fill-opacity="0.32"/>
</g>
<path d="M110.611 44.7097L119.248 53.0735C119.942 53.7452 120.993 53.8857 121.839 53.4196L137.645 44.7097" stroke="white" stroke-width="1.46561" stroke-linecap="round"/>
<path d="M125.992 51.8555L134.791 59.7076" stroke="white" stroke-width="1.46561" stroke-linecap="round"/>
<path d="M116.436 51.6057L106.79 59.6443" stroke="white" stroke-width="1.46561" stroke-linecap="round"/>
<ellipse cx="197.184" cy="243.523" rx="78.6902" ry="6.56532" fill="#C7CBF6"/>
</svg>
