<svg width="100" height="100" viewBox="0 0 100 100" fill="none" xmlns="http://www.w3.org/2000/svg">
<path d="M50 87.5C54.9246 87.5 59.8009 86.53 64.3506 84.6455C68.9003 82.7609 73.0343 79.9987 76.5165 76.5165C79.9987 73.0343 82.7609 68.9003 84.6455 64.3506C86.53 59.8009 87.5 54.9246 87.5 50C87.5 45.0754 86.53 40.1991 84.6455 35.6494C82.7609 31.0997 79.9987 26.9657 76.5165 23.4835C73.0343 20.0013 68.9003 17.2391 64.3506 15.3545C59.8009 13.47 54.9246 12.5 50 12.5C40.0544 12.5 30.5161 16.4509 23.4835 23.4835C16.4509 30.5161 12.5 40.0544 12.5 50C12.5 59.9456 16.4509 69.4839 23.4835 76.5165C30.5161 83.5491 40.0544 87.5 50 87.5V87.5Z" stroke="#FF4F9C" stroke-width="3" stroke-linecap="round" stroke-linejoin="round"/>
<path d="M37.5 41.6667H37.5444" stroke="#FF4F9C" stroke-width="5" stroke-linecap="round" stroke-linejoin="round"/>
<path d="M62.5 41.6667H62.5444" stroke="#FF4F9C" stroke-width="5" stroke-linecap="round" stroke-linejoin="round"/>
<path d="M40.3225 62.9033C41.584 61.3714 43.0897 60.1543 44.7514 59.3234C46.4131 58.4926 48.1975 58.0646 49.9999 58.0646C51.8024 58.0646 53.5867 58.4926 55.2485 59.3234C56.9102 60.1543 58.4159 61.3714 59.6773 62.9033" stroke="#FF4F9C" stroke-width="3" stroke-linecap="round" stroke-linejoin="round"/>
</svg>
