<svg width="38" height="38" viewBox="0 0 38 38" fill="none" xmlns="http://www.w3.org/2000/svg">
<path d="M34.7352 8.3125H30.875V30.875C30.875 31.5049 31.1252 32.109 31.5706 32.5544C32.016 32.9998 32.6201 33.25 33.25 33.25C33.8799 33.25 34.484 32.9998 34.9294 32.5544C35.3748 32.109 35.625 31.5049 35.625 30.875V9.20233C35.6246 8.96619 35.5305 8.73986 35.3633 8.57303C35.1962 8.4062 34.9697 8.3125 34.7336 8.3125H34.7352Z" fill="#505ACC"/>
<path d="M31.9992 35.4587C30.9944 35.1834 30.1079 34.5857 29.4757 33.7576C28.8435 32.9296 28.5008 31.9168 28.5 30.875V3.26483C28.4996 3.02869 28.4055 2.80236 28.2384 2.63553C28.0712 2.4687 27.8447 2.375 27.6086 2.375H3.26642C3.03028 2.37542 2.80395 2.46952 2.63712 2.63665C2.47029 2.80378 2.37659 3.03027 2.37659 3.26642V31.4687C2.37659 32.5708 2.81426 33.6277 3.59336 34.4071C4.37247 35.1865 5.42922 35.6246 6.53125 35.625H31.977C31.9986 35.6271 32.0202 35.6207 32.0372 35.6072C32.0542 35.5937 32.0654 35.5741 32.0682 35.5526C32.0711 35.531 32.0655 35.5092 32.0526 35.4917C32.0397 35.4742 32.0206 35.4624 31.9992 35.4587ZM7.125 15.4375V8.3125H14.25V15.4375H7.125ZM23.75 29.6875H7.125V27.3125H23.75V29.6875ZM23.75 24.9375H7.125V22.5625H23.75V24.9375ZM23.75 20.1875H7.125V17.8125H23.75V20.1875ZM23.75 15.4375H16.625V13.0625H23.75V15.4375ZM23.75 10.6875H16.625V8.3125H23.75V10.6875Z" fill="#505ACC"/>
</svg>
