<svg width="17" height="17" viewBox="0 0 17 17" fill="none" xmlns="http://www.w3.org/2000/svg">
<path d="M8.5 0C6.81886 0 5.17547 0.498516 3.77766 1.43251C2.37984 2.3665 1.29037 3.69402 0.647028 5.24719C0.00368289 6.80036 -0.164645 8.50943 0.163329 10.1583C0.491303 11.8071 1.30085 13.3217 2.4896 14.5104C3.67834 15.6992 5.1929 16.5087 6.84174 16.8367C8.49057 17.1646 10.1996 16.9963 11.7528 16.353C13.306 15.7096 14.6335 14.6202 15.5675 13.2223C16.5015 11.8245 17 10.1811 17 8.5C17 6.24566 16.1045 4.08365 14.5104 2.48959C12.9164 0.895533 10.7543 0 8.5 0ZM8.5 15.9375C7.02901 15.9375 5.59104 15.5013 4.36795 14.6841C3.14486 13.8668 2.19158 12.7052 1.62865 11.3462C1.06572 9.98718 0.918436 8.49175 1.20541 7.04902C1.49239 5.60628 2.20074 4.28105 3.2409 3.24089C4.28105 2.20074 5.60629 1.49239 7.04902 1.20541C8.49175 0.918432 9.98719 1.06572 11.3462 1.62865C12.7052 2.19157 13.8668 3.14486 14.6841 4.36795C15.5013 5.59104 15.9375 7.029 15.9375 8.5C15.9375 10.4725 15.1539 12.3643 13.7591 13.7591C12.3643 15.1539 10.4726 15.9375 8.5 15.9375Z" fill="#505ACC"/>
<path d="M8.87207 11.7274L13.1221 7.47735L12.373 6.72829L8.49488 10.6011L4.62207 6.72829L3.87301 7.47735L8.12301 11.7274C8.22254 11.8263 8.35719 11.8818 8.49754 11.8818C8.63789 11.8818 8.77253 11.8263 8.87207 11.7274Z" fill="#505ACC"/>
</svg>
