<svg width="448" height="155" viewBox="0 0 448 155" fill="none" xmlns="http://www.w3.org/2000/svg">
<mask id="mask0_802_1210" style="mask-type:alpha" maskUnits="userSpaceOnUse" x="0" y="0" width="448" height="155">
<path d="M0 31.1784C0 13.959 13.9591 0 31.1784 0H448V154.868H0V31.1784Z" fill="white"/>
</mask>
<g mask="url(#mask0_802_1210)">
<path d="M161.815 62.7508C95.7461 63.9647 50.9242 134.081 36.772 168.987H445.635C434.585 137.369 387.109 88.6433 340.458 125.341C279.173 173.55 244.402 61.2336 161.815 62.7508Z" fill="#EDEFFF" fill-opacity="0.81"/>
<path d="M104.612 -12.8578C86.8782 39.5434 27.844 68.7692 -17.5853 68.7692L-28.7515 0.835659L-12.4391 -18.2194C24.995 -16.6796 112.023 -34.7552 104.612 -12.8578Z" fill="#EDEFFF" fill-opacity="0.81"/>
</g>
<ellipse cx="226.956" cy="127.865" rx="87.8429" ry="5.0166" fill="#979EED"/>
<path d="M213.251 87.2927H172.213" stroke="white" stroke-width="4.33129" stroke-linecap="round"/>
<path d="M213.251 100.701H172.213" stroke="white" stroke-width="4.33129" stroke-linecap="round"/>
<path d="M213.251 114.657H172.213" stroke="white" stroke-width="4.33129" stroke-linecap="round"/>
<path d="M156.736 86.7864C156.736 89.4544 154.371 91.7006 151.345 91.7006C148.319 91.7006 145.954 89.4544 145.954 86.7864C145.954 84.1184 148.319 81.8723 151.345 81.8723C154.371 81.8723 156.736 84.1184 156.736 86.7864Z" fill="white" stroke="white" stroke-width="1.20314"/>
<path d="M156.616 100.701C156.616 103.293 154.314 105.495 151.345 105.495C148.376 105.495 146.074 103.293 146.074 100.701C146.074 98.1087 148.376 95.9072 151.345 95.9072C154.314 95.9072 156.616 98.1087 156.616 100.701Z" stroke="white" stroke-width="1.44376"/>
<path d="M156.616 114.657C156.616 117.249 154.314 119.45 151.345 119.45C148.376 119.45 146.074 117.249 146.074 114.657C146.074 112.064 148.376 109.863 151.345 109.863C154.314 109.863 156.616 112.064 156.616 114.657Z" stroke="white" stroke-width="1.44376"/>
<path d="M157.337 82.9967L150.736 88.9578L146.626 85.7481" stroke="#505ACC" stroke-width="2.21046" stroke-linecap="round"/>
<rect x="139.113" y="19.5266" width="175.686" height="107.278" rx="7.13998" fill="#0A2D4D"/>
<rect x="147.544" y="23.4515" width="153.822" height="99.4289" fill="#CCD0FF"/>
<ellipse cx="308.013" cy="73.1663" rx="4.89045" ry="4.50099" fill="#E7F0F4" fill-opacity="0.1"/>
<mask id="mask1_802_1210" style="mask-type:alpha" maskUnits="userSpaceOnUse" x="147" y="23" width="155" height="100">
<rect x="147.545" y="23.4537" width="153.822" height="99.4289" fill="#DCDFFF"/>
</mask>
<g mask="url(#mask1_802_1210)">
<path d="M304.193 54.5125H148.241H139.724V18.5897H304.193V54.5125Z" fill="#EAECFF"/>
</g>
<ellipse cx="280.112" cy="38.9039" rx="12.1578" ry="11.1896" fill="#43EA8E"/>
<path fill-rule="evenodd" clip-rule="evenodd" d="M270.884 44.267C271.544 41.006 274.195 38.3892 277.631 37.5246C278.122 38.3195 279.049 38.8557 280.113 38.8557C281.177 38.8557 282.105 38.3196 282.595 37.5248C286.031 38.3895 288.68 41.0053 289.341 44.2652C287.523 47.2263 284.071 49.2252 280.112 49.2252C276.154 49.2252 272.702 47.2271 270.884 44.267Z" fill="#505ACC"/>
<ellipse cx="280.112" cy="36.2649" rx="2.29765" ry="2.11467" fill="#FDDEBF"/>
<path d="M341.561 82.7302C341.184 93.6178 334.188 95.0451 331.493 95.8719C338.56 96.216 341.546 105.463 341.561 109.141C341.561 101.48 347.546 96.0417 351.279 95.8719C345.073 94.9265 341.402 87.4478 341.561 82.7302Z" fill="#FBD535"/>
<rect x="110.731" y="44.6268" width="147.073" height="44.3309" rx="3.8973" fill="#FF4F9C"/>
<path d="M197.642 44.6267H253.907C256.059 44.6267 257.804 46.3716 257.804 48.524V66.7921" stroke="white" stroke-width="1.94865" stroke-linecap="round"/>
<ellipse cx="192.939" cy="44.6269" rx="1.17256" ry="1.07918" fill="white"/>
<path d="M241.281 59.3948L227.58 71.7669L219.05 65.1052" stroke="#FBD535" stroke-width="4.83205" stroke-linecap="round"/>
<path d="M130.746 62.7355H175.424M201.295 62.7355H184.13" stroke="white" stroke-width="3.8973" stroke-linecap="round"/>
<path d="M130.746 71.767H151.374M201.295 71.767H164.054" stroke="white" stroke-width="3.8973" stroke-linecap="round"/>
</svg>
