<svg width="448" height="146" viewBox="0 0 448 146" fill="none" xmlns="http://www.w3.org/2000/svg">
<ellipse cx="285.462" cy="126.855" rx="53.7158" ry="3.70813" fill="#B0B7FF"/>
<mask id="mask0_802_1174" style="mask-type:alpha" maskUnits="userSpaceOnUse" x="0" y="0" width="448" height="146">
<path d="M0 29.2254C0 13.0847 13.0847 0 29.2254 0H448V145.167H0V29.2254Z" fill="white"/>
</mask>
<g mask="url(#mask0_802_1174)">
<path d="M157.346 88.4204C106.073 141.813 8.83057 125.28 -17.6256 88.4204L-38.3594 -14.736L99.8453 -7.53378C183.634 -10.468 397.925 -16.0163 370.47 -14.736C336.15 -13.1356 214.403 29.005 157.346 88.4204Z" fill="#EDEFFF" fill-opacity="0.85"/>
</g>
<rect x="215.41" y="16.6836" width="146.215" height="97.4642" rx="6.85403" fill="#586CD4"/>
<path fill-rule="evenodd" clip-rule="evenodd" d="M339.178 79.8986H314.87V58.9275C328.295 58.9277 339.178 68.3167 339.178 79.8986Z" fill="#D3D7FF"/>
<path fill-rule="evenodd" clip-rule="evenodd" d="M313.042 62.9979C301.252 62.9983 291.695 71.2436 291.695 81.4146C291.695 91.5858 301.253 99.8312 313.043 99.8312C324.833 99.8312 334.39 91.5858 334.39 81.4146C334.39 81.4141 334.39 81.4136 334.39 81.4131H313.042V62.9979Z" fill="#B0B7FF"/>
<path d="M270.503 50.6602H341.385" stroke="white" stroke-width="2.97008" stroke-linecap="round"/>
<path d="M270.503 43.5614H341.385" stroke="white" stroke-width="2.97008" stroke-linecap="round"/>
<path d="M270.503 36.3453H341.385" stroke="white" stroke-width="2.97008" stroke-linecap="round"/>
<path d="M270.503 29.5396H341.385" stroke="white" stroke-width="2.97008" stroke-linecap="round"/>
<rect x="231.746" y="38.0317" width="6.26346" height="14.2293" fill="#D3D7FF"/>
<rect x="241.203" y="33.8766" width="6.26346" height="18.3839" fill="#D3D7FF"/>
<rect x="250.66" y="27.8035" width="6.26346" height="24.4566" fill="#FF71AF"/>
<path d="M278.123 73.9724H262.028" stroke="white" stroke-width="2.97008" stroke-linecap="round"/>
<path d="M278.123 79.3793H262.028" stroke="white" stroke-width="2.97008" stroke-linecap="round"/>
<path d="M278.123 84.6378H262.028" stroke="white" stroke-width="2.97008" stroke-linecap="round"/>
<path d="M248.229 78.6787C247.314 78.0857 240.137 82.7652 237.674 84.8084C238.289 85.7534 240.175 88.4846 241.089 87.3199C242.233 85.8641 250.892 80.405 248.229 78.6787Z" fill="#FDDEBF"/>
<path d="M142.883 73.788L140.824 59.891L121.717 48.7667L122.655 75.0553L142.883 73.788Z" fill="#FDDEBF"/>
<path d="M151.471 41.4327C149.989 32.5161 145.098 26.4902 140.935 26.4902C122.797 24.6095 122.085 39.3429 121.82 46.309C121.555 53.2751 129.762 61.4023 139.822 61.6345C149.881 61.8667 153.324 52.5785 151.471 41.4327Z" fill="#FDDEBF"/>
<path d="M127.103 54.19C135.353 52.9075 134.946 44.774 134.448 41.0658C134.169 36.5721 136.361 34.0101 138.244 32.8259C139.161 32.2495 140.218 31.908 141.184 31.4167C151.265 26.2914 150.371 22.5781 149.21 20.5506C147.996 18.4293 142.417 21.1955 141.665 19.9654C140.912 18.7354 138.988 17.171 137.716 19.5643C136.444 21.9576 132.978 17.3903 130.219 17.5762C127.459 17.762 126.955 19.4866 125.105 21.9954C123.254 24.5043 118.007 21.8618 115.216 24.2987C112.424 26.7356 114.96 37.2438 115.748 41.2978C116.709 46.2459 118.106 55.5888 127.103 54.19Z" fill="#11243E"/>
<ellipse cx="133.524" cy="42.3657" rx="3.87594" ry="3.34382" fill="#FDDEBF"/>
<path d="M225.617 90.6334C222.287 92.357 215.366 93.9796 212.322 94.5755L217.813 106.096C220.866 105.378 227.679 103.654 230.509 102.505C234.046 101.069 243.829 103.044 244.661 96.0332C245.494 89.0229 240.957 86.6565 238.644 84.6778C234.783 81.3755 229.779 88.4788 225.617 90.6334Z" fill="#FDDEBF"/>
<path d="M131.316 60.4711C134.627 61.8239 139.206 61.8264 141.081 61.6585L141.335 63.7785C137.188 63.087 132.928 61.2854 131.316 60.4711Z" fill="#EBB47E"/>
<path fill-rule="evenodd" clip-rule="evenodd" d="M163.612 78.7458C172.688 85.0867 181.822 91.4678 203.715 91.5929C209.98 91.6287 215.704 91.3092 220.873 90.7512L227.954 106.553C215.587 111.146 189.246 116.891 162.487 112.737L164.108 128.2C164.334 130.357 162.643 132.234 160.474 132.234L153.293 132.234L137.072 132.234L94.9308 132.234C92.8745 132.234 91.2162 130.535 91.3493 128.483C92.3838 112.537 97.1446 99.6668 103.378 87.6754C111.772 71.5283 123.255 66.1772 132.467 66.2904C138.53 66.2904 142.549 67.7685 143.801 68.5075C152.393 70.9082 157.991 74.8193 163.612 78.7458Z" fill="#43EB8F"/>
<path d="M170.477 113.713C157.063 112.809 147.544 107.766 142.736 104.705C140.98 103.587 140.315 101.362 141.149 99.4547C142.078 97.333 143.062 95.2829 143.5 94.4009C164.855 113.713 204.28 110.934 221.88 108.572C201.307 114.444 184.901 114.685 170.477 113.713Z" fill="#33DF81"/>
</svg>
