<svg width="448" height="155" viewBox="0 0 448 155" fill="none" xmlns="http://www.w3.org/2000/svg">
<mask id="mask0_1002_12" style="mask-type:alpha" maskUnits="userSpaceOnUse" x="0" y="0" width="448" height="155">
<path d="M0 31.1784C0 13.959 13.9591 0 31.1784 0H448V154.868H0V31.1784Z" fill="white"/>
</mask>
<g mask="url(#mask0_1002_12)">
<path d="M161.815 62.7508C95.7461 63.9647 50.9242 134.081 36.772 168.987H445.635C434.585 137.369 387.109 88.6433 340.458 125.341C279.173 173.55 244.402 61.2336 161.815 62.7508Z" fill="#EDEFFF" fill-opacity="0.81"/>
<path d="M104.612 -12.8578C86.8782 39.5434 27.844 68.7692 -17.5853 68.7692L-28.7515 0.835659L-12.4391 -18.2194C24.995 -16.6796 112.023 -34.7552 104.612 -12.8578Z" fill="#EDEFFF" fill-opacity="0.81"/>
</g>
<path d="M124.09 107.457C147.59 123.371 168.646 106.11 179.041 98.0662C172.399 79.8838 168.843 46.3403 157.592 36.277C137.854 18.6224 111.832 40.2616 120.524 54.6674C129.215 69.0732 101.268 92.003 124.09 107.457Z" fill="#FDD21B"/>
<path d="M325.563 42.0001C303.822 14.2519 261.213 26.9488 256.555 37.0001C253.471 60.6006 254.103 103.346 269.295 121C288.286 143.068 332.963 126.447 314.946 103C296.93 79.5529 346.991 69.3498 325.563 42.0001Z" fill="#FDD21B"/>
<rect x="154.637" y="22" width="106.165" height="86" rx="3.64916" fill="#D3D7FF"/>
<path d="M145.083 65.8659V129.134C145.083 132.926 148.156 136 151.948 136H264.553C268.345 136 271.419 132.926 271.419 129.134V74.7369C271.419 73.2253 270.193 72 268.682 72H201.438C200.703 72 199.998 71.704 199.483 71.1787L188.353 59.8213C187.839 59.296 187.134 59 186.399 59H151.948C148.156 59 145.083 62.074 145.083 65.8659Z" fill="#FF4F9C"/>
<ellipse cx="273.011" cy="77.5" rx="21.7638" ry="20.5" fill="#354BBC"/>
<ellipse cx="270.888" cy="76.5" rx="21.7638" ry="20.5" fill="#586CD4"/>
<path d="M282.035 70L268.233 83L259.74 76" stroke="white" stroke-width="4.66282" stroke-linecap="round"/>
<path d="M244.877 56H202.411" stroke="white" stroke-width="3.6618" stroke-linecap="round"/>
<path d="M171.624 46H218.336M244.877 46H228.953" stroke="white" stroke-width="3.6618" stroke-linecap="round"/>
<ellipse cx="103.678" cy="64" rx="11.6781" ry="10" fill="#FFD35A"/>
<mask id="mask1_1002_12" style="mask-type:alpha" maskUnits="userSpaceOnUse" x="145" y="59" width="127" height="77">
<path d="M145.083 65.8659V129.134C145.083 132.926 148.156 136 151.948 136H264.553C268.345 136 271.419 132.926 271.419 129.134V74.7369C271.419 73.2253 270.193 72 268.682 72H201.438C200.703 72 199.998 71.704 199.483 71.1787L188.353 59.8213C187.839 59.296 187.134 59 186.399 59H151.948C148.156 59 145.083 62.074 145.083 65.8659Z" fill="#FF4F9C"/>
</mask>
<g mask="url(#mask1_1002_12)">
<path d="M279.912 115C253.901 128.95 173.369 129.969 136.589 129V143C136.589 145.906 276.107 147 279.912 147C283.717 147 312.425 97.5619 279.912 115Z" fill="#EF247D"/>
</g>
<path d="M156.761 73V95" stroke="white" stroke-opacity="0.19" stroke-width="6.86588" stroke-linecap="round"/>
<path d="M170.562 37H245.939" stroke="white" stroke-width="3.6618" stroke-linecap="round"/>
</svg>
