<svg width="449" height="155" viewBox="0 0 449 155" fill="none" xmlns="http://www.w3.org/2000/svg">
<rect width="448.278" height="154.868" rx="16" fill="white"/>
<mask id="mask0_1001_11" style="mask-type:alpha" maskUnits="userSpaceOnUse" x="0" y="0" width="411" height="155">
<path d="M0 31.3442C0 14.2045 13.8945 0.310059 31.0342 0.310059H410.415V154.868H31.0341C13.8944 154.868 0 140.973 0 123.834V31.3442Z" fill="white"/>
</mask>
<g mask="url(#mask0_1001_11)">
<path d="M-24.0076 89.3191C84.9443 91.9202 132.358 28.2696 142.446 -3.88076L-24.0076 -23.3881C-69.4042 13.0972 -132.959 86.718 -24.0076 89.3191Z" fill="#E2E5FF" fill-opacity="0.53"/>
<path d="M145.689 86.0685C80.837 83.4675 43.7269 139.171 33.2783 167.347H402.936C433.2 51.3888 314.305 -16.8846 267.827 -12.5497C221.35 -8.21486 226.754 89.3197 145.689 86.0685Z" fill="#EDEFFF" fill-opacity="0.81"/>
</g>
<ellipse cx="257.52" cy="129.803" rx="30.133" ry="1.87699" fill="#B0B7FF"/>
<ellipse cx="227.469" cy="22.7577" rx="4.84815" ry="4.45322" fill="#E2E5FF"/>
<rect x="197.338" y="34.1434" width="103.379" height="81.5236" rx="3.46237" fill="#FDD21B"/>
<path fill-rule="evenodd" clip-rule="evenodd" d="M211.71 38.8349C212.028 44.2624 212.468 51.7649 219.062 60.431C222.284 64.6661 222.04 68.9166 219.783 72.0866H217.982C218.28 71.0503 218.419 69.8647 218.062 68.0149C217.969 68.3429 217.895 68.6838 217.819 69.0373C217.619 69.9683 217.399 70.9867 216.748 72.0866H197.338L200.449 45.7761C202.315 42.873 206.122 36.9674 206.421 36.5693C206.524 36.4319 206.949 36.0861 207.502 35.6359C208.553 34.7814 210.066 33.5508 210.717 32.6545C211.438 34.1938 211.561 36.2854 211.71 38.8349Z" fill="#11243E"/>
<path d="M287.653 52.3716H253.569" stroke="white" stroke-width="3.90867" stroke-linecap="round"/>
<path d="M287.653 64.4714H253.569" stroke="white" stroke-width="3.90867" stroke-linecap="round"/>
<path d="M287.653 77.0659H253.569" stroke="white" stroke-width="3.90867" stroke-linecap="round"/>
<path fill-rule="evenodd" clip-rule="evenodd" d="M168.68 39.4875C168.616 44.7968 168.527 52.0503 161.34 60.2077C157.289 64.8063 158.572 69.2234 159.633 72.0858H167.865C167.72 70.2359 167.82 68.2014 168.536 66.6806C168.536 67.9326 168.782 70.1044 169.566 72.0858H182.243L179.132 45.7753C177.266 42.8722 173.459 36.9666 173.16 36.5684C173.057 36.4304 172.698 36.1825 172.233 35.8604C171.355 35.2535 170.097 34.3835 169.447 33.4894C168.735 35.0083 168.71 37.0416 168.68 39.4875Z" fill="#11243E"/>
<path d="M177.526 62.4141C171.596 53.6751 172.517 37.3323 173.297 30.3098C177.588 24.0673 179.164 21.5081 193.599 20.7279C208.034 19.9476 207.87 38.7411 205.919 53.9564C203.969 69.1717 184.938 73.3378 177.526 62.4141Z" fill="#FDDEBF"/>
<path d="M179.846 81.4588V62.8913L201.777 55.7393V81.4588H179.846Z" fill="#FDDEBF"/>
<path d="M183.957 74.9055C158.797 77.2912 143.981 107.622 140.13 127.799C139.713 129.986 141.157 132.058 143.333 132.526C184.333 141.329 223.519 136.832 241.785 132.67C244.059 132.152 245.412 129.865 244.828 127.607C236.627 95.9015 219.489 71.5362 183.957 74.9055Z" fill="#505ACC"/>
<path d="M169.403 46.1502C180.641 42.4041 190.554 29.8423 194.107 24.0297C195.667 20.8542 192.373 15.2218 180.536 19.6748C166.42 24.9853 168.003 39.261 169.403 46.1502Z" fill="#11243E"/>
<path d="M208.707 41.5385C199.822 37.5968 195.024 27.9703 193.411 22.9487C188.058 22.9487 180.564 22.3271 193.411 19.8402C210.789 16.4764 215.671 44.6278 208.707 41.5385Z" fill="#11243E"/>
<path d="M201.806 63.1455C197.412 68.7954 183.857 67.9335 179.818 65.0408V69.1798C187.682 69.8561 198.437 69.7157 201.806 63.1455Z" fill="#EBB47E"/>
<path d="M201.734 75.7395C194.219 80.3007 184.01 77.4604 179.818 75.5599C180.725 74.7646 182.71 73.3447 183.079 73.271C183.447 73.1973 195.625 72.1608 201.734 71.6389V75.7395Z" fill="#FDDEBF"/>
<path d="M190.918 102.167C189.094 93.7745 182.758 80.9318 179.818 75.5596C190.857 79.9197 198.234 78.0471 201.783 75.7143C197.647 79.3629 192.945 94.8181 190.918 102.167Z" fill="#6F79EA"/>
<circle cx="236.236" cy="64.4709" r="4.32609" stroke="white" stroke-width="1.30289"/>
<circle cx="236.236" cy="77.0653" r="4.32609" stroke="white" stroke-width="1.30289"/>
<path d="M241.214 48.4938L235.731 53.8732L232.317 50.9767" stroke="#505ACC" stroke-width="2.08894" stroke-linecap="round"/>
<path d="M132.102 69.4491C131.661 83.2871 123.478 85.1012 120.325 86.152C128.591 86.5894 132.085 98.3417 132.102 103.017C132.102 93.2796 139.103 86.3679 143.47 86.152C136.211 84.9504 131.917 75.4452 132.102 69.4491Z" fill="#FF4F9C"/>
</svg>
