<svg width="115" height="85" viewBox="0 0 115 85" fill="none" xmlns="http://www.w3.org/2000/svg">
<circle cx="38.0001" cy="38" r="36.1463" fill="#F5F3FF"/>
<circle cx="38" cy="38" r="33.6905" stroke="#444CAE" stroke-width="8.6189"/>
<circle cx="38.0001" cy="38.0001" r="30.1079" stroke="#ACB4FF" stroke-width="4.66233"/>
<path d="M38 12.0488V17.6098" stroke="#444CAE" stroke-width="3.10822" stroke-linecap="round"/>
<path d="M38 58.3903V63.9512" stroke="#444CAE" stroke-width="3.10822" stroke-linecap="round"/>
<path d="M59.3171 38L64.8781 38" stroke="#444CAE" stroke-width="3.10822" stroke-linecap="round"/>
<path d="M55.32 22.7453L57.4104 20.8288" stroke="#444CAE" stroke-width="3.10822" stroke-linecap="round"/>
<path d="M21.0547 22.3253L19.0128 20.2659" stroke="#444CAE" stroke-width="3.10822" stroke-linecap="round"/>
<path d="M55.5212 56.6995L53.4362 54.9694" stroke="#444CAE" stroke-width="3.10822" stroke-linecap="round"/>
<path d="M19.7323 55.8317L21.6279 54.1331" stroke="#444CAE" stroke-width="3.10822" stroke-linecap="round"/>
<path d="M11.1221 38L16.683 38" stroke="#444CAE" stroke-width="3.10822" stroke-linecap="round"/>
<path d="M38 23.1708V39.8537L44.4878 27.6696" stroke="#444CAE" stroke-width="3.10822" stroke-linecap="round"/>
<circle cx="38.4634" cy="38.4634" r="3.2439" fill="#ACB4FF"/>
<path d="M105.659 48.1951L78.6885 74.9878C78.1133 75.5593 77.1955 75.5925 76.5805 75.0641L60.2439 61.0286" stroke="#FFD35A" stroke-width="17.2631" stroke-linecap="round"/>
<path d="M53.7561 59.6429C54.0519 58.175 55.4373 55.8419 58.0554 54.9994C60.7928 54.1186 63.5166 55.9205 65.7517 57.7298L72.2927 63.0244" stroke="white" stroke-width="1.55411" stroke-linecap="round"/>
</svg>
