<svg width="114" height="75" viewBox="0 0 114 75" fill="none" xmlns="http://www.w3.org/2000/svg">
<ellipse cx="86.0601" cy="70.1159" rx="18.9019" ry="1.1774" fill="#B0B7FF"/>
<ellipse cx="67.2101" cy="2.96798" rx="3.04115" ry="2.79342" fill="#E2E5FF"/>
<rect x="48.3091" y="10.11" width="64.8478" height="51.1382" rx="3.46237" fill="#FDD21B"/>
<path fill-rule="evenodd" clip-rule="evenodd" d="M57.3246 13.053C57.5241 16.4575 57.8 21.1637 61.9359 26.5998C63.9571 29.2564 63.8045 31.9226 62.3883 33.9112H61.2593C61.4463 33.2611 61.5334 32.5174 61.3095 31.357C61.2509 31.5628 61.2049 31.7766 61.1571 31.9984C61.0313 32.5824 60.8938 33.2212 60.4854 33.9112H48.3093L50.2604 17.4071C51.4311 15.586 53.8192 11.8815 54.0065 11.6318C54.0712 11.5456 54.3378 11.3287 54.685 11.0463C55.3439 10.5103 56.2929 9.73838 56.7017 9.17615C57.1539 10.1417 57.2308 11.4537 57.3246 13.053Z" fill="#11243E"/>
<path d="M104.962 21.5444H83.5815" stroke="white" stroke-width="3.90867" stroke-linecap="round"/>
<path d="M104.962 29.1343H83.5815" stroke="white" stroke-width="3.90867" stroke-linecap="round"/>
<path d="M104.962 37.0347H83.5815" stroke="white" stroke-width="3.90867" stroke-linecap="round"/>
<path fill-rule="evenodd" clip-rule="evenodd" d="M30.3325 13.4626C30.2918 16.793 30.2362 21.343 25.728 26.46C23.1866 29.3446 23.9914 32.1154 24.657 33.9109H29.8211C29.7299 32.7505 29.7929 31.4744 30.2417 30.5205C30.2417 31.3058 30.396 32.6681 30.8881 33.9109H38.8398L36.8887 17.4068C35.718 15.5857 33.3299 11.8812 33.1426 11.6315C33.0776 11.5449 32.8527 11.3894 32.5606 11.1874C32.0101 10.8067 31.2209 10.2609 30.8131 9.70007C30.3668 10.6529 30.3512 11.9283 30.3325 13.4626Z" fill="#11243E"/>
<path d="M35.8808 27.844C32.161 22.3622 32.7389 12.1107 33.2283 7.70561C35.9197 3.78983 36.9085 2.1845 45.9633 1.69505C55.0181 1.2056 54.915 12.9944 53.6913 22.5387C52.4677 32.083 40.5304 34.6963 35.8808 27.844Z" fill="#FDDEBF"/>
<path d="M37.3367 39.79V28.1429L51.0941 23.6566V39.79H37.3367Z" fill="#FDDEBF"/>
<path d="M39.9151 35.6792C24.7161 37.1204 15.5349 54.8195 12.7191 67.4303C12.2341 69.6027 13.6819 71.679 15.8633 72.1222C39.9751 77.0205 62.8868 74.6995 74.6688 72.2448C76.9522 71.7691 78.3179 69.4835 77.6963 67.2354C72.4016 48.0864 61.6387 33.6193 39.9151 35.6792Z" fill="#6795DE"/>
<path d="M30.7859 17.6417C37.8353 15.2919 44.054 7.41216 46.2822 3.76601C47.2613 1.77406 45.1947 -1.75901 37.7698 1.03428C28.9152 4.36542 29.9081 13.3203 30.7859 17.6417Z" fill="#11243E"/>
<path d="M55.4404 14.7487C49.8671 12.2762 46.8575 6.23768 45.8454 3.08772C42.4876 3.08772 37.7867 2.69779 45.8454 1.13784C56.746 -0.972232 59.8085 16.6866 55.4404 14.7487Z" fill="#11243E"/>
<path d="M51.1121 28.3024C48.3556 31.8464 39.8529 31.3058 37.3196 29.4913V32.0876C42.2523 32.5118 48.9984 32.4237 51.1121 28.3024Z" fill="#EBB47E"/>
<path d="M51.0671 36.2029C46.3529 39.0641 39.949 37.2824 37.3196 36.0903C37.8883 35.5914 39.1336 34.7007 39.3647 34.6544C39.5958 34.6082 47.2347 33.9581 51.0671 33.6307V36.2029Z" fill="#FDDEBF"/>
<path d="M44.2821 52.7798C43.1378 47.5153 39.1636 39.4594 37.3196 36.0895C44.2438 38.8245 48.8717 37.6498 51.0974 36.1865C48.5033 38.4752 45.5536 48.17 44.2821 52.7798Z" fill="#6F79EA"/>
<circle cx="72.7087" cy="29.1343" r="2.47087" stroke="white" stroke-width="1.30289"/>
<circle cx="72.7087" cy="37.0341" r="2.47087" stroke="white" stroke-width="1.30289"/>
<path d="M75.8311 19.1118L72.3918 22.4863L70.2505 20.6693" stroke="#505ACC" stroke-width="2.08894" stroke-linecap="round"/>
<path d="M7.38752 32.2566C7.11082 40.9369 1.97755 42.0748 0 42.734C5.18522 43.0084 7.3766 50.3804 7.38752 53.3131C7.38752 47.205 11.7791 42.8694 14.5184 42.734C9.96469 41.9802 7.27119 36.0178 7.38752 32.2566Z" fill="#FF4F9C"/>
</svg>
