<svg width="33" height="33" viewBox="0 0 33 33" fill="none" xmlns="http://www.w3.org/2000/svg">
<path d="M32.0209 16.6145V16.662C32.0138 19.7537 31.091 22.7741 29.369 25.3418C27.6469 27.9095 25.2028 29.9095 22.3451 31.0894C19.4874 32.2693 16.3442 32.5762 13.3122 31.9713C10.2803 31.3664 7.49548 29.8768 5.30931 27.6907C3.12315 25.5045 1.63362 22.7197 1.02873 19.6878C0.423836 16.6558 0.730701 13.5126 1.91059 10.6549C3.09048 7.79719 5.0905 5.35306 7.65822 3.63101C10.2259 1.90896 13.2463 0.986173 16.338 0.979126H16.3855C16.7813 0.979126 17.1336 0.979126 17.5096 1.02267C18.1195 1.06521 18.7262 1.14452 19.3265 1.26017C20.0584 1.39962 20.7793 1.59143 21.4838 1.83413C23.6573 2.7082 25.6328 4.01055 27.2927 5.66367C28.9526 7.3168 30.2631 9.28693 31.1461 11.4568C31.4008 12.1783 31.6006 12.918 31.7438 13.6695C31.8594 14.2765 31.9387 14.8898 31.9813 15.5062C32.0209 15.8743 32.0209 16.2464 32.0209 16.6145Z" fill="#E74C3C"/>
<path d="M17.2102 8.90011C15.8327 8.85261 11.914 9.12574 11.914 13.852C11.914 16.6466 13.1846 17.8697 14.4829 18.3922L11.4588 24.0843C11.4435 24.1152 11.4363 24.1494 11.4377 24.1838C11.4391 24.2183 11.4491 24.2518 11.4668 24.2813C11.4846 24.3109 11.5094 24.3355 11.5391 24.3529C11.5688 24.3704 11.6025 24.3801 11.6369 24.3812H13.1371C13.1746 24.3806 13.2113 24.3701 13.2433 24.3506C13.2753 24.3311 13.3015 24.3034 13.3192 24.2703L16.2009 18.7287C16.5204 18.7444 16.8407 18.7351 17.1588 18.7009V24.2426C17.1588 24.2962 17.18 24.3475 17.2179 24.3854C17.2558 24.4232 17.3071 24.4445 17.3607 24.4445H18.5244C18.5779 24.4445 18.6293 24.4232 18.6672 24.3854C18.705 24.3475 18.7263 24.2962 18.7263 24.2426V9.10199C18.7263 9.04845 18.705 8.9971 18.6672 8.95924C18.6293 8.92138 18.5779 8.90011 18.5244 8.90011H17.2102ZM13.5963 13.9232C13.5963 9.90553 16.4463 10.0837 17.1588 10.1905V17.4105C15.9436 17.5332 13.5963 17.3274 13.5963 13.9232Z" fill="white"/>
</svg>
