<svg width="196" height="143" viewBox="0 0 196 143" fill="none" xmlns="http://www.w3.org/2000/svg">
<path d="M124.466 2.10947L119.5 3.5C137.271 20.4657 168.713 51.1132 171.5 52C175.299 52.7844 180.169 52.7017 184.532 52.13C191.824 51.1743 197.062 42.1607 195.014 35.0972C191.509 23.01 180.089 19.5348 168.429 14.7983L139.248 2.94442C134.549 1.03571 129.35 0.742013 124.466 2.10947Z" fill="#FFB525"/>
<path d="M95.2055 34.773L99.5 36C76.1443 58.2972 31.663 98.8345 28 100C24.6227 100.909 20.8325 101.035 17.1666 100.657C5.87128 99.4925 -1.95918 84.7236 2.14967 74.1379C7.33457 60.7799 19.5516 57.5288 32.9144 52.3561L76.0868 35.6439C82.1948 33.2794 88.9078 32.9737 95.2055 34.773Z" fill="#FFB525"/>
<path d="M138.5 47.5C137.834 47.8729 135.121 48.1697 133.967 48.3028L139.758 38.4504L143.952 39.8484C142.255 42.5112 139.166 47.1271 138.5 47.5Z" fill="#FFB525"/>
<path d="M75.5001 94C76.3751 94.4901 79.6321 94.634 81.1487 94.8088L73.5372 81.8604L68.0255 83.6976C70.2564 87.1972 74.6252 93.5099 75.5001 94Z" fill="#FFB525"/>
<path d="M113.485 10.3874C110.759 25.3089 124.066 33.3435 131.061 35.4956L169.884 51.7251C177.742 55.0103 190.51 53.3194 192.026 44.9379C195.138 27.744 174.189 20.7677 158.08 14.0011L142.748 7.56124C132.002 3.04769 115.58 -1.07786 113.485 10.3874Z" fill="#FDD21B"/>
<path d="M108.067 44.9766C111.65 64.5872 94.1601 75.1467 84.9675 77.9751L33.9444 99.3049C23.6162 103.623 6.83672 101.4 4.84319 90.3848C0.753632 67.7876 28.2856 58.6189 49.4579 49.7258L69.6076 41.2623C83.7301 35.3303 105.314 29.9083 108.067 44.9766Z" fill="#FDD21B"/>
<path d="M130.577 34.6038L130.579 34.6154C130.893 34.8006 138.348 37.1476 142.188 38.345L135.368 47.607C134.387 48.9402 132.28 48.3891 132.077 46.7461L130.579 34.6154C130.566 34.6077 130.565 34.6038 130.577 34.6038Z" fill="#FDD21B"/>
<path d="M85.6034 76.8059L85.6015 76.8212C85.1885 77.0647 75.3903 80.1492 70.3436 81.7228L79.3066 93.8955C80.5967 95.6476 83.3649 94.9234 83.6317 92.764L85.6015 76.8212C85.6187 76.8111 85.6196 76.8059 85.6034 76.8059Z" fill="#FDD21B"/>
<ellipse cx="152.197" cy="72.3532" rx="32.3067" ry="4.36141" transform="rotate(22.822 152.197 72.3532)" fill="#4A55D0"/>
<ellipse cx="58.276" cy="121.911" rx="35.3185" ry="6.45141" transform="rotate(-24.5762 58.276 121.911)" fill="#4550CF"/>
<path d="M24.447 72.2661L62.7074 55.6411M89.9385 43.8086L72.6008 51.3422" stroke="white" stroke-width="5.2697" stroke-linecap="round"/>
<path d="M24.447 81.3869L49.6489 70.3982M90.0995 52.7605L57.2733 67.0737" stroke="white" stroke-width="5.2697" stroke-linecap="round"/>
<path d="M24.447 90.5665L75.1174 68.3052M90.3142 61.6287L81.0021 65.7198" stroke="white" stroke-width="5.2697" stroke-linecap="round"/>
<path d="M127.365 11.3354L166.619 27.3126" stroke="white" stroke-width="5.2697" stroke-linecap="round"/>
<path d="M127.365 19.3235L150.309 28.662M166.619 35.3007L157.251 31.4877" stroke="white" stroke-width="5.2697" stroke-linecap="round"/>
</svg>
